<?xml version="1.0" standalone="no"?>
<!DOCTYPE svg PUBLIC "-//W3C//DTD SVG 20010904//EN"
 "http://www.w3.org/TR/2001/REC-SVG-20010904/DTD/svg10.dtd">
<svg version="1.0" xmlns="http://www.w3.org/2000/svg"
 width="1000.000000pt" height="1000.000000pt" viewBox="0 0 1000.000000 1000.000000"
 preserveAspectRatio="xMidYMid meet">

<g transform="translate(0.000000,1000.000000) scale(0.100000,-0.100000)"
fill="#000000" stroke="none">
<path d="M940 5000 l0 -4060 4060 0 4060 0 0 4060 0 4060 -4060 0 -4060 0 0
-4060z m3840 3345 l0 -265 -22 -4 c-13 -3 -72 -10 -133 -17 -511 -55 -1040
-269 -1485 -602 -184 -137 -460 -413 -597 -597 -333 -445 -547 -974 -602
-1485 -7 -60 -14 -120 -17 -132 l-4 -23 -265 0 -265 0 0 1695 0 1695 1695 0
1695 0 0 -265z m3830 -1430 l0 -1695 -260 0 -260 0 -4 23 c-3 12 -10 72 -17
132 -44 412 -196 847 -430 1233 -237 391 -617 773 -1011 1015 -376 233 -831
392 -1243 436 -60 7 -120 14 -132 17 l-23 4 0 265 0 265 1690 0 1690 0 0
-1695z m-3830 -495 l0 -1200 -1200 0 -1200 0 0 31 c0 58 31 243 61 366 213
874 855 1580 1703 1872 193 67 469 127 594 130 l42 1 0 -1200z m619 1184 c731
-106 1398 -534 1813 -1162 166 -252 284 -525 357 -825 30 -123 61 -308 61
-366 l0 -31 -1200 0 -1200 0 0 1200 0 1200 31 0 c17 0 79 -7 138 -16z m-3475
-2856 c3 -13 10 -72 17 -133 44 -412 203 -867 436 -1243 242 -394 624 -774
1015 -1011 386 -234 821 -386 1233 -430 61 -7 120 -14 133 -17 l22 -4 0 -260
0 -260 -1695 0 -1695 0 0 1690 0 1690 265 0 265 0 4 -22z m2856 -1178 l0
-1200 -31 0 c-58 0 -243 31 -366 61 -961 234 -1708 981 -1942 1942 -30 123
-61 308 -61 366 l0 31 1200 0 1200 0 0 -1200z m2850 1169 c0 -58 -31 -243 -61
-366 -159 -653 -553 -1212 -1117 -1585 -252 -166 -525 -284 -825 -357 -123
-30 -308 -61 -366 -61 l-31 0 0 1200 0 1200 1200 0 1200 0 0 -31z m980 -1659
l0 -1690 -1690 0 -1690 0 0 260 0 260 23 4 c12 3 72 10 132 17 413 44 865 202
1240 434 394 243 767 616 1010 1010 232 375 390 827 434 1240 7 61 14 120 17
133 l4 22 260 0 260 0 0 -1690z"/>
</g>
</svg>
