<svg xmlns="http://www.w3.org/2000/svg" data-v-fde0c5aa="" viewBox="40 123.51 111.82 52.99">
    <!---->
    <defs data-v-fde0c5aa="">
        <linearGradient data-v-fde0c5aa="" gradientTransform="rotate(25)" id="823c8902-1f07-45cd-bacf-5236adf6c9e4" x1="0%" y1="0%" x2="100%" y2="0%">
            <stop data-v-fde0c5aa="" offset="0%" stop-color="#6A4F4C" stop-opacity="1"/>
            <stop data-v-fde0c5aa="" offset="100%" stop-color="#A0A29B" stop-opacity="1"/>
        </linearGradient>
    </defs>
    <g data-v-fde0c5aa="" id="3649a23b-cf1c-4a23-b9f8-f9341d68e242" stroke="none" fill="url(#823c8902-1f07-45cd-bacf-5236adf6c9e4)" transform="matrix(1.39771781860891,0,0,1.39771781860891,26.022821813910898,80.113866469454)">
        <path d="M90 49H50.521l-8.599-12.285c-2.473-3.533-5.888-5.545-9.615-5.665-3.717-.108-7.264 1.669-9.958 5.038L12.02 49H10v2h39.479l8.6 12.285c2.474 3.533 5.888 5.545 9.615 5.664.117.004.233.006.35.006 3.598-.001 6.998-1.781 9.607-5.043L87.98 51H90v-2zm-75.42 0l9.33-11.663c2.291-2.863 5.242-4.375 8.333-4.288 3.082.099 5.937 1.808 8.04 4.812L48.08 49h-33.5zm61.509 13.662c-2.29 2.863-5.258 4.376-8.331 4.288-3.082-.099-5.938-1.808-8.04-4.812L51.921 51h33.498l-9.33 11.662z"/>
    </g>
</svg>