<?xml version="1.0" standalone="no"?>
<!DOCTYPE svg PUBLIC "-//W3C//DTD SVG 20010904//EN"
 "http://www.w3.org/TR/2001/REC-SVG-20010904/DTD/svg10.dtd">
<svg version="1.0" xmlns="http://www.w3.org/2000/svg"
 width="7047.000000pt" height="1000.000000pt" viewBox="0 0 7047.000000 1000.000000"
 preserveAspectRatio="xMidYMid meet">

<g transform="translate(0.000000,1000.000000) scale(0.100000,-0.100000)"
fill="#000000" stroke="none">
<path d="M940 5000 l0 -4060 4060 0 4060 0 0 4060 0 4060 -4060 0 -4060 0 0
-4060z m3840 3345 l0 -265 -22 -4 c-13 -3 -72 -10 -133 -17 -511 -55 -1040
-269 -1485 -602 -184 -137 -460 -413 -597 -597 -333 -445 -547 -974 -602
-1485 -7 -60 -14 -120 -17 -132 l-4 -23 -265 0 -265 0 0 1695 0 1695 1695 0
1695 0 0 -265z m3830 -1430 l0 -1695 -260 0 -260 0 -4 23 c-3 12 -10 72 -17
132 -44 412 -196 847 -430 1233 -237 391 -617 773 -1011 1015 -376 233 -831
392 -1243 436 -60 7 -120 14 -132 17 l-23 4 0 265 0 265 1690 0 1690 0 0
-1695z m-3830 -495 l0 -1200 -1200 0 -1200 0 0 31 c0 58 31 243 61 366 213
874 855 1580 1703 1872 193 67 469 127 594 130 l42 1 0 -1200z m619 1184 c731
-106 1398 -534 1813 -1162 166 -252 284 -525 357 -825 30 -123 61 -308 61
-366 l0 -31 -1200 0 -1200 0 0 1200 0 1200 31 0 c17 0 79 -7 138 -16z m-3475
-2856 c3 -13 10 -72 17 -133 44 -412 203 -867 436 -1243 242 -394 624 -774
1015 -1011 386 -234 821 -386 1233 -430 61 -7 120 -14 133 -17 l22 -4 0 -260
0 -260 -1695 0 -1695 0 0 1690 0 1690 265 0 265 0 4 -22z m2856 -1178 l0
-1200 -31 0 c-58 0 -243 31 -366 61 -961 234 -1708 981 -1942 1942 -30 123
-61 308 -61 366 l0 31 1200 0 1200 0 0 -1200z m2850 1169 c0 -58 -31 -243 -61
-366 -159 -653 -553 -1212 -1117 -1585 -252 -166 -525 -284 -825 -357 -123
-30 -308 -61 -366 -61 l-31 0 0 1200 0 1200 1200 0 1200 0 0 -31z m980 -1659
l0 -1690 -1690 0 -1690 0 0 260 0 260 23 4 c12 3 72 10 132 17 413 44 865 202
1240 434 394 243 767 616 1010 1010 232 375 390 827 434 1240 7 61 14 120 17
133 l4 22 260 0 260 0 0 -1690z"/>
<path d="M16550 7533 c-155 -24 -281 -106 -337 -221 -39 -80 -45 -220 -13
-305 26 -70 108 -162 178 -200 133 -72 358 -75 494 -6 63 32 145 115 175 178
25 50 28 67 28 161 0 95 -3 111 -29 167 -74 162 -287 259 -496 226z"/>
<path d="M61008 7530 c-234 -42 -371 -205 -355 -418 11 -140 89 -251 220 -313
187 -87 425 -58 569 70 138 123 152 359 31 518 -35 46 -121 101 -192 124 -73
22 -205 32 -273 19z"/>
<path d="M21900 5385 l0 -2055 350 0 349 0 4 848 c3 837 3 848 25 931 90 337
297 578 587 679 121 43 203 55 360 55 232 -1 391 -43 532 -142 178 -125 288
-334 322 -611 7 -53 11 -396 11 -922 l0 -838 350 0 350 0 0 823 c-1 841 -6
1042 -34 1204 -89 508 -377 857 -825 997 -155 49 -248 61 -476 61 -184 0 -223
-3 -314 -23 -183 -41 -313 -97 -471 -201 -107 -70 -276 -238 -358 -355 l-62
-89 0 847 0 846 -350 0 -350 0 0 -2055z"/>
<path d="M52251 6617 c-46 -452 -89 -866 -95 -921 l-11 -98 -54 78 c-232 335
-526 565 -861 673 -174 56 -252 66 -495 65 -238 0 -326 -12 -501 -70 -447
-145 -798 -517 -929 -984 -41 -145 -56 -257 -62 -447 -9 -277 17 -466 94 -687
146 -420 474 -749 883 -887 190 -63 262 -73 520 -73 255 0 330 10 507 69 329
110 623 344 836 664 34 51 58 79 61 70 4 -12 77 -711 76 -731 0 -5 160 -8 355
-8 277 0 355 3 355 13 0 6 -34 356 -76 777 l-76 765 132 1235 c72 679 134
1254 137 1278 l6 42 -359 0 -359 0 -84 -823z m-1090 -776 c232 -52 425 -165
619 -361 148 -150 282 -353 365 -553 l36 -89 -32 -76 c-193 -467 -554 -814
-953 -916 -233 -60 -503 -40 -700 53 -394 185 -605 607 -546 1091 43 353 233
636 525 782 86 43 191 72 330 92 62 9 273 -5 356 -23z"/>
<path d="M13230 7389 c-298 -28 -569 -103 -825 -228 -224 -110 -371 -213 -544
-384 -301 -297 -476 -651 -548 -1109 -25 -158 -25 -518 0 -678 55 -352 181
-660 374 -913 70 -92 247 -271 338 -342 305 -238 653 -383 1085 -450 144 -23
548 -31 722 -15 731 66 1312 396 1648 935 116 186 192 409 234 683 l3 22 -354
0 c-274 0 -355 -3 -358 -12 -2 -7 -15 -56 -29 -108 -133 -484 -542 -802 -1136
-885 -136 -19 -433 -21 -565 -5 -356 44 -638 169 -860 382 -247 235 -379 539
-404 926 -30 486 108 887 404 1170 277 266 637 393 1115 393 249 1 418 -22
610 -83 428 -136 731 -432 836 -818 14 -52 27 -100 29 -107 3 -8 99 -12 352
-15 191 -2 351 -1 354 2 4 3 -2 55 -12 115 -140 822 -853 1418 -1818 1520
-146 16 -506 18 -651 4z"/>
<path d="M33650 5330 l0 -2000 355 0 355 0 0 815 0 815 1255 0 1255 0 0 310 0
310 -1255 0 -1255 0 0 565 0 565 1295 0 1295 0 0 310 0 310 -1650 0 -1650 0 0
-2000z"/>
<path d="M58385 7128 c-3 -7 -68 -197 -145 -422 -77 -225 -141 -410 -142 -411
-2 -1 -131 -34 -288 -74 -157 -40 -302 -77 -322 -82 l-38 -10 0 -154 0 -155
325 0 324 0 4 -802 c3 -717 5 -813 21 -893 97 -496 396 -772 920 -850 135 -20
419 -20 572 0 189 25 437 90 577 152 l57 26 0 283 c0 156 -2 284 -5 284 -2 0
-33 -15 -67 -34 -87 -47 -242 -103 -357 -128 -82 -19 -129 -22 -321 -22 -206
-1 -232 1 -304 22 -177 51 -264 117 -326 245 -74 154 -75 166 -75 987 l0 725
703 3 702 2 0 265 0 265 -705 0 -705 0 0 395 0 395 -200 0 c-151 0 -202 -3
-205 -12z"/>
<path d="M19600 6409 c-449 -57 -852 -323 -1130 -743 l-60 -91 0 388 0 387
-350 0 -350 0 0 -1950 0 -1950 350 0 350 0 2 827 3 826 59 -89 c88 -132 151
-207 273 -325 230 -222 496 -357 804 -410 107 -18 150 -21 319 -16 144 4 220
11 291 26 519 112 910 463 1077 967 117 350 117 820 1 1169 -158 472 -525 820
-996 945 -172 46 -457 63 -643 39z m210 -554 c120 -18 187 -38 275 -82 264
-133 441 -364 511 -668 15 -64 19 -119 18 -275 0 -177 -3 -204 -26 -291 -68
-252 -206 -446 -412 -580 -304 -198 -743 -197 -1089 2 -205 118 -392 304 -527
524 -59 96 -170 328 -170 355 0 12 29 84 65 159 211 438 548 744 920 835 151
37 290 44 435 21z"/>
<path d="M27130 6409 c-430 -48 -848 -252 -1092 -531 -271 -309 -391 -660
-375 -1098 8 -234 48 -409 137 -597 68 -144 146 -257 264 -380 263 -276 597
-445 1026 -519 129 -22 501 -30 656 -15 411 42 818 179 1117 377 l97 65 0 250
c0 137 -2 249 -5 249 -3 0 -45 -25 -93 -56 -237 -151 -540 -263 -887 -325
-165 -30 -530 -33 -680 -5 -387 70 -672 262 -816 547 -36 72 -79 186 -79 209
0 7 425 11 1321 12 l1322 3 -2 95 c-6 302 -75 606 -195 856 -234 487 -652 788
-1193 859 -123 16 -396 18 -523 4z m486 -553 c289 -62 517 -244 640 -510 31
-68 64 -176 64 -210 0 -15 -86 -16 -965 -16 l-965 0 0 23 c0 35 44 158 84 234
140 264 388 436 704 488 107 18 337 13 438 -9z"/>
<path d="M31255 6410 c-236 -37 -475 -164 -636 -338 -109 -118 -217 -298 -285
-471 -24 -62 -29 -70 -34 -50 -4 13 -35 198 -71 412 l-64 387 -348 0 -349 0 6
-27 c4 -16 44 -230 91 -477 l85 -450 0 -1033 0 -1033 350 0 350 0 0 753 c0
456 4 785 10 835 44 348 215 630 472 775 91 52 228 100 335 118 166 28 520 4
696 -47 16 -5 17 14 17 300 0 288 -1 305 -19 311 -109 34 -473 55 -606 35z"/>
<path d="M38835 6408 c-227 -23 -469 -90 -665 -184 -134 -64 -183 -94 -305
-185 -306 -228 -512 -579 -565 -964 -16 -115 -13 -373 4 -490 101 -669 632
-1164 1386 -1294 247 -42 623 -42 870 0 241 41 507 140 692 255 321 201 553
502 652 846 75 262 75 634 0 896 -179 620 -755 1048 -1508 1121 -128 13 -432
12 -561 -1z m498 -543 c419 -55 725 -275 856 -615 102 -263 92 -626 -23 -876
-178 -385 -586 -595 -1110 -571 -323 15 -567 105 -765 283 -119 107 -221 281
-268 459 -24 91 -26 117 -27 290 0 164 3 202 22 278 58 231 170 406 343 537
247 185 601 264 972 215z"/>
<path d="M47130 6405 c-207 -34 -430 -128 -591 -249 -154 -116 -322 -314 -404
-476 l-28 -55 -61 360 -61 360 -348 3 -349 2 6 -27 c3 -16 44 -236 91 -491
l85 -463 0 -1020 0 -1019 352 0 351 0 -6 718 c-8 779 -2 929 37 1084 86 338
327 591 647 677 219 60 481 48 676 -30 275 -109 432 -344 473 -704 6 -53 10
-426 10 -917 l0 -828 345 0 345 0 0 914 c0 954 -3 1027 -45 1209 -58 252 -177
469 -343 629 -173 166 -375 267 -629 314 -121 23 -440 28 -553 9z"/>
<path d="M54715 6409 c-185 -24 -393 -95 -556 -192 -230 -136 -402 -318 -537
-567 -180 -335 -232 -849 -128 -1276 65 -267 200 -508 391 -699 227 -228 513
-365 848 -406 141 -17 424 -6 549 20 401 86 759 340 1004 710 l49 74 6 -54 c4
-30 22 -197 40 -371 l33 -318 358 0 c197 0 358 3 358 8 0 4 -36 344 -80 755
l-80 748 80 748 c44 412 80 752 80 755 0 3 -161 6 -358 6 l-358 0 -33 -322
c-18 -178 -36 -342 -40 -367 l-6 -44 -66 94 c-279 393 -651 632 -1084 694
-109 16 -358 18 -470 4z m630 -564 c430 -90 818 -452 1015 -948 l23 -59 -23
-56 c-219 -538 -627 -896 -1095 -961 -201 -28 -428 5 -590 87 -192 97 -361
278 -445 479 -140 334 -108 770 77 1050 96 144 204 245 354 327 73 40 211 82
309 95 94 12 283 5 375 -14z"/>
<path d="M63565 6408 c-519 -52 -987 -297 -1257 -656 -197 -262 -288 -550
-288 -912 0 -300 58 -533 191 -765 116 -203 305 -396 517 -529 185 -115 451
-214 692 -255 247 -42 623 -42 870 0 754 130 1285 625 1386 1294 17 117 20
375 4 490 -101 729 -710 1252 -1554 1334 -128 13 -432 12 -561 -1z m498 -543
c477 -63 792 -326 899 -752 19 -76 22 -114 22 -278 -1 -172 -3 -199 -27 -290
-32 -122 -109 -277 -180 -365 -123 -151 -336 -284 -537 -334 -264 -66 -597
-58 -835 20 -456 151 -706 529 -682 1033 15 326 139 578 368 750 170 129 343
191 624 224 77 10 245 6 348 -8z"/>
<path d="M67955 6404 c-407 -62 -761 -315 -981 -702 -24 -42 -44 -73 -44 -68
0 12 -110 666 -117 694 l-5 22 -344 0 c-272 0 -344 -3 -344 -13 0 -7 41 -232
90 -500 l90 -488 0 -1010 0 -1009 344 0 345 0 4 828 c3 811 4 829 25 925 75
330 271 575 552 690 259 107 612 96 854 -25 119 -60 236 -180 300 -309 58
-118 93 -253 106 -416 6 -72 10 -464 10 -909 l0 -784 346 0 345 0 -4 958 c-4
928 -4 960 -25 1067 -12 61 -30 139 -40 175 -146 496 -499 801 -1013 875 -130
18 -370 18 -494 -1z"/>
<path d="M16280 4851 l0 -1521 350 0 350 0 0 1521 0 1522 -27 -6 c-16 -3 -94
-18 -176 -33 l-147 -28 -153 28 c-83 15 -162 30 -174 33 l-23 5 0 -1521z"/>
<path d="M60760 4851 l0 -1521 345 0 345 0 0 1521 0 1521 -22 -5 c-13 -3 -92
-18 -175 -33 l-153 -28 -147 28 c-82 15 -158 30 -170 33 l-23 5 0 -1521z"/>
<path d="M41490 5445 c0 -570 4 -942 11 -1003 69 -634 416 -1046 977 -1159
125 -25 483 -25 599 0 387 83 703 320 901 675 26 46 48 80 49 75 1 -4 28 -163
58 -353 31 -190 58 -346 59 -348 2 -1 158 -1 348 0 l344 3 -87 485 -88 485 0
1023 -1 1022 -345 0 -345 0 0 -753 c0 -474 -4 -794 -11 -863 -35 -352 -196
-632 -447 -779 -95 -56 -198 -91 -327 -110 -298 -45 -566 22 -737 183 -123
117 -195 249 -239 447 -23 99 -23 110 -26 988 l-4 887 -344 0 -345 0 0 -905z"/>
</g>
</svg>
