<svg width="1000" height="1000" viewBox="0 0 1000 1000" fill="none" xmlns="http://www.w3.org/2000/svg">
    <path d="M820.46 827.692C827.712 822.685 837.316 814.727 840.736 806.613C844.156 798.498 844.225 788.698 839.599 781.201C836.777 776.625 832.455 773.175 829.241 768.873C824.88 763.052 822.655 755.427 824.272 748.293C825.889 741.158 831.72 734.994 838.904 733.916C834.327 738.062 837.287 746.862 843.245 748.459C849.203 750.057 855.662 745.441 857.386 739.512C859.111 733.583 856.896 727.046 853.045 722.215C851.34 720.088 849.292 718.148 848.204 715.649C846.878 712.512 847.217 708.918 849.105 706.084C852.633 710.494 860.13 709.397 864.09 705.359C868.049 701.321 869.401 695.481 870.587 689.953C871.175 687.229 871.724 684.25 870.43 681.79C869.45 679.928 867.578 678.723 865.785 677.625C850.399 668.178 831.936 660.681 820.705 645.902C815.962 639.679 812.865 631.967 813.198 624.146C814.178 603.312 836.15 591.806 840.472 572.206C843.343 559.143 834.19 549.549 823.263 544.247C807.583 536.652 780.672 529.674 788.571 506.507C788.862 505.73 789.612 505.22 790.442 505.236C791.273 505.251 792.003 505.788 792.265 506.576C793.042 509.484 794.872 511.999 797.401 513.632C815.629 524.931 841.109 518.228 857.72 532.085C869.656 542.032 876.996 558.29 873.625 573.461C872.576 578.184 870.577 582.653 869.44 587.357C868.304 592.061 868.147 597.285 870.597 601.459C873.047 605.634 878.76 608.094 882.974 605.722C887.188 603.351 887.159 595.687 882.523 594.305C889.227 590.856 897.978 594.305 902.319 600.45C906.661 606.595 907.357 614.68 906.465 622.167C905.573 629.654 903.241 636.867 902.094 644.344C901.114 650.518 901.114 657.202 904.25 662.592C907.386 667.982 914.667 671.333 920.185 668.403C925.702 665.473 925.81 655.487 919.803 653.762C930.387 653.145 938.834 664.052 939.285 674.646C939.736 685.24 934.385 695.226 928.73 704.114C923.076 713.003 916.667 721.99 914.569 732.387C913.462 737.885 913.727 743.991 916.951 748.587C920.175 753.183 926.966 755.447 931.651 752.507C936.335 749.567 936.247 740.825 930.935 738.993C935.541 734.377 943.862 739.434 945.714 745.686C947.566 751.938 945.959 758.74 947.203 765.149C947.831 768.353 950.79 772.068 953.652 770.48C955.52 767.922 955.893 764.566 954.632 761.66C961.698 769.892 961.854 781.897 960.678 792.677C959.502 803.457 957.405 814.707 961.159 824.89" fill="#DC3545"/>
    <path d="M820.695 828.026C834.415 818.588 848.135 804.839 842.824 786.63C840.04 777.105 830.868 771.989 826.918 763.11C821.901 751.899 825.889 737.209 839.129 734.592L838.453 733.416C834.533 737.542 835.679 744.196 840.089 747.597C845.862 752.017 853.868 747.979 856.985 742.295C861.512 734.053 856.514 725.635 851.408 719.246C849.791 717.207 848.557 715.414 848.243 712.797C848.125 711.768 847.871 707.515 849.497 707.397C849.88 707.397 852.045 708.975 852.79 709.201C856.155 710.034 859.716 709.404 862.59 707.466C865.53 705.506 867.49 702.36 868.813 699.116C870.616 694.687 872.88 688.14 871.753 683.329C871.048 680.281 868.696 678.576 866.187 676.988C861.561 674.048 856.71 671.49 851.938 668.825C833.112 658.29 806.858 641.14 815.678 615.611C821.342 599.166 838.757 588.71 841.52 570.962C844.303 553.057 826.82 544.864 813.296 538.965C806.299 535.927 798.792 532.663 793.383 527.107C790.708 524.481 788.879 521.116 788.13 517.444C787.74 515.081 787.786 512.666 788.267 510.319C788.63 508.428 788.679 505.89 792.187 508.134C792.373 508.261 793.51 510.653 793.696 510.907C798.596 517.689 809.7 519.727 817.353 521.011C827.153 522.687 837.316 523.138 846.753 526.627C858.945 531.154 868.264 542.228 872.037 554.547C874.122 561.184 874.305 568.273 872.567 575.009C870.94 581.242 867.892 587.21 868 593.786C868.117 600.881 874.007 610.025 882.308 606.908C888.109 604.733 888.639 595.981 882.857 593.551L883.043 594.962C890.363 591.689 898.586 595.57 902.643 602.087C906.7 608.604 906.68 616.6 905.583 623.813C903.848 635.681 897.312 649.754 902.917 661.514C906.024 668.031 915.657 673.705 922.125 668.07C926.859 663.944 926.202 655.33 920.165 652.988L919.959 654.556C928.329 654.448 934.757 660.71 937.394 668.276C940.334 676.665 937.766 685.71 934.052 693.403C927.554 706.858 915.941 718.393 913.648 733.642C912.257 742.913 916.725 756.329 928.544 754.535C936.384 753.35 939.324 741.697 931.563 738.218L931.729 739.532C935.404 736.464 940.147 738.748 942.891 741.884C945.635 745.02 945.988 749.479 946.067 753.516C946.145 758.338 945.136 764.835 948.262 769.02C949.575 770.774 952.025 772.518 954.269 771.137C957.111 769.373 956.504 763.845 955.622 761.337L954.269 762.13C968.695 780.045 953.818 804.868 960.6 824.988C960.923 825.968 962.452 825.536 962.129 824.576C955.21 803.996 970.263 779.496 955.416 760.974C954.906 760.347 953.789 761.023 954.054 761.768C954.812 763.465 954.903 765.386 954.308 767.148C954.308 769.389 953.002 769.983 950.388 768.932L948.84 767.148C947.164 763.983 947.566 759.759 947.566 756.27C947.566 751.654 947.733 746.539 945.175 742.481C942.039 737.503 935.375 734.249 930.406 738.414C930.222 738.597 930.132 738.855 930.165 739.112C930.198 739.37 930.348 739.597 930.573 739.728C933.807 741.178 934.983 744.902 933.905 748.185C932.503 752.438 927.956 753.712 923.997 752.595C915.393 750.174 913.883 740.208 915.383 732.642C918.009 719.353 927.476 708.926 933.768 697.362C938.756 688.15 942.49 676.929 938.325 666.708C935.189 658.985 928.417 652.929 919.812 653.056C919.423 653.071 919.1 653.364 919.047 653.75C918.994 654.136 919.226 654.505 919.597 654.624C926.3 657.182 923.762 667.315 917.529 668.609C910.062 670.157 904.24 663.248 902.829 656.722C900.31 645.04 906.122 633.025 907.317 621.5C908.15 613.366 907.082 604.096 901.163 597.98C896.263 592.835 888.707 590.817 882.131 593.766C881.445 594.07 881.788 594.962 882.318 595.178C885.503 596.52 886.032 600.705 884.425 603.312C882.367 606.673 877.731 606.438 874.723 604.635C868.911 601.156 868.843 593.512 870.195 587.69C872.155 579.311 875.761 572.01 875.095 563.19C874.115 549.127 865.217 534.819 852.829 527.959C839.737 520.698 824.047 521.893 809.915 518.159C805.828 517.22 801.913 515.646 798.312 513.495C795.372 511.603 794.657 509.173 792.873 506.468C792.314 505.615 792.295 505.096 791.236 504.733C787.316 503.41 786.758 510.172 786.542 512.505C784.22 537.671 821.881 539.171 834.464 553.42C847.047 567.669 835.581 583.712 826.183 595.746C818.343 605.801 810.572 616.806 812.806 630.252C815.746 647.96 832.053 659.27 846.499 667.59C850.419 669.854 854.407 672.01 858.357 674.234C863.511 677.174 870.43 679.722 870.352 686.602C870.101 692.055 868.537 697.366 865.795 702.086C862.473 707.446 854.652 711.112 849.546 705.702C849.404 705.577 849.215 705.519 849.028 705.543C848.84 705.568 848.672 705.672 848.566 705.829C842.745 715.963 854.201 721.735 856.691 730.702C858.651 737.562 855.711 745.902 848.194 747.852C840.677 749.802 833.69 740.57 839.374 734.494C839.581 734.263 839.615 733.925 839.459 733.657C839.303 733.389 838.991 733.252 838.688 733.318C820.617 736.856 819.686 758.632 829.623 770.745C833.298 775.213 837.865 778.898 840.295 784.269C842.707 789.881 843.169 796.14 841.608 802.046C838.884 813.149 829.153 821.068 820.235 827.398C819.843 827.673 820.235 828.378 820.627 828.055L820.695 828.026Z" fill="#DC3545"/>
    <path d="M919.225 640.708L918.676 637.984C918.044 635.625 917.881 633.164 918.196 630.742C919.005 627.386 921.248 624.555 924.331 623C927.378 621.489 930.729 620.692 934.131 620.667C935.122 620.577 936.122 620.687 937.071 620.991C938.054 621.43 938.915 622.103 939.579 622.951C943.686 627.684 944.617 634.319 945.283 640.591C945.557 643.119 945.802 645.785 944.813 648.137C943.009 652.4 937.953 654.085 933.494 655.252C930.988 656.468 927.973 655.761 926.271 653.556C923.625 651.038 920.822 648.215 920.391 644.589" fill="white"/>
    <path d="M920.361 640.708C920.361 637.641 919.381 634.289 920.107 631.261C921.087 627.116 925.007 624.646 928.868 623.617C933.405 622.412 937.423 622.863 939.854 627.282C941.258 630.159 942.159 633.255 942.519 636.436C943.597 643.217 944.117 649.097 936.639 651.851C933.415 653.056 930.103 653.929 927.378 651.459C925.095 649.447 923.384 646.868 922.419 643.982C921.684 641.904 918.156 642.022 918.333 644.53C918.656 649.019 921.939 652.557 925.193 655.457C928.74 658.642 932.327 658.084 936.649 656.712C940.334 655.536 944.215 653.772 946.312 650.342C948.889 646.108 947.811 640.601 947.135 635.975C946.39 630.977 945.028 625.891 941.735 621.932C938.266 617.737 933.464 618.012 928.495 619.139C917.304 621.687 913.884 631.242 918.215 641.287C918.686 642.374 920.332 641.747 920.342 640.708H920.361Z" fill="black"/>
    <path d="M897.145 650.518L896.596 647.794C895.964 645.434 895.801 642.974 896.116 640.552C896.925 637.196 899.168 634.365 902.251 632.81C905.299 631.303 908.65 630.505 912.051 630.477C913.042 630.392 914.041 630.502 914.991 630.801C915.974 631.24 916.835 631.913 917.499 632.761C921.606 637.494 922.537 644.129 923.203 650.401C923.477 652.939 923.722 655.595 922.723 657.947C920.929 662.21 915.863 663.895 911.414 665.061C908.908 666.278 905.893 665.57 904.191 663.366C901.545 660.847 898.742 658.025 898.311 654.399" fill="white"/>
    <path d="M898.281 650.518C898.33 647.451 897.301 644.099 898.027 641.081C899.007 636.926 902.927 634.466 906.788 633.437C911.325 632.222 915.343 632.672 917.774 637.092C919.178 639.972 920.079 643.071 920.439 646.255C921.517 653.027 922.037 658.907 914.559 661.671C911.335 662.866 908.023 663.738 905.298 661.269C903.011 659.261 901.3 656.68 900.339 653.791C899.604 651.724 896.076 651.831 896.253 654.34C896.576 658.829 899.859 662.366 903.113 665.267C906.66 668.462 910.247 667.894 914.569 666.522C918.254 665.346 922.135 663.582 924.232 660.161C926.809 655.918 925.731 650.41 925.055 645.795C924.31 640.787 922.948 635.71 919.655 631.741C916.186 627.557 911.384 627.821 906.415 628.948C895.224 631.506 891.804 641.061 896.135 651.096C896.606 652.194 898.242 651.567 898.262 650.518H898.281Z" fill="black"/>
    <path d="M875.066 660.338L874.517 657.604C873.885 655.244 873.722 652.784 874.037 650.361C874.846 647.005 877.089 644.175 880.172 642.619C883.241 641.102 886.617 640.307 890.04 640.297C891.032 640.207 892.032 640.317 892.98 640.62C893.966 641.056 894.828 641.729 895.489 642.58C899.595 647.314 900.526 653.948 901.193 660.22C901.467 662.758 901.712 665.424 900.712 667.766C898.919 672.029 893.852 673.715 889.403 674.881C886.898 676.098 883.883 675.39 882.181 673.186C879.535 670.667 876.732 667.854 876.301 664.228" fill="white"/>
    <path d="M876.202 660.338C876.202 657.27 875.222 653.919 875.948 650.891C876.928 646.735 880.848 644.276 884.709 643.247C889.246 642.041 893.264 642.482 895.695 646.902C897.099 649.782 898 652.881 898.36 656.065C899.438 662.847 899.958 668.717 892.48 671.48C889.256 672.676 885.944 673.558 883.219 671.079C880.932 669.07 879.22 666.49 878.26 663.601C877.525 661.533 873.997 661.641 874.174 664.16C874.497 668.648 877.78 672.186 881.034 675.087C884.581 678.272 888.168 677.713 892.49 676.331C896.175 675.165 900.056 673.391 902.153 669.971C904.73 665.728 903.652 660.23 902.976 655.604C902.231 650.606 900.869 645.52 897.576 641.551C894.107 637.367 889.305 637.631 884.336 638.768C873.145 641.316 869.725 650.871 874.056 660.906C874.527 662.004 876.163 661.377 876.183 660.338H876.202Z" fill="black"/>
    <path d="M852.987 670.148L852.438 667.423C851.806 665.064 851.643 662.603 851.958 660.181C852.767 656.825 855.01 653.994 858.092 652.439C861.155 650.921 864.524 650.124 867.941 650.107C868.933 650.017 869.933 650.126 870.881 650.43C871.865 650.87 872.726 651.542 873.39 652.39C877.496 657.123 878.427 663.758 879.094 670.03C879.368 672.558 879.613 675.224 878.614 677.576C876.82 681.839 871.754 683.525 867.304 684.691C864.799 685.907 861.784 685.2 860.082 682.995C857.436 680.477 854.633 677.654 854.202 674.028" fill="white"/>
    <path d="M854.123 670.148C854.123 667.08 853.143 663.729 853.868 660.71C854.848 656.555 858.768 654.085 862.63 653.056C867.167 651.851 871.185 652.302 873.615 656.722C875.02 659.598 875.921 662.694 876.281 665.875C877.359 672.656 877.878 678.536 870.401 681.29C867.177 682.496 863.864 683.368 861.14 680.898C858.857 678.887 857.146 676.307 856.181 673.421C855.446 671.343 851.918 671.461 852.095 673.97C852.418 678.458 855.701 681.996 858.955 684.897C862.502 688.082 866.099 687.523 870.421 686.151C874.105 684.975 877.986 683.211 880.083 679.791C882.661 675.547 881.583 669.991 880.907 665.414C880.162 660.416 878.8 655.33 875.507 651.371C872.038 647.176 867.236 647.451 862.267 648.578C851.075 651.136 847.655 660.681 851.987 670.726C852.457 671.814 854.094 671.186 854.113 670.148H854.123Z" fill="black"/>
    <path d="M824.75 681.99C837.636 678.689 850.236 674.389 862.431 669.132C863.617 668.63 862.768 666.621 861.542 667.063C849.16 671.614 836.815 676.29 824.413 680.785C824.104 680.9 823.936 681.226 824.023 681.539C824.11 681.851 824.425 682.047 824.75 681.99V681.99Z" fill="black"/>
    <path d="M795.499 676.312C800.275 675.09 805.235 674.758 810.131 675.332C812.29 675.505 814.414 675.98 816.442 676.743C819.441 677.988 820.195 679.546 822.038 682.055L818.657 684.671C820.454 686.561 821.99 688.684 823.223 690.982C823.896 692.205 824.454 693.488 824.889 694.814C826.059 697.48 824.889 698.865 821.381 698.969L817.99 701.586C815.481 703.376 813.917 703.219 813.296 701.116L809.523 703.311C811.483 705.702 811.032 706.545 808.298 705.82C806.338 706.564 805.623 706.274 806.152 704.947C806.034 704.742 806.073 703.605 805.926 703.252C805.201 701.449 802.369 699.528 801.026 698.205C798.988 696.245 795.862 699.342 797.9 701.331C798.655 702.076 801.448 703.918 801.761 704.644C802.153 705.535 801.448 707.456 801.879 708.632C802.767 711.148 805.093 712.874 807.759 712.993C814.217 713.121 816.481 705.829 813.276 701.116C812.641 700.141 811.353 699.835 810.347 700.42C809.341 701.006 808.97 702.276 809.503 703.311C811.463 707.084 815.57 710.857 820.029 708.211C823.772 705.986 823.625 701.527 821.009 698.528C819.303 696.568 816.628 699.067 817.618 701.145C819.999 706.172 826.673 705.281 828.78 700.449C831.593 693.962 825.84 686.092 821.665 681.623C820.029 679.869 816.844 682.202 818.274 684.23C819.989 686.661 823.096 687.17 824.968 684.505C827.045 681.565 825.252 677.4 822.949 675.136C815.658 667.933 802.81 670.53 794.529 674.156C793.294 674.705 794.196 676.616 795.431 676.292L795.499 676.312Z" fill="black"/>
    <path d="M627.772 605.595C629.312 598.644 630.094 591.547 630.105 584.427C630.105 577.224 628.782 569.923 629.35 562.74C630.007 554.566 634.162 548.392 642.296 546.285C645.622 545.531 649.019 545.127 652.429 545.08C655.928 544.923 660.573 544.296 663.983 545.364C671.186 547.618 669.03 559.486 670.363 565.317C671.049 568.257 672.735 570.687 673.626 573.529C674.744 577.126 674.097 581.703 673.862 585.397C673.785 588.704 673.244 591.983 672.254 595.138C670.794 599.196 668.687 600.215 665.11 602.155C660.122 604.84 661.288 610.799 661.19 615.679C661.19 618.972 666.276 618.982 666.306 615.679C666.306 613.768 665.816 610.877 666.374 609.064C667.354 605.909 669.314 605.918 671.421 604.311C673.429 602.694 674.982 600.584 675.929 598.186C678.664 591.787 678.869 583.251 678.517 576.381C678.281 572.334 676.263 569.521 675.057 565.768C673.705 561.593 673.95 557.085 673.342 552.783C672.499 546.805 670.01 541.895 663.591 540.837C656.066 539.803 648.412 540.236 641.051 542.111C634.681 543.767 629.566 547.569 626.978 553.733C623.97 560.887 624.94 568.747 625.606 576.273C626.563 585.801 626.365 595.409 625.018 604.889C624.754 606.604 627.292 607.398 627.684 605.624L627.772 605.595Z" fill="black"/>
    <path d="M34.5 829.995C95.6315 713.351 150.648 593.603 199.326 471.237C201.414 466.004 203.775 460.457 208.146 457.752C210.949 456.047 214.212 455.792 217.368 455.606L454.655 440.073C457.017 439.916 459.555 439.828 461.515 441.425C463.191 442.807 464.024 445.179 464.779 447.413C507.958 575.695 557.879 707.045 614.052 828.182" fill="#DC3545"/>
    <path d="M34.8629 830.201C67.5688 769.056 98.2755 706.911 126.983 643.766C141.409 612.197 155.377 580.425 168.888 548.451C175.532 532.771 182.065 517.039 188.488 501.254C191.813 493.12 195.103 484.97 198.356 476.803C201.963 467.778 204.589 457.978 215.751 456.9C233.715 455.165 251.845 454.518 269.847 453.342L323.336 449.853L432.263 442.748L444.905 441.925C448.903 441.661 454.705 440.22 458.625 441.396C463.329 442.817 464.603 450.784 465.945 454.783L470.12 467.101C475.726 483.605 481.42 500.078 487.202 516.523C498.746 549.327 510.692 581.993 523.04 614.523C547.54 678.948 573.657 742.775 602.352 805.446C605.912 813.228 609.506 820.992 613.132 828.741C613.71 829.976 615.523 828.898 614.964 827.673C585.104 762.581 557.585 696.412 531.801 629.595C518.826 595.942 506.266 562.135 494.12 528.175C488.129 511.443 482.249 494.679 476.48 477.881C473.54 469.388 470.626 460.895 467.739 452.401C466.122 447.609 465.014 440.514 459.252 439.073C455.949 438.24 452.137 439.073 448.815 439.279L434.223 440.259L406.028 442.111L350.59 445.747C313.65 448.138 276.698 450.543 239.732 452.96C231.177 453.519 222.376 453.538 213.88 454.734C207.167 455.714 203.276 459.712 200.434 465.641C193.133 480.87 187.635 497.187 181.206 512.809C167.408 546.298 153.133 579.596 138.38 612.7C109.229 678.092 78.4239 742.72 45.9663 806.583C42.0463 814.325 38.1035 822.061 34.1377 829.79C33.8927 830.26 34.6081 830.681 34.8629 830.201Z" fill="#DC3545"/>
    <path d="M35.5782 830.623C69.2902 770.019 100.101 707.976 129.051 644.971C143.548 613.428 157.529 581.66 170.995 549.666C177.717 533.79 184.329 517.869 190.83 501.901C194.149 493.761 197.435 485.594 200.689 477.401C203.815 469.561 206.039 460.192 215.781 459.232C233.734 457.458 251.874 456.831 269.877 455.655L323.365 452.186L432.292 445.12L444.934 444.297L451.745 443.875C453.47 443.777 456.292 443.121 457.958 443.728C461.398 444.973 462.535 452.431 463.534 455.41C464.906 459.519 466.285 463.629 467.67 467.738C473.223 484.255 478.875 500.738 484.624 517.189C496.083 550.019 507.981 582.686 520.316 615.189C544.816 679.869 571.011 743.902 600.333 806.524C603.959 814.273 607.617 822.005 611.309 829.721C613.082 833.435 618.433 830.191 616.787 826.516C587.557 761.392 560.136 695.474 534.526 628.762C521.524 595.187 508.938 561.413 496.766 527.44C490.729 510.721 484.794 493.966 478.96 477.176C476 468.682 473.06 460.189 470.14 451.696C468.18 445.963 466.719 438.348 459.899 436.663C456.351 435.79 452.382 436.565 448.805 436.81C443.905 437.153 439.083 437.466 434.213 437.79L406.018 439.652L350.58 443.307C313.647 445.75 276.697 448.184 239.732 450.608C230.971 451.176 221.935 451.157 213.272 452.441C206.02 453.519 201.512 458.007 198.395 464.446C190.996 479.851 185.42 496.364 178.903 512.172C165.183 545.452 150.986 578.537 136.312 611.426C107.099 676.88 76.1404 741.462 44.8784 805.946C41.0826 813.786 37.2638 821.594 33.4222 829.368C32.7166 830.789 34.7942 832.044 35.5782 830.623Z" fill="black"/>
    <path d="M614.043 828.182C557.82 707.045 507.948 575.695 464.769 447.413C464.015 445.179 463.182 442.807 461.506 441.425C459.546 439.828 457.017 439.916 454.646 440.073L453.46 440.151C450.657 443.268 448.844 447.815 447.217 452.127C398.745 580.497 343.861 706.353 282.773 829.221L614.043 828.182Z" fill="white"/>
    <path d="M616.669 826.644C568.816 723.43 527.303 617.345 489.544 510.104C484.794 496.599 480.103 483.075 475.471 469.532C473.269 463.083 471.077 456.632 468.895 450.177C467.376 445.698 466.2 440.063 461.447 437.927C458.066 436.398 452.921 436.173 450.422 439.142C446.708 443.552 444.964 449.608 442.955 454.92C437.8 468.496 432.573 482.043 427.275 495.561C406.316 549.134 384.243 602.279 361.056 654.997C335.432 713.17 308.466 770.732 280.157 827.683C279.63 828.626 279.637 829.777 280.175 830.714C280.713 831.652 281.703 832.238 282.783 832.259L395.483 831.906L573.5 831.348L614.033 831.22C617.953 831.22 617.953 825.125 614.033 825.135L501.333 825.487L323.277 826.046L282.744 826.173L285.38 830.75C334.518 731.979 379.598 631.32 420.62 528.773C430.891 503.107 440.475 477.176 450.687 451.5C451.579 449.246 452.5 445.62 454.332 443.964L454.626 443.121C455.783 443.003 456.949 443.003 458.105 443.121C459.693 443.64 460.781 445.463 461.339 446.845C464.044 453.568 466.024 460.692 468.366 467.552C472.782 480.495 477.255 493.427 481.782 506.35C500.03 558.388 519.254 610.07 539.455 661.396C561.897 718.128 585.721 774.331 611.387 829.682C613.063 833.269 618.316 830.172 616.669 826.644Z" fill="black"/>
    <path d="M575.676 721.088C567.042 734.338 564.71 753.428 574.598 766.668C581.536 775.978 592.385 778.928 603.449 779.104C634.584 779.623 666.522 776.938 696.941 770.176C700.596 769.363 704.536 768.5 707.995 769.941C712.729 771.901 714.777 777.32 717.697 781.534C721.002 786.392 726.017 789.825 731.741 791.148C737.513 792.396 743.538 790.918 748.077 787.14C753.85 782.132 755.663 774.028 756.897 766.482C759.739 748.606 756.897 729.506 738.405 721.402C723.46 714.855 705.673 716.766 690.003 719.089" fill="white"/>
    <path d="M574.48 720.373C561.74 738.748 562.72 768.216 585.692 778.055C597.452 783.122 611.622 781.711 624.117 781.348C639.435 780.916 654.717 779.634 669.893 777.507C677.341 776.468 684.753 775.197 692.129 773.694C695.775 772.95 699.626 771.646 703.37 771.617C708.574 771.617 710.896 775.194 713.317 779.163C719.03 788.541 728.017 795.823 739.689 793.863C751.743 791.824 756.937 781.044 759.014 770.117C760.974 759.955 761.621 748.94 758.23 738.993C748.43 710.396 713.327 712.65 689.15 716.1C685.132 716.668 686.828 722.823 690.836 722.215C710.7 719.275 740.875 715.904 751.508 737.826C755.682 746.411 755.663 756.574 754.261 765.825C752.605 776.83 748.283 789.855 734.661 788.973C728.703 788.59 723.352 785.053 719.903 780.3C717.257 776.654 715.532 772.264 711.867 769.441C708.711 767.001 705.007 766.501 701.136 766.962C694.599 767.756 688.131 769.637 681.643 770.803C655.634 775.458 628.488 777.869 602.058 776.742C589.318 776.203 577.43 770.862 572.54 758.377C567.865 746.411 570.776 732.672 576.94 721.823C577.333 721.149 577.104 720.285 576.431 719.892C575.757 719.5 574.892 719.728 574.5 720.402L574.48 720.373Z" fill="black"/>
    <path d="M679.615 721.255C649.411 725.671 619.057 728.814 588.553 730.682C584.075 730.957 579.508 731.192 575.186 729.977C570.864 728.761 566.366 724.508 568.071 720.314C568.641 719.209 569.321 718.165 570.1 717.197C572.658 713.395 572.697 708.515 572.815 703.938C573.476 678.941 578.884 654.297 588.749 631.32C590.827 626.489 593.159 621.647 596.746 617.806C600.333 613.964 605.419 611.191 610.672 611.495C607.409 607.976 603.9 603.704 604.704 598.97C605.341 595.217 608.712 592.355 612.377 591.326C616.042 590.297 619.972 590.748 623.706 591.493C633.887 593.525 643.568 597.544 652.195 603.321C654.498 605.052 656.978 606.533 659.594 607.741C664.376 609.701 669.825 609.231 674.695 610.916C680.997 613.102 685.681 618.688 688.219 624.862C690.758 631.036 691.404 637.808 691.767 644.462C692.449 656.875 692.226 669.321 691.101 681.702C690.199 691.698 688.719 701.9 691.012 711.67C691.728 714.689 692.767 717.952 691.502 720.784C690.238 723.616 685.221 724.42 684.368 721.48" fill="#DC3545"/>
    <path d="M679.477 720.735C658.747 723.656 637.952 725.995 617.091 727.752C607.036 728.595 596.952 729.467 586.867 729.928C581.585 730.173 575.107 730.525 570.933 726.645C566.229 722.274 571.138 718.305 572.501 714.022C574.902 706.496 573.745 697.539 574.519 689.728C575.513 679.753 577.269 669.868 579.772 660.161C582.251 650.449 585.489 640.947 589.455 631.741C593.424 622.539 599.255 612.318 610.672 612.318C610.996 612.307 611.284 612.107 611.407 611.806C611.53 611.506 611.464 611.161 611.24 610.926C607.908 607.271 603.655 602.292 606.203 597.03C608.467 592.365 614.19 591.307 618.835 591.61C627.577 592.169 636.691 595.628 644.374 599.637C651.116 603.145 656.702 608.398 664.336 609.829C668.629 610.632 672.931 610.681 676.89 612.769C680.531 614.802 683.544 617.795 685.602 621.422C690.042 628.88 690.659 637.886 691.061 646.353C691.473 655.035 691.443 663.732 690.973 672.411C690.512 680.83 689.258 689.218 689.013 697.646C688.878 701.206 689.059 704.771 689.552 708.299C689.816 710.034 690.267 711.69 690.6 713.405C690.991 714.848 691.221 716.331 691.286 717.825C690.222 722.548 688.115 723.646 684.965 721.117C684.534 720.314 683.358 721.019 683.75 721.823C685.289 724.998 689.571 724.596 691.59 722.039C692.923 720.392 692.933 718.119 692.717 716.08C692.149 710.749 690.581 705.741 690.551 700.302C690.551 690.982 692.031 681.682 692.511 672.411C693.064 662.556 693.028 652.676 692.404 642.825C691.561 629.742 687.778 613.513 673.196 609.662C668.776 608.506 664.15 608.682 659.868 606.947C655.124 605.066 651.106 601.518 646.638 599.107C639.28 595.035 631.316 592.173 623.049 590.63C616.904 589.513 609.388 589.503 605.409 595.207C601.185 601.244 605.928 607.614 610.044 612.141L610.623 610.75C595.276 610.75 589.112 627.41 584.584 639.425C578.595 655.347 574.679 671.974 572.932 688.895C572.468 693.325 572.141 697.764 571.952 702.213C571.775 706.927 572.02 711.925 569.659 716.168C568.502 718.256 566.817 719.726 566.797 722.254C566.777 724.783 568.316 726.841 570.168 728.369C575.156 732.525 582.408 731.956 588.465 731.594C597.99 731.038 607.503 730.32 617.002 729.438C637.968 727.53 658.858 724.998 679.673 721.843C680.359 721.735 680.065 720.696 679.389 720.794L679.477 720.735Z" fill="#DC3545"/>
    <path d="M679.615 719.638C659.466 722.303 639.258 724.42 618.992 725.988C608.849 726.772 598.716 727.585 588.553 728.124C583.849 728.379 578.234 728.997 573.931 726.654C567.865 723.362 572.373 719.5 573.931 715.188C576.705 707.348 575.372 697.872 576.176 689.708C577.15 679.889 578.877 670.158 581.34 660.602C583.781 651.024 586.963 641.65 590.856 632.565C594.57 623.95 599.95 613.945 610.672 613.945C611.643 613.918 612.508 613.323 612.879 612.424C613.25 611.526 613.057 610.493 612.387 609.789C609.613 606.742 605.527 602.341 607.604 597.853C609.564 593.708 614.788 592.953 618.835 593.237C627.292 593.806 636.122 597.157 643.56 601.077C650.42 604.644 656.134 610.074 663.905 611.436C668.021 612.161 672.284 612.23 676.077 614.199C679.481 616.09 682.296 618.884 684.211 622.275C688.503 629.478 689.062 638.219 689.454 646.392C689.866 655.074 689.836 663.772 689.366 672.451C688.915 680.869 687.651 689.258 687.406 697.686C687.281 701.318 687.471 704.954 687.974 708.554C688.239 710.357 688.699 712.092 689.052 713.865C689.408 715.171 689.619 716.512 689.679 717.864C689.196 720.725 688.023 721.588 686.161 720.451C684.74 718.06 681.486 720.147 682.525 722.568C684.417 726.939 690.444 726.341 693.001 722.891C694.511 720.843 694.618 718.119 694.295 715.688C693.599 710.494 692.208 705.643 692.178 700.341C692.178 691.022 693.658 681.721 694.138 672.451C694.689 662.595 694.656 652.716 694.04 642.864C693.139 629.046 688.993 612.2 673.646 608.153C669.305 607.006 664.719 607.173 660.505 605.517C655.84 603.674 651.871 600.117 647.48 597.677C640.002 593.528 631.905 590.61 623.5 589.033C616.64 587.788 608.359 587.935 604.008 594.354C599.421 601.126 604.233 608.074 608.908 613.249L610.632 609.084C594.413 609.084 587.838 626.204 583.026 638.954C576.98 655.014 573.028 671.786 571.266 688.856C570.808 693.285 570.482 697.725 570.286 702.174C570.109 706.545 570.413 711.347 568.189 715.277C566.836 717.658 565.092 719.304 565.082 722.215C565.217 725.111 566.627 727.799 568.933 729.555C574.274 734.112 581.889 733.671 588.455 733.26C597.971 732.672 607.496 731.946 616.993 731.015C638.053 728.948 659.054 726.115 679.948 722.842C681.731 722.558 681.33 719.412 679.517 719.657L679.615 719.638Z" fill="black"/>
    <path d="M624.862 611.72C619.345 610.276 613.705 609.351 608.016 608.956C602.949 608.662 600.666 611.397 597.53 614.993C596.089 616.64 597.931 619.472 599.98 618.178C601.254 617.365 602.175 616.218 603.4 615.375C606.065 613.562 608.3 614.141 611.24 614.248C615.66 614.415 620.06 614.376 624.44 614.846C626.244 615.042 626.577 612.151 624.862 611.72Z" fill="black"/>
    <path d="M34.7647 830.427C65.3211 832.534 96.2205 831.995 126.885 832.485C156.938 832.968 186.991 833.269 217.045 833.386C277.805 833.729 338.565 834.366 399.325 833.641C520.159 832.093 640.983 832.24 761.827 832.22C829.75 832.22 897.684 832.308 965.608 831.995C970.047 831.995 970.047 825.135 965.608 825.135C844.088 824.576 722.637 824.899 601.146 824.89C480.312 824.89 359.498 822.93 238.654 823.625C204.687 823.812 170.72 823.939 136.734 824.488C102.747 825.037 68.6433 824.37 34.8137 826.703C33.7745 826.703 32.9321 827.545 32.9321 828.584C32.9321 829.623 33.7745 830.466 34.8137 830.466L34.7647 830.427Z" fill="black"/>
    <path d="M455.9 440.004C455.763 490.229 456.753 540.386 454.793 590.611C452.833 641.198 449.187 691.551 441.769 741.707C439.672 755.809 437.31 769.892 434.38 783.847C431.449 797.802 426.951 811.101 423.159 824.782C422.443 827.359 426.373 829.182 427.598 826.654C432.978 815.482 436.085 803.026 438.956 791.011C441.828 778.996 444.199 766.638 446.355 754.369C450.726 729.487 453.735 704.389 455.998 679.203C460.565 628.243 460.987 577.165 460.389 526.097C460.056 497.403 459.595 468.669 458.292 440.014C458.292 439.354 457.756 438.819 457.096 438.819C456.436 438.819 455.9 439.354 455.9 440.014V440.004Z" fill="black"/>
    <path d="M457.096 440.004C457.36 566.64 458.84 700.9 473.001 826.732C464.397 827.634 460.261 825.125 452.509 826.85C444.757 828.574 434.722 828.81 426.794 828.721C448.873 770.901 452.382 707.838 455.655 646" fill="#010101"/>
    <path d="M455.9 440.004C454.92 540.592 456.018 641.375 463.015 741.756C464.975 770.124 467.51 798.449 470.62 826.732L473.001 824.351C465.867 824.919 458.967 823.243 451.872 824.537C443.586 825.905 435.189 826.482 426.794 826.262L429.156 829.368C451.323 771.146 454.42 707.564 457.674 646C457.811 643.394 453.754 643.403 453.626 646C450.363 707.691 446.365 769.686 424.432 828.065C424.235 828.802 424.39 829.589 424.852 830.197C425.314 830.804 426.031 831.164 426.794 831.171C434.605 831.362 442.418 830.883 450.147 829.741C453.901 829.113 457.311 828.476 461.114 828.761C465.061 829.187 469.035 829.305 473.001 829.113C474.167 829.025 475.529 828.133 475.382 826.742C464.103 726.703 460.996 625.979 459.457 525.392C459.016 496.972 458.693 468.473 458.291 440.014C458.291 439.354 457.756 438.819 457.096 438.819C456.435 438.819 455.9 439.354 455.9 440.014V440.004Z" fill="black"/>
    <path d="M482.811 826.85C480.038 816.327 479.736 805.305 481.929 794.647C483.497 787.071 486.496 779.496 492.16 774.214C497.825 768.932 506.557 766.462 513.573 769.725C509.742 766.158 505.733 762.287 504.43 757.211C504.018 755.507 504.018 753.73 504.43 752.027C504.988 749.779 506.664 747.977 508.866 747.26C511.068 746.542 513.485 747.011 515.259 748.499L528.068 759.112C525.98 755.319 530.665 750.047 534.683 751.664C537.309 752.722 538.603 755.584 540.132 757.975C547.188 769.069 561.789 772.077 574.833 773.714C604.51 777.436 634.399 779.194 664.307 778.977C674.274 778.908 684.339 778.604 693.992 776.105C710.269 771.881 725.988 761.405 742.492 764.669C750.087 766.158 757.192 770.549 764.914 770.245C773.254 769.951 781.75 764.267 789.414 767.618C791.237 768.412 792.834 769.686 794.716 770.323C797.725 771.303 801.017 770.607 804.173 770.892C811.102 771.509 816.815 777.036 819.667 783.387C822.518 789.737 823.028 796.842 823.499 803.78C824.116 812.689 823.567 823.723 815.551 827.634" fill="#010101"/>
    <path d="M484.164 826.477C481.714 814.178 481.802 800.448 486.231 788.571C490.249 777.791 500.51 767.442 512.838 772.411C515.465 773.469 517.484 769.549 515.543 767.756C513.312 765.842 511.277 763.711 509.467 761.395C507.605 758.798 505.332 753.751 507.997 750.919C510.477 748.273 513.27 750.361 515.357 752.085L526.137 761.033C527.989 762.571 531.743 761.19 530.674 758.387C529.694 755.829 531.752 752.909 534.986 755.163C535.79 755.721 536.515 757.358 537.025 758.103C538.097 759.844 539.299 761.502 540.621 763.061C543.808 766.447 547.676 769.119 551.97 770.901C560.368 774.616 569.61 775.801 578.616 776.879C604.513 780.063 630.572 781.751 656.663 781.936C669.07 782.024 681.751 782.171 693.903 779.212C705.242 776.458 715.63 770.725 727.027 768.177C732.906 766.741 739.052 766.819 744.893 768.402C750.224 769.912 755.251 772.322 760.798 773.067C765.698 773.743 770.382 772.656 775.145 771.382C777.87 770.647 780.682 769.725 783.524 769.676C787.385 769.598 789.688 771.705 793.099 772.999C798.322 774.959 803.996 772.871 809.014 775.684C815.051 779.075 817.834 786.003 819.01 792.452C820.735 801.536 823.479 819.206 814.11 825.193C811.101 827.153 813.718 831.436 816.883 829.937C826.193 825.546 827.33 814.139 826.85 805.005C826.223 793.324 824.841 780.113 815.09 772.215C811.537 769.288 807.099 767.651 802.497 767.569C798.577 767.432 795.872 767.315 792.256 765.472C789.548 764.016 786.51 763.28 783.436 763.336C777.801 763.483 772.656 765.992 767.119 766.805C759.828 767.893 753.281 764.306 746.461 762.375C733.613 758.73 721.216 762.905 709.221 767.491C703.037 769.863 696.853 772.303 690.365 773.714C682.398 775.458 674.215 775.743 666.091 775.85C636.201 776.259 606.316 774.677 576.636 771.117C563.563 769.549 549.285 767.197 541.641 755.31C539.151 751.39 535.761 747.185 530.586 749.018C528.458 749.748 526.71 751.296 525.727 753.319C524.745 755.343 524.61 757.675 525.353 759.798L529.9 757.152L521.315 750.037C518.65 747.822 515.945 744.922 512.388 744.324C506.723 743.344 502.117 747.538 501.441 752.997C500.461 760.719 506.341 766.776 511.506 771.617L514.22 766.962C501.412 761.66 488.603 770.627 483.242 782.24C476.814 796.185 477.068 812.787 481.449 827.232C481.691 827.939 482.442 828.334 483.162 828.134C483.882 827.934 484.321 827.208 484.164 826.477Z" fill="black"/>
    <path d="M654.987 575.783C653.948 574.284 651.979 571.863 653.027 567.836C653.498 566.072 656.261 564.415 658.084 564.533C660.857 564.709 661.661 568.375 661.7 571.148L662.004 595.187C661.907 597.618 662.195 600.049 662.857 602.39C663.536 604.768 665.298 606.686 667.61 607.565C670.03 608.319 672.627 607.437 675.009 606.585C676.058 606.267 677.051 605.784 677.949 605.154C679.997 603.576 680.614 600.773 680.771 598.186C681.104 592.816 679.272 588.259 676.851 583.427C676.58 581.612 676.406 579.783 676.332 577.949C676.42 579.85 672.206 579.988 670.334 579.654C668.129 579.253 667.698 578.008 667.188 575.813L665.405 568.228C664.758 565.464 664.111 562.524 665.003 559.819C666.659 554.811 673.225 551.666 672.676 546.423C672.382 543.708 670.069 541.523 667.502 540.641C664.934 539.759 662.131 539.788 659.407 539.876C651.636 540.102 643.502 540.435 636.779 544.345C632.153 547.04 628.586 551.205 625.568 555.654C624.46 557.157 623.566 558.806 622.912 560.554C620.295 568.267 625.96 576.469 625.283 584.594C625.107 586.71 624.578 589.141 625.979 590.738C626.781 591.502 627.767 592.046 628.841 592.316L634.721 594.276C637.612 595.256 640.816 596.236 643.629 595.08C646.167 594.021 647.706 591.483 648.99 589.062C651.38 584.814 653.384 580.36 654.977 575.754" fill="#010101"/>
    <path d="M656.183 575.088C655.614 574.354 655.167 573.533 654.86 572.657C654.22 571.606 654.365 570.256 655.213 569.364C655.082 566.829 655.925 566.258 657.741 567.649C660.054 568.463 659.78 569.041 659.917 571.148C659.985 572.373 659.917 573.627 659.917 574.852L659.995 592.414C659.995 598.921 660.25 609.368 669.08 609.878C676.577 610.319 682.457 605.546 682.8 598.118C683.143 590.689 678.684 584.888 678.262 577.773C678.115 575.293 674.264 575.264 674.342 577.773C674.342 577.694 671.402 577.881 671.099 577.773C668.756 576.969 668.766 574.421 668.276 572.412C667.12 567.571 665.081 562.152 668.355 557.712C671.079 554.057 675.499 550.852 674.734 545.727C673.921 540.258 668.384 537.828 663.474 537.426C656.316 536.82 649.106 537.483 642.179 539.386C631.781 542.571 619.56 553.959 619.923 565.66C620.158 572.598 623.265 578.831 622.863 585.868C622.5 591.806 625.274 593.531 630.468 595.315C636.348 597.275 643.08 600.097 648 594.756C652.381 589.993 654.546 582.222 656.653 576.224C657.379 574.147 654.105 573.284 653.37 575.323C651.991 578.976 650.306 582.507 648.333 585.877C645.795 590.395 643.59 594.276 637.553 592.737C633.408 591.669 628.028 590.64 627.528 585.877C627.185 582.663 627.528 579.596 626.793 576.332C625.97 572.589 624.519 568.816 624.588 564.925C624.676 560.456 627.42 556.762 630.135 553.42C636.015 546.178 643.6 543.238 652.675 542.522C656.595 542.218 661.416 541.621 665.297 542.414C668.443 543.061 671.334 545.227 670.03 548.912C669.442 550.578 668.07 551.852 666.953 553.185C662.847 558.222 662.21 562.338 663.611 568.698C664.591 573.284 664.591 580.458 670.315 581.536C672.931 582.006 678.39 581.654 678.243 577.822H674.323C674.276 579.872 674.466 581.921 674.891 583.927C676.479 589.209 679.438 593.355 678.468 599.196C677.87 602.812 674.989 604.929 671.442 605.536C665.562 606.516 664.239 601.616 663.964 597.01C663.602 590.885 663.7 584.692 663.562 578.547C663.474 574.157 664.778 561.887 657.016 562.867C649.686 563.847 650.274 571.932 653.694 576.46C654.742 577.841 657.075 576.597 656.085 575.068L656.183 575.088Z" fill="black"/>
    <path d="M619.217 557.095C614.954 559.594 615.238 566.415 619.687 568.62C621.743 569.466 623.966 569.828 626.185 569.678C639.989 569.656 653.577 566.237 665.747 559.721C670.118 557.35 674.675 553.841 674.567 549.196C674.567 547.236 673.587 545.276 673.519 543.267C673.46 541.532 673.832 539.347 672.215 538.455C671.492 538.158 670.729 537.967 669.951 537.887C667.501 537.328 665.933 535.241 664.228 533.526C659.887 529.155 653.527 526.666 647.098 526.097C640.648 525.643 634.173 526.503 628.066 528.626C619.099 531.566 614.464 536.191 611.857 544.561C611.452 545.598 611.383 546.736 611.661 547.814C612.396 550 610.916 551.734 613.258 552.508C615.601 553.283 618.227 554.86 618.051 557.134" fill="#DC3545"/>
    <path d="M618.58 556.066C614.415 557.869 613.082 562.485 614.964 566.571C617.669 572.451 625.019 571.981 630.468 571.687C638.433 571.274 646.304 569.77 653.86 567.218C660.563 564.935 668.384 562.044 673.372 556.82C677.89 552.077 676.469 546.687 675.636 540.807C675.381 538.955 674.842 537.436 673.088 536.505C671.334 535.574 669.57 535.525 667.835 534.133C666.277 532.869 665.052 531.193 663.454 529.998C652.155 521.178 634.77 522.569 622.52 528.587C617.107 531.235 612.903 535.842 610.76 541.474C609.469 544.523 609.127 547.89 609.78 551.136C610.495 554.39 615.66 554.468 615.944 557.134C616.228 559.8 620.53 559.858 620.207 557.134C620.122 555.459 619.374 553.887 618.129 552.763C617.355 552.058 616.287 551.783 615.532 551.127C614.239 550.009 614.445 550.411 614.004 548.775C612.436 543.032 617.924 536.289 622.412 533.477C634.76 525.803 653.164 525.696 663.758 536.093C665.418 537.676 667.324 538.977 669.403 539.945C671.138 540.846 671.079 541.199 671.363 543.267C671.569 544.521 671.735 545.55 671.971 546.795C673.637 555.39 662.347 559.417 655.869 561.936C649.09 564.574 641.992 566.304 634.76 567.081C631.095 567.473 626.734 568.061 623.088 567.336C618.188 566.356 616.561 561.769 620.001 557.938C620.406 557.51 620.44 556.852 620.081 556.386C619.722 555.92 619.077 555.784 618.561 556.066H618.58Z" fill="#DC3545"/>
    <path d="M618.58 556.066C614.415 557.869 613.082 562.485 614.964 566.571C617.669 572.451 625.019 571.981 630.468 571.687C638.433 571.274 646.304 569.77 653.86 567.218C660.563 564.935 668.384 562.044 673.372 556.82C677.89 552.077 676.469 546.687 675.636 540.807C675.381 538.955 674.842 537.436 673.088 536.505C671.334 535.574 669.57 535.525 667.835 534.133C666.277 532.869 665.052 531.193 663.454 529.998C652.155 521.178 634.77 522.569 622.52 528.587C617.107 531.235 612.903 535.842 610.76 541.474C609.469 544.523 609.127 547.89 609.78 551.136C610.495 554.39 615.66 554.468 615.944 557.134C616.228 559.8 620.53 559.858 620.207 557.134C620.122 555.459 619.374 553.887 618.129 552.763C617.355 552.058 616.287 551.783 615.532 551.127C614.239 550.009 614.445 550.411 614.004 548.775C612.436 543.032 617.924 536.289 622.412 533.477C634.76 525.803 653.164 525.696 663.758 536.093C665.418 537.676 667.324 538.977 669.403 539.945C671.138 540.846 671.079 541.199 671.363 543.267C671.569 544.521 671.735 545.55 671.971 546.795C673.637 555.39 662.347 559.417 655.869 561.936C649.09 564.574 641.992 566.304 634.76 567.081C631.095 567.473 626.734 568.061 623.088 567.336C618.188 566.356 616.561 561.769 620.001 557.938C620.406 557.51 620.44 556.852 620.081 556.386C619.722 555.92 619.077 555.784 618.561 556.066H618.58Z" fill="black"/>
    <path d="M621.187 558.555C632.3 559.417 643.139 556.125 653.527 552.606C660.23 550.352 671.363 547.148 672.578 538.886C672.725 537.857 671.236 537.377 670.961 538.445C668.609 547.648 655.791 550.323 648.049 552.93C639.229 555.87 630.507 558.006 621.158 557.751C620.648 557.751 620.658 558.506 621.158 558.545L621.187 558.555Z" fill="black"/>
    <path d="M624.509 558.986C623.666 562.005 622.451 567.757 625.704 569.943C625.864 570.04 626.064 570.04 626.224 569.943L626.361 569.845C626.558 569.72 626.653 569.483 626.596 569.257V569.119C626.41 568.463 625.498 568.757 625.616 569.394C625.901 569.057 625.901 568.564 625.616 568.228C625.348 567.793 625.137 567.325 624.989 566.836C624.742 566.025 624.6 565.185 624.567 564.337C624.568 562.594 624.822 560.861 625.322 559.192C625.379 558.981 625.254 558.764 625.043 558.707C624.832 558.65 624.615 558.775 624.558 558.986H624.509Z" fill="black"/>
    <path d="M632.956 557.742C632.469 561.201 632.805 564.726 633.936 568.032C634.328 569.012 635.455 569.541 635.73 568.09C635.838 567.532 635.034 567.11 634.75 567.669C635.22 566.689 634.113 564.112 633.956 562.985C633.722 561.247 633.67 559.49 633.799 557.742C633.799 557.242 633.074 557.261 633.015 557.742H632.956Z" fill="black"/>
    <path d="M642.1 555.86C642.257 557.957 642.515 560.045 642.874 562.122C643.149 563.661 643.247 565.876 644.246 567.12C644.409 567.293 644.655 567.361 644.883 567.297L645.099 567.238C645.395 567.145 645.582 566.853 645.54 566.545C645.499 566.238 645.243 566.005 644.932 565.993C644.932 565.993 643.864 561.27 643.815 561.015C643.423 559.27 643.119 557.516 642.835 555.752C642.767 555.321 642.032 555.419 642.071 555.86H642.1Z" fill="black"/>
    <path d="M650.381 553.528C652.086 556.605 652.076 560.682 651.831 564.102H653.213L653.145 563.592C653.066 562.975 652.165 562.7 651.959 563.426L651.851 563.916C651.818 564.159 651.917 564.402 652.111 564.552C652.305 564.702 652.565 564.738 652.792 564.645C653.019 564.552 653.18 564.345 653.213 564.102C653.36 560.593 653.282 556.036 651.155 553.077C651.018 552.893 650.765 552.841 650.567 552.956C650.369 553.072 650.289 553.318 650.381 553.528Z" fill="black"/>
    <path d="M658.299 550.803C659.592 553.761 660.23 556.964 660.171 560.192C660.213 560.547 660.514 560.814 660.872 560.814C661.229 560.814 661.53 560.547 661.572 560.192C661.558 556.797 660.706 553.457 659.093 550.47C658.858 550.049 658.113 550.343 658.299 550.803Z" fill="black"/>
    <path d="M666.374 546.207C667.746 549.265 670.588 552.704 669.05 556.213C668.913 556.437 668.921 556.72 669.069 556.936C669.217 557.152 669.478 557.262 669.736 557.216C669.994 557.17 670.201 556.977 670.265 556.722C671.931 552.636 668.834 549.225 667.031 545.825C666.806 545.384 666.178 545.766 666.374 546.207Z" fill="black"/>
    <path d="M623.108 551.264C625.441 551.422 627.771 550.92 629.831 549.813C630.34 549.539 629.89 548.775 629.39 549.049C627.468 550.095 625.292 550.581 623.108 550.45C622.579 550.45 622.589 551.234 623.108 551.264Z" fill="black"/>
    <path d="M626.9 554.37L629.448 553.822C630.066 553.684 629.801 552.734 629.193 552.842L626.655 553.449C626.077 553.586 626.322 554.429 626.9 554.331V554.37Z" fill="black"/>
    <path d="M656.8 569.933C657.061 570.235 657.291 570.564 657.486 570.913C657.575 571.091 657.644 571.278 657.692 571.471C657.692 571.579 657.75 571.687 657.77 571.795C657.77 572.102 657.907 572.063 658.182 571.677L658.652 571.863C658.724 572.092 658.753 572.141 658.74 572.01C658.75 571.932 658.75 571.853 658.74 571.775C658.724 571.654 658.676 571.54 658.603 571.442C658.113 570.805 657.025 571.383 657.496 572.089C657.496 571.932 657.496 571.903 657.496 572.01C657.496 572.118 657.496 572.118 657.496 572.177C657.501 572.267 657.518 572.356 657.545 572.442C657.63 572.719 657.866 572.924 658.152 572.971C658.409 573.014 658.671 572.936 658.863 572.76C659.055 572.584 659.154 572.329 659.132 572.069C659.009 570.959 658.38 569.968 657.427 569.384C657.113 569.208 656.663 569.58 656.898 569.903L656.8 569.933Z" fill="black"/>
    <path d="M666.962 610.309C682.113 609.329 696.245 618.443 706.603 629.546C716.962 640.65 724.733 653.938 734.974 665.15C737.65 668.09 740.648 670.951 744.451 672.117C748.057 673.225 751.948 672.647 755.691 672.117C765.407 670.778 775.171 669.903 784.984 669.491C786.034 669.342 787.105 669.531 788.041 670.03C789.207 670.843 789.511 672.519 790.648 673.382C792.216 674.577 794.46 673.695 796.391 674.038C799.556 674.587 801.134 678.135 801.83 681.261C803.032 686.64 803.225 692.196 802.398 697.646C802.134 699.342 801.604 701.263 800.036 701.978C799.056 702.419 797.831 702.282 796.969 702.958C796.107 703.634 795.911 704.634 795.44 705.516C794.215 707.848 791.471 708.848 788.972 709.661C783.912 711.45 778.709 712.807 773.42 713.718C767.138 714.62 760.758 714.238 754.437 714.64C747.459 715.081 740.541 716.482 733.543 716.511C718.736 716.57 704.388 710.435 692.579 701.498C680.77 692.56 671.284 680.918 662.68 668.893" fill="#DC3545"/>
    <path d="M666.963 610.74C691.629 610.191 707.838 631.32 721.068 649.146C726.537 656.526 732.24 665.806 740.022 670.932C748.165 676.302 759.563 672.353 768.442 671.5C773.596 671 782.073 668.952 786.758 671.235C788.659 672.157 788.649 673.068 790.168 674.175C790.676 674.464 791.22 674.685 791.785 674.832C794.127 675.449 794.627 674.734 797.058 676.008C802.595 678.948 802.281 688.425 801.869 694.03C801.872 695.616 801.661 697.195 801.242 698.724C798.302 705.261 799.919 699.989 797.557 701.664C796.554 702.278 795.7 703.108 795.058 704.095C791.648 708.74 785.543 709.916 780.104 711.347C773.479 713.101 766.864 713.307 760.063 713.493C747.989 713.758 735.984 716.845 723.93 714.757C697.392 710.151 678.37 689.277 663.405 668.403C662.719 667.423 661.112 668.403 661.808 669.334C675.577 688.542 692.188 707.299 715.492 714.6C727.997 718.52 739.679 716.737 752.458 715.688C759.406 715.11 766.423 715.59 773.342 714.62C779.416 713.728 785.364 712.12 791.06 709.828C792.669 709.299 794.128 708.391 795.313 707.182C795.754 706.672 795.989 705.986 796.391 705.477C797.45 704.154 799.096 703.771 800.233 702.85C803.565 700.155 803.624 696.421 803.741 692.188C803.869 687.572 803.565 682.133 801.615 677.88C801.047 676.433 800.107 675.162 798.89 674.195C796.93 672.843 795.48 673.676 793.343 673.146C789.58 672.215 790.707 670.716 788.443 669.275C786.483 668.001 783.445 668.668 781.27 668.785C774.534 669.138 767.818 669.713 761.121 670.51C754.339 671.314 747.068 673.45 740.913 669.373C734.759 665.297 730.133 658.182 725.782 652.468C711.2 633.143 694.422 608.163 666.923 609.838C666.326 609.838 666.316 610.818 666.923 610.818L666.963 610.74Z" fill="#DC3545"/>
    <path d="M666.962 611.72C690.835 612.102 706.564 632.731 719.461 650.126C725.135 657.77 731.015 667.257 739.061 672.568C747.587 678.174 759.102 674.254 768.461 673.342C771.505 673.042 774.56 672.787 777.624 672.578C780.084 672.411 783.818 671.52 786.013 672.578C787.473 673.313 787.914 674.754 789.296 675.675C791.511 677.155 794.059 676.135 796.303 677.311C800.958 679.761 800.458 689.385 800.105 693.971C800.017 695.128 800.017 697.313 799.537 698.185C798.39 700.292 798.341 699.165 796.881 699.989C795.484 700.702 794.321 701.801 793.529 703.154C790.589 707.29 784.455 708.299 779.643 709.563C773.175 711.259 766.726 711.523 760.043 711.631C748.165 711.886 736.258 714.992 724.4 712.944C698.362 708.436 679.683 687.876 664.983 667.443C662.915 664.571 658.123 667.335 660.191 670.246C674.254 689.846 691.208 708.907 714.982 716.355C727.654 720.275 739.482 718.569 752.438 717.491C759.386 716.913 766.393 717.354 773.322 716.413C779.564 715.51 785.677 713.865 791.53 711.513C795.597 709.916 797.273 706.555 800.703 704.516C805.201 701.86 805.387 697.039 805.525 692.129C805.662 687.219 805.299 681.418 803.143 676.919C802.422 675.208 801.263 673.718 799.782 672.598C797.528 671.059 795.705 672.029 793.333 671.314C791.373 670.696 790.981 668.727 789.335 667.688C787.012 666.218 783.818 666.806 781.26 666.943C774.524 667.283 767.808 667.848 761.111 668.638C754.79 669.373 747.558 671.578 741.844 667.717C736.131 663.856 731.505 656.937 727.379 651.469C712.503 631.761 695.118 606.036 666.913 608.839C666.134 608.839 665.502 609.471 665.502 610.25C665.502 611.029 666.134 611.661 666.913 611.661L666.962 611.72Z" fill="black"/>
    <path d="M791.511 677.243C794.726 685.573 794.637 694.285 794.451 703.076C794.451 703.433 794.741 703.722 795.098 703.722C795.455 703.722 795.745 703.433 795.745 703.076C795.911 694.187 795.745 685.347 792.285 677.017C792.089 676.537 791.305 676.733 791.482 677.243H791.511Z" fill="black"/>
    <path d="M793.324 681.437C795.732 681.573 798.144 681.261 800.438 680.516C801.105 680.3 800.811 679.242 800.154 679.477C797.952 680.245 795.626 680.598 793.294 680.516C792.696 680.516 792.706 681.408 793.294 681.437H793.324Z" fill="black"/>
    <path d="M794.069 686.024C796.358 687.219 799.112 687.092 801.281 685.69C801.85 685.338 801.281 684.416 800.752 684.789C798.89 686.018 796.53 686.214 794.49 685.308C794.01 685.102 793.579 685.779 794.069 686.024Z" fill="black"/>
    <path d="M795.401 692.354C797.428 692.359 799.433 691.931 801.281 691.1C801.81 690.855 801.428 689.944 800.879 690.12C799.132 690.818 797.288 691.244 795.411 691.384C794.813 691.384 794.803 692.364 795.411 692.364L795.401 692.354Z" fill="black"/>
    <path d="M795.872 698.489C797.077 698.264 798.283 698.058 799.478 697.784C800.037 697.656 799.792 696.804 799.243 696.931C798.038 697.156 796.862 697.47 795.666 697.744C795.176 697.852 795.392 698.587 795.872 698.489Z" fill="black"/>
    <path d="M612.171 622.5C606.798 638.125 602.589 654.127 599.578 670.373C598.271 677.651 597.183 684.968 596.314 692.325C595.334 700.871 596.197 709.965 590.846 717.168C590.346 717.834 591.473 718.481 591.963 717.815C596.265 712.072 596.255 706.564 596.863 699.626C597.686 690.545 598.862 681.503 600.391 672.5C603.303 655.612 607.493 638.969 612.925 622.716C613.082 622.226 612.318 622.02 612.151 622.5H612.171Z" fill="black"/>
    <path d="M594.796 720.921C595.014 720.859 595.165 720.659 595.165 720.431C595.165 720.204 595.014 720.004 594.796 719.941C594.577 720.004 594.426 720.204 594.426 720.431C594.426 720.659 594.577 720.859 594.796 720.921Z" fill="black"/>
    <path d="M576.185 745.216C580.206 745.823 584.296 745.823 588.317 745.216C589.141 745.098 588.807 743.804 587.965 743.942C584.106 744.559 580.185 744.697 576.293 744.353C575.832 744.353 575.724 745.098 576.185 745.167V745.216Z" fill="black"/>
    <path d="M614.758 745.5C622.48 745.412 630.32 743.951 637.886 742.56C638.866 742.364 638.454 740.835 637.464 741.031C629.889 742.54 622.225 743.354 614.65 744.735C614.179 744.824 614.297 745.559 614.758 745.549V745.5Z" fill="black"/>
    <path d="M802.634 772.499C792.717 775.135 786.082 783.367 782.809 792.795C780.917 798.234 779.153 804.849 779.653 810.66C780.153 816.471 783.74 821.224 784.494 826.889C784.867 829.692 789.267 829.829 789.022 826.889C788.679 822.724 787.189 819.098 785.759 815.217C783.799 809.788 784.504 804.535 785.759 799.008C788.042 788.953 792.981 778.79 803.399 775.311C804.14 775.07 804.561 774.288 804.354 773.536C804.147 772.784 803.385 772.327 802.624 772.499H802.634Z" fill="#DC3545"/>
    <path d="M799.743 821.44C797.92 811.905 794.843 801.497 800.116 792.452C801.399 790.217 805.408 783.896 809.19 787.552C809.994 788.316 810.17 790.599 810.572 791.609C812.189 795.862 816.393 799.449 815.198 804.457C815 805.179 815.426 805.925 816.148 806.123C816.871 806.32 817.617 805.895 817.814 805.172C819.392 799.008 814.571 794.127 812.718 788.581C811.317 784.425 808.495 781.505 803.987 784.053C798.891 786.934 795.813 793.794 794.951 799.302C793.746 806.946 796.009 814.658 797.538 822.077C797.842 823.518 800.018 822.9 799.743 821.469V821.44Z" fill="#DC3545"/>
    <path d="M814.384 812.845C813.404 818.49 810.278 827.202 802.801 824.605C801.301 824.096 800.272 826.477 801.713 827.183C805.204 828.738 809.293 827.956 811.964 825.223C815.198 822.097 816.07 817.383 816.629 813.169C816.795 811.905 814.61 811.601 814.384 812.865V812.845Z" fill="#DC3545"/>
    <path d="M804.202 799.929C805.065 803.769 805.221 807.734 804.662 811.63C804.541 812.122 804.711 812.641 805.1 812.965C805.49 813.289 806.031 813.362 806.492 813.153C806.954 812.944 807.256 812.49 807.269 811.983C807.755 807.745 807.46 803.453 806.397 799.321C806.034 797.891 803.878 798.498 804.202 799.929Z" fill="#DC3545"/>
    <path d="M805.545 818.647C806.134 818.592 806.585 818.098 806.585 817.505C806.585 816.913 806.134 816.418 805.545 816.364C804.955 816.418 804.504 816.913 804.504 817.505C804.504 818.098 804.955 818.592 805.545 818.647Z" fill="#DC3545"/>
    <path d="M808.926 775.88L809.906 775.115C810.144 774.876 810.278 774.552 810.278 774.214C810.276 773.876 810.143 773.553 809.906 773.312C809.663 773.079 809.341 772.946 809.004 772.94C808.666 772.939 808.342 773.073 808.102 773.312L807.348 774.292C807.143 774.511 807.025 774.796 807.015 775.096C807.018 775.399 807.138 775.69 807.348 775.909C807.563 776.12 807.851 776.239 808.151 776.242C808.451 776.222 808.737 776.105 808.965 775.909L808.926 775.88Z" fill="#DC3545"/>
    <path d="M523.001 754.418C525.26 758.231 527.886 761.816 530.841 765.119C532.154 766.599 534.418 764.365 533.016 762.944C530.073 759.938 527.424 756.656 525.108 753.144C524.245 751.84 522.168 753.007 523.001 754.379V754.418Z" fill="#DC3545"/>
    <path d="M734.524 753.379C728.997 759.769 721.637 764.247 713.778 767.256C705.026 770.598 695.687 771.548 686.886 774.606C684.231 775.527 684.446 779.986 687.582 779.79C705.751 778.634 726.204 770.588 736.484 754.888C737.249 753.712 735.504 752.291 734.524 753.379Z" fill="black"/>
    <path d="M944.322 634.162C947.096 634.309 949.947 632.721 952.397 631.536C955.124 630.245 957.725 628.707 960.169 626.939C960.88 626.481 961.264 625.654 961.153 624.815C961.041 623.976 960.456 623.276 959.649 623.019C957.052 622.284 954.073 625.322 952.005 626.557C949.232 628.213 945.528 629.438 943.362 631.869C942.989 632.265 942.885 632.844 943.097 633.345C943.309 633.846 943.798 634.174 944.342 634.182L944.322 634.162Z" fill="black"/>
    <path d="M852.614 829.123C873.488 816.795 894.754 803.085 912.511 786.523C916.862 782.465 910.12 775.743 905.965 779.986C889.511 796.979 869.705 811.728 850.281 825.144C847.87 826.81 850.017 830.652 852.614 829.123Z" fill="black"/>
    <path d="M905.249 767.726C902.358 772.401 907.317 778.134 909.738 782.024C913.56 788.179 917.754 794.088 922.135 799.86C926.202 805.231 930.377 810.542 934.875 815.54C939.618 820.842 944.508 827.095 950.555 830.858C953.906 832.916 958.395 828.712 956.102 825.311C952.828 820.48 948.115 816.638 944.077 812.453C939.83 808.07 935.669 803.614 931.592 799.086C927.718 794.761 923.974 790.335 920.361 785.807C918.401 783.328 916.382 780.907 914.422 778.359C912.462 775.811 908.405 771.911 908.17 768.559C908.131 767.869 907.655 767.282 906.989 767.1C906.323 766.917 905.614 767.182 905.23 767.756L905.249 767.726Z" fill="black"/>
    <path d="M933.287 792.589C932.474 799.018 931.043 806.956 935.972 812.189C937.736 814.07 940.794 812.11 940.186 809.739C939.481 806.995 938.226 804.476 937.707 801.673C937.148 798.684 936.59 795.607 936.335 792.579C936.271 791.785 935.608 791.172 934.811 791.172C934.014 791.172 933.351 791.785 933.287 792.579V792.589Z" fill="black"/>
    <path d="M938.403 795.117C937.184 796.538 935.843 797.85 934.395 799.037C932.69 800.429 935.208 803.055 936.845 801.487C938.282 800.103 939.593 798.594 940.765 796.979C941.745 795.597 939.501 793.833 938.374 795.137L938.403 795.117Z" fill="black"/>
    <path d="M908.709 798.9C909.735 803.89 911.043 808.818 912.629 813.659C913.276 815.511 914.011 817.344 914.785 819.147C915.56 820.95 918.382 824.547 918.549 826.565C918.803 829.505 923.115 831.465 924.703 828.231C926.83 823.968 922.429 819.49 920.352 815.893C916.935 810.227 914.045 804.26 911.718 798.067C911.488 797.236 910.628 796.749 909.797 796.979C908.966 797.209 908.479 798.069 908.709 798.9Z" fill="black"/>
    <path d="M907.112 813.708L912.57 817.177C914.716 818.539 916.784 814.884 914.53 813.806L908.65 811.023C907.916 810.657 907.024 810.923 906.61 811.632C906.197 812.34 906.403 813.248 907.082 813.708H907.112Z" fill="black"/>
    <path d="M910.875 820.725C912.374 821.205 914.324 820.44 915.775 819.921C916.586 819.803 917.238 819.192 917.409 818.391C917.581 817.589 917.234 816.765 916.542 816.326C915.849 815.887 914.957 815.925 914.305 816.422C912.972 817.069 911.365 817.265 910.238 818.177C909.258 818.931 909.934 820.411 910.904 820.725H910.875Z" fill="black"/>
    <path d="M894.117 823.998C897.253 807.338 900.164 789.806 900.438 772.803C900.497 768.814 894.842 769.039 894.401 772.803C892.441 789.58 891.775 806.642 890.285 823.478C890.099 825.654 893.705 826.154 894.117 823.998Z" fill="black"/>
    <path d="M886.121 780.917C888.089 782.595 889.696 784.655 890.844 786.973C891.952 789.159 892.118 791.873 893.402 793.922C893.844 794.625 894.654 795.007 895.478 794.899C896.302 794.792 896.987 794.215 897.234 793.422C897.988 790.648 896.254 787.003 894.725 784.71C892.986 782.161 890.72 780.016 888.081 778.418C886.571 777.438 884.749 779.731 886.121 780.917Z" fill="black"/>
    <path d="M888.766 775.762L888.208 779.153C888.005 779.978 888.483 780.818 889.296 781.064C889.7 781.187 890.137 781.141 890.507 780.936C890.876 780.731 891.146 780.385 891.256 779.976L891.746 776.566C891.944 775.76 891.48 774.94 890.687 774.694C889.876 774.475 889.04 774.952 888.815 775.762H888.766Z" fill="black"/>
    <path d="M900.82 804.496C898.257 806.59 895.998 809.031 894.107 811.748C892.637 813.816 896.145 815.923 897.527 813.708C899.14 811.206 901.089 808.937 903.319 806.965C905.054 805.427 902.555 803.045 900.82 804.457V804.496Z" fill="black"/>
    <path d="M883.631 814.756C880.515 818.363 876.938 821.744 874.145 825.595C871.999 828.535 876.918 831.397 879.045 828.457C881.701 824.801 883.68 820.489 886.013 816.599C886.885 815.158 884.778 813.424 883.631 814.756Z" fill="black"/>
    <path d="M899.958 817.971C898.853 821.093 898.289 824.381 898.292 827.692C898.292 830.632 903.065 830.505 902.761 827.692C902.403 824.732 902.472 821.735 902.967 818.794C903.194 817.963 902.705 817.105 901.874 816.878C901.043 816.651 900.185 817.14 899.958 817.971Z" fill="black"/>
    <path d="M913.844 796.793C918.769 807.568 924.716 817.846 931.602 827.487C933.258 829.799 937.109 827.487 935.404 825.272C928.155 815.885 921.825 805.823 916.5 795.225C915.589 793.412 912.992 795 913.805 796.793H913.844Z" fill="black"/>
    <path d="M884.033 783.534C878.329 791.271 872.046 798.564 865.236 805.348C858.68 811.934 851.261 817.52 844.372 823.723C841.167 826.663 845.479 832.436 849.066 829.809C864.619 818.422 877.3 801.703 887.884 785.788C889.501 783.357 885.699 781.26 884.033 783.534Z" fill="black"/>
    <path d="M867.069 794.245C866.256 797.254 865.58 800.35 864.58 803.3C863.806 805.603 861.758 807.7 862.679 810.16C863.365 812.003 866.168 812.297 866.717 810.16C867.324 807.838 868.441 805.819 868.843 803.428C869.323 800.644 869.666 797.822 870.068 795.029C870.352 793.069 867.608 792.207 867.069 794.196V794.245Z" fill="black"/>
    <path d="M863.717 802.379C863.501 802.379 864.06 802.467 864.138 802.487C864.442 802.565 864.079 802.408 864.364 802.585C864.364 802.585 864.824 802.898 864.56 802.693C864.628 802.693 865.089 803.241 864.854 802.928C865.141 803.403 865.617 803.735 866.162 803.839C866.708 803.944 867.272 803.812 867.715 803.477C868.163 803.133 868.442 802.614 868.479 802.051C868.517 801.488 868.31 800.936 867.911 800.537C866.644 799.435 864.953 798.954 863.295 799.223C862.526 799.429 862.032 800.179 862.149 800.968C862.264 801.75 862.927 802.334 863.717 802.35V802.379Z" fill="black"/>
    <path d="M821.078 828.682C835.337 819.108 849.409 805.084 844.186 786.258C841.501 776.576 832.426 771.411 828.506 762.503C823.929 752.144 827.154 738.454 839.541 735.994L837.502 732.476C828.751 741.835 841.256 754.957 851.869 749.273C857.749 746.137 860.581 739.728 859.895 733.25C859.411 729.389 857.984 725.707 855.74 722.529C852.3 717.55 847.155 713.581 850.84 707.113L847.792 707.505C852.173 712.15 859.386 711.69 864.247 707.936C870.127 703.399 872.684 694.011 873.292 686.945C874.007 678.644 866.785 675.567 860.552 672C852.712 667.482 844.617 663.327 837.159 658.143C829.172 652.576 821.558 645.51 817.775 636.347C814.071 627.371 815.296 618.149 819.99 609.887C827.085 597.334 839.59 587.534 842.706 572.892C845.979 557.428 834.219 546.677 821.323 540.886C810.856 536.182 794.706 531.87 790.188 519.972C788.995 516.84 788.814 513.413 789.669 510.172C790.355 507.928 790.208 508.212 791.354 509.722C792.628 511.427 793.314 512.985 795.019 514.406C800.821 519.306 809.641 521.168 816.913 522.422C825.36 523.883 834.004 524.48 842.275 526.832C851.298 529.367 859.126 535.025 864.364 542.797C870.381 551.509 873.674 562.397 871.381 572.922C869.303 582.477 862.865 593.11 868.588 602.714C871.979 608.408 881.171 611.838 886.228 606.134C888.136 604.024 888.909 601.124 888.304 598.344C887.7 595.564 885.792 593.247 883.18 592.12L883.739 596.373C890.266 593.433 897.625 597.216 901.173 602.939C904.907 608.966 904.995 616.659 904.015 623.519C902.241 635.857 895.636 649.979 901.408 662.239C904.936 669.726 915.912 675.822 923.164 669.305C928.799 664.248 927.672 654.321 920.479 651.557L919.842 656.271C927.476 656.173 933.297 661.925 935.718 668.844C938.491 676.802 936.041 685.416 932.513 692.717C925.928 706.349 914.383 717.903 911.933 733.338C910.267 743.814 915.746 758.534 928.887 756.299C937.982 754.741 941.461 741.011 932.298 736.905L932.807 740.825C935.689 738.414 939.569 740.776 941.627 743.177C944.068 746.058 944.254 750.037 944.322 753.634C944.42 758.867 943.499 765.394 946.763 769.961C948.497 772.381 952.055 774.625 955.004 772.665C958.454 770.372 958.297 764.404 957.111 761.062L953.025 763.434C959.836 771.881 959.414 783.387 958.297 793.579C957.111 804.359 955.445 815.139 958.993 825.566C959.973 828.447 964.54 827.212 963.56 824.311C956.504 803.271 971.772 779.026 956.484 759.984C954.955 758.083 951.584 760.131 952.398 762.356C953.211 764.58 953.044 770.725 950.32 766.374C948.664 763.738 949.271 759.328 949.281 756.319C949.281 751.419 949.36 746.029 946.665 741.688C942.941 735.7 935.13 732.417 929.279 737.278C928.741 737.829 928.485 738.597 928.585 739.361C928.684 740.125 929.128 740.802 929.789 741.198C932.263 742.353 933.386 745.253 932.337 747.773C931.161 751.096 927.604 751.87 924.497 750.998C916.853 748.842 915.746 739.767 917.039 733.113C919.597 719.981 929.034 709.593 935.228 698.166C940.432 688.532 944.175 676.939 939.932 666.257C936.61 657.868 929.152 651.292 919.862 651.43C917.02 651.43 916.765 655.212 919.225 656.143C924.458 658.103 921.763 666.169 917.157 667.061C910.522 668.344 905.642 661.965 904.417 656.281C901.918 644.873 907.759 632.761 908.935 621.481C909.826 612.945 908.543 603.253 902.339 596.824C896.851 591.14 888.619 589.131 881.426 592.365C879.358 593.296 880.387 595.942 881.985 596.618C884.141 597.53 884.239 600.793 883.161 602.498C881.504 605.085 877.878 604.644 875.585 603.263C870.43 600.166 870.597 593.198 871.773 588.073C873.733 579.566 877.437 572.157 876.761 563.2C875.664 548.569 866.628 533.8 853.692 526.685C840.423 519.384 824.674 520.609 810.386 516.885C806.413 515.978 802.604 514.461 799.096 512.387C796.558 510.77 795.549 508.751 794.265 506.145C793.89 505.033 793.08 504.12 792.021 503.616C786.817 501.392 785.602 509.202 785.298 512.534C782.916 538.73 820.47 539.778 833.484 554.537C845.244 567.943 834.033 583.378 825.213 594.717C817.001 605.252 809.092 616.63 811.493 630.703C814.512 648.803 831.093 660.436 845.891 668.923C849.811 671.186 853.8 673.342 857.759 675.547C862.208 678.027 868.647 680.34 869.049 685.926C869.382 690.6 867.226 697.499 864.795 701.429C861.914 706.104 855.133 709.593 850.615 704.81C850.185 704.393 849.588 704.195 848.994 704.274C848.4 704.352 847.874 704.698 847.567 705.212C845.447 708.6 845.082 712.799 846.587 716.502C848.851 721.901 853.957 725.175 855.574 731.084C857.269 737.287 854.799 744.804 847.979 746.578C841.903 748.116 835.748 740.58 840.55 735.514C841.189 734.828 841.303 733.804 840.832 732.994C840.36 732.184 839.414 731.779 838.502 731.995C830.684 733.573 824.419 739.417 822.303 747.107C819.794 755.927 822.91 765.08 828.653 771.93C832.103 776.046 836.562 779.506 838.963 784.406C841.487 789.827 842.075 795.95 840.629 801.752C838.12 812.62 828.663 820.48 820.049 826.771C818.892 827.614 819.97 829.574 821.205 828.731L821.078 828.682Z" fill="black"/>
    <path d="M290.77 310.096H357.547C358.291 310.077 358.971 309.672 359.343 309.028C359.715 308.385 359.725 307.593 359.37 306.94C355.656 299.992 358.811 291.319 364.966 286.87C372.914 281.117 383.752 283.028 391.945 287.154C393.905 288.134 396.845 285.958 395.297 283.792C387.81 273.267 386.281 259.087 392.778 247.66C399.152 236.505 411.316 229.948 424.138 230.755C452.558 232.568 467.827 260.782 479.361 283.077C480.253 284.812 483.281 284.949 484.124 283.077C488.857 272.767 499.804 265.8 511.309 267.152C522.814 268.504 531.889 277.863 534.026 288.996C534.614 291.995 538.436 291.211 539.367 288.996C542.601 281.303 552.842 279.559 559.202 284.194C561.652 285.978 564.866 281.872 562.465 279.97C552.94 272.415 538.681 276.442 534.045 287.516H539.386C536.799 274.257 525.607 263.32 512.064 261.684C498.52 260.047 485.016 268.014 479.381 280.304H484.144C471.051 255.01 451.372 221.935 417.905 225.473C388.78 228.56 374.178 262.771 391.122 286.282L394.474 282.92C384.291 277.873 370.865 276.001 361.418 283.724C353.98 289.8 350.903 300.511 355.783 309.076L357.606 305.901C335.34 306.326 313.081 306.747 290.829 307.165C290.017 307.165 289.359 307.824 289.359 308.635C289.359 309.447 290.017 310.105 290.829 310.105L290.77 310.096Z" fill="#DC3545"/>
    <path d="M597.697 403.215C624.006 401.307 650.352 399.864 676.734 398.884C678.017 398.884 679.409 397.502 678.85 396.11C676.714 390.75 678.115 384.066 683.329 380.95C688.543 377.833 695.02 379.901 698.637 384.36C700.322 386.457 702.988 384.095 702.655 382.028C700.459 368.308 704.487 349.247 720.402 346.081C739.179 342.347 752.36 360.517 761.494 373.854C762.108 374.854 763.306 375.33 764.438 375.024C765.57 374.718 766.366 373.704 766.394 372.531C766.923 361.32 767.678 349.217 773.254 339.211C779.134 328.647 790.159 323.708 801.968 325.903C829.035 330.93 836.944 360.399 838.835 384.007C839.041 386.575 843.079 388.466 844.343 385.497C847.685 377.657 855.927 372.051 864.668 373.404C873.41 374.756 879.682 382.576 880.348 391.044C880.672 394.817 886.503 394.964 886.326 391.044C885.787 379.646 877.261 369.386 865.825 367.524C854.388 365.662 843.285 372.708 838.894 383.204L844.696 383.988C842.422 357.136 832.397 324.492 801.35 320.19C789.022 318.475 777.34 323.267 770.265 333.616C762.621 344.797 761.67 359.439 761.112 372.531L766.012 371.208C755.232 355.646 739.326 335.566 717.6 341.593C699.96 346.493 695.383 367.445 698 383.302L702.018 380.959C696.882 374.658 687.318 372.718 680.399 377.235C673.48 381.753 671.716 390.573 674.813 397.815L676.714 394.513C650.332 396.074 623.987 398.08 597.677 400.53C595.962 400.687 595.923 403.362 597.677 403.235L597.697 403.215Z" fill="#DC3545"/>
    <path d="M657.643 217.868C666.201 217.625 674.765 218.035 683.26 219.093C684.446 219.24 685.22 217.868 684.946 216.878C683.329 210.077 688.454 203.981 694.521 201.59C700.342 199.307 706.751 199.571 712.896 199.787C713.562 199.778 714.187 199.464 714.591 198.934C714.995 198.403 715.132 197.717 714.963 197.072C711.465 185.822 720.579 173.425 732.162 172.366C744.471 171.239 754.996 181.451 757.985 192.692C758.262 193.585 759.035 194.235 759.962 194.355C760.89 194.475 761.802 194.043 762.297 193.25C767.785 185.302 778.84 183.852 786.67 189.066C789.13 190.712 791.256 186.851 788.953 185.146C779.153 177.952 764.973 181.098 758.221 190.859L762.533 191.427C758.848 177.521 745.314 165.555 730.271 168.015C716.757 170.22 706.584 184.91 710.828 198.199L712.896 195.485C704.566 195.269 695.187 195.122 688.19 200.385C682.712 204.51 679.664 211.047 681.585 217.799L683.26 215.604C674.73 214.879 666.156 214.8 657.614 215.369C656.026 215.477 655.997 217.917 657.614 217.868H657.643Z" fill="#DC3545"/>
    <path d="M49.9843 425.138C65.4903 421.119 81.7439 420.954 97.3281 424.658C97.8315 424.785 98.3647 424.637 98.7309 424.269C99.0971 423.901 99.2418 423.367 99.1117 422.864C96.3579 412.682 94.0255 397.227 105.276 391.073C114.909 385.801 126.444 394.013 133.931 399.619C135.166 400.55 137.087 399.305 137.008 397.855C136.362 385.409 145.064 373.139 157.588 370.709C170.328 368.239 183.235 376.951 186.832 389.093C187.081 389.92 187.792 390.524 188.648 390.636C189.504 390.748 190.347 390.347 190.801 389.613C194.225 384.659 200.185 382.104 206.135 383.04C212.085 383.976 216.972 388.237 218.711 394.003C219.564 396.747 223.895 395.571 223.023 392.817C220.789 385.357 214.447 379.858 206.746 378.704C199.044 377.55 191.369 380.949 187.047 387.427L191.016 387.947C186.841 373.992 172.396 364.172 157.804 366.387C142.996 368.66 132.138 383.115 132.951 397.825L136.028 396.061C126.816 389.26 113.322 381.038 102.12 388.574C90.3603 396.541 93.0259 412.094 96.2403 423.638L98.0337 421.855C81.944 418.167 65.197 418.467 49.2493 422.727C48.6335 422.95 48.293 423.609 48.4675 424.241C48.642 424.872 49.2728 425.263 49.9157 425.138H49.9843Z" fill="#DC3545"/>
    <path d="M150.797 667.962C204.692 640.211 254.581 605.286 299.1 564.141C311.964 552.231 324.341 539.817 336.232 526.901C336.654 526.45 335.977 525.774 335.556 526.225C294.272 570.874 247.13 609.725 195.416 641.718C180.742 650.773 165.735 659.266 150.395 667.198C149.875 667.462 150.326 668.237 150.846 667.972L150.797 667.962Z" fill="white"/>
    <path d="M159.558 710.406C214.548 685.055 265.824 652.322 311.967 613.112C325.309 601.763 338.176 589.902 350.57 577.528C350.754 577.344 350.754 577.045 350.57 576.861C350.386 576.677 350.087 576.677 349.903 576.861C306.898 619.784 258.213 656.609 205.206 686.308C190.18 694.729 174.826 702.543 159.146 709.749C158.705 709.955 159.087 710.612 159.528 710.406H159.558Z" fill="white"/>
    <path d="M223.17 719.608L236.762 708.289C237.223 707.897 236.557 707.241 236.096 707.623L222.513 718.952C222.062 719.334 222.719 719.981 223.17 719.608Z" fill="white"/>
    <path d="M834.562 615.356C835.542 622.657 839.188 631.565 847.812 632.016C854.976 632.378 859.797 625.303 856.377 618.943L855.26 621.667C864.521 618.286 864.139 632.339 864.08 637.465C864.08 639.16 866.804 639.621 867.108 637.876C868.088 632.388 868.284 625.93 864.609 621.334C861.895 617.943 857.896 616.434 853.829 618.276C852.947 618.795 852.65 619.929 853.163 620.814C855.858 625.009 852.183 629.086 847.812 628.919C845.531 628.749 843.395 627.74 841.814 626.087C838.757 623.078 837.728 618.776 837.071 614.68C836.807 613.014 834.337 613.7 834.562 615.375V615.356Z" fill="white"/>
    <path d="M868.098 719.647C874.287 721.392 880.922 719.316 885.013 714.355C886.949 712.134 888.03 709.295 888.061 706.349C887.935 705.033 887.562 703.754 886.963 702.576C885.493 698.92 885.885 695.539 888.688 692.678L886.218 691.237C885.69 694.034 886.78 696.889 889.037 698.623C891.294 700.356 894.335 700.672 896.9 699.44C904.574 695.941 903.358 686.533 899.84 680.536L898.86 682.888C906.2 681.486 909.581 690.728 910.003 696.392C910.424 702.056 908.386 706.996 905.456 711.66C901.232 718.383 895.94 725.508 898.782 733.818C899.028 734.711 899.952 735.236 900.845 734.989C901.738 734.743 902.262 733.819 902.016 732.926C900.007 725.086 905.034 719.001 908.876 712.709C911.757 707.966 913.59 702.831 913.413 697.205C913.149 688.934 907.935 677.85 898.037 679.801C897.557 679.933 897.165 680.278 896.974 680.738C896.782 681.197 896.813 681.719 897.057 682.153C898.841 685.151 900.144 688.297 899.154 691.815C898.586 693.834 897.919 695.206 895.979 696.196C893.304 697.558 888.335 696.451 889.06 692.021C889.276 690.669 887.698 689.424 886.591 690.581C883.033 694.324 882.837 698.176 884.052 702.899C885.503 708.544 884.856 712.337 879.731 715.639C876.477 717.778 872.459 718.41 868.706 717.374C868.103 717.249 867.508 717.614 867.345 718.206C867.182 718.799 867.507 719.417 868.088 719.618L868.098 719.647Z" fill="white"/>
    <path d="M854.339 771.097L855.26 769.441C855.614 768.713 855.347 767.836 854.649 767.428C853.95 767.02 853.055 767.218 852.595 767.883L851.811 769.618C851.454 770.307 851.678 771.155 852.33 771.578C853.033 771.969 853.92 771.735 854.339 771.048V771.097Z" fill="white"/>
    <path d="M861.17 762.336C862.075 762.268 862.774 761.514 862.774 760.606C862.774 759.699 862.075 758.945 861.17 758.877C860.265 758.945 859.565 759.699 859.565 760.606C859.565 761.514 860.265 762.268 861.17 762.336Z" fill="white"/>
    <path d="M863.746 773.361L864.305 772.646C864.477 772.478 864.601 772.269 864.668 772.038C864.727 771.797 864.727 771.545 864.668 771.303C864.564 770.959 864.337 770.666 864.031 770.48C863.66 770.268 863.212 770.238 862.816 770.398C862.42 770.559 862.12 770.893 862.002 771.303L861.757 772.195C861.615 772.718 861.84 773.271 862.306 773.547C862.491 773.646 862.695 773.703 862.904 773.714C863.221 773.715 863.524 773.588 863.746 773.361Z" fill="white"/>
    <path d="M892.981 761.856C893.628 761.799 894.124 761.256 894.124 760.606C894.124 759.957 893.628 759.414 892.981 759.357C892.333 759.414 891.837 759.957 891.837 760.606C891.837 761.256 892.333 761.799 892.981 761.856Z" fill="white"/>
    <path d="M926.133 773.244C926.739 773.188 927.202 772.68 927.202 772.073C927.202 771.465 926.739 770.957 926.133 770.901C925.528 770.957 925.064 771.465 925.064 772.073C925.064 772.68 925.528 773.188 926.133 773.244Z" fill="white"/>
    <path d="M836.542 609.848C837.189 609.791 837.686 609.249 837.686 608.599C837.686 607.949 837.189 607.407 836.542 607.349C835.895 607.407 835.398 607.949 835.398 608.599C835.398 609.249 835.895 609.791 836.542 609.848Z" fill="white"/>
    <path d="M841.638 601.832C842.358 601.832 842.942 601.248 842.942 600.528C842.942 599.809 842.358 599.225 841.638 599.225C840.919 599.225 840.335 599.809 840.335 600.528C840.335 601.248 840.919 601.832 841.638 601.832Z" fill="white"/>
    <path d="M845.029 608.78C845.76 608.719 846.323 608.108 846.323 607.374C846.323 606.64 845.76 606.029 845.029 605.967C844.298 606.029 843.735 606.64 843.735 607.374C843.735 608.108 844.298 608.719 845.029 608.78Z" fill="white"/>
    <path d="M821.254 534.212C833.337 535.437 845.038 538.72 851.369 550.039C857.236 560.773 855.759 574.031 847.675 583.212C846.381 584.701 848.517 586.877 849.86 585.397C858.68 575.597 861.199 561.475 854.878 549.676C848.018 536.789 834.895 532.967 821.254 531.87C819.745 531.752 819.774 534.055 821.254 534.212Z" fill="white"/>
    </svg>
    