<svg width="1000" height="1000" viewBox="0 0 1000 1000" fill="none" xmlns="http://www.w3.org/2000/svg">
<path d="M623.401 660.358C652.801 632.183 693.609 613.151 734.22 609.202C751.046 607.565 768.52 608.447 783.661 616.669C796.273 623.529 805.544 634.476 811.699 647.324C825.801 676.802 821.43 711.906 808.935 741.051C799.978 761.954 787.316 781.054 774.312 799.616C767.54 809.298 760.68 818.922 753.82 828.584C747.597 837.404 741.335 850.144 730.809 854.388C725.909 856.348 720.559 857.073 716.109 860.209C711.66 863.345 709.847 868.049 706.927 872.312C700.9 881.22 689.826 884.983 679.506 886.12C658.926 888.433 625.665 882.367 625.156 855.907C625.097 852.565 620.373 849.929 617.953 852.967C580.017 900.007 522.687 932.817 460.839 921.459C443.601 918.294 428.225 911.277 413.133 902.574C409.213 900.301 404.362 906.004 408.095 909.101C432.419 929.309 467.523 935.561 498.334 932.474C529.958 929.24 559.937 916.108 585.103 896.9C599.529 885.849 612.563 873.092 623.921 858.906L616.718 855.966C617.188 879.897 640.061 892.284 661.239 894.499C680.565 896.518 703.967 893.284 715.139 875.419C718.177 870.519 720.255 866.981 726.017 865.011C731.456 863.149 736.631 861.963 741.286 858.367C750.586 851.173 756.966 839.462 763.669 830.025C778.496 809.259 793.921 788.689 806.456 766.413C825.213 733.093 836.306 694.079 824.605 656.349C819.989 641.444 811.699 627.547 799.449 617.679C786.091 606.899 769.48 601.803 752.409 601.538C728.31 601.156 704.124 607.418 682.094 616.836C659.377 626.508 638.18 640.14 620.853 657.78C620.198 658.492 620.22 659.593 620.904 660.277C621.588 660.961 622.69 660.984 623.401 660.328V660.358Z" fill="black"/>
<path d="M658.084 853.653C665.247 851.379 672.921 854.231 679.889 857.053C683.809 858.631 688.287 860.885 688.954 865.06C689.816 870.362 684.054 876.575 687.768 880.436C689.022 881.73 690.943 882.092 692.736 882.19C699.959 882.563 706.897 879.74 713.826 877.692C721.398 875.45 729.206 874.095 737.091 873.654C741.403 873.419 746.44 873.811 748.851 877.369C751.527 881.289 749.214 887.012 745.255 889.628C741.295 892.245 736.317 892.568 731.584 892.843C734.818 891.99 738.15 891.118 741.491 891.451C744.833 891.784 748.234 893.578 749.527 896.675C751.262 900.83 748.547 905.759 744.627 908.003C740.707 910.248 736.023 910.483 731.525 910.669C734.72 910.316 738.061 909.973 741.07 911.12C744.079 912.266 746.577 915.412 745.862 918.548C745.398 920.106 744.505 921.502 743.285 922.576C738.05 927.793 731.066 930.883 723.685 931.249C728.144 928.142 735.445 932.778 734.465 938.109C733.994 940.784 731.995 942.95 729.771 944.508C723.548 948.879 715.521 949.477 707.936 949.928C699.567 950.428 691.208 950.908 682.829 951.251C669.109 951.77 655.114 951.78 642.09 947.488C629.066 943.195 617.002 933.905 612.69 920.9C607.574 905.632 613.886 888.903 622.147 875.085C626.392 867.998 631.169 861.243 636.435 854.878" fill="white"/>
<path d="M658.574 855.436C665.561 854.133 672.147 856.681 678.36 859.67C680.477 860.65 683.348 861.884 684.72 863.874C686.308 866.167 685.152 868.705 684.328 871.096C683.143 874.585 682.065 878.466 684.328 881.769C687.014 885.689 691.982 886.022 696.314 885.689C702.086 885.277 707.554 883.356 713.052 881.7C719.123 879.816 725.357 878.504 731.672 877.78C735.494 877.378 746.167 875.516 746.519 881.484C746.941 888.531 736.386 889.158 731.633 889.442L732.525 896.037C736.347 895.057 747.372 892.607 746.539 900.016C745.794 906.621 736.455 906.876 731.545 907.111V914.128C734.112 913.883 737.141 913.344 739.561 914.432C744.226 916.529 740.708 920.312 737.866 922.37C733.722 925.365 728.809 927.116 723.705 927.417L725.665 934.453C727.311 933.621 729.32 934.193 730.281 935.767C731.506 937.981 729.516 939.814 727.87 941.098C724.802 943.499 720.539 944.518 716.776 945.126C707.613 946.596 697.97 946.547 688.709 946.978C671.549 947.762 652.782 948.84 636.945 940.99C622.775 933.963 613.514 920.959 615.042 904.73C616.689 887.178 627.988 870.479 638.739 857.112C641.287 853.946 636.857 849.38 634.201 852.584C623.049 865.991 611.936 881.465 608.173 898.821C604.674 914.991 609.505 930.651 622.422 941.206C635.691 952.044 652.714 955.19 669.462 955.445C679.419 955.592 689.395 954.975 699.332 954.396C708.093 953.887 717.629 954.112 725.929 950.898C732.476 948.369 740.512 942.372 738.023 934.306C736.96 931.128 734.545 928.583 731.428 927.354C728.31 926.125 724.808 926.338 721.862 927.936C718.726 929.691 719.961 935.267 723.764 934.973C732.662 934.287 745.108 929.975 748.91 920.969C750.586 917 749.234 912.776 746.088 909.944C742.1 906.357 736.572 906.543 731.604 907.111C727.223 907.601 726.998 914.354 731.604 914.128C740.786 913.687 754.496 910.649 753.516 898.536C752.536 886.894 739.022 887.404 730.79 889.56C727.203 890.54 727.85 896.42 731.692 896.155C738.033 895.783 745.089 895.175 749.714 890.275C752.997 886.796 754.683 881.171 752.654 876.663C750.126 871.116 744.079 869.803 738.503 869.803C730.711 870.037 722.978 871.238 715.483 873.38C711.67 874.409 707.966 875.751 704.174 876.839C701.616 877.574 693.393 880.338 691.002 878.29C688.856 876.467 691.512 872.047 691.982 869.724C692.613 867.35 692.518 864.841 691.708 862.521C689.64 857.229 683.976 855.191 678.968 853.535C671.961 851.212 664.728 849.38 657.516 851.849C656.533 852.12 655.956 853.136 656.227 854.118C656.498 855.1 657.513 855.677 658.496 855.407L658.574 855.436Z" fill="black"/>
<path d="M570.295 351.04C585.017 345.601 599.44 339.385 613.503 332.42C621.04 328.735 628.497 324.854 635.808 320.66C639.17 318.749 642.511 316.74 645.785 314.721C647.313 313.741 648.842 312.761 650.332 311.781C651.057 311.321 651.763 310.801 652.449 310.301C653.342 309.357 654.683 308.98 655.937 309.321C654.957 311.84 658.789 313.163 660.142 311.095C660.92 309.96 661.185 308.55 660.872 307.209C660.559 305.869 659.696 304.722 658.495 304.049C655.104 302.001 651.4 304.343 648.597 306.244C640.757 311.536 632.721 316.495 624.44 321.081C606.64 330.986 588.205 339.704 569.256 347.179C566.953 348.08 567.904 351.834 570.295 350.952V351.04Z" fill="black"/>
<path d="M256.656 489.955C254.177 486.554 255.598 481.468 258.616 478.577C261.635 475.686 265.888 474.432 269.935 473.275L353.304 449.461C365.201 446.061 377.177 442.601 388.27 437.162C396.277 433.242 403.735 428.234 411.173 423.305C444.819 401 478.767 379.169 513.014 357.812C516.454 355.665 520.129 353.46 524.186 353.411C527.362 353.411 530.39 354.695 533.545 355.048C539.661 355.724 545.492 352.774 551.313 350.785C558.325 348.388 565.724 347.321 573.128 347.639C577.311 347.847 580.855 350.789 581.83 354.862C587.063 376.52 590.16 399.06 584.28 420.365C575.156 453.616 546.364 477.411 517.591 496.413C477.14 523.12 433.66 544.927 388.064 561.377" fill="#DC3545"/>
<path d="M257.852 489.22C251.374 477.088 277.608 473.227 284.429 471.316C295.876 468.121 307.302 464.857 318.729 461.604C339.946 455.567 362.075 450.706 382.488 442.229C402.705 433.831 420.63 419.748 438.877 407.851C458.477 395.085 478.172 382.475 497.961 370.023C502.842 366.952 507.742 363.891 512.661 360.84C517.885 357.587 521.942 355.107 528.341 356.352C532.693 357.195 536.436 357.812 540.846 356.832C546.197 355.636 551.156 353.098 556.467 351.736C561.563 350.433 567.933 349.188 573.225 350.021C580.605 351.187 580.722 360.497 581.84 366.387C584.118 377.607 585.039 389.061 584.584 400.501C582.32 442.053 550.96 470.492 518.62 492.16C498.379 505.669 477.335 517.935 455.606 528.891C433.36 540.18 410.3 549.137 387.3 558.673C384.066 560.006 385.242 565.19 388.789 564.082C411.447 557.017 433.458 546.756 454.665 536.172C476.334 525.375 497.34 513.296 517.571 500C550.715 478.176 584.564 449.785 589.523 407.88C590.924 396.071 590.013 384.135 588.082 372.434C587.229 366.279 585.959 360.189 584.28 354.206C583.275 350.514 580.609 347.5 577.067 346.052C572.569 344.268 566.757 345.16 562.112 345.797C556.578 346.687 551.157 348.172 545.942 350.227C543.053 351.455 540.01 352.286 536.897 352.696C533.79 352.932 531.017 352.01 527.998 351.452C523.84 350.682 519.543 351.375 515.837 353.412C504.87 358.968 494.58 366.554 484.202 373.139C473.383 380.006 462.603 386.921 451.862 393.886C440.84 401.033 429.848 408.22 418.885 415.446C408.772 422.12 398.825 429.283 387.986 434.752C375.677 440.965 362.261 444.552 349.06 448.325L307.371 460.31C293.72 464.23 279.843 467.729 266.387 472.227C258.91 474.726 249.835 482.027 255.46 490.651C255.845 491.311 256.692 491.535 257.352 491.151C258.012 490.767 258.236 489.92 257.852 489.259V489.22Z" fill="#DC3545"/>
<path d="M646.49 350.599L668.707 266.76C670.079 261.605 671.99 255.794 676.88 253.657C682.603 251.168 689.463 255.617 691.796 261.39C694.128 267.162 693.148 273.738 691.923 279.863C684.828 315.544 670.706 349.815 666.884 385.997" fill="black"/>
<path d="M648.451 351.138C653.164 335.458 657.574 319.69 661.975 303.912C664.131 296.18 666.306 288.447 668.443 280.715C670.256 274.139 671.069 265.388 675.028 259.655C680.595 251.609 688.748 260.037 689.64 266.78C690.62 274.551 687.905 283.038 686.112 290.545C682.515 305.617 677.998 320.444 673.872 335.37C669.276 352.03 665.297 368.827 663.376 386.036C662.876 390.514 669.913 390.485 670.393 386.036C674.372 349.717 688.601 315.701 695.353 279.961C696.725 272.738 697.735 264.565 693.785 257.93C690.787 252.864 684.965 249.061 678.938 249.747C672.911 250.433 669.138 255.392 667.129 260.694C663.974 268.906 662.337 277.912 660.191 286.429C654.85 307.616 649.411 328.765 644.511 350.05C644.292 351.102 644.926 352.143 645.961 352.43C646.997 352.717 648.077 352.152 648.431 351.138H648.451Z" fill="black"/>
<path d="M232.166 350.06C240.359 355.391 243.299 366.514 248.15 374.56C250.283 378.312 253.052 381.664 256.333 384.468C258.231 385.904 260.302 387.096 262.497 388.015C263.83 388.623 266.006 389.358 266.956 390.514C269.093 393.101 267.309 393.954 266.368 395.894C264.036 400.696 267.534 406.116 269.681 410.359C272.513 415.984 275.414 421.57 276.815 427.764C278.363 434.565 278.069 441.161 272.895 446.227C268.74 450.255 263.095 452.705 257.695 454.743C253.442 456.36 255.02 462.721 259.596 461.652C270.278 459.183 282.646 449.892 284.096 438.436C285.027 431.204 283.116 423.942 280.314 417.317C278.932 414.015 277.305 410.869 275.678 407.684C274.815 406.155 274.046 404.574 273.375 402.95C272.15 399.589 272.954 398.403 273.973 395.659C276.07 390.073 271.944 385.457 267.113 383.164C261.145 380.312 257.45 377.568 253.736 371.992C247.856 363.172 243.211 352.882 233.94 347.012C231.98 345.787 230.255 348.825 232.156 350.07L232.166 350.06Z" fill="black"/>
<path d="M213.369 371.111C210.851 374.952 211.488 376.834 211.841 379.539C212.821 386.967 218.073 394.072 223.189 399.531C228.305 404.989 236.341 408.086 243.524 405.979C247.777 404.734 251.364 401.863 255.451 400.177C258.98 398.735 262.814 398.2 266.603 398.619C267.723 398.678 268.811 399.015 269.768 399.599C271.082 400.52 271.728 402.118 272.463 403.519C275.119 408.282 280.127 411.134 284.223 414.779C288.32 418.425 291.662 424.109 289.535 429.127C295.338 434.555 296.401 443.368 292.054 450.02C294.768 459.683 288.594 470.943 278.98 473.864C277.964 474.102 276.978 474.453 276.04 474.912C275.102 475.573 274.221 476.311 273.404 477.117C268.847 480.92 262.046 480.057 256.44 478.097C248.237 475.279 240.729 470.741 234.42 464.789C238.605 467.614 242.62 470.684 246.444 473.981C247.758 475.118 249.12 477.098 247.944 478.372C247.209 478.954 246.264 479.203 245.337 479.058C238.663 478.92 231.617 478.656 226.021 474.971C219.475 470.649 216.505 462.466 215.8 454.656C215.094 446.845 216.26 438.976 215.917 431.136C215.215 416.298 209.27 402.192 199.14 391.328C197.121 389.182 194.769 386.614 195.396 383.733C195.87 382.257 196.734 380.937 197.895 379.911L208.195 369.072C209.645 367.543 211.88 365.897 213.624 367.112L212.86 370.64" fill="#DC3545"/>
<path d="M212.282 370.463C207.382 377.539 211.096 387.006 215.379 393.572C220.494 401.412 227.854 408.546 237.674 409.115C242.485 409.389 246.67 407.664 250.825 405.42C254.98 403.176 264.653 397.845 268.916 402.794C270.2 404.273 270.827 406.41 272.101 407.988C273.868 410.049 275.838 411.927 277.981 413.593C282.322 417.17 288.438 421.913 286.37 428.293C286.056 429.408 286.371 430.604 287.193 431.419C290.043 434.05 291.6 437.795 291.456 441.67C291.319 445.12 288.898 447.629 288.918 450.892C288.918 454.469 289.672 457.135 288.33 460.692C286.95 464.422 284.317 467.557 280.882 469.561C277.785 471.296 274.796 471.874 271.934 474.089C268.357 476.862 264.526 476.911 260.174 475.862C251.403 473.746 243.269 468.552 236.703 462.505L232.764 467.66C235.782 469.728 238.722 471.874 241.584 474.187L242.877 475.255C243.387 476.352 244.014 476.627 244.759 476.088C245.857 475.715 245.543 475.617 243.779 475.794C242.995 475.794 242.221 475.745 241.437 475.706C235.341 475.412 228.981 474.392 224.777 469.571C216.035 459.624 219.299 444.983 218.779 432.997C218.363 421.916 215.298 411.095 209.842 401.441C207.068 396.61 203.54 392.68 200.042 388.417C196.249 383.801 202.002 379.597 205.01 376.432C206.382 375.001 210.675 368.876 212.987 369.699L211.116 366.416L210.302 369.964C209.538 373.296 214.653 374.717 215.437 371.375L216.27 367.837C216.614 366.42 215.793 364.98 214.399 364.554C208.822 362.545 204.481 369.189 201.218 372.639C197.709 376.343 191.604 380.753 193.005 386.575C194.338 392.151 200.688 396.659 203.736 401.363C207.625 407.36 210.428 413.994 212.017 420.963C215.202 434.869 210.185 449.383 214.173 463.103C217.662 475.147 227.001 481.135 239.153 482.115C243.583 482.477 252.374 483.457 251.58 476.47C251.198 473.128 247.944 470.943 245.553 469.012C242.495 466.556 239.343 464.22 236.096 462.005C233.028 459.908 229.412 464.641 232.176 467.14C240.202 474.52 250.561 481.086 261.527 482.752C266.28 483.477 271.199 482.948 275.119 479.988C278.853 477.185 283.371 476.205 287.075 473.236C290.553 470.412 293.181 466.681 294.67 462.456C295.345 460.56 295.766 458.583 295.925 456.576C296.062 454.753 295.356 451.95 295.592 450.696C295.935 448.854 297.238 447.09 297.62 445.169C298.023 443.073 298.089 440.926 297.816 438.809C297.253 434.293 295.136 430.115 291.828 426.99L292.661 430.106C295.886 420.12 287.399 413.593 280.539 408.076C278.358 406.449 276.472 404.46 274.963 402.196C273.983 400.618 273.277 398.942 271.768 397.766C268.896 395.512 264.526 395.708 261.115 396.179C255.735 396.933 251.629 399.55 246.886 401.951C241.542 404.885 235.048 404.789 229.794 401.696C221.376 396.963 209.508 381.9 214.536 371.835C214.765 371.445 214.769 370.962 214.545 370.568C214.322 370.174 213.905 369.93 213.453 369.926C213 369.923 212.58 370.161 212.35 370.552L212.282 370.463Z" fill="#DC3545"/>
<path d="M243.671 383.948C243.18 383.123 242.36 382.546 241.417 382.361C240.515 382.142 239.575 382.54 239.105 383.341C238.326 385.135 238.553 387.207 239.702 388.79C240.354 389.859 241.735 390.222 242.829 389.613C243.619 389.131 244.202 388.373 244.465 387.486C244.804 386.245 244.077 384.962 242.838 384.615C241.596 384.287 240.318 385.008 239.957 386.242C239.889 386.526 239.957 386.496 240.065 386.163C240.173 385.83 240.271 385.82 240.065 386.026H243.289C243.113 385.82 243.123 385.83 243.289 386.026C243.211 385.908 243.142 385.791 243.074 385.673C242.868 385.311 243.074 385.879 243.005 385.438C243.005 385.32 243.005 384.83 242.946 385.203C242.961 384.932 242.961 384.66 242.946 384.389L241.437 386.349L241.613 386.281H241.545C241.711 386.379 241.486 386.281 241.427 386.281C242.084 386.637 242.894 386.53 243.436 386.016C243.941 385.489 244.045 384.695 243.691 384.056L243.671 383.948Z" fill="black"/>
<path d="M230.333 378.549C231.931 377.667 232.362 375.658 233.734 374.492C234.941 373.585 236.293 372.889 237.732 372.434C238.68 372.132 239.274 371.194 239.141 370.208C239.008 369.223 238.187 368.475 237.193 368.435C234.916 368.399 232.72 369.286 231.107 370.895C229.598 372.306 227.707 374.991 227.844 377.118C227.862 377.703 228.181 378.237 228.689 378.529C229.196 378.821 229.819 378.828 230.333 378.549Z" fill="black"/>
<path d="M250.1 415.524C250.1 417.043 251.541 418.229 252.717 419.003C253.924 419.857 255.387 420.272 256.862 420.179C257.856 420.142 258.681 419.399 258.822 418.415C258.967 417.411 258.34 416.457 257.362 416.19C256.449 416.098 255.552 415.884 254.696 415.553C253.716 415.132 253.158 414.201 252.158 413.927C251.666 413.811 251.148 413.924 250.748 414.234C250.349 414.544 250.11 415.018 250.1 415.524H250.1Z" fill="black"/>
<path d="M203.726 398.012C200.453 394.484 196.17 390.632 191.496 391.779C186.165 393.092 184.499 400.432 186.88 405.371C189.261 410.311 194.171 413.427 198.64 416.612C198.974 416.805 199.24 417.096 199.404 417.445C199.484 417.966 199.373 418.499 199.091 418.944C197.346 422.864 199.199 427.911 196.856 431.528C195.746 432.995 194.323 434.196 192.691 435.046L174.463 446.345C162.066 434.428 149.473 422.139 141.829 406.724C139.955 403.039 138.505 399.153 137.508 395.14C132.653 374.33 144.316 353.217 164.516 346.248C165.902 345.938 167.178 345.261 168.211 344.288C168.822 343.397 169.26 342.4 169.505 341.348C173.268 329.725 185.724 323.149 197.68 320.699C209.636 318.249 222.18 318.661 233.851 315.084C236.115 314.398 239.036 313.751 240.457 315.643C241.044 316.561 241.283 317.66 241.133 318.739C240.613 327.079 232.881 332.861 225.894 337.448C231.343 337.155 236.743 336.261 241.995 334.782C243.338 336.615 242.564 339.221 241.437 341.191C236.262 350.276 224.385 352.344 214.594 355.999C217.603 359.919 215.986 368.837 211.096 369.268" fill="#DC3545"/>
<path d="M204.912 396.835C200.904 392.2 194.622 386.683 188.252 390.681C183.156 393.866 182.313 401.206 184.636 406.312C186.214 409.781 189.026 412.496 191.976 414.828C193.034 415.661 195.504 416.788 196.151 417.896C196.798 419.003 195.945 420.836 195.798 422.423C195.582 424.854 195.925 427.323 194.818 429.528C193.544 432.106 190.467 433.448 188.076 434.899L173.16 444.14L176.306 444.552C155.941 424.863 126.13 394.444 145.534 364.437C149.415 358.5 154.834 353.728 161.214 350.628C163.723 349.413 166.859 348.835 169.103 347.14C171.719 345.18 172.043 341.818 173.464 339.064C180.245 325.942 197.219 323.071 210.38 321.669C214.888 321.189 219.396 320.778 223.885 320.101C225.992 319.788 228.089 319.415 230.167 318.945C232.068 318.514 234.675 317.073 236.605 317.328C241.084 317.906 235.449 325.844 233.91 327.481C231.034 330.31 227.829 332.784 224.365 334.85C222.003 336.369 222.738 340.623 225.884 340.456C231.608 340.175 237.286 339.298 242.828 337.839L239.251 336.34C241.456 340.926 231.813 346.14 228.765 347.551C223.934 349.737 218.72 351.06 213.742 352.863C211.909 353.529 210.625 355.705 211.782 357.557C213.232 359.782 213.614 365.475 210.273 366.377C207.225 367.22 207.695 372.541 211.047 372.11C219.171 371.042 221.356 360.507 217.299 354.303L215.339 358.998C222.65 356.342 230.686 354.597 237.144 350.07C242.466 346.336 247.846 339.78 244.641 333.106C243.906 331.873 242.442 331.277 241.054 331.646C236.096 333.025 231.021 333.94 225.894 334.38L227.413 339.986C233.293 335.968 239.624 331.42 242.505 324.619C244.798 319.219 244.592 311.193 236.86 311.595C232.94 311.791 229.02 313.555 225.1 314.212C219.318 315.241 213.467 315.652 207.646 316.328C199.199 317.308 190.878 318.798 183.244 322.698C176.894 325.942 171.141 330.852 168.064 337.398C166.839 340.005 166.8 341.72 163.772 343.553C162.39 344.386 160.547 344.768 159.058 345.513C139.543 354.836 129.487 376.78 135.165 397.649C140.869 418.356 157.647 433.909 172.621 448.227C173.466 449.041 174.745 449.204 175.767 448.628C182.558 444.395 190.702 440.563 196.768 435.34C198.89 433.546 200.233 430.999 200.512 428.235C200.737 426.559 200.62 424.873 200.757 423.188C200.894 421.502 201.737 420.14 201.825 418.572C202.041 416.328 200.953 415.377 199.277 414.064C196.161 411.633 192.74 409.673 190.388 406.41C188.223 403.401 187.115 398.874 189.732 395.708C193.652 391.034 199.532 396.326 202.54 399.227C203.19 399.879 204.245 399.881 204.897 399.232C205.55 398.582 205.552 397.527 204.902 396.875L204.912 396.835Z" fill="#DC3545"/>
<path d="M175.247 449.785C179.795 448.374 183.969 446.012 188.183 443.836C191.447 442.151 194.671 440.426 197.003 437.535C201.394 432.174 203.324 423.648 203.501 416.906C203.569 414.191 199.934 414.064 199.061 416.308C196.67 422.423 195.661 430.449 190.418 434.928C185.175 439.407 178.521 441.984 173.376 446.688C172.787 447.297 172.675 448.223 173.101 448.954C173.528 449.686 174.388 450.045 175.208 449.834L175.247 449.785Z" fill="black"/>
<path d="M190.673 402.745C189.428 399.335 190.986 395.993 194.936 396.483C197.288 396.777 199.836 398.443 201.629 399.923C205.814 403.49 208.195 408.743 210.165 413.76C210.969 415.789 214.252 414.975 213.507 412.839C210.4 403.931 206.48 393.18 196.092 390.877C187.713 389.015 182.696 397.923 187.899 404.362C188.938 405.636 191.222 404.264 190.673 402.745Z" fill="black"/>
<path d="M213.056 453.871C213.791 464.367 215.516 475.97 225.845 481.311C233.077 485.065 247.846 488.054 253.393 480.106C255.274 477.421 251.247 474.637 249.012 476.725C243.505 481.88 231.578 479.096 225.904 475.255C218.828 470.453 217.515 461.211 216.378 453.391C216.104 451.509 212.919 451.941 213.056 453.842V453.871Z" fill="black"/>
<path d="M259.39 482.164C263.408 484.026 267.848 485.516 272.238 484.016C275.786 482.801 278.677 479.459 278.118 475.618C277.844 473.658 274.835 473.481 273.983 475.079C272.787 477.352 272.023 479.057 269.435 479.979C266.495 481.096 263.438 480.253 260.615 479.097C258.891 478.391 257.675 481.331 259.341 482.125L259.39 482.164Z" fill="black"/>
<path d="M286.419 472.629C295.582 470.845 298.463 457.733 295.239 450.334C294.043 447.609 290.192 449.658 290.692 452.245C291.329 455.469 291.73 458.046 290.839 461.28C289.947 464.514 288.947 468.14 285.527 469.287C284.64 469.57 284.135 470.503 284.382 471.401C284.63 472.298 285.542 472.84 286.448 472.629H286.419Z" fill="black"/>
<path d="M289.437 429.832C291.893 431.685 293.542 434.411 294.043 437.446C294.435 439.936 298.208 438.877 297.816 436.408C297.255 432.516 294.92 429.106 291.495 427.176C289.888 426.274 287.879 428.607 289.437 429.832Z" fill="black"/>
<path d="M265.368 396.326C268.738 401.006 272.598 405.313 276.883 409.173C280.98 412.848 288.418 417.484 289.623 423.119C290.123 425.559 293.759 424.893 293.837 422.55C294.033 416.465 288.575 412.437 284.429 408.83C278.961 404.019 273.159 399.53 268.181 394.209C266.838 392.778 264.212 394.699 265.407 396.355L265.368 396.326Z" fill="black"/>
<path d="M215.065 355.94C215.531 359.025 215.099 362.179 213.82 365.025C212.634 367.504 210.439 368.876 209.126 371.15C206.882 375.021 209.322 379.97 211.086 383.576C215.359 392.475 221.748 403.754 232.46 405.028C234.684 405.293 234.949 401.873 232.969 401.255C227.432 399.54 224.228 394.964 221.209 390.338C218.563 386.281 214.438 380.969 213.82 376.04C213.418 372.816 217.387 369.846 218.495 366.652C219.75 363.031 219.719 359.089 218.407 355.489C217.828 353.814 214.839 353.931 215.084 355.94H215.065Z" fill="black"/>
<path d="M197.258 405.283C197.327 405.283 197.542 405.283 197.356 405.283C197.68 405.283 197.356 405.283 197.533 405.342C197.709 405.401 197.435 405.234 197.64 405.401C197.759 405.494 197.865 405.602 197.954 405.724C198.18 406.088 198.364 406.476 198.503 406.881C198.699 407.545 199.258 408.038 199.941 408.15C200.625 408.262 201.312 407.972 201.709 407.405C202.107 406.838 202.144 406.093 201.805 405.489C200.953 403.696 199.502 401.785 197.258 401.99C196.356 402.016 195.632 402.744 195.612 403.647C195.622 404.551 196.353 405.282 197.258 405.293V405.283Z" fill="black"/>
<path d="M239.261 333.959C243.858 332.665 243.622 338.339 242.319 340.877C241.016 343.416 238.546 345.033 236.38 346.512C232.029 349.452 227.207 350.178 222.513 352.245C219.867 353.412 221.347 357.439 223.924 357.449C232.666 357.449 245.239 351.383 248.591 342.749C251.325 335.732 245.651 327.197 237.929 330.793C236.125 331.626 237.409 334.478 239.261 333.949V333.959Z" fill="black"/>
<path d="M235.871 313.496C247.082 315.084 236.194 329.421 231.823 332.489C228.53 334.792 231.461 340.074 235.018 337.957C240.996 334.409 245.661 328.216 246.533 321.199C247.337 314.79 242.809 309.508 236.302 310.252C234.646 310.439 233.852 313.192 235.871 313.496Z" fill="black"/>
<path d="M191.545 504.978C192.28 495.796 189.82 486.652 188.105 477.705C186.223 467.993 184.979 457.742 181.823 448.305C180.843 445.365 175.62 445.61 176.041 449.089C177.178 458.281 180.089 467.366 182.431 476.313C184.861 485.623 188.311 495.227 188.164 504.939C188.164 507.144 191.368 507.085 191.545 504.939V504.978Z" fill="black"/>
<path d="M262.34 491.896C262.164 488.23 262.389 483.801 260.9 480.4C259.92 478.205 256.98 479.606 256.823 481.498C256.813 483.328 257.084 485.149 257.627 486.898C258.038 488.73 258.607 490.533 259.097 492.337C259.587 494.14 262.438 493.807 262.34 491.896Z" fill="black"/>
<path d="M305.646 500.98C261.301 490.2 228.736 485.153 183.146 486.731C173.944 487.044 163.389 489.151 159.45 497.511C149.277 519.071 170.083 530.644 177.207 535.731C172.062 528.645 184.332 540.817 177.207 535.731C168.182 545.344 166.163 559.447 165.212 572.598C160.479 637.994 172.611 707.24 213.232 758.7C219.906 767.158 227.462 775.36 230.735 785.621C233.881 795.47 232.862 806.622 237.928 815.628C242.671 824.066 252.158 829.074 261.742 830.407C271.327 831.74 281.078 829.858 290.407 827.251C356.244 808.827 406.9 756.123 446.1 700.096C451 693.128 455.792 685.916 458.007 677.713C460.222 669.51 459.438 660.073 453.959 653.556C446.923 645.255 434.614 644.021 425.598 637.876C419.806 633.956 415.583 628.164 411.555 622.451C396.12 600.597 382.4 577.577 368.317 554.782C356.038 534.829 342.024 514.7 321.336 502.685C295.18 487.495 263.82 483.399 237.193 500" fill="black"/>
<path d="M306.087 499.353C272.416 489.207 237.489 483.833 202.325 483.389C189.222 483.213 169.72 480.831 159.626 491.494C151.287 500.314 151.786 514.641 158.646 524C162.064 528.386 166.164 532.194 170.789 535.28C173.307 537.064 177.845 541.65 181.167 539.769C182.202 539.181 182.836 538.078 182.823 536.887C182.627 533.947 178.903 530.214 175.963 530.027C174.753 529.997 173.624 530.633 173.023 531.684C171.876 533.761 173.082 535.604 174.277 537.328L174.807 533.281C165.134 544.149 162.88 558.516 161.9 572.52C160.75 588.035 160.629 603.608 161.537 619.139C163.331 649.519 169.093 679.84 180.461 708.103C185.941 721.879 192.807 735.063 200.953 747.45C205.098 753.703 209.665 759.632 214.369 765.472C219.524 771.882 224.836 778.536 227.403 786.464C229.853 794.02 229.716 802.144 231.862 809.759C233.587 816.249 237.37 822.005 242.642 826.164C254.824 835.611 270.768 835.435 285.135 832.171C343.308 818.961 390.897 776.605 427.235 731.231C436.604 719.54 445.943 707.505 453.93 694.805C461.31 683.045 466.582 667.747 459.134 654.703C451.686 641.659 435.428 641.796 424.932 632.81C418.552 627.341 413.995 619.776 409.311 612.906C404.234 605.438 399.295 597.879 394.493 590.229C385.281 575.646 376.491 560.829 367.151 546.295C359.056 533.732 350.099 521.423 338.917 511.407C317.161 491.915 285.468 480.88 256.529 488.034C249.086 489.951 241.981 492.995 235.459 497.06C231.686 499.353 235.135 505.302 238.928 502.989C265.065 487.045 297.218 491.229 322.355 507.252C347.708 523.383 362.192 551.627 377.412 576.519C386.016 590.601 394.758 604.596 404.087 618.208C408.086 624.039 412.025 630.125 416.906 635.27C421.492 640.111 426.951 643.276 433.056 645.824C438.936 648.304 445.865 650.303 450.383 655.115C455.41 660.465 456.312 668.345 454.802 675.293C451.764 689.179 440.788 701.547 432.478 712.69C399.785 756.515 358.821 797.92 306.94 817.971C293.22 823.273 277.344 828.888 262.419 826.879C255.559 825.948 248.552 822.959 243.799 817.746C238.781 812.179 237.664 804.663 236.625 797.518C235.586 790.374 234.293 783.622 230.931 777.183C227.668 770.951 223.091 765.423 218.72 760.014C209.686 748.92 201.805 736.935 195.2 724.244C182.098 698.911 174.179 670.981 170.397 642.776C168.512 628.536 167.569 614.187 167.574 599.823C167.574 585.593 167.574 570.57 170.671 556.634C172.219 549.774 174.856 543.316 179.589 538.014C180.646 536.933 180.861 535.284 180.118 533.967C179.893 533.653 178.991 531.84 179.138 532.575L178.805 535.153L178.854 535.065L175.973 536.721C173.444 536.564 175.091 536.064 175.6 537.27C175.841 537.573 176.11 537.852 176.404 538.103C176.914 538.191 176.326 539.386 176.159 536.887L177.815 533.996H177.737L180.304 533.663C179.324 533.457 175.238 530.223 173.493 528.949C170.112 526.613 167.082 523.805 164.497 520.61C157.637 511.731 158.617 496.894 169.985 492.19C175.914 489.749 182.49 489.74 188.791 489.563C196.494 489.348 204.197 489.348 211.9 489.563C226.207 489.955 240.478 491.199 254.637 493.287C271.611 495.796 288.359 499.422 305.225 502.48C306.107 502.723 307.02 502.205 307.263 501.323C307.507 500.441 306.989 499.528 306.107 499.285L306.087 499.353Z" fill="black"/>
<path d="M592.424 373.805C599.146 361.255 608.756 350.482 620.462 342.377C625.205 339.094 630.82 336.173 636.485 337.232C642.149 338.29 646.735 345.248 643.501 349.972L640.865 350.697C655.987 340.828 678.664 345.415 688.768 360.379C690.816 363.408 692.198 367.945 689.463 370.366C687.954 371.708 685.749 371.816 683.74 371.738C679.41 371.551 675.124 370.779 671 369.444C676.88 369.758 683.074 370.826 687.513 374.697C691.953 378.568 693.697 385.997 689.797 390.377C687.298 393.19 683.182 394.091 679.458 393.601C675.734 393.111 672.284 391.436 668.903 389.789C677.125 390.691 687.092 393.356 688.954 401.412C690.571 408.448 684.701 414.887 678.899 419.179C676.322 421.09 673.538 422.933 670.363 423.462C667.188 423.991 663.503 422.913 661.945 420.12C660.387 417.327 661.945 412.986 665.12 412.594C658.035 419.669 647.843 422.933 637.857 423.511C627.87 424.089 617.904 422.257 608.065 420.434" fill="white"/>
<path d="M594.237 374.874C599.749 365.555 606.839 357.265 615.189 350.374C619.246 347.081 623.833 343.602 628.723 341.661C631.457 340.574 634.721 339.839 637.465 341.269C639.905 342.553 641.982 345.572 640.503 348.286L642.58 346.689L639.944 347.414L642.619 353.764C651.706 348.219 662.936 347.486 672.666 351.804C677.477 353.83 681.684 357.064 684.877 361.193C687.131 364.211 688.719 367.288 683.74 368.317C680.212 369.043 675.204 367.22 671.912 366.21L671.01 372.865C677.635 373.315 686.896 374.942 688.287 382.841C690.247 393.895 675.763 389.26 670.647 386.761L668.874 393.307C675.734 394.121 688.474 397.159 684.946 406.792C683.368 411.055 679.35 414.456 675.714 416.974C673.823 418.278 671.5 419.846 669.128 419.914C667.551 419.973 662.474 417.082 666.061 416.122L662.504 409.997C648 423.766 626.822 420.012 609.094 416.563C604.037 415.583 601.92 423.423 606.967 424.285C627.547 427.911 651.067 430.91 667.678 415.171C670.373 412.623 667.58 408.125 664.111 409.056C656.79 411.016 655.565 420.816 661.612 425.04C669.687 430.763 679.497 424.177 685.426 418.415C691.502 412.535 695.5 403.646 690.326 395.875C685.73 388.946 676.518 387.212 668.864 386.281C665.404 385.859 664.081 391.357 667.09 392.827C672.97 395.699 679.35 398.521 685.984 396.659C691.194 395.306 694.965 390.787 695.363 385.418C696.343 371.649 682.162 366.72 670.961 366.044C667.041 365.809 666.492 371.64 670.059 372.698C676.665 374.658 691.08 378.833 694.109 369.415C696.529 361.869 689.316 354.274 683.897 350.148C671.157 340.436 652.733 339.182 639.062 347.688C635.769 349.737 637.866 355.097 641.737 354.029C645.167 353.049 647.078 351.971 647.784 348.267C648.29 345.135 647.497 341.932 645.589 339.398C641.032 332.93 632.849 332.449 625.989 335.282C610.505 341.701 597.726 358.047 590.523 372.678C589.327 375.099 592.747 377.157 594.158 374.815L594.237 374.874Z" fill="black"/>
<path d="M215.222 500.049C239.496 484.82 269.122 481.596 297.659 478.754L351.246 473.413C368.944 471.649 387.074 469.757 403.048 461.937C412.133 457.478 420.208 451.245 428.283 445.15C460.506 420.859 493.885 398.178 528.42 377.108C537.24 371.738 547.246 366.269 557.281 368.602C561.799 369.641 566.032 372.247 570.658 372.071C575.283 371.895 579.135 369.131 583.506 367.935C593.913 365.133 604.938 372.218 610.24 381.606C615.542 390.995 616.453 402.137 617.247 412.888C617.668 418.582 617.326 425.677 612.161 428.107C609.466 429.381 605.889 429.038 603.958 431.322C602.616 432.909 602.635 435.242 602.273 437.261C601.351 442.602 597.647 446.972 594.09 451.059C569.443 479.332 540.758 503.665 515.601 531.488C441.67 613.269 338.515 612.377 285.997 619.952C233.479 627.528 264.545 594.835 218.642 568.208" fill="black"/>
<path d="M216.074 501.509C248.414 482.82 287.35 482.84 323.502 479.43C342.122 477.666 361.153 476.735 379.587 473.197C388.337 471.611 396.837 468.866 404.861 465.034C413.436 460.829 421.08 455.067 428.675 449.354C460.16 425.644 492.682 403.431 526.244 382.714C534.006 377.941 542.747 371.728 552.234 371.738C560.701 371.738 567.257 377.618 575.969 374.746C579.889 373.482 583.378 371.208 587.553 371.032C591.538 370.99 595.435 372.2 598.696 374.491C606.379 379.548 609.917 388.211 611.661 396.904C612.48 401.352 613.029 405.845 613.307 410.359C613.592 413.917 614.121 417.866 613.013 421.335C611.71 425.432 608.319 425.01 604.928 426.353C601.956 427.473 599.769 430.042 599.137 433.154C598.157 437.241 597.569 440.573 594.991 444.12C591.805 448.227 588.392 452.153 584.77 455.88C578.439 462.789 571.902 469.493 565.268 476.098C551.548 489.739 537.416 502.93 523.931 516.797C511.858 529.204 500.5 542.032 486.966 552.92C442.866 588.484 387.819 603.488 332.508 610.24C322.071 611.524 311.605 612.563 301.148 613.719C290.221 614.934 278.657 617.816 267.671 616.463C259.576 615.483 256.088 610.789 253.167 603.664C249.306 594.286 245.386 585.466 238.379 577.92C233.229 572.565 227.342 567.971 220.896 564.278C215.868 561.279 211.282 569.178 216.319 572.118C228.02 578.978 236.899 587.935 242.397 600.391C245.67 607.81 247.944 616.247 255 621.079C264.604 627.635 277.981 625.352 288.682 623.892C298.561 622.539 308.498 621.579 318.406 620.491C374.099 614.366 430.126 603.027 477.038 570.638C491.083 560.969 504.03 549.796 515.65 537.318C529.37 522.618 543.345 508.251 557.683 494.13C571.755 480.272 586.259 466.484 598.843 451.196C601.441 448.286 603.52 444.951 604.987 441.337C605.644 439.505 605.595 437.515 606.202 435.722C607.182 432.782 609.319 432.987 611.935 432.145C618.531 430.038 620.755 423.707 621.04 417.327C621.677 401.726 618.58 381.459 606.036 370.816C600.548 366.161 593.521 363.074 586.22 363.751C582.3 364.103 579.027 365.711 575.44 367.122C570.119 369.15 566.326 367.631 561.211 365.946C542.963 359.899 525.215 374.629 510.731 383.782C493.124 394.895 475.827 406.446 458.84 418.435C442.18 430.195 426.353 443.709 409.036 454.489C392.082 465.034 372.472 467.768 352.98 469.836C332.341 472.021 311.693 474.079 291.083 476.5C273.042 478.626 254.823 481.135 237.634 487.28C229.458 490.116 221.654 493.926 214.389 498.628C212.576 499.814 214.193 502.656 216.094 501.568L216.074 501.509Z" fill="black"/>
<path d="M527.626 882.053C520.889 898.913 517.157 916.824 516.601 934.973C516.405 941.607 516.807 948.761 520.864 954.014C524.568 958.816 530.752 961.139 536.799 961.766C542.845 962.393 551.616 960.482 557.673 960.178C577.155 959.198 593.786 964.775 613.278 965.392C621.255 965.647 629.438 965.206 636.798 962.207C639.738 961.041 642.443 959.483 645.393 958.424C655.193 954.877 666.629 956.974 675.89 952.162C682.806 948.478 687.358 941.512 687.954 933.699C688.13 931.082 687.768 928.279 686.082 926.28C683.691 923.448 679.526 923.134 675.831 922.968C660.151 922.262 644.168 920.479 629.683 914.344C615.199 908.209 602.175 897.194 596.647 882.464" fill="white"/>
<path d="M526.127 881.22C520.356 893.688 516.551 906.974 514.847 920.606C513.426 931.729 511.045 946.723 518.767 956.229C526.49 965.735 539.347 965.363 550.421 963.991C564.357 962.256 577.695 964.099 591.483 966.216C604.488 968.176 618.169 970.136 631.203 967.352C637.083 966.088 642.149 962.864 647.863 961.149C654.233 959.238 661.005 959.463 667.522 958.366C678.772 956.484 688.474 949.095 690.885 937.541C691.865 933.013 691.806 927.594 688.533 923.958C684.868 919.901 679.174 919.822 674.127 919.548C658.261 918.695 641.855 916.755 627.449 909.572C621.485 906.667 616.02 902.834 611.26 898.213C606.154 893.166 602.822 887.188 599.5 880.916C597.755 877.633 592.64 879.936 593.62 883.415C598.922 903.143 620.364 915.942 638.7 921.263C650.205 924.595 662.22 925.781 674.166 926.398C676.655 926.526 680.105 926.251 682.349 927.623C685.132 929.328 684.907 932.945 684.378 935.738C683.238 941.565 679.524 946.566 674.274 949.34C664.062 954.612 651.518 952.123 640.954 956.906C635.27 959.463 629.89 961.521 623.618 962.119C617.209 962.619 610.768 962.511 604.38 961.796C592.356 960.639 580.498 958.082 568.424 957.386C562.943 957.052 557.443 957.21 551.989 957.856C546.276 958.532 540.347 959.669 534.624 958.513C518.297 955.23 518.944 939.354 520.09 926.016C521.315 911.228 524.775 896.616 529.342 882.553C529.939 880.72 527.019 879.427 526.176 881.22H526.127Z" fill="black"/>
<path d="M257.117 825.193C267.897 832.435 281.891 850.487 289.143 861.287C306.852 887.639 326.628 906.925 356.655 917.254C386.682 927.584 436.476 918.93 462.495 900.653C495.1 877.692 507.84 836.189 518.522 797.763C522.442 810.297 517.052 823.576 514.455 836.463C511.858 849.35 513.945 865.765 526.039 870.891C520.548 877.888 519.044 887.219 522.06 895.587C545.784 896.734 569.555 896.468 593.247 894.793C598.843 894.401 604.811 893.813 609.172 890.255C613.533 886.698 615.052 879.201 610.75 875.624C626.263 877.192 640.885 866.236 648.431 852.594C655.977 838.952 657.956 823.018 659.779 807.514L667.482 742.06C675.88 670.677 683.691 595.128 654.036 529.655C640.316 499.392 614.836 470.443 581.673 468.522C560.113 467.268 539.474 477.813 522.608 491.278C444.728 553.498 434.409 668.658 373.413 747.499C348.355 779.839 307.224 818.392 267.936 830.799" fill="white"/>
<path d="M256.088 826.948C276.227 841.589 287.026 866.148 303.069 884.63C318.484 902.359 339.574 916.97 362.672 922.4C385.477 927.76 410.692 924.899 432.85 918.117C455.763 911.12 474.755 898.399 488.818 878.848C505.831 855.211 514.19 826.399 521.903 798.694H515.131C519.58 814.668 510.084 829.966 509.966 845.911C509.888 856.926 513.583 868.96 524.265 873.929L523.01 869.127C517.107 876.99 515.484 887.268 518.679 896.567C519.139 898.06 520.498 899.096 522.06 899.144C544.822 900.221 567.626 900.018 590.366 898.537C598.304 898.017 607.819 897.664 613.347 891.04C617.659 885.875 618.188 878.045 613.229 873.184L610.74 879.142C626.243 880.318 640.14 871.067 648.725 858.729C659.093 843.872 661.21 825.027 663.278 807.524C667.923 768.148 673.264 728.761 676.488 689.228C679.428 652.566 680.085 615.317 673.127 579.037C666.835 546.295 654.369 512.338 630.242 488.436C619.815 478.107 606.898 469.747 592.443 466.484C575.911 462.76 559.123 466.102 544.051 473.344C516.356 486.652 494.228 511.103 477.411 536.27C443.307 587.22 426.941 647.284 398.54 701.165C384.82 727.164 368.611 750.87 346.326 770.225C324.325 789.325 298.688 807.034 271.327 817.491C266.433 819.419 261.375 820.902 256.215 821.92C251.913 822.724 253.736 829.27 258.018 828.476C268.926 826.438 279.353 821.881 289.231 816.961C301.974 810.537 314.218 803.169 325.864 794.921C348.756 778.879 369.258 760.455 385.105 737.317C418.572 688.493 435.31 630.908 461.466 578.292C474.206 552.685 489.328 527.989 509.604 507.624C532.144 485.016 564.258 463.711 597.324 475.186C627.419 485.633 646.118 516.464 656.486 544.845C668.775 578.469 672.166 614.425 671.519 650.058C670.873 686.994 666.129 723.695 661.817 760.327C659.495 780.045 657.662 799.9 654.722 819.539C652.174 836.532 647.294 854.593 632.839 865.354C626.559 870.25 618.694 872.658 610.75 872.116C607.653 871.881 606.202 876.036 608.27 878.113C614.66 884.376 603.37 889.971 598.47 890.755C590.179 892.098 581.438 892.059 573.059 892.372C556.072 893.026 539.086 892.928 522.099 892.078L525.49 894.656C522.846 887.189 524.215 878.888 529.116 872.665C530.088 870.989 529.523 868.842 527.851 867.863C517.238 862.963 515.954 849.546 517.552 839.227C519.766 824.929 526.009 811.454 521.942 796.822C521.49 795.331 520.115 794.31 518.556 794.31C516.997 794.31 515.622 795.331 515.17 796.822C508.477 820.862 501.45 845.332 488.475 866.863C476.176 887.208 458.84 901.947 436.3 909.816C414.955 917.294 390.485 920.93 368.043 916.804C345.287 912.619 324.923 898.978 309.409 882.278C291.769 863.364 280.205 837.992 258.106 823.478C255.892 822.018 253.981 825.438 256.058 826.987L256.088 826.948Z" fill="black"/>
<path d="M540.18 594.462C520.423 627.136 519.09 665.679 518.874 702.752C518.767 722.352 517.796 741.825 516.679 761.347C516.101 771.509 515.474 781.682 514.866 791.844C514.562 796.823 514.259 801.811 513.886 806.779C513.524 811.503 512.798 816.099 513.543 820.803C514.18 824.841 519.502 823.743 520.678 820.803C522.432 816.413 522.422 811.454 522.775 806.779C523.137 801.811 523.422 796.823 523.696 791.844C524.235 782.309 524.745 772.783 525.284 763.248C526.352 744.353 527.636 725.498 527.783 706.565C528.077 669.54 525.666 630.125 543.325 596.285C543.754 595.43 543.445 594.388 542.618 593.906C541.791 593.424 540.732 593.668 540.199 594.462H540.18Z" fill="black"/>
<path d="M544.913 872.008C555.941 870.813 567.023 870.195 578.116 870.156C583.785 870.036 589.454 870.403 595.06 871.253C600.411 872.184 604.752 874.654 609.103 877.81C612.161 880.015 616.159 874.919 613.17 872.527C604.772 865.814 592.169 865.501 581.869 865.667C569.354 865.923 556.867 866.96 544.482 868.774C542.649 869.029 543.061 872.224 544.913 872.018V872.008Z" fill="black"/>
<path d="M279.912 605.713C294.817 615.944 313.006 616.983 330.509 615.777C351.853 614.317 373.149 611.132 394.395 608.653C396.894 608.359 396.924 604.4 394.395 604.733C374.178 607.124 353.98 609.907 333.723 611.867C315.858 613.592 296.817 613.602 281.195 603.567C279.814 602.675 278.579 604.841 279.912 605.752V605.713Z" fill="#DC3545"/>
<path d="M569.452 374.178C580.056 378.392 587.514 389.103 592.473 398.952C597.51 408.968 599.538 419.091 601.293 430.028C601.606 431.988 604.713 431.488 604.732 429.567C604.811 417.67 600.332 405.195 594.286 395.101C588.562 385.536 580.879 375.756 570.119 371.787C568.61 371.228 568.002 373.6 569.462 374.178H569.452Z" fill="#DC3545"/>
<path d="M580.967 378.578C585.402 374.305 591.104 371.588 597.216 370.836C597.882 370.758 597.892 369.699 597.216 369.787C590.834 370.546 584.895 373.436 580.36 377.99C579.977 378.372 580.556 378.97 580.948 378.578H580.967Z" fill="#DC3545"/>
<path d="M590.846 388.741C589.866 387.486 607.183 380.999 609.074 380.381C609.751 380.166 609.466 379.107 608.78 379.313C604.768 380.54 600.84 382.026 597.02 383.762C594.708 384.801 590.729 385.801 589.749 388.398C589.714 388.541 589.754 388.693 589.857 388.799L590.219 389.231C590.513 389.574 591.131 389.103 590.856 388.741H590.846Z" fill="#DC3545"/>
<path d="M597.393 399.873C603.723 397.8 609.853 395.159 615.709 391.984C616.365 391.622 615.787 390.632 615.121 391.004C609.318 394.078 603.321 396.769 597.167 399.06C596.658 399.246 596.863 400.04 597.393 399.873Z" fill="#DC3545"/>
<path d="M600.852 412.368C603.76 412.27 606.646 411.819 609.446 411.026C610.756 410.651 612.045 410.206 613.307 409.693C613.866 409.468 614.415 409.232 614.954 408.978C615.189 408.87 618.57 406.831 617.649 406.733C616.728 406.635 616.855 407.9 617.649 407.978H617.864C618.144 407.983 618.39 407.797 618.462 407.527V407.233C618.545 406.904 618.355 406.568 618.031 406.469C616.257 406.096 613.347 408.429 611.818 408.997C608.271 410.31 604.568 411.153 600.803 411.506C600.273 411.565 600.244 412.378 600.803 412.349L600.852 412.368Z" fill="#DC3545"/>
<path d="M605.36 425.461C608.926 425.452 612.442 424.627 615.64 423.05C616.277 422.737 615.719 421.767 615.082 422.07C612.05 423.639 608.695 424.484 605.282 424.54C605.033 424.54 604.831 424.742 604.831 424.991C604.831 425.24 605.033 425.442 605.282 425.442L605.36 425.461Z" fill="#DC3545"/>
<path d="M491.611 954.377C504.351 958.571 409.291 965.549 361.781 965.5C311.654 965.441 259.4 964.187 214.977 941C157.079 910.708 123.269 848.88 99.1802 788.12C88.8608 761.944 79.5802 734.788 78.6002 706.633C77.6202 678.477 85.9796 648.891 106.422 629.526C126.865 610.162 160.665 603.978 183.999 619.726C191.957 625.107 198.258 632.525 204.462 639.856C216.702 654.301 228.962 668.824 238.762 685.024C259.479 719.324 270.494 762.512 304.422 783.798C316.74 791.53 331.038 795.558 343.847 802.418C355.99 808.96 366.608 818.001 375.001 828.947C382.969 839.354 389.035 851.575 399.501 859.454C408.38 866.128 419.474 868.931 429.96 872.615C450.635 879.88 469.76 890.967 486.339 905.298C494.404 912.286 502.205 920.694 504.048 931.21C505.89 941.725 499.148 954.279 488.475 954.916" fill="#DC3545"/>
<path d="M491.278 955.573C491.533 955.671 492.718 955.573 491.621 954.72C491.435 954.573 491.797 954.965 491.101 954.877C490.121 954.75 488.308 955.602 487.289 955.788C482.575 956.67 477.773 957.19 473.011 957.748C458.683 959.307 444.297 960.247 429.891 961.11C394.611 963.246 359.262 964.128 323.923 962.658C279.647 960.806 234.743 953.593 197.729 927.584C164.957 904.554 141.418 870.744 123.249 835.464C113.756 816.803 105.334 797.616 98.0234 777.997C89.3602 755.133 81.9514 731.261 81.1282 706.633C79.7856 666.796 99.0524 622.353 141.986 614.513C151.11 612.775 160.517 613.239 169.426 615.866C180.04 619.109 188.321 626.067 195.661 634.192C211.115 651.283 226.247 669.668 237.801 689.65C255.921 720.931 266.534 759.23 296.287 782.113C313.829 795.627 336.467 799.753 354.107 813.169C362.77 819.925 370.274 828.048 376.324 837.218C382.057 845.656 387.496 854.643 395.473 861.179C403.45 867.716 413.476 871.224 423.285 874.527C433.866 878 444.11 882.424 453.891 887.747C463.905 893.252 473.358 899.721 482.115 907.063C489.759 913.511 498.01 921.263 500.049 931.504C501.578 939.207 497.364 950.702 488.387 951.623C484.222 952.055 484.173 958.64 488.387 958.199C497.275 957.278 503.645 951.692 506.615 943.293C509.81 934.228 507.34 924.615 502.185 916.833C496.109 907.631 487.211 900.477 478.479 893.921C468.824 886.7 458.426 880.53 447.462 875.517C436.917 870.685 425.902 867.579 415.073 863.453C403.019 858.847 394.924 851.154 387.633 840.717C381.087 831.358 374.795 822.097 366.328 814.257C357.821 806.54 348.121 800.252 337.604 795.637C326.128 790.511 314.084 786.533 303.598 779.437C295.365 773.694 288.159 766.604 282.283 758.465C270.18 742.06 262.066 723.078 253.04 704.82C242.75 684.113 230.01 665.62 215.153 647.98C201.09 631.212 187.194 612.945 164.301 609.025C145.279 605.772 125.101 611.367 109.94 623.088C93.2998 635.877 83.1274 655.565 78.7174 675.763C68.545 722.333 87.8216 769.902 106.304 811.875C123.543 850.997 145.593 889.462 177.844 918.166C193.564 932.227 211.672 943.363 231.313 951.045C253.736 959.767 277.677 963.883 301.569 965.882C341.436 969.224 381.812 967.842 421.688 965.324C437.907 964.344 454.126 963.04 470.276 961.159C475.676 960.532 481.125 959.924 486.446 958.807C488.25 958.425 492.17 958.101 493.444 956.465C494.718 954.828 493.532 953.711 491.915 953.182C490.298 952.652 489.788 955.024 491.258 955.573H491.278Z" fill="#DC3545"/>
<path d="M491.18 955.974C491.582 956.121 491.984 955.328 491.259 954.514C490.71 953.887 492.101 954.671 490.994 954.455C490.102 954.279 488.113 955.171 487.182 955.347C482.507 956.19 477.735 956.68 473.021 957.19C458.693 958.709 444.307 959.61 429.901 960.453C394.621 962.54 359.272 963.393 323.933 961.854C279.794 959.963 235.087 952.76 198.16 926.819C165.536 903.868 142.114 870.077 124.062 835.023C114.607 816.43 106.215 797.315 98.9254 777.771C90.2818 754.976 82.8828 731.172 82.0498 706.633C80.7268 667.168 99.6898 623.176 142.281 615.395C151.254 613.691 160.504 614.158 169.26 616.757C179.717 619.962 187.88 626.861 195.063 634.868C210.44 651.929 225.443 670.265 236.998 690.179C255.167 721.539 265.8 759.857 295.611 782.887C313.173 796.45 335.85 800.595 353.49 814.09C362.018 820.77 369.403 828.793 375.354 837.845C381.126 846.381 386.614 855.485 394.67 862.09C402.951 868.901 412.996 872.4 423.021 875.81C433.488 879.265 443.62 883.66 453.293 888.942C463.206 894.395 472.569 900.792 481.253 908.043C488.691 914.305 496.933 921.88 498.893 931.876C500.216 938.658 496.629 949.722 488.485 950.565C482.929 951.133 482.87 959.904 488.485 959.326C497.952 958.346 504.743 952.652 507.919 943.646C511.231 934.267 508.761 924.252 503.42 916.147C497.227 906.739 488.172 899.487 479.263 892.735C469.614 885.509 459.211 879.348 448.237 874.36C437.584 869.46 426.422 866.363 415.514 862.208C403.754 857.739 395.914 850.223 388.8 840.089C382.194 830.662 375.815 821.283 367.24 813.463C358.666 805.698 348.893 799.371 338.3 794.725C326.815 789.619 314.78 785.65 304.275 778.555C296.189 772.915 289.106 765.959 283.322 757.975C271.121 741.56 263.007 722.538 253.922 704.33C243.573 683.534 230.765 665.042 215.83 647.274C201.629 630.389 187.586 612.083 164.517 608.133C145.152 604.86 124.729 610.495 109.274 622.5C92.6142 635.416 82.3242 655.242 77.9142 675.577C67.6536 722.362 86.9596 770.117 105.55 812.316C122.818 851.516 144.917 890.02 177.267 918.764C193.101 932.91 211.338 944.108 231.118 951.829C253.658 960.561 277.628 964.667 301.589 966.656C341.456 969.979 381.832 968.518 421.708 965.951C437.927 964.912 454.156 963.599 470.296 961.688C475.735 961.041 481.233 960.433 486.594 959.257C488.554 958.826 492.337 958.473 493.767 956.768C495.198 955.063 493.934 953.387 492.052 952.78C489.985 952.123 489.22 955.23 491.17 955.974H491.18Z" fill="black"/>
<path d="M535.976 871.567C533.071 878.505 532.247 886.14 533.605 893.538C533.722 894.195 534.722 893.911 534.585 893.264C533.259 886.045 534.028 878.598 536.799 871.802C537.005 871.283 536.172 871.057 535.957 871.567H535.976Z" fill="black"/>
<path d="M554.448 869.754C553.109 875.037 552.308 880.441 552.057 885.885C551.9 888.903 550.842 893.578 553.037 896.057C553.459 896.537 554.331 895.881 553.939 895.361C551.979 892.735 553.194 886.169 553.419 883.2C553.753 878.741 554.497 874.38 555.213 869.97C555.301 869.47 554.576 869.244 554.439 869.754H554.448Z" fill="black"/>
<path d="M574.578 868.039C574.68 876.613 573.898 885.174 572.246 893.588C572.099 894.313 573.226 894.626 573.353 893.901C575.301 885.428 575.991 876.714 575.401 868.039C575.401 867.812 575.217 867.627 574.99 867.627C574.762 867.627 574.578 867.812 574.578 868.039Z" fill="black"/>
<path d="M594.139 868.157C596.625 876.285 596.69 884.962 594.326 893.127C594.272 893.44 594.465 893.744 594.772 893.827C595.078 893.911 595.399 893.748 595.511 893.45C597.814 885.084 597.616 876.226 594.943 867.97C594.883 867.749 594.655 867.617 594.433 867.676C594.211 867.736 594.08 867.964 594.139 868.186V868.157Z" fill="black"/>
<path d="M381.871 769.833C385.952 777.953 387.764 787.024 387.114 796.088C386.721 800.858 385.635 805.546 383.89 810.004C382.616 813.296 380.783 816.648 381.215 820.294C381.646 823.939 384.586 827.575 388.574 826.713C391.23 826.144 393.474 823.773 395.532 822.087L406.646 813.14L405.519 812.679C406.108 818.999 405.058 825.365 402.471 831.162C402.216 831.72 402.765 832.475 403.382 832.083C417.504 823.038 423.59 806.946 429.627 792.07C438.022 771.333 446.76 750.753 455.842 730.33C473.658 690.169 492.732 650.597 513.064 611.612C518.189 601.812 522.864 591.17 530.047 582.624C533.134 578.949 536.839 575.637 541.347 573.804C543.679 572.883 547.099 571.413 548.207 573.882C549.569 576.822 545.972 582.467 544.287 584.515C544.089 584.723 544.032 585.029 544.142 585.294C544.253 585.559 544.509 585.734 544.796 585.74C547.344 586.799 547.413 588.337 545.002 590.356C544.189 590.474 544.375 591.895 545.198 591.797C546.854 591.601 549.285 590.817 550.921 591.101C553.165 591.562 552.274 593.688 552.078 595.707C551.627 600.411 551.196 605.115 550.813 609.829C550.088 618.933 549.539 628.057 549.432 637.19C549.216 656.006 551.45 674.675 552.911 693.403C555.851 731.27 553.606 769.226 549.892 806.956C547.795 828.222 545.355 849.458 543.032 870.656C542.924 871.636 544.453 871.636 544.561 870.656C548.589 833.935 553.146 797.205 555.027 760.288C556.027 742.161 556.106 723.994 555.263 705.859C554.351 687.67 551.97 669.599 551.205 651.391C550.353 630.869 552.185 610.417 554.145 590.003C554.145 589.592 553.812 589.259 553.401 589.259L545.218 590.239L545.414 591.679C549.579 591.072 548.991 584.261 544.816 584.212L545.325 585.446C548.632 581.663 550.143 576.637 549.471 571.658C549.466 571.276 549.157 570.967 548.775 570.962C533.017 571.119 524.451 587.024 517.993 599.206C507.769 618.531 497.851 637.991 488.24 657.584C469.424 695.974 451.814 734.913 435.409 774.4C430.979 785.053 427 795.96 422.09 806.417C417.582 816.031 411.81 825.037 402.706 830.917L403.627 831.828C406.337 825.827 407.445 819.226 406.842 812.669C406.832 812.405 406.669 812.17 406.424 812.069C406.18 811.967 405.899 812.018 405.705 812.199L397.375 818.912C394.082 821.558 387.741 828.82 383.42 822.949C380.891 819.519 383.42 814.492 384.772 811.091C385.983 808.097 386.902 804.992 387.516 801.821C389.6 790.778 387.873 779.354 382.616 769.422C382.371 768.951 381.685 769.363 381.91 769.824L381.871 769.833Z" fill="black"/>
<path d="M607.937 343.768C610.936 342.357 614.033 344.934 616.267 346.649C618.501 348.364 620.53 344.631 618.354 343.072C614.689 340.446 610.456 338.251 606.046 340.515C603.87 341.632 605.771 344.787 607.937 343.768Z" fill="black"/>
<path d="M572.226 346.865C581.233 348.315 581.36 358.899 583.526 366.063C584.202 368.307 587.661 368.484 588.249 366.063C588.955 363.192 587.975 360.624 587.201 357.841C586.348 354.754 585.633 351.393 584.026 348.6C581.735 344.399 576.929 342.236 572.266 343.308C570.541 343.66 570.462 346.571 572.266 346.865H572.226Z" fill="black"/>
<path d="M294.279 465.22C315.456 462.466 336.811 457.507 357.371 451.735C376.051 446.562 393.879 438.695 410.291 428.382C442.494 408.017 470.345 381.057 505.155 364.858C510.702 362.271 516.347 359.586 522.099 357.479C527.852 355.372 533.183 356.42 539.141 355.999C549.676 355.254 558.3 347.679 569.041 347.963C572.05 348.051 572.05 343.357 569.041 343.298C560.064 343.112 552.293 347.757 543.767 349.776C538.681 350.971 533.879 350.138 528.763 350.432C524.255 350.677 520.178 352.324 516.082 354.068C497.64 361.778 480.109 371.507 463.809 383.076C448.315 394.209 433.605 406.42 417.837 417.161C401.461 428.313 384.223 437.378 365.299 443.385C341.779 450.843 317.661 455.635 293.759 461.525C291.799 462.015 292.123 465.494 294.259 465.22H294.279Z" fill="black"/>
<path d="M548.265 358.743C552.343 362.125 554.878 367.014 555.292 372.296C555.576 375.462 560.554 375.491 560.26 372.296C559.656 365.64 555.952 359.656 550.264 356.146C548.716 355.166 546.795 357.537 548.304 358.743H548.265Z" fill="black"/>
<path d="M554.262 361.222C562.259 356.3 571.147 353 580.419 351.51C581.242 351.373 580.899 350.119 580.076 350.256C570.714 351.827 561.775 355.303 553.812 360.468C553.341 360.771 553.812 361.526 554.262 361.222Z" fill="black"/>
<path d="M560.985 369.827C568.575 365.769 576.596 362.574 584.897 360.301C585.222 360.212 585.413 359.876 585.324 359.551C585.234 359.227 584.899 359.036 584.574 359.125C576.087 361.145 567.98 364.516 560.564 369.111C560.366 369.228 560.301 369.482 560.417 369.68C560.533 369.877 560.788 369.943 560.985 369.827Z" fill="black"/>
<path d="M582.624 366.015H582.016C581.734 366.052 581.522 366.293 581.522 366.578C581.522 366.863 581.734 367.104 582.016 367.142H582.624C582.932 367.142 583.183 366.892 583.183 366.583C583.183 366.273 582.934 366.02 582.624 366.015Z" fill="black"/>
<path d="M667.276 825.752C678.908 827.761 692.197 832.769 701.321 840.393C705.594 843.97 709.161 848.311 710.925 853.662C712.807 859.336 711.631 863.795 710.219 869.342C709.543 871.959 713.061 874.399 715.012 872.125C723.371 862.394 716.972 846.253 708.72 838.649C698.401 829.143 681.407 823.949 667.736 822.39C665.776 822.165 665.355 825.448 667.276 825.781V825.752Z" fill="black"/>
<path d="M666.011 822.626C658.807 828.828 653.747 837.15 651.556 846.401C651.508 846.702 651.694 846.992 651.989 847.072C652.284 847.153 652.591 846.999 652.703 846.714C654.978 837.706 659.795 829.542 666.58 823.194C666.962 822.832 666.403 822.293 666.011 822.626Z" fill="black"/>
<path d="M678.615 828.623C672.901 836.055 669.19 844.828 667.835 854.103C667.718 854.907 668.923 855.269 669.07 854.446C670.695 845.398 674.193 836.789 679.34 829.172C679.615 828.751 678.948 828.192 678.625 828.623H678.615Z" fill="black"/>
<path d="M694.04 835.914C690.12 843.686 686.386 851.594 682.966 859.523C682.662 860.248 683.701 860.885 684.044 860.15C687.749 852.31 691.277 844.323 694.873 836.404C695.118 835.846 694.324 835.356 694.04 835.914Z" fill="black"/>
<path d="M709.897 845.872C704.85 857.2 694.775 865.981 687.053 875.507C686.533 876.154 687.415 877.085 688.033 876.487C696.069 867.451 706.094 857.622 710.7 846.234C710.867 845.803 710.132 845.489 709.936 845.921L709.897 845.872Z" fill="black"/>
<path d="M695.088 885.934L695.686 885.326C695.765 885.25 695.809 885.146 695.809 885.037C695.809 884.928 695.765 884.824 695.686 884.748C695.523 884.589 695.262 884.589 695.098 884.748L694.5 885.346C694.341 885.509 694.341 885.77 694.5 885.934C694.668 886.083 694.921 886.083 695.088 885.934Z" fill="black"/>
<path d="M676.566 663.288C685.957 659.111 695.86 656.195 706.015 654.615L705.143 653.743C702.16 663.415 697.073 672.307 690.247 679.781C690.085 679.951 690.009 680.184 690.04 680.417C690.07 680.649 690.204 680.855 690.404 680.977C692.891 682.625 695.745 683.635 698.714 683.917L698.038 682.751C683.036 703.808 671.906 727.369 665.169 752.331C665.104 752.648 665.295 752.962 665.607 753.05C665.919 753.137 666.245 752.969 666.355 752.664C673.395 727.92 684.56 704.543 699.381 683.515C699.753 682.986 699.234 682.398 698.714 682.349C698.195 682.3 692.736 681.614 692.364 680.389C692.05 679.409 693.991 677.753 694.481 677.145C699.951 670.307 704.035 662.467 706.505 654.066C706.569 653.821 706.498 653.56 706.319 653.38C706.14 653.201 705.879 653.13 705.633 653.194C695.425 654.968 685.496 658.085 676.106 662.465C675.577 662.71 676.037 663.445 676.566 663.239V663.288Z" fill="black"/>
<path d="M85.4601 704.898C94.6623 706.564 102.551 701.145 107.931 694.05C111.214 689.708 113.498 680.741 119.084 678.889C122.494 677.762 126.649 679.477 130.109 679.869C133.074 680.24 136.069 680.302 139.046 680.055C143.672 679.614 147.229 677.733 150.875 674.959C156.481 670.696 161.949 666.237 167.535 661.876C170.74 659.358 173.866 656.29 177.335 654.242C181.059 652.076 183.695 653.321 187.449 652.85C190.212 652.507 192.427 651.057 192.613 648.156C192.672 647.176 191.261 647.245 191.163 648.156L188.36 651.224C187.232 651.429 186.08 651.469 184.94 651.341C183.561 651.204 182.173 651.204 180.794 651.341C179.532 651.59 178.327 652.069 177.237 652.752C172.866 655.33 169.005 659.093 165.046 662.249C159.695 666.502 154.462 671.069 148.905 674.989C143.554 678.84 137.576 679.516 131.138 678.909C127.267 678.526 122.553 676.625 118.662 677.929C115.291 679.095 113.439 682.329 111.92 685.328C106.853 695.294 98.3079 706.329 85.6659 704.104C85.1465 704.016 84.9211 704.81 85.4503 704.908L85.4601 704.898Z" fill="white"/>
<path d="M108.471 771.176C120.863 769.175 132.15 762.862 140.34 753.35C143.133 750.194 145.74 748.038 150.072 747.176C153.141 746.742 156.168 746.043 159.117 745.088C164.213 743.128 168.682 739.914 173.121 736.797C178.021 733.387 183.107 729.624 189.017 728.301C194.926 726.978 201.286 729.741 206.343 725.763C210.714 722.313 212.527 716.433 215.957 712.19C220.612 706.427 226.737 702.831 233.675 700.479C233.936 700.407 234.139 700.201 234.207 699.94C234.275 699.678 234.199 699.399 234.006 699.209C233.814 699.019 233.534 698.947 233.274 699.018C227.912 700.434 222.96 703.093 218.819 706.78C214.291 710.759 211.87 715.698 208.597 720.627C205.53 725.243 202.1 726.605 196.504 726.282C193.853 726.042 191.181 726.197 188.576 726.743C183.411 727.958 178.835 730.888 174.532 733.867C169.456 737.376 164.497 741.345 158.686 743.579C153.639 745.539 147.671 745.01 143.221 748.381C140.958 750.096 139.301 752.526 137.439 754.614C134.68 757.624 131.563 760.287 128.159 762.542C122.132 766.489 115.351 769.138 108.245 770.323C107.696 770.421 107.932 771.244 108.471 771.156V771.176Z" fill="white"/>
<path d="M137.234 845.078C148.847 841.883 160.95 838.335 169.456 829.29C174.356 824.096 178.276 819.069 184.93 815.952C190.389 813.385 196.239 811.817 201.776 809.465C206.774 807.44 211.274 804.358 214.967 800.429C218.887 796.225 222.023 791.197 226.649 787.738C232.029 783.71 237.154 785.553 243.181 784.553C247.621 783.818 249.297 780.751 250.306 776.664C252.129 769.334 257.391 768.295 263.634 765.747C267.025 764.365 270.18 762.562 271.013 758.759C271.122 758.367 270.891 757.961 270.499 757.853C270.106 757.745 269.701 757.975 269.592 758.367C267.534 764.149 260.478 764.649 255.627 767.001C250.404 769.53 249.845 772.999 248.13 778.105C245.533 785.827 234.724 781.466 228.697 784.357C223.062 787.062 219.377 792.589 215.438 797.195C210.146 803.379 203.952 806.877 196.386 809.68C190.075 812.013 183.441 814.031 178.021 818.167C171.602 823.067 167.79 830.309 160.861 834.768C153.6 839.423 145.181 841.873 137.008 844.264C136.784 844.327 136.652 844.559 136.714 844.784C136.776 845.008 137.009 845.14 137.234 845.078Z" fill="white"/>
<path d="M199.875 910.943C212.399 911.12 220.377 900.163 227.795 891.686C232.695 886.081 238.007 881.749 244.975 879.035C250.227 876.986 255.755 875.565 260.753 872.939C265.158 870.719 268.804 867.239 271.229 862.943C274.169 857.641 275.492 851.575 278.608 846.361C285.468 834.866 301.854 837.669 308.988 826.761C310.448 824.527 310.056 822.195 311.027 819.999C311.624 818.657 313.967 816.638 315.133 816.589C316.056 816.722 316.967 816.928 317.857 817.206C319.056 817.394 320.272 817.45 321.483 817.373C326.859 816.951 331.757 814.124 334.811 809.68C335.458 808.769 333.959 807.906 333.312 808.808C330.31 813.107 325.384 815.654 320.141 815.619C317.583 815.619 314.104 813.492 311.615 814.766C309.968 815.599 309.713 817.03 309.361 818.686C308.792 821.273 309.027 823.498 307.469 825.85C306.206 827.636 304.597 829.149 302.736 830.299C296.464 834.425 288.447 834.876 282.401 839.443C277.432 843.186 275.208 848.988 273.042 854.593C269.925 862.629 266.113 868.647 258.048 872.361C251.717 875.301 244.798 876.781 238.683 880.201C224.257 888.276 218.328 909.179 199.875 910.091C199.637 910.091 199.444 910.284 199.444 910.522C199.444 910.76 199.637 910.953 199.875 910.953V910.943Z" fill="white"/>
<path d="M288.722 952.162C298.553 948.862 307.711 943.823 315.76 937.286C320.129 933.709 324.125 929.7 327.687 925.32C331.607 920.508 334.743 915.06 339.506 911.002C349.551 902.437 361.761 896.41 372.355 888.56C375.785 886.022 379.215 883.062 381.038 879.133C381.775 877.598 382.201 875.933 382.292 874.233C382.439 870.724 379.294 864.932 384.115 863.286C384.537 863.158 384.78 862.717 384.663 862.292C384.546 861.867 384.112 861.613 383.684 861.718C380.352 862.218 379.411 865.305 379.617 868.362C379.852 871.734 380.911 874.243 379.617 877.653C378.369 880.465 376.467 882.938 374.07 884.866C364.27 893.48 352.108 899.566 341.583 907.249C332.479 913.903 327.51 924.448 319.465 932.229C310.642 940.729 300.084 947.218 288.516 951.251C287.997 951.437 288.212 952.231 288.742 952.094L288.722 952.162Z" fill="white"/>
<path d="M394.895 959.924C409.431 955.286 422.15 946.211 431.263 933.973C433.752 930.612 436.026 927.045 439.025 924.105C442.239 920.959 445.885 920.185 449.805 918.225C456.665 914.834 460.242 904.848 463.858 898.625C464.06 898.227 463.918 897.742 463.534 897.516C463.15 897.291 462.656 897.403 462.407 897.772C459.967 901.976 457.654 906.288 455.057 910.394C452.245 914.853 449.275 916.382 444.513 918.44C439.26 920.704 435.791 925.192 432.576 929.74C422.904 943.381 410.742 953.661 394.709 959.042C394.19 959.218 394.415 960.022 394.944 959.875L394.895 959.924Z" fill="white"/>
<path d="M136.175 367.543C128.129 384.889 132.353 404.254 143.035 419.483C148.526 427.18 155.098 434.045 162.547 439.867C166.155 442.756 169.53 445.925 172.641 449.344C174.846 451.745 177.404 453.264 180.481 451.451C183.784 449.491 180.765 444.326 177.472 446.306C178.55 445.659 163.282 433.056 162.243 432.165C156.176 427.112 150.823 421.26 146.328 414.77C137.351 401.363 133.588 384.233 139.321 368.808C139.978 367.024 137.028 365.76 136.224 367.504L136.175 367.543Z" fill="black"/>
<path d="M673.597 259.832C668.001 273.238 665.669 288.046 661.896 302.04C658.26 315.554 655.428 329.539 652.939 343.308C652.596 345.268 655.163 346.581 656.241 344.7C663.268 332.518 666.159 317.593 668.589 303.883C671.167 289.437 675.449 274.865 676.037 260.155C676.096 258.646 674.077 258.636 673.597 259.832Z" fill="#DC3545"/>
<path d="M557.359 109.049C544.161 107.767 530.896 107.306 517.64 107.667C505.184 108.127 492.16 108.578 479.949 111.459C458.389 116.546 451.902 136.812 449.324 156.441C447.569 169.739 446.914 183.158 447.364 196.563C447.746 207.842 447.58 221.327 454.224 231.01C466.464 248.875 493.307 252.815 513.22 252.521C520.045 252.32 526.855 251.771 533.624 250.874C539.592 250.178 546.001 249.434 551.538 252.305C560.985 257.205 566.091 267.524 576.215 271.729C579.155 272.944 581.693 269.494 581.046 266.897C578.841 257.999 577.626 248.757 576.146 239.712L572.814 244.083C584.358 244.034 597.187 243.573 606.624 236.037C617.1 227.678 620.168 212.419 621.324 199.777C622.647 184.577 621.187 169.005 618.992 153.942C617.149 141.32 614.934 126.728 605.409 117.33C597.187 109.235 581.81 106.785 573.863 116.565C571.079 119.995 575.685 124.895 578.831 121.524C583.055 117.006 589.611 116.712 595.011 119.162C601.028 121.877 604.615 127.982 606.771 133.941C611.838 148.17 613.17 164.458 614.013 179.442C614.836 193.877 614.993 210.155 608.035 223.277C601.077 236.4 586.024 236.997 572.883 237.164C570.452 237.164 569.198 239.34 569.551 241.535C570.981 250.267 572.677 259.106 573.353 267.926L579.233 264.535C571.824 259.9 567.228 252.423 560.437 247.16C552.724 241.143 543.855 240.398 534.408 241.447C513.485 243.789 490.759 245.102 471.776 234.155C467.856 231.862 464.054 228.952 461.633 224.992C458.546 219.955 458.056 213.82 457.605 208.068C456.696 196.61 456.604 185.102 457.331 173.631C458.419 156.245 459.457 128.551 479.263 121.593C484.673 119.701 490.553 119.113 496.188 118.251C502.989 117.199 509.813 116.359 516.66 115.732C530.204 114.468 543.757 113.625 557.359 113.684C560.368 113.684 560.299 109.343 557.359 109.088V109.049Z" fill="black"/>
<path d="M498.04 180.814C495.482 182.137 495.306 185.499 497.011 187.596C499.137 190.222 502.685 189.683 505.076 187.743C509.457 184.205 512.015 176.375 506.429 172.729C504.841 171.69 503.048 172.563 502.028 173.886L499.931 176.6C497.393 179.893 503.146 183.372 505.605 179.913L507.565 177.139L503.165 178.296C503.861 178.707 503.077 180.51 502.832 181.049C502.529 181.719 502.119 182.335 501.617 182.872L501.156 183.323C500.647 183.49 500.607 183.637 501.039 183.744C501.47 183.852 501.411 183.98 501.284 183.833C501.009 183.48 500.96 183.833 501.127 184.813C503.479 182.902 500.49 179.511 498.02 180.785L498.04 180.814Z" fill="black"/>
<path d="M527.146 180.814C524.588 182.137 524.412 185.499 526.107 187.596C528.234 190.222 531.791 189.683 534.183 187.743C538.563 184.205 541.121 176.375 535.535 172.729C533.947 171.69 532.154 172.563 531.135 173.886L529.047 176.6C526.499 179.893 532.252 183.372 534.722 179.913L536.682 177.139L532.281 178.296C532.987 178.707 532.203 180.51 531.948 181.049C531.649 181.721 531.238 182.337 530.733 182.872L530.282 183.323C529.773 183.49 529.733 183.637 530.165 183.744C530.596 183.852 530.537 183.98 530.4 183.833C530.135 183.48 530.086 183.833 530.253 184.813C532.605 182.902 529.606 179.511 527.146 180.785V180.814Z" fill="black"/>
<path d="M556.261 180.814C553.704 182.137 553.527 185.499 555.223 187.596C557.349 190.222 560.897 189.683 563.298 187.743C567.669 184.205 570.236 176.375 564.64 172.729C563.053 171.69 561.259 172.563 560.24 173.886L558.163 176.6C555.615 179.893 561.367 183.372 563.827 179.913L565.787 177.139L561.387 178.296C562.092 178.707 561.308 180.51 561.054 181.049C560.751 181.719 560.34 182.335 559.838 182.872L559.388 183.323C558.868 183.49 558.829 183.637 559.27 183.744C559.564 183.953 559.642 183.983 559.505 183.833C559.231 183.48 559.182 183.833 559.358 184.813C561.71 182.902 558.711 179.511 556.252 180.785L556.261 180.814Z" fill="black"/>
<path d="M709.092 113.194C706.535 114.517 706.358 117.869 708.054 119.976C710.18 122.602 713.728 122.053 716.129 120.123C720.5 116.585 723.067 108.745 717.481 105.099C715.884 104.07 714.09 104.933 713.071 106.256L710.994 108.98C708.446 112.283 714.198 115.762 716.658 112.293L718.618 109.519L714.218 110.676C714.923 111.097 714.139 112.9 713.885 113.439C713.579 114.104 713.169 114.717 712.669 115.252L712.219 115.703C711.699 115.87 711.67 116.017 712.101 116.134C712.532 116.252 712.473 116.36 712.336 116.222C712.072 115.87 712.013 116.222 712.189 117.202C714.541 115.242 711.542 111.901 709.083 113.184L709.092 113.194Z" fill="black"/>
<path d="M738.209 113.194C735.651 114.517 735.474 117.869 737.17 119.976C739.296 122.602 742.844 122.053 745.235 120.123C749.616 116.585 752.183 108.745 746.588 105.099C745 104.07 743.207 104.933 742.187 106.256L740.1 108.98C737.552 112.283 743.305 115.762 745.764 112.293L747.724 109.519L743.324 110.676C744.03 111.097 743.236 112.9 742.991 113.439C742.685 114.104 742.275 114.717 741.776 115.252L741.315 115.703C740.806 115.87 740.766 116.017 741.207 116.134C741.648 116.252 741.58 116.36 741.443 116.222C741.168 115.87 741.119 116.222 741.296 117.202C743.648 115.242 740.649 111.901 738.189 113.184L738.209 113.194Z" fill="black"/>
<path d="M767.315 113.194C764.757 114.517 764.581 117.869 766.335 119.976C768.462 122.602 772.009 122.053 774.4 120.123C778.781 116.585 781.339 108.745 775.753 105.099C774.165 104.07 772.372 104.933 771.353 106.256L769.216 108.98C766.678 112.283 772.431 115.762 774.89 112.293L776.85 109.519L772.44 110.656C773.136 111.077 772.352 112.881 772.107 113.42C771.801 114.085 771.391 114.697 770.892 115.233L770.431 115.683C769.922 115.85 769.883 115.997 770.314 116.115C770.745 116.232 770.696 116.34 770.559 116.203C770.284 115.85 770.235 116.203 770.402 117.183C772.754 115.223 769.765 111.881 767.295 113.165L767.315 113.194Z" fill="black"/>
<path d="M791.256 286.301C788.698 287.624 788.512 290.986 790.217 293.083C792.343 295.709 795.891 295.16 798.282 293.23C802.663 289.692 805.23 281.852 799.635 278.216C798.047 277.177 796.254 278.05 795.234 279.363L793.147 282.068C790.609 285.37 796.361 288.849 798.821 285.39L800.781 282.616L796.381 283.763C797.077 284.184 796.293 285.988 796.048 286.527C795.747 287.195 795.337 287.808 794.833 288.34L794.372 288.8C793.862 288.967 793.823 289.104 794.264 289.222C794.705 289.339 794.637 289.447 794.499 289.31C794.225 288.957 794.176 289.31 794.352 290.29C796.704 288.379 793.706 284.988 791.246 286.262L791.256 286.301Z" fill="black"/>
<path d="M820.362 286.301C817.804 287.624 817.628 290.986 819.382 293.083C821.499 295.709 825.056 295.16 827.447 293.23C831.828 289.692 834.386 281.852 828.8 278.216C827.212 277.177 825.419 278.05 824.399 279.363L822.312 282.068C819.774 285.37 825.526 288.849 827.986 285.39L829.946 282.616L825.546 283.763C826.242 284.184 825.458 285.988 825.213 286.527C824.912 287.195 824.501 287.808 823.998 288.34L823.537 288.8C823.027 288.967 822.988 289.104 823.419 289.222C823.851 289.339 823.792 289.447 823.664 289.31C823.39 288.957 823.341 289.31 823.508 290.29C825.86 288.379 822.871 284.988 820.401 286.262L820.362 286.301Z" fill="black"/>
<path d="M849.478 286.301C846.92 287.624 846.744 290.986 848.439 293.083C850.566 295.709 854.123 295.16 856.515 293.23C860.895 289.692 863.453 281.852 857.867 278.216C856.279 277.177 854.476 278.05 853.467 279.363L851.379 282.068C848.831 285.37 854.584 288.849 857.054 285.39L859.014 282.616L854.613 283.763C855.319 284.184 854.535 285.988 854.28 286.527C853.983 287.197 853.572 287.81 853.065 288.34L852.614 288.8C852.105 288.967 852.065 289.104 852.497 289.222C852.928 289.339 852.869 289.447 852.732 289.31C852.467 288.957 852.418 289.31 852.585 290.29C854.937 288.379 851.938 284.988 849.478 286.262V286.301Z" fill="black"/>
<path d="M767.089 36.0387C746.744 27.1599 721.823 33.3829 701.684 40.0959C682.211 46.5933 663.689 57.2949 652.988 75.3759C633.162 108.862 642.6 152.737 673.97 175.336C691.961 188.154 714.306 193.3 736.092 189.644L730.937 184.499C727.811 197.239 720.99 208.019 711.572 217.123C708.338 220.239 711.788 224.698 715.61 224.061C733.985 221.033 750.704 209.362 760.396 193.486C762.072 190.751 762.895 188.585 766.668 188.507C768.863 188.438 771.078 188.83 773.293 188.752C778.249 188.587 783.154 187.702 787.855 186.126C796.427 183.176 804.262 178.412 810.827 172.161C826.154 157.794 833.367 136.959 836.111 116.604C838.796 96.8575 838.472 75.4445 825.517 59.2059C813.138 43.752 793.595 35.8732 773.959 38.4201C769.647 38.9983 771.48 45.5447 775.762 44.9665C791.854 42.8007 808.386 49.8665 818.931 61.9891C831.838 76.8753 831.671 97.2005 829.349 115.722C826.997 134.725 820.529 154.246 806.417 167.79C799.792 174.271 791.648 178.988 782.73 181.51C778.689 182.613 774.511 183.131 770.323 183.048C766.668 182.96 762.944 182.225 759.837 184.665C756.731 187.106 755.261 191.28 752.977 194.367C749.943 198.587 746.258 202.298 742.06 205.363C733.952 211.241 724.442 214.887 714.483 215.937L717.423 223.023C728.379 213.683 735.641 200.669 738.983 186.763C739.786 183.44 736.964 181.079 733.838 181.608C699.92 187.38 662.866 167.143 653.174 133.304C648.509 117 649.92 99.5578 657.143 84.2155C665.257 67.4281 680.32 56.1679 697.215 49.0531C718.207 40.2331 743.04 33.5985 765.551 39.6843C767.658 40.2527 769.216 36.9599 767.089 36.0387Z" fill="black"/>
<path d="M744.931 307.695C736.335 310.526 727.976 314.033 719.931 318.181C717.099 319.7 718.069 323.669 720.774 324.619C728.47 327.3 736.589 328.555 744.735 328.324L741.57 326.54C747.058 339.172 755.701 351.677 768.951 356.979C780.593 361.634 794.94 359.919 803.564 350.276L797.547 349.501C802.604 360.144 813.766 367.602 825.673 367.524C837.769 367.279 848.671 360.174 853.78 349.207L847.429 350.031C857.739 360.281 874.605 363.006 887.305 355.499C900.006 347.992 905.857 331.842 901.829 317.808L896.527 323.11C910.365 328.304 919.988 314.466 922.752 302.844C926.025 289.035 928.995 272.317 920.488 259.724C916.931 254.481 912.374 251.599 906.562 249.404C904.387 248.581 903.377 248.16 902.887 245.837C902.603 244.475 902.456 243.083 902.162 241.721C901.468 238.563 900.447 235.485 899.114 232.538C893.958 220.917 884.462 211.773 872.654 207.058C861.433 202.678 845.548 203.971 839.707 216.035L846.234 214.32C833.239 204.52 815.217 201.678 799.987 207.715C785.642 213.472 774.83 225.627 770.783 240.545L778.692 238.448C769.529 230.294 755.417 232.45 747.45 241.329C737.552 252.354 740.893 269.602 749.116 280.529L754.261 273.826C746.656 271.248 738.728 275.786 735.317 282.734C730.937 291.632 735.092 301.481 739.649 309.38C742.001 313.457 747.979 309.87 745.911 305.725C743.383 300.648 740.433 294.239 742.177 288.447C743.451 284.263 747.479 280.99 751.84 282.626C755.476 283.988 759.219 279.088 756.995 275.923C751.752 268.465 747.538 257.303 753.349 248.914C757.269 243.299 766.462 240.202 771.969 245.171C773.172 246.332 774.895 246.781 776.511 246.354C778.128 245.927 779.405 244.687 779.878 243.083C787.355 216.133 819.235 206.029 841.392 222.591C843.352 224.052 846.89 223.013 847.919 220.876C853.319 209.616 869.244 214.634 877.084 220.043C882.255 223.672 886.496 228.47 889.461 234.048C892.46 239.604 892.401 245.808 894.851 251.384C897.791 257.911 904.593 256.98 909.483 261.017C915.069 265.623 916.931 273.12 916.95 280.059C916.95 289.124 914.461 320.533 898.742 314.77C895.616 313.624 892.568 317.103 893.44 320.072C896.508 330.499 892.46 342.504 883.013 348.257C873.566 354.009 860.816 351.883 853.074 344.288C851.369 342.612 847.831 342.671 846.724 345.101C843.076 353.563 834.786 359.083 825.571 359.185C816.357 359.287 807.947 353.951 804.113 345.572C803.506 344.556 802.466 343.875 801.292 343.724C800.119 343.573 798.941 343.969 798.096 344.797C790.883 352.902 778.712 353.617 769.343 348.894C758.916 343.621 752.477 333.106 747.842 322.787C747.2 321.651 745.99 320.956 744.686 320.974C737.191 321.273 729.704 320.196 722.597 317.798L723.44 324.227C731.152 320.003 738.728 315.74 746.744 312.075C749.214 310.938 747.459 306.773 744.882 307.665L744.931 307.695Z" fill="black"/>
</svg>
