<svg width="1000" height="1000" viewBox="0 0 1000 1000" fill="none" xmlns="http://www.w3.org/2000/svg">
    <rect x="57.824" y="44.8389" width="17.0324" height="372.351" rx="8.5162" fill="black"/>
    <path d="M66.3402 415.494C58.167 415.494 59.4802 406.214 59.4802 400.863V95.2598C59.4802 81.4712 58.608 67.3494 59.4802 53.5804C59.8544 50.0952 62.7958 47.4527 66.301 47.4527C69.8062 47.4527 72.7476 50.0952 73.1218 53.5804C73.21 54.9034 73.1218 56.2558 73.1218 57.5788V357.459C73.1218 373.962 73.4746 390.504 73.1218 407.008C73.0336 411.222 71.2598 415.093 66.2618 415.455C64.096 415.612 64.0862 419.003 66.2618 418.846C75.6306 418.15 76.4734 410.526 76.4734 403.284V62.6454C76.4734 58.6274 77.2868 53.1198 75.6208 49.3174C71.7694 40.4974 58.5296 41.644 56.3344 51.0422C56.0636 52.5814 55.9683 54.1463 56.0502 55.707V362.731C56.0502 377.902 55.4818 393.19 56.0502 408.35C56.2658 413.995 60.3132 418.885 66.2618 418.885C67.1982 418.907 67.9748 418.165 67.9964 417.229C68.0181 416.293 67.2766 415.516 66.3402 415.494Z" fill="black"/>
    <circle cx="66.3402" cy="342.093" r="31.8402" fill="#DC3545"/>
    <path d="M96.485 342.093C96.5006 354.753 88.6018 366.073 76.7141 370.427C64.8265 374.781 51.4849 371.24 43.32 361.565C25.3468 340.446 44.6136 307.381 71.8184 312.448C86.0257 315.235 96.3231 327.615 96.4752 342.093C96.4752 344.278 99.915 344.278 99.866 342.093C99.7489 328.22 91.2166 315.81 78.306 310.733C65.0847 305.691 50.1217 309.49 40.9071 320.229C31.6926 330.967 30.2095 346.334 37.2003 358.636C44.1911 370.938 58.1514 377.529 72.0928 375.109C88.204 372.375 99.5328 358.145 99.8856 342.063C99.9248 339.917 96.534 339.917 96.485 342.093Z" fill="#DC3545"/>
    <path d="M94.7896 342.093C94.8305 354.079 87.3466 364.803 76.0817 368.899C64.8169 372.995 52.1931 369.583 44.5254 360.37C27.738 340.486 45.8288 309.41 71.3774 314.084C84.8529 316.659 94.6461 328.374 94.7896 342.093C94.8876 346.454 101.65 346.464 101.571 342.093C101.422 327.47 92.3817 314.412 78.747 309.126C64.8272 303.857 49.0979 307.903 39.4494 319.236C29.8008 330.569 28.3147 346.742 35.7366 359.643C43.1584 372.544 57.8869 379.39 72.5338 376.746C89.3801 373.806 101.228 358.89 101.571 342.073C101.659 337.732 94.8876 337.732 94.7896 342.093Z" fill="black"/>
    <rect x="139.203" y="44.8389" width="17.0324" height="372.351" rx="8.5162" fill="black"/>
    <path d="M147.719 415.494C139.546 415.494 140.859 406.214 140.859 400.863V95.2598C140.859 81.4712 139.977 67.3494 140.859 53.5804C141.234 50.0952 144.175 47.4527 147.68 47.4527C151.185 47.4527 154.127 50.0952 154.501 53.5804C154.589 54.9034 154.501 56.2558 154.501 57.5788V357.459C154.501 373.962 154.844 390.504 154.501 407.008C154.413 411.222 152.629 415.093 147.641 415.455C145.475 415.612 145.456 419.003 147.641 418.846C157 418.15 157.853 410.526 157.853 403.284V62.6454C157.853 58.6274 158.666 53.1198 157 49.3174C153.149 40.4974 139.909 41.644 137.714 51.0422C137.438 52.5808 137.343 54.1463 137.429 55.707V362.731C137.429 377.902 136.861 393.19 137.429 408.35C137.635 413.995 141.683 418.885 147.641 418.885C148.577 418.907 149.354 418.165 149.376 417.229C149.397 416.293 148.656 415.516 147.719 415.494Z" fill="black"/>
    <circle cx="147.719" cy="285.253" r="31.8402" fill="#DC3545"/>
    <path d="M177.864 285.253C177.888 297.926 169.982 309.262 158.08 313.618C146.178 317.974 132.823 314.42 124.66 304.725C106.697 283.606 125.963 250.541 153.158 255.608C167.496 258.283 177.521 270.856 177.825 285.253C177.874 287.438 181.265 287.448 181.216 285.253C181.217 271.157 172.406 258.564 159.163 253.734C145.92 248.905 131.071 252.87 121.998 263.658C112.925 274.446 111.564 289.755 118.591 301.974C125.619 314.193 139.536 320.715 153.423 318.298C169.534 315.564 180.863 301.334 181.216 285.253C181.304 283.077 177.913 283.077 177.864 285.253Z" fill="#DC3545"/>
    <path d="M176.169 285.253C176.21 297.239 168.726 307.962 157.461 312.058C146.196 316.155 133.572 312.743 125.905 303.53C109.107 283.645 127.208 252.57 152.747 257.244C166.226 259.814 176.024 271.531 176.169 285.253C176.257 289.614 183.029 289.633 182.95 285.253C182.972 270.406 173.696 257.134 159.745 252.052C145.795 246.971 130.156 251.167 120.623 262.55C111.09 273.933 109.704 290.065 117.155 302.907C124.606 315.749 139.3 322.552 153.913 319.925C170.759 316.985 182.598 302.069 182.95 285.253C183.039 280.892 176.257 280.892 176.169 285.253Z" fill="black"/>
    <rect x="220.573" y="44.8389" width="17.0324" height="372.351" rx="8.5162" fill="black"/>
    <path d="M229.089 415.494C220.925 415.494 222.229 406.214 222.229 400.863V95.2598C222.229 81.4712 221.357 67.3494 222.229 53.5804C222.603 50.0952 225.544 47.4527 229.05 47.4527C232.555 47.4527 235.496 50.0952 235.87 53.5804C235.959 54.9034 235.87 56.2558 235.87 57.5788V357.459C235.87 373.962 236.223 390.504 235.87 407.008C235.782 411.222 234.008 415.093 229.01 415.455C226.854 415.612 226.835 419.003 229.01 418.846C238.379 418.15 239.222 410.526 239.222 403.284V62.6454C239.222 58.6274 240.035 53.1198 238.369 49.3174C234.528 40.4974 221.288 41.644 219.093 51.0422C218.814 52.5804 218.715 54.1459 218.799 55.707V362.731C218.799 377.902 218.23 393.19 218.799 408.35C219.014 413.995 223.062 418.885 229.01 418.885C229.947 418.907 230.723 418.165 230.745 417.229C230.767 416.293 230.025 415.516 229.089 415.494Z" fill="black"/>
    <circle cx="226.119" cy="161.733" r="31.8402" fill="#DC3545"/>
    <path d="M256.264 161.734C256.275 174.389 248.378 185.702 236.495 190.055C224.612 194.408 211.276 190.873 203.109 181.206C185.136 160.087 204.403 127.022 231.607 132.089C245.815 134.876 256.112 147.256 256.264 161.734C256.313 163.919 259.704 163.919 259.655 161.734C259.656 147.638 250.845 135.045 237.602 130.215C224.359 125.386 209.51 129.351 200.437 140.139C191.364 150.927 190.003 166.236 197.031 178.455C204.058 190.674 217.975 197.196 231.862 194.779C247.973 192.045 259.302 177.815 259.655 161.734C259.704 159.558 256.313 159.558 256.264 161.734Z" fill="#DC3545"/>
    <path d="M254.569 161.734C254.61 173.72 247.126 184.443 235.861 188.539C224.596 192.636 211.972 189.224 204.304 180.011C187.517 160.126 205.608 129.051 231.156 133.725C244.632 136.299 254.425 148.015 254.569 161.734C254.657 166.095 261.429 166.114 261.35 161.734C261.372 146.886 252.095 133.615 238.145 128.533C224.194 123.452 208.555 127.648 199.023 139.031C189.49 150.414 188.104 166.546 195.555 179.388C203.006 192.23 217.7 199.033 232.313 196.406C249.159 193.466 261.007 178.55 261.35 161.734C261.438 157.373 254.657 157.373 254.569 161.734Z" fill="black"/>
    <rect x="301.952" y="44.8389" width="17.0324" height="372.351" rx="8.5162" fill="black"/>
    <path d="M310.468 415.494C302.295 415.494 303.608 406.214 303.608 400.863V95.2598C303.608 81.4712 302.726 67.3494 303.608 53.5804C303.982 50.0952 306.924 47.4527 310.429 47.4527C313.934 47.4527 316.875 50.0952 317.25 53.5804C317.338 54.9034 317.25 56.2558 317.25 57.5788V357.459C317.25 373.962 317.602 390.504 317.25 407.008C317.161 411.222 315.378 415.093 310.39 415.455C308.224 415.612 308.214 419.003 310.39 418.846C319.758 418.15 320.601 410.526 320.601 403.284V62.6454C320.601 58.6274 321.415 53.1198 319.749 49.3174C315.897 40.4974 302.657 41.644 300.462 51.0422C300.191 52.5814 300.096 54.1463 300.178 55.707V362.731C300.178 377.902 299.61 393.19 300.178 408.35C300.394 413.995 304.441 418.885 310.39 418.885C311.326 418.907 312.102 418.165 312.124 417.229C312.146 416.293 311.404 415.516 310.468 415.494Z" fill="black"/>
    <circle cx="310.468" cy="310.674" r="31.8402" fill="#DC3545"/>
    <path d="M340.613 310.674C340.624 323.329 332.727 334.643 320.844 338.996C308.961 343.349 295.624 339.814 287.458 330.147C269.484 309.028 288.751 275.962 315.956 281.029C330.163 283.816 340.461 296.197 340.613 310.674C340.662 312.859 344.053 312.859 344.004 310.674C344.005 296.578 335.194 283.985 321.951 279.156C308.708 274.327 293.859 278.291 284.786 289.079C275.713 299.867 274.352 315.176 281.379 327.395C288.407 339.615 302.324 346.137 316.211 343.72C332.322 340.985 343.651 326.756 344.004 310.674C344.053 308.498 340.662 308.498 340.613 310.674Z" fill="#DC3545"/>
    <path d="M338.917 310.674C338.958 322.66 331.474 333.384 320.209 337.48C308.945 341.576 296.321 338.164 288.653 328.951C271.856 309.067 289.957 277.991 315.505 282.666C328.981 285.24 338.774 296.956 338.917 310.674C339.006 315.035 345.777 315.055 345.699 310.674C345.72 295.827 336.444 282.555 322.494 277.474C308.543 272.392 292.904 276.589 283.371 287.971C273.839 299.354 272.452 315.487 279.904 328.329C287.355 341.171 302.049 347.974 316.662 345.346C333.508 342.406 345.356 327.491 345.699 310.674C345.787 306.313 339.006 306.313 338.917 310.674Z" fill="black"/>
    <path d="M588.024 420.728C582.869 422.227 578.224 425.02 573.608 427.794C565.68 432.566 557.673 437.408 551.068 443.866C545.746 449.06 541.434 455.195 537.446 461.506C524.853 481.292 515.2 502.783 505.596 524.226C503.361 529.194 501.078 534.535 501.989 539.906C502.852 544.982 506.409 549.128 509.957 552.861C520.012 563.406 531.389 573.098 544.884 578.586C558.379 584.074 574.284 584.917 587.24 578.224" fill="#DC3545"/>
    <path d="M587.886 420.228C579.409 422.453 571.53 427.696 564.17 432.311C556.693 436.856 550.031 442.623 544.463 449.373C533.114 463.466 524.745 480.224 516.944 496.413C512.74 505.135 508.82 513.916 504.9 522.707C501.96 529.243 498.902 536.28 501.735 543.394C504.567 550.509 511.535 556.517 517.16 561.652C523.144 567.269 529.788 572.14 536.946 576.156C552.567 584.652 571.56 587.387 587.906 579.223C589.347 578.498 588.082 576.371 586.652 577.067C571.952 584.192 554.753 582.242 540.435 575.048C533.578 571.518 527.191 567.142 521.423 562.024C515.866 557.193 509.663 551.773 505.674 545.521C500.059 536.701 505.527 527.381 509.29 519.012C512.622 511.603 515.994 504.204 519.522 496.884C526.382 482.693 533.712 468.522 542.816 455.645C548.356 447.829 555.262 441.076 563.2 435.712C571.089 430.283 579.243 424.648 588.22 421.218C588.476 421.131 588.619 420.859 588.546 420.598C588.473 420.337 588.209 420.179 587.945 420.238L587.886 420.228Z" fill="#DC3545"/>
    <path d="M588.024 418.66C579.566 419.444 571.364 424.707 564.023 428.597C555.993 432.822 548.85 438.551 542.983 445.473C530.978 459.771 522.256 477.058 514.161 493.777C509.967 502.44 505.988 511.211 502.038 520.002C498.403 528.097 494.767 536.525 498.471 545.276C501.666 552.812 508.546 558.888 514.455 564.327C520.675 570.194 527.586 575.282 535.035 579.478C551.832 588.68 572.373 591.611 589.788 582.418C595.56 579.39 590.493 571.158 584.75 573.804C570.972 580.125 554.841 578.087 541.63 571.325C535.076 567.912 528.967 563.706 523.442 558.8C518.238 554.233 511.917 549.079 508.448 542.983C504.185 535.496 509.673 527.019 512.799 520.071C516.131 512.652 519.502 505.253 523.03 497.932C529.978 483.546 537.436 469.022 546.903 456.096C557.497 441.622 573.814 431.449 589.043 422.512C590.699 421.532 590.111 418.494 588.004 418.68L588.024 418.66Z" fill="black"/>
    <path d="M615.405 687.18C596.657 723.499 557.193 747.332 516.425 750.135C475.657 752.938 434.585 735.778 405.538 707.015C391.357 692.972 379.911 676.439 368.964 659.76C354.568 637.798 340.828 615.287 330.382 591.16C317.72 562.132 309.88 530.694 292.828 503.969C280.656 484.937 264.241 469.032 250.521 451.049C236.801 433.066 225.463 411.849 226.149 389.24C226.315 383.919 227.903 377.637 232.921 375.863C239.702 373.472 245.661 381.381 247.219 388.398C248.777 395.414 249.179 403.725 255.01 407.909C245.873 391.642 246.037 371.751 255.441 355.636C256.134 354.418 257.208 353.461 258.499 352.912C263.526 350.952 272.219 354.725 270.033 371.385C268.563 382.625 270.317 388.682 275.355 395.816C274.047 383.021 274.928 370.096 277.961 357.596C279.373 351.785 281.46 345.728 287.193 342.798C289.808 341.387 292.957 341.387 295.572 342.798C300.256 345.513 300.737 351.177 300.237 356.038C298.708 371.13 299.1 386.085 312.634 394.689C314.872 396.077 317.744 395.887 319.78 394.216C321.816 392.546 322.563 389.766 321.64 387.3C319.68 382.302 316.985 377.196 318.357 372.228C320.131 365.799 328.392 362.976 334.752 365.015C341.113 367.053 345.728 372.502 349.364 378.098C360.419 395.12 365.534 415.504 376.892 432.331C391.259 453.617 414.23 467.307 432.282 485.574C482.909 536.809 490.298 618.374 537.083 673.137" fill="white"/>
    <path d="M613.68 686.2C594.952 720.5 558.065 743.207 519.345 746.451C477.264 749.979 434.997 731.751 406.028 701.606C389.887 684.818 377.128 664.934 364.711 645.334C351.922 625.166 340.093 604.311 331.146 582.134C322.914 561.721 316.377 540.611 306.871 520.717C297.071 500.294 283.106 483.291 268.446 466.239C252.432 447.619 235.851 427.706 231.039 402.921C229.961 397.345 229.128 390.877 230.363 385.281C230.814 383.223 231.637 380.587 233.685 379.588C237.007 377.98 239.928 381.312 241.525 383.792C246.876 392.279 243.897 403.617 252.511 410.536C255.568 412.996 260.272 409.977 258.165 406.175C253.253 397.323 251.16 387.182 252.168 377.108C252.599 372.816 255.637 354.362 262.281 356.283C268.926 358.204 266.476 370.18 266.123 374.854C265.401 382.967 267.59 391.071 272.297 397.718C274.12 400.373 279.373 399.766 279.01 395.895C277.89 384.948 278.385 373.897 280.48 363.094C281.323 358.87 282.166 354.147 284.4 350.413C287.154 345.885 294.318 342.74 296.376 349.678C297.444 353.294 296.454 357.42 296.199 361.085C295.866 365.183 295.905 369.303 296.317 373.394C297.13 380.646 299.531 387.545 304.539 392.994C309.145 398.002 316.485 402.471 322.561 397.041C324.963 394.919 326.199 391.773 325.883 388.584C325.403 383.547 320.533 378.578 322.179 373.296C323.159 370.013 326.883 368.484 330.019 368.396C334.772 368.229 338.839 371.405 341.779 374.746C348.492 382.175 352.716 392.092 356.753 401.128C364.691 418.935 372.355 435.781 386.154 449.922C399.09 463.182 414.446 473.766 427.656 486.731C452.333 510.947 466.974 542.895 480.165 574.323C495.061 609.78 509.085 646.177 534.398 675.773C537.485 679.389 542.62 674.166 539.602 670.559C492.885 614.866 486.75 535.133 435.016 482.772C421.296 468.836 404.862 457.792 391.249 443.689C376.549 428.47 369.689 409.674 360.869 390.926C354.46 377.304 342.063 353.98 323.237 361.82C315.77 364.917 312.781 372.277 314.711 379.96C315.368 382.567 321.464 393.68 314.555 391.504C310.713 390.309 307.263 384.742 305.793 381.303C301.932 372.326 303.892 363.026 303.99 353.657C304.078 345.376 298.826 336.918 289.496 338.398C279.774 339.937 275.962 350.09 274.071 358.478C271.325 370.73 270.544 383.34 271.758 395.836L278.471 394.023C275.188 389.241 273.189 384.468 273.14 378.598C273.091 372.728 274.61 366.985 273.493 361.115C272.238 354.558 267.456 348.306 260.165 348.904C249.992 349.737 246.445 365.74 245.308 373.757C243.494 386.153 245.808 398.801 251.893 409.752L257.558 405.381C253.236 401.912 252.472 396.669 251.492 391.514C250.512 386.359 249.296 381.91 246.062 377.794C240.898 371.248 231.421 369.317 226.021 376.765C220.465 384.439 222.101 396.238 223.65 404.921C225.718 416.338 230.51 427.255 236.292 437.261C248.63 458.419 266.515 475.343 281.225 494.738C296.532 514.916 305.676 538.073 314.339 561.662C322.943 585.045 332.489 607.634 344.964 629.282C357.645 651.273 371.424 673.176 387.339 692.982C415.759 728.438 457.546 753.066 503.704 754.036C549.862 755.006 596.099 729.996 617.139 688.229C618.296 685.926 614.915 683.907 613.66 686.19L613.68 686.2Z" fill="black"/>
    <path d="M552.116 952.976C558.153 895.509 601.43 846.969 606.996 789.453C607.555 783.779 607.908 777.595 611.661 773.303C615.415 769.01 621.226 767.844 626.704 766.815L928.26 710.7C925.604 708.319 921.008 710.132 919.342 713.297C917.676 716.463 917.696 720.343 918.597 723.803C933.474 780.77 969.048 823.763 962.903 954.024" fill="white"/>
    <path d="M554.057 953.515C562.661 895.097 604.909 847.743 611.044 788.737C611.867 780.897 613.327 774.753 621.687 772.381C629.634 770.127 638.033 769.108 646.187 767.599L699.92 757.632L807.485 737.679C848.148 730.146 888.805 722.594 929.456 715.022C933.572 714.257 933.474 708.76 930.534 706.77C926.761 704.222 922.066 704.81 918.538 707.495C914.138 710.857 913.031 716.698 913.697 721.931C914.53 728.438 917.029 734.975 919.087 741.178C923.174 753.467 927.966 765.502 932.503 777.624C943.969 808.249 952.75 839.619 957.003 872.096C960.6 899.33 959.943 926.614 959.659 953.995C959.659 958.179 965.735 958.062 966.068 953.995C967.95 930.975 967.215 907.66 965.5 884.64C964.29 866.858 961.88 849.178 958.287 831.72C952.652 805.201 942.735 780.094 933.366 754.751C931.122 748.665 928.936 742.55 926.947 736.366C925.915 733.152 924.935 729.914 924.007 726.654C923.397 724.821 922.916 722.948 922.566 721.049C922.321 719.226 922.723 712.386 925.928 714.551L927.006 706.3C852.787 720.144 778.558 734.024 704.32 747.94L648.637 758.357C639.817 760.004 630.889 761.376 622.177 763.365C615.914 764.786 609.848 767.726 606.634 773.557C603.419 779.388 603.557 786.209 602.812 792.559C601.818 800.419 600.209 808.188 598 815.795C593.933 830.309 588.2 844.274 582.036 858.023C568.433 888.599 552.636 919.038 550.107 952.976C549.941 955.21 553.724 955.769 554.027 953.515H554.057Z" fill="black"/>
    <path d="M656.741 384.83C636.494 399.834 616.561 408.438 593.218 419.669C580.331 425.873 566.905 432.507 558.506 444.081C549.686 456.164 547.795 471.746 546.148 486.593C543.512 510.192 547.873 488.406 545.237 512.005C543.483 527.773 541.728 543.571 541.66 559.437C541.474 607.457 589.013 694.736 580.595 742.05C579.262 749.557 577.4 757.652 580.742 764.512C583.614 770.392 589.709 773.969 595.717 776.605C653.537 801.997 720.48 804.447 782.054 793.706C813.844 788.268 844.804 778.769 874.174 765.443C895.048 755.858 944.214 736.395 939.638 706.917C938.579 700.057 933.033 694.971 929.054 689.277C917.803 673.205 921.861 652.272 922.115 633.878C922.416 611.377 922.112 588.879 921.204 566.385C919.391 521.41 914.766 476.592 907.357 432.194C905.71 422.394 903.907 412.505 899.791 403.46C889.991 381.851 868.108 369.777 844.558 366.818C823.165 364.133 784.19 365.122 756.75 361.545C754.457 382.008 737.376 410.545 706.29 413.691C648.597 419.571 674.93 394.454 656.722 384.811" fill="#DC3545"/>
    <path d="M656.457 384.36C636.063 398.629 613.543 408.556 591.189 419.248C581.448 423.913 571.53 428.871 563.592 436.339C555.654 443.807 550.96 453.469 548.363 463.946C545.845 474.367 544.374 485.013 543.973 495.727C543.884 498.304 544.737 499.794 544.776 501.842C545.002 513.318 542.346 525.186 541.405 536.632C540.523 547.471 539.729 558.486 540.876 569.335C542.728 586.789 547.873 603.841 553.067 620.54C559.065 639.797 565.68 658.868 571.177 678.272C575.94 695.088 580.399 712.621 580.311 730.212C580.262 739.61 576.685 749.008 577.743 758.357C578.949 769.01 587.543 774.468 596.657 778.379C642.188 797.979 692.854 803.486 742.001 799.841C767.06 797.995 791.893 793.818 816.177 787.365C838.913 781.309 860.542 772.783 881.955 763.13C896.841 756.427 912.031 749.351 924.673 738.836C934.914 730.319 945.253 716.433 939.442 702.438C937.482 697.734 933.836 694.02 930.857 689.963C927.296 685.083 924.823 679.495 923.605 673.577C921.165 662.033 922.625 650.057 923.037 638.405C924.105 610.622 923.154 582.545 921.714 554.841C920.273 527.136 917.862 499.686 914.354 472.266C912.629 458.781 910.64 445.335 908.386 431.929C906.426 420.169 904.162 408.233 898.076 397.835C875.948 359.997 826.908 364.515 789.374 362.927C778.477 362.457 767.599 361.8 756.77 360.448C756.133 360.369 755.731 361.026 755.662 361.555C752.468 388.113 731.3 410.242 704.546 412.858C694.746 413.838 680.839 415.622 672.049 409.918C667.482 406.978 666.718 401.99 665.708 397.051C664.571 391.435 662.455 386.859 657.251 383.978C656.114 383.35 655.095 385.095 656.271 385.722C666.865 391.602 661.337 406.42 672.068 412.251C682.035 417.67 696.382 415.926 707.054 414.671C720.332 413.047 732.57 406.665 741.501 396.708C750.436 386.954 756.165 374.695 757.916 361.585L756.76 362.672C778.163 365.416 799.88 365.367 821.352 366.259C841.138 367.073 860.954 368.582 877.966 379.832C886.651 385.508 893.662 393.401 898.272 402.696C903.936 414.279 905.583 427.519 907.611 440.102C911.923 466.98 915.19 494.005 917.411 521.178C919.587 547.768 920.832 574.411 921.145 601.106C921.312 614.033 921.508 627.027 920.93 639.944C920.459 650.322 919.46 660.818 921.067 671.157C921.735 675.76 923.076 680.241 925.046 684.455C927.407 689.355 930.926 693.275 934.12 697.597C939.657 705.251 940.255 713.963 935.982 722.342C928.613 736.758 912.345 745.784 898.488 752.879C817.412 794.451 719.099 812.443 630.095 787.502C618.065 784.277 606.323 780.058 594.991 774.89C589.807 772.45 584.427 769.235 581.859 763.865C578.635 757.113 580.693 749.361 581.859 742.393C584.251 727.977 582.144 713.209 579.115 699.048C571.373 662.788 556.683 628.439 547.873 592.463C545.822 584.527 544.349 576.454 543.463 568.306C542.483 557.8 543.238 547.118 544.1 536.632C545.08 525.215 547.393 513.602 547.471 502.146C547.471 499.784 546.668 498.696 546.638 496.756C546.452 486.789 548.402 475.892 550.558 466.219C553.234 454.459 558.398 444.061 567.738 436.212C576.42 428.871 586.936 424.128 597.069 419.189C607.447 414.132 617.904 409.203 628.096 403.764C638.229 398.434 647.903 392.271 657.016 385.34C657.564 384.918 657.016 383.968 656.457 384.36Z" fill="#DC3545"/>
    <path d="M758.054 360.281C751.439 352.569 748.528 343.729 744.422 334.615C741.746 328.735 739.012 322.855 736.307 316.916C733.367 310.585 730.77 303.52 726.801 297.777C724.704 294.739 719.275 296.493 720.51 300.433C722.47 306.803 726.135 312.908 729.202 318.827C732.593 325.374 736.062 331.9 739.375 338.476C743.922 347.443 747.568 356.263 755.486 362.849C756.195 363.558 757.345 363.558 758.054 362.849C758.763 362.14 758.763 360.99 758.054 360.281Z" fill="black"/>
    <path d="M642.521 108.265C618.796 104.521 598.118 119.721 589.121 140.987C583.8 153.551 583.339 166.908 582.487 180.344C581.794 191.585 579.781 202.706 576.489 213.478C575.244 217.545 573.97 221.778 571.589 225.316C568.649 229.579 564.592 233.078 563.661 238.419C562.857 243.015 564.964 246.739 568.159 249.875C569.952 251.639 571.756 252.893 572.393 255.5C573.314 259.273 571.981 263.458 571.275 267.152C567.12 289.036 565.395 314.251 580.184 332.724C586.655 340.883 595.594 346.728 605.664 349.384C618.835 352.745 630.742 349.952 642.58 343.896C645.52 342.406 643.462 337.399 640.326 338.545C621.804 345.327 600.94 344.327 587.406 328.745C573 312.173 575.646 287.722 579.409 267.779C580.223 263.546 581.183 259.185 580.468 254.863C579.547 249.316 576.244 247.346 572.99 243.348C569.453 238.987 574.5 234.675 577.175 231.196C579.289 228.288 580.957 225.081 582.124 221.68C585.139 213.504 587.344 205.052 588.71 196.445C590.807 183.94 590.121 171.181 592.149 158.686C596.158 134.049 614.484 109.509 641.973 112.253C644.256 112.479 644.805 108.578 642.521 108.226V108.265Z" fill="black"/>
    <path d="M664.807 223.777C663.268 213.183 651.724 207.656 642.962 201.345C629.242 191.466 620.217 176.247 614.944 160.302C609.672 144.358 606.399 134.048 604.595 117.378C604.429 115.908 604.311 114.291 605.183 113.086C606.056 111.881 607.526 111.508 608.917 111.126C651.871 100.287 710.837 89.9188 739.257 131.353C761.307 136.253 775.253 155.853 783.494 175.306C794.274 200.884 791.824 229.206 783.494 254.99C777.262 274.237 769.843 293.72 753.448 306.822C742.119 315.868 720.5 315.583 708.544 307.969C691.992 297.424 685.426 276.227 678.399 259.273C687.954 255.931 693.619 245.896 695.245 236.027C696.225 230.353 696.039 224.326 693.57 219.132C691.1 213.938 685.955 209.724 680.144 209.449C674.332 209.175 668.384 213.624 668.031 219.367" fill="black"/>
    <path d="M665.365 223.64C663.719 214.095 655.389 208.803 647.931 203.775C637.955 197.245 629.658 188.455 623.715 178.119C617.424 167.143 613.67 154.736 610.289 142.604C608.738 137.095 607.498 131.503 606.575 125.855C606.134 123.111 604.615 118.662 605.34 115.899C606.32 111.743 611.74 111.361 615.052 110.577C650.773 102.12 698.097 93.2998 728.34 120.367C730.064 121.907 731.7 123.543 733.24 125.267C734.945 127.169 736.396 130.373 738.385 131.824C739.441 132.4 740.588 132.791 741.776 132.98C745.335 134.01 748.759 135.457 751.978 137.292C761.66 142.78 769.216 151.365 774.988 160.753C789.071 183.666 792.412 210.106 787.316 236.282C784.854 248.392 781.238 260.239 776.517 271.66C771.813 283.243 765.58 294.415 756.348 303.02C747.891 310.86 737.033 313.574 725.645 312.438C713.415 311.222 703.683 304.931 696.519 295.072C689.356 285.213 685.269 273.816 680.781 262.732C679.458 259.449 679.801 259.998 682.505 258.4C684.886 256.963 687.001 255.127 688.758 252.971C691.769 249.257 693.963 244.949 695.196 240.329C698.038 230.176 697.254 216.927 687.356 210.851C679.438 206 668.344 209.616 667.061 219.396C666.904 220.592 668.795 220.582 668.942 219.396C670.04 210.968 679.889 208.469 686.416 212.468C692.697 216.319 695.01 223.865 694.804 230.882C694.471 242.044 689.062 254.147 678.144 258.322C677.631 258.47 677.33 259.001 677.468 259.518C684.377 276.413 690.375 295.934 705.761 307.224C718.922 316.897 740.894 317.71 754.036 307.557C770.882 294.562 778.79 273.179 784.915 253.579C791.971 231.039 794.519 206.206 787.414 183.303C781.917 165.604 771.293 147.347 755.408 137.135C751.565 134.679 747.403 132.76 743.04 131.432C738.297 129.971 735.876 125.101 732.456 121.632C726.607 115.757 719.692 111.051 712.082 107.765C696.225 100.905 678.478 99.7384 661.426 100.905C643.567 102.073 625.894 105.222 608.731 110.293C603.831 111.783 603.439 114.38 603.978 119.182C604.661 125.212 605.715 131.195 607.134 137.096C609.976 148.925 613.602 161.077 618.756 172.121C623.745 182.774 630.722 192.701 639.964 200.071C648.578 206.98 661.818 211.88 664.248 223.934C664.395 224.669 665.493 224.355 665.365 223.62V223.64Z" fill="black"/>
    <path d="M599.362 210.342C599.597 211.051 599.892 211.74 600.244 212.4C600.313 212.507 600.499 212.752 600.421 212.909C600.352 212.753 600.352 212.575 600.421 212.419L600.342 212.703C600.176 213.252 600.342 213.095 600.695 212.243L600.969 212.017C601.72 211.605 602.656 211.768 603.223 212.409C603.165 212.351 604.203 213.742 603.753 214.026C603.852 213.763 603.937 213.495 604.007 213.223C604.801 210.4 601.812 207.617 599.107 209.215C597.361 210.496 596.582 212.719 597.147 214.81C597.662 216.701 599.253 218.103 601.193 218.376C603.133 218.649 605.049 217.74 606.065 216.065C607.035 214.41 607.035 212.359 606.065 210.704C605.224 209.192 603.812 208.081 602.145 207.617C601.379 207.418 600.564 207.64 600.004 208.2C599.443 208.76 599.222 209.575 599.421 210.342H599.362Z" fill="black"/>
    <path d="M617.943 189.418C614.17 182.372 603.713 181.696 596.755 182.382C595.627 182.447 594.636 183.152 594.205 184.197C593.775 185.242 593.981 186.441 594.737 187.282L595.246 187.85C595.869 188.456 596.763 188.691 597.604 188.47C598.444 188.25 599.107 187.606 599.352 186.772L599.499 186.018L596.755 188.115C603.713 187.988 609.887 187.135 615.885 191.486C617.179 192.466 618.6 190.653 617.943 189.438V189.418Z" fill="black"/>
    <path d="M668.129 225.482C672.627 222.64 672.813 216.133 679.281 216.055C685.161 215.976 689.855 221.396 691.521 226.56C693.08 231.874 692.235 237.603 689.209 242.24C687.506 245.065 685.129 247.422 682.29 249.1C679.467 250.688 676.537 250.306 673.607 251.286C672.486 251.635 671.671 252.605 671.519 253.77C671.367 254.934 671.907 256.08 672.901 256.705C679.977 261.84 690.247 253.393 694.305 247.885C699.499 240.839 701.331 231.49 698.274 223.179C695.628 215.967 689.326 209.685 681.408 208.92C672.264 208.029 666.894 214.947 665.228 223.209C664.905 224.796 666.58 226.413 668.168 225.433L668.129 225.482Z" fill="black"/>
    <path d="M681.143 229.314C680.614 226.747 677.449 227.776 675.969 228.746C673.726 230.386 672.312 232.924 672.098 235.694C671.872 237.997 673.548 241.672 676.4 239.859C678.801 238.34 678.36 234.665 676.684 232.813C675.008 230.961 672.137 233.352 673.421 235.341C673.612 235.666 673.767 236.011 673.881 236.37L673.823 236.713C675.342 237.448 676.126 237.399 676.155 236.547C676.429 235.812 676.263 234.871 676.557 234.067C676.782 233.469 678.821 229.971 679.634 230.471C679.995 230.669 680.439 230.635 680.766 230.384C681.093 230.134 681.241 229.714 681.143 229.314Z" fill="black"/>
    <path d="M667.756 223.503C667.156 222.92 666.407 222.513 665.591 222.327C665.376 222.259 665.156 222.207 664.934 222.17C664.286 222.049 663.622 222.049 662.974 222.17C661.743 222.545 660.89 223.666 660.857 224.953C660.874 226.245 661.733 227.375 662.974 227.736C663.525 227.862 664.086 227.944 664.65 227.981L663.866 227.883C664.2 227.921 664.529 227.996 664.846 228.109L664.16 227.815L664.258 227.874L663.68 227.423L663.758 227.501C664.891 228.571 666.662 228.571 667.796 227.501C668.322 226.96 668.62 226.237 668.629 225.482C668.589 224.734 668.295 224.022 667.796 223.464L667.756 223.503Z" fill="black"/>
    <path d="M670.608 398.589C666.688 389.24 662.357 380.058 657.819 371.022C652.919 361.32 649.332 350.795 642.139 342.475C639.297 339.182 634.603 343.954 637.376 347.228C644.119 355.195 647.911 365.603 652.89 374.668C657.535 383.184 662.847 391.328 667.394 399.883C668.295 401.578 671.314 400.383 670.569 398.55L670.608 398.589Z" fill="black"/>
    <path d="M614.709 194.906C603.272 188.203 587.269 190.006 582.545 203.795C578.439 215.761 580.007 232.862 593.178 238.399C605.262 243.485 617.874 235.88 622.863 224.679C627.616 213.899 627.508 197.523 613.778 193.887C612.752 193.729 611.77 194.363 611.492 195.364C611.214 196.364 611.729 197.414 612.69 197.807C623.686 200.953 621.932 216.212 617.257 223.954C612.798 231.323 603.165 236.439 594.786 232.156C585.917 227.629 585.76 215.29 588.171 206.98C591.787 194.524 603.4 195.602 613.729 197.249C615.081 197.464 616.042 195.7 614.709 194.926V194.906Z" fill="#DC3545"/>
    <path d="M576.528 213.673C576.999 211.713 577.459 209.753 577.91 207.793C578.032 206.724 578.286 205.674 578.665 204.667C579.321 203.638 580.752 203.285 581.33 204.324C581.908 205.363 581.458 208.587 581.389 209.92C581.291 212.017 580.958 214.124 580.958 216.221C580.958 219.739 585.485 219.867 586.671 216.995C588.2 213.262 587.955 208.656 587.553 204.706C587.24 201.57 586.113 198.532 582.604 197.993C579.538 197.625 576.542 199.09 574.95 201.737C573.294 204.892 574.059 209.822 573.97 213.291C574.004 213.921 574.481 214.438 575.107 214.522C575.733 214.606 576.329 214.233 576.528 213.634V213.673Z" fill="#DC3545"/>
    <path d="M624.46 216.525C626.42 212.135 631.016 213.81 634.691 214.496C638.16 215.15 641.623 215.842 645.079 216.574C651.518 217.936 658.123 220.494 664.679 220.994C667.619 221.19 668.981 216.535 666.218 215.29C661.622 213.203 656.418 212.634 651.439 211.605C645.765 210.439 640.091 209.332 634.378 208.381C631.153 207.852 627.243 206.882 624.352 208.969C622.023 210.562 621.012 213.492 621.863 216.182C622.186 217.25 623.931 217.701 624.46 216.525Z" fill="#DC3545"/>
    <path d="M598.304 283.832C602.224 284.028 607.045 281.558 609.75 278.834C611.71 276.874 609.192 273.532 606.81 274.992C605.262 275.972 603.762 276.952 602.175 277.834C600.587 278.716 598.853 279.186 597.275 280.078C596.516 280.546 596.152 281.455 596.377 282.317C596.602 283.18 597.364 283.794 598.255 283.832H598.304Z" fill="black"/>
    <path d="M622.99 109.5C602.106 113.207 582.747 122.899 567.267 137.4C564.367 139.961 561.858 142.932 559.819 146.22C554.86 154.825 555.762 166.046 560.652 174.689C565.542 183.333 573.931 189.595 583.045 193.544C581.869 179.04 585.005 164.576 588.151 150.356C589.435 144.554 590.728 138.694 593.227 133.294C596.814 125.599 602.677 119.192 610.025 114.939" fill="black"/>
    <path d="M622.99 107.765C610.652 108.225 598.637 112.665 587.71 118.221C577.008 123.68 565.513 131.794 558.31 141.565C551.107 151.335 551.195 164.565 556.595 175.247C561.799 185.557 571.648 192.662 582.075 197.052C584.153 197.925 586.838 195.72 586.642 193.573C585.289 178.687 588.602 164.017 591.904 149.581C594.844 136.528 599.793 125.081 611.857 118.113C615.924 115.771 612.161 109.293 608.182 111.822C596.099 119.378 589.258 130.54 585.956 144.26C582.036 160.381 578.684 176.943 579.439 193.603L584.868 190.496C576.048 186.282 567.64 180.49 563.19 171.445C557.908 160.665 560.466 149.522 568.757 141.281C584.162 125.963 603.263 118.025 623.451 111.204C625.224 110.607 625.038 107.725 622.99 107.794V107.765Z" fill="black"/>
    <path d="M748.577 277.648C748.822 260.361 751.595 242.593 760.572 227.815C773.312 206.863 801.35 193.946 823.919 207.892C858.014 228.962 843.637 288.908 825.38 315.986C818.098 326.766 808.72 336.517 796.96 342.132C785.2 347.747 770.852 348.767 759.259 342.818C748.342 337.222 740.933 325.942 738.454 313.928C735.974 301.913 738.022 289.261 742.57 277.854C745.627 270.171 749.802 262.919 752.37 255.049" fill="black"/>
    <path d="M751.194 277.648C752.174 250.208 761.131 218.182 790.394 208.832C801.997 205.128 814.707 206.637 824.272 214.536C831.563 220.553 835.532 229.158 837.296 238.291C841.109 258.038 835.601 280.323 827.359 298.287C817.52 319.68 797.146 344.18 770.813 340.172C754.731 337.722 744.167 323.453 742.619 307.832C741.895 298.913 743.139 289.943 746.264 281.558C749.312 272.905 753.908 264.996 756.329 256.078C757.76 250.816 750.331 249.11 748.381 253.883C744.794 262.654 739.924 270.857 736.719 279.804C733.521 288.475 732.089 297.698 732.505 306.93C733.426 322.561 740.933 338.202 754.359 346.787C768.961 356.126 788.336 354.245 803.124 346.415C816.667 339.231 827.379 326.815 834.837 313.594C846.783 292.387 853.388 265.947 849.968 241.672C848.331 230.04 843.862 218.564 835.415 210.165C825.648 200.501 811.964 195.893 798.341 197.68C782.603 199.787 768.52 209.44 759.622 222.445C748.685 238.389 746 258.705 745.97 277.579C745.97 280.951 751.066 280.931 751.194 277.579V277.648Z" fill="black"/>
    <path d="M761.503 218.152C750.811 228.187 743.393 240.692 738.493 254.412C735.777 262.289 733.68 270.366 732.221 278.569C730.8 286.095 728.457 295.229 729.379 302.873C729.78 306.215 734.132 307.048 735.337 303.676C737.875 296.522 737.728 287.918 738.953 280.421C740.094 272.986 741.731 265.636 743.853 258.42C748.008 244.641 754.241 231.294 763.649 220.288C764.233 219.685 764.225 218.725 763.631 218.131C763.037 217.537 762.077 217.529 761.474 218.113L761.503 218.152Z" fill="#DC3545"/>
    <path d="M547.706 462.995C545.05 475.274 543.58 487.544 542.081 500.039C540.268 515.229 538.259 530.37 537.073 545.638C535.985 558 536.585 570.453 538.857 582.653C542.11 599.646 547.412 616.208 552.694 632.633C558.359 650.273 564.298 667.844 569.08 685.749C573.147 701.008 576.832 716.874 576.273 732.789C575.96 741.825 572.657 750.703 573.98 759.759C575.548 770.47 583.78 776.909 593.1 781.093C614.576 790.509 637.195 797.065 660.377 800.595C706.496 807.906 753.908 805.152 799.409 795.127C822.972 789.963 845.993 782.583 868.166 773.087C882.553 766.903 897.145 760.523 910.659 752.585C922.968 745.362 936.355 735.925 942.019 722.293C944.773 715.59 945.38 707.799 942.46 701.047C940.637 696.833 937.687 693.413 934.914 689.816C931.225 685.231 928.57 679.902 927.133 674.195C924.663 664.032 925.575 653.35 926.074 643.011C926.662 630.987 926.545 618.923 926.427 606.888C926.163 580.536 925.143 554.184 923.154 527.9C921.194 502.211 918.349 476.614 914.618 451.108C911.384 429.175 909.444 404.979 894.509 387.408C868.333 356.577 823.302 361.349 787.032 359.615C776.938 359.135 766.844 358.478 756.819 357.184C754.261 356.851 752.683 359.487 752.418 361.585C749.322 386.31 729.575 407.39 704.594 409.84C695.637 410.712 681.711 412.78 673.626 407.292C669.902 404.744 669.579 400.657 668.726 396.237C667.443 389.887 664.728 384.605 658.868 381.361C654.311 378.842 650.234 385.82 654.791 388.339C659.789 391.102 660.298 395.404 661.357 400.677C662.552 406.635 665.032 411.839 670.579 414.877C681.074 420.62 695.804 419.032 707.103 417.719C721.19 416.07 734.213 409.409 743.794 398.952C753.4 388.642 759.514 375.567 761.268 361.585L756.858 365.995C776.791 368.464 796.94 368.592 816.991 369.287C834.954 369.915 853.466 370.336 869.822 378.705C877.95 382.735 885.039 388.583 890.54 395.796C897.017 404.558 899.997 415.004 902.045 425.569C906.729 449.843 909.797 474.569 912.325 499.069C917.323 547.667 920.096 597.265 917.47 646.069C916.951 655.702 916.549 665.453 918.528 674.969C919.426 679.314 920.924 683.512 922.978 687.444C925.486 692.188 929.21 696.019 932.199 700.439C941.186 713.728 930.406 727.262 919.969 735.611C908.336 744.912 894.489 751.35 880.975 757.426C862.404 765.776 843.784 773.42 824.301 779.084C780.504 791.966 734.762 796.944 689.218 793.784C666.689 792.196 644.421 787.993 622.862 781.26C612.788 778.075 602.028 774.704 592.865 769.353C588.288 766.668 584.829 763.12 584.211 757.593C583.613 752.34 585.083 747.126 585.887 741.972C588.112 727.722 586.112 713.15 583.212 699.136C579.684 682.094 574.441 665.434 569.139 648.872C563.778 632.163 558.143 615.552 553.576 598.568C550.039 585.407 546.775 571.785 547.03 558.065C547.53 531.095 550.568 504.165 551.93 477.254C552.175 472.707 551.979 468.081 552.008 463.534C552.008 461.084 548.206 460.457 547.667 462.946L547.706 462.995Z" fill="black"/>
    <path d="M657.329 382.694C653.301 381.048 648.147 384.448 644.873 386.614C640.493 389.505 635.995 392.249 631.447 394.885C622.363 400.148 613.053 405.048 603.674 409.772C594.678 414.299 585.427 418.484 576.665 423.443C567.904 428.401 560.985 434.056 555.017 442.063C551.891 446.247 558.937 450.216 561.995 446.139C573.755 430.655 595.001 423.443 612.063 415.759C621.138 411.663 630.164 407.576 638.876 402.755C644.658 399.56 659.691 393.063 658.956 384.88C658.911 383.898 658.263 383.048 657.329 382.743V382.694Z" fill="black"/>
    <path d="M562.132 922.017C565.858 921.768 569.597 921.768 573.324 922.017C577.655 922.341 585.084 922.174 586.064 927.339C586.71 930.857 586.064 935.345 586.064 938.932V951.506C586.064 951.939 586.415 952.29 586.848 952.29C587.281 952.29 587.632 951.939 587.632 951.506V935.071C587.632 932.268 588.974 925.869 586.838 923.458C584.878 921.253 579.978 921.38 577.302 921.047C572.292 920.432 567.228 920.399 562.21 920.949C561.524 921.028 561.495 922.076 562.21 922.037L562.132 922.017Z" fill="black"/>
    <path d="M621.755 871.596C618.736 878.706 616.361 886.072 614.66 893.607C613.915 896.733 610.652 904.857 613.151 907.876C614.64 909.689 618.364 909.503 620.403 909.836L631.957 911.717C636.975 912.531 642.796 913.736 647.421 910.943C652.321 908.003 653.164 901.143 654.595 896.194L657.78 885.042C658.76 881.671 660.945 877.202 661.004 873.674C661.073 869.695 654.909 870.352 651.969 870.146C647.876 869.863 643.765 869.998 639.699 870.548C637.915 870.783 628.449 873.723 627.723 871.606C627.591 871.281 627.236 871.105 626.897 871.198C626.557 871.29 626.34 871.621 626.391 871.969C626.802 873.929 628.409 874.223 630.311 874.085C632.937 873.889 635.593 872.762 638.209 872.321C641.61 871.758 645.053 871.493 648.499 871.528C650.557 871.528 657.476 871.028 658.77 872.508C660.416 874.468 657.525 880.622 656.908 882.768C655.075 889.197 653.341 895.665 651.41 902.064C650.293 905.769 648.842 909.071 644.942 910.463C641.884 911.551 638.621 911.257 635.465 910.826C632.31 910.394 629.233 909.846 626.126 909.356C623.343 908.905 619.854 908.924 617.228 907.944C614.386 906.886 613.641 905.632 614.121 902.603C614.356 901.143 614.64 899.663 614.934 898.252C615.503 895.312 616.169 892.48 616.894 889.618C618.462 883.601 620.56 877.809 622.598 871.978C622.765 871.488 621.961 871.145 621.745 871.626L621.755 871.596Z" fill="black"/>
    <path d="M590.581 847.577C595.726 847.881 600.881 848.008 606.036 848.184C610.034 848.322 615.17 849.37 619.08 848.527C620.427 848.402 621.621 847.606 622.255 846.411C624.529 842.794 625.303 836.934 626.44 832.828C627.42 829.172 629.556 824.331 629.429 820.529C629.562 819.236 628.941 817.982 627.831 817.305C625.499 815.639 620.697 815.443 617.923 815.119C613.314 814.595 608.659 814.624 604.056 815.207L604.586 816.491C605.134 815.942 605.673 815.374 606.203 814.806C606.732 814.237 605.84 813.1 605.223 813.767C604.605 814.433 604.115 814.864 603.566 815.433C603.165 815.854 603.419 816.795 604.105 816.707C610.373 815.885 616.734 816.127 622.921 817.422C625.381 817.961 627.547 817.961 627.821 821.342C627.919 822.391 627.204 824.018 626.949 825.047C626.139 828.437 625.26 831.809 624.313 835.16C623.539 837.914 623.078 841.834 621.589 844.264C619.295 848.018 614.729 847.204 610.809 847.077C604.056 846.91 597.294 846.675 590.532 846.685C590.322 846.717 590.166 846.898 590.166 847.111C590.166 847.324 590.322 847.506 590.532 847.538L590.581 847.577Z" fill="black"/>
    <path d="M668.05 800.047C667.102 804.577 666.411 809.158 665.983 813.767C665.689 817.118 664.297 823.567 665.63 826.762C666.61 829.221 670.187 828.898 672.49 829.251C677.537 830.025 682.613 830.682 687.699 831.211C693.025 831.887 698.384 832.269 703.752 832.357C706.035 832.357 707.672 832.152 708.907 830.045C711.004 826.536 711.641 821.568 712.493 817.608C713.507 812.774 714.217 807.881 714.62 802.957C714.708 802.026 713.258 802.036 713.179 802.957C712.533 810.337 711.778 819.108 708.838 826.017C707.789 828.516 706.604 830.348 703.732 830.917C702.311 831.201 700.439 830.76 699.009 830.672C695.226 830.456 691.449 830.162 687.68 829.79C684.22 829.457 680.771 829.074 677.331 828.624C674.867 828.427 672.419 828.074 670.001 827.565C667.266 826.801 667.061 826.644 666.757 823.812C665.885 816.305 667.619 807.622 668.972 800.292C669.079 799.714 668.207 799.459 668.08 800.047H668.05Z" fill="black"/>
    <path d="M700.381 901.378C701.733 895.603 703.164 889.854 704.673 884.13C705.653 880.397 706.231 876.8 708.76 873.831C711.043 871.165 711.758 871.498 715.041 871.322L718.893 871.175C725.302 870.9 731.711 870.567 738.12 870.283C741.354 870.136 744.745 869.715 746.94 872.38C749.341 875.261 747.783 880.161 747.146 883.562C746.088 889.187 744.755 894.74 743.148 900.222C742.432 902.692 741.942 905.739 740.678 907.974C737.826 913.04 734.093 910.443 730.192 909.767C725.42 908.934 720.618 909.816 715.816 909.669C709.279 909.454 698.244 904.838 703.223 896.312C703.378 895.968 703.248 895.563 702.922 895.374C702.596 895.184 702.18 895.272 701.958 895.577C699.273 900.006 701.047 905.377 705.153 908.317C710.602 912.237 717.795 911.012 724.038 910.914C726.808 910.827 729.578 911.118 732.27 911.776C733.639 912.283 735.053 912.657 736.494 912.893C738.43 913.199 740.351 912.264 741.305 910.551C743.344 907.425 744.089 902.437 745.088 898.87C746.317 894.518 747.365 890.121 748.234 885.679C749.145 881.073 751.84 872.88 746.676 869.705C744.187 868.176 740.796 868.656 738.091 868.774C733.279 868.989 728.477 869.225 723.665 869.45C718.138 869.715 708.877 867.98 706.143 874.134C704.477 877.898 703.86 882.513 702.87 886.502C701.674 891.353 700.567 896.214 699.508 901.094C699.401 901.643 700.224 901.868 700.351 901.329L700.381 901.378Z" fill="black"/>
    <path d="M651.263 952.397C642.874 940.853 671.618 939.873 677.341 939.393C681.829 939.011 686.337 938.766 690.845 938.785C692.129 938.785 693.413 938.785 694.697 938.864C696.588 939.765 697.294 941.137 696.843 942.98C697.264 945.302 696.784 948.154 696.843 950.535C696.883 950.854 697.154 951.093 697.475 951.093C697.796 951.093 698.067 950.854 698.107 950.535C698.215 946.939 700.185 939.491 696 937.668C692.854 936.296 686.592 937.482 683.152 937.668C678.654 937.923 674.156 938.374 669.677 938.883C664.219 939.501 656.241 939.207 651.841 943.117C648.901 945.724 648.137 949.81 650.606 952.917C650.91 953.299 651.586 952.789 651.292 952.397H651.263Z" fill="black"/>
    <path d="M763.992 950.8C763.336 948.242 762.62 945.616 762.924 942.96C763.512 937.747 768.138 936.757 772.567 936.218C778.447 935.493 784.386 934.875 790.295 934.258L807.093 932.298C811.101 931.847 811.209 932.945 811.738 936.806C812.081 939.413 812.512 942 812.992 944.577C813.159 945.449 814.462 945.077 814.315 944.215C813.541 939.854 812.904 935.493 812.443 931.083C812.443 930.749 812.149 930.348 811.757 930.397C798.037 931.955 784.317 933.268 770.705 935.081C767.099 935.561 763.737 936.365 762.277 940.069C760.915 943.519 761.993 947.713 763.1 951.045C763.144 951.205 763.27 951.328 763.429 951.37C763.589 951.412 763.759 951.365 763.875 951.248C763.991 951.13 764.036 950.96 763.992 950.8Z" fill="black"/>
    <path d="M820.46 854.986C814.012 855.77 807.553 856.661 801.085 857.289C800.801 857.289 800.439 857.485 800.39 857.808C799.214 865.382 798.781 873.052 799.096 880.711C799.243 884.376 798.508 890.991 802.389 893.157C804.79 894.489 808.759 894.333 811.336 894.48C815.1 894.684 818.873 894.608 822.626 894.254C829.647 893.678 836.544 892.06 843.088 889.452C847.851 887.492 849.311 884.944 849.252 879.848C849.184 873.057 849.507 865.55 848.272 858.866C847.645 855.544 845.979 852.153 842.285 851.634C837.022 850.899 832.788 856.72 827.536 854.721C826.663 854.388 826.301 855.77 827.153 856.113C829.799 857.181 831.975 856.465 834.533 855.427C837.414 854.241 839.805 852.487 842.951 853.741C846.097 854.995 846.802 858.22 847.067 861.503C847.537 867.383 848.204 873.978 847.753 879.848C847.586 881.955 846.714 885.317 845.127 886.816C844.147 887.747 841.657 888.364 840.227 888.845C831.769 891.769 822.86 893.17 813.914 892.98C811.101 893.055 808.289 892.828 805.525 892.304C800.36 891.03 800.87 885.944 800.625 881.642C800.321 876.056 799.645 869.107 801.046 863.629C802.448 858.151 806.034 857.984 810.729 857.357L820.411 856.054C821.097 855.966 821.117 854.888 820.411 854.966L820.46 854.986Z" fill="black"/>
    <path d="M762.248 810.503C762.119 814.639 762.319 818.777 762.846 822.881C763.189 825.546 763.159 830.123 764.972 832.328C766.07 833.641 767.06 833.592 768.657 833.651C772.969 833.808 777.673 832.867 781.956 832.406C790.237 831.524 798.528 830.535 806.74 829.192C814.325 827.947 812.62 824.351 811.64 817.432L809.749 803.242C809.425 800.831 809.464 797.685 808.239 795.519C805.505 790.678 797.989 793.716 793.853 794.431C785.268 795.921 776.625 797.205 768.079 798.9C764.296 799.655 759.974 801.683 762.091 806.201C762.503 807.083 763.796 806.319 763.395 805.447C762.797 804.153 766.178 801.086 767.226 800.596C768.275 800.106 770 800.096 771.244 799.87L778.604 798.587L794.284 795.843L798.9 794.98C801.575 794.51 801.595 794.471 804.535 795.833C808.259 797.548 807.769 798.694 808.279 802.438L810.552 819.48C810.928 821.258 810.812 823.104 810.219 824.821C809.366 827.761 809.7 827.31 807.279 827.761C804.466 828.241 801.624 828.633 798.792 829.035C792.893 829.852 786.964 830.587 781.005 831.24C778.477 831.515 775.948 831.76 773.41 831.995C772.215 832.112 769.814 832.847 768.657 832.416C766.755 831.582 765.347 829.914 764.845 827.898C763.052 822.597 763.228 816.138 763.14 810.533C763.107 810.312 762.917 810.148 762.694 810.148C762.471 810.148 762.281 810.312 762.248 810.533V810.503Z" fill="black"/>
    <path d="M883.886 790.08C878.572 790.154 873.285 790.858 868.137 792.177C865.011 793.001 861.414 793.824 859.621 796.793C857.827 799.763 858.317 804.055 858.376 807.338C858.504 813.532 858.915 819.715 859.533 825.88C859.543 826.277 859.86 826.599 860.258 826.615C869.828 826.584 879.39 826.047 888.903 825.007C894.097 824.429 899.517 824.302 900.585 818.147C901.261 814.325 900.83 810.102 900.869 806.231C900.918 802.605 901.349 798.773 900.781 795.176C900.163 791.256 896.626 787.336 892.588 789.933C892.302 790.144 892.221 790.536 892.4 790.843C892.578 791.15 892.959 791.273 893.284 791.129C900.928 787.209 899.419 802.683 899.379 806.231C899.379 810.151 900.281 815.511 898.88 819.167C896.92 824.321 887.678 823.665 883.2 824.067C878.437 824.498 873.664 824.795 868.882 824.958C867.402 824.958 863.423 825.821 862.179 825.105C859.954 823.812 860.513 820.735 860.346 818.441C860.039 814.11 859.859 809.775 859.807 805.437C859.807 802.957 859.435 799.645 860.787 797.43C862.139 795.215 865.197 794.275 867.578 793.51C872.886 791.952 878.367 791.06 883.895 790.854C884.434 790.854 884.444 789.992 883.895 790.002L883.886 790.08Z" fill="black"/>
    <path d="M904.515 755.604C903.731 759.475 903.143 764.914 907.278 767.138C910.218 768.716 914.56 767.717 917.705 767.589C922.527 767.383 927.349 767.207 932.17 766.903C933.033 766.844 933.052 765.512 932.17 765.541C927.045 765.698 921.919 766.011 916.804 766.286C913.109 766.472 911.228 766.982 908.052 764.747C905.416 762.895 905.22 762.905 905.112 760.082C905.111 758.672 905.239 757.265 905.495 755.878C905.593 755.241 904.632 754.898 904.515 755.604Z" fill="black"/>
    <path d="M896.567 889.128C897.88 885.894 897.723 882.66 897.674 879.23C897.596 872.713 900.154 868.852 906.72 867.774C912.509 866.93 918.344 866.432 924.193 866.285C927.072 866.012 929.968 865.95 932.856 866.098C936.688 866.53 936.1 868.382 936.169 871.978C936.267 877.329 936.227 882.68 936.022 888.031C935.933 890.344 936.394 894.028 935.483 896.155C933.523 900.722 929.279 900.526 925.134 900.869C919.705 901.32 914.246 901.565 908.787 901.574C907.151 901.574 902.417 902.349 901.085 901.457C899.223 900.212 900.575 895.724 900.781 893.744C900.879 892.764 899.389 892.764 899.291 893.744L898.419 902.123C898.424 902.532 898.755 902.863 899.164 902.868C906.542 903.17 913.931 903.095 921.302 902.643C925.016 902.398 931.798 903.005 934.944 900.261C938.089 897.517 937.374 891.588 937.511 888.031C937.786 880.475 937.746 872.919 937.443 865.373C937.437 864.968 937.113 864.639 936.708 864.628C929.965 864.502 923.221 864.715 916.5 865.265C911.982 865.648 906.475 865.648 902.212 867.451C893.254 871.243 898.39 881.778 895.714 888.864C895.508 889.403 896.361 889.618 896.567 889.099V889.128Z" fill="black"/>
    <path d="M946.243 810.248C943.578 811.758 939.266 811.905 937.306 814.531C934.924 817.745 936.796 823.87 937.1 827.438C937.384 830.681 936.59 836.013 940.138 837.571C941.676 838.237 943.95 837.757 945.596 837.757H956.739C957.13 837.713 957.426 837.382 957.426 836.988C957.426 836.594 957.13 836.263 956.739 836.218H945.596H941.882L938.942 831.926C938.266 830.191 938.531 827.428 938.364 825.556C938.001 821.636 936.345 816.021 940.598 813.678C942.617 812.571 944.812 812.385 946.714 811.003C946.859 810.917 946.947 810.76 946.946 810.592C946.944 810.423 946.853 810.268 946.706 810.185C946.559 810.102 946.379 810.104 946.233 810.19L946.243 810.248Z" fill="black"/>
    <path d="M862.345 952.456C863.796 948.997 863.668 945.341 864.717 941.804C866.677 935.345 875.673 934.375 881.426 933.572C884.001 933.204 886.596 932.988 889.197 932.925C892.735 932.846 894.783 932.445 897.233 935.228C899.683 938.011 899.193 939.942 899.34 943.391L899.585 951.114C899.587 951.367 899.723 951.601 899.943 951.728C900.162 951.855 900.433 951.856 900.653 951.731L903.123 950.134C903.381 949.944 903.455 949.59 903.293 949.313C903.132 949.036 902.788 948.925 902.496 949.056L899.928 950.506L901.006 951.114C900.869 947.115 900.771 943.107 900.604 939.099C900.526 937.139 900.771 934.434 899.134 932.905C898.066 931.925 896.684 931.837 895.332 931.67C891.248 931.293 887.134 931.392 883.072 931.964C877.947 932.552 870.264 933.199 866.226 936.806C862.041 940.549 863.217 947.409 861.512 952.221C861.316 952.76 862.13 952.956 862.345 952.456Z" fill="black"/>
    <path d="M946.606 955.386C949.33 951.8 945.714 947.007 950.526 944.479C954.808 942.235 961.09 941.304 965.108 944.283C965.755 944.773 966.617 943.675 965.98 943.146C961.639 939.569 955.769 941.01 950.967 942.862C949.33 943.499 947.693 944.224 946.939 945.92C945.645 948.86 947.733 952.162 945.792 954.936C945.449 955.416 946.233 955.847 946.576 955.386H946.606Z" fill="black"/>
    <path d="M827.369 405.92C787.258 423.001 762.503 462.681 738.248 498.912C712.229 537.759 692.315 561.005 662.004 596.608C656.29 603.321 650.567 604.811 643.227 599.264C571.589 545.188 490.739 498.148 429.518 431.684C422.383 424.017 415.76 415.888 409.693 407.351C402.774 397.551 395.973 386.957 385.536 380.94C375.099 374.922 359.782 375.412 353 385.34C332.665 376.363 307.538 379.332 289.868 392.827C287.644 394.522 285.468 396.453 284.361 399.021C281.323 406.077 288.281 414.162 295.915 415.259C303.549 416.357 310.958 412.78 317.818 409.35C311.448 413.995 304.608 419.385 303.118 427.117C301.628 434.849 309.753 444.042 316.74 440.318C306.822 438.848 297.062 447.295 295.572 457.213C294.082 467.131 299.835 477.264 308.312 482.624C313.535 485.937 320.768 487.524 325.697 483.771C330.627 480.018 329.147 470.051 322.953 469.865C329.102 482.453 338.651 493.068 350.521 500.509C355.264 503.449 360.321 505.909 364.829 509.261C372.335 514.857 377.765 522.716 383.115 530.39C415.651 577.106 449.04 638.435 491.18 676.762C533.32 715.09 565.719 739.61 621.01 753.281C640.483 758.093 661.19 760.67 680.428 754.859C705.192 747.342 742.658 717.893 759.808 698.558C808.7 643.629 858.357 587.22 886.551 519.365C896.567 495.247 903.74 468.13 895.91 443.219C888.08 418.307 855.466 395.953 830.995 405.097" fill="white"/>
    <path d="M826.634 403.294C788.796 418.778 764.002 452.5 741.864 485.32C717.697 521.158 691.355 554.9 663.748 588.22C660.896 591.66 657.437 597.726 652.684 598.627C647.627 599.607 642.227 593.678 638.513 590.934C629.497 584.261 620.393 577.724 611.24 571.246C592.796 558.193 574.206 545.345 555.772 532.281C518.532 505.919 481.85 478.568 449.207 446.629C439.996 437.756 431.25 428.414 423.001 418.641C415.073 409.105 408.752 398.306 400.599 388.966C393.739 381.126 385.046 374.786 374.413 373.561C364.76 372.404 355.548 375.54 349.756 383.459L354.95 382.096C333.096 372.786 307.175 375.236 288.036 389.682C284.116 392.622 280.411 396.385 280.029 401.579C279.667 406.577 282.234 411.281 285.909 414.495C296.003 423.315 309.312 417.759 319.67 412.535L315.917 406.126C307.979 411.957 297.689 420.14 299.414 431.312C300.825 440.446 309.615 447.423 318.563 443.533C322.355 441.876 319.886 436.898 316.681 436.565C305.764 435.428 295.641 443.258 292.505 453.529C289.212 464.309 294.386 476.176 302.677 483.154C309.88 489.22 323.718 493.807 330.274 484.32C335.076 477.372 331.558 467.013 322.904 466.063C319.817 465.71 318.475 469.483 319.621 471.776C326.697 485.896 337.748 497.638 351.412 505.557C358.998 509.996 365.779 514.308 371.473 521.139C376.863 527.597 381.489 534.771 386.173 541.719C404.705 569.394 421.678 598.049 441.122 625.117C450.61 638.549 460.872 651.419 471.854 663.66C482.723 675.587 494.796 686.347 507.056 696.804C529.292 715.786 553.116 732.819 580.105 744.334C594.653 750.522 609.745 755.345 625.185 758.74C643.051 762.66 661.965 764.453 679.83 759.524C692.864 755.927 704.928 748.744 716.09 741.227C728.252 733.065 739.75 723.956 750.478 713.983C761.454 703.762 771.058 692.149 780.858 680.84C792.51 667.453 804.025 653.939 815.158 640.14C837.002 613.151 857.455 584.868 873.958 554.263C889.932 524.608 906.955 489.583 902.574 454.969C899.085 427.392 876.3 402.755 848.125 399.413C841.992 398.661 835.769 399.331 829.937 401.373C825.252 403.01 827.271 410.516 832.004 408.85C857.22 400.03 886.257 423.08 892.696 446.816C901.653 479.871 885.669 515.661 870.695 544.522C855.27 574.284 835.993 601.901 815.148 628.086C804.809 641.071 794.078 653.723 783.132 666.208C773.008 677.753 763.052 689.64 752.272 700.587C742.693 710.204 732.371 719.051 721.402 727.047C710.435 735.122 698.783 742.883 686.2 748.205C656.271 760.857 620.54 750.655 591.62 739.6C565.395 729.575 541.895 714.169 520.335 696.343C496.668 676.743 475.03 655.791 456.439 631.301C437.28 606.007 420.483 579.106 402.98 552.763C394.523 540.023 386.369 526.666 376.442 515.053C366.054 502.911 350.501 498.021 339.407 486.633C334.069 481.112 329.622 474.794 326.226 467.905L322.943 473.628C324.845 473.834 325.021 476.98 324.727 478.313C324.021 481.459 320.689 482.301 317.818 482.086C311.232 481.596 305.362 476.392 302.138 470.933C295.396 459.448 301.756 442.513 316.72 444.023L314.78 437.094C308.684 439.76 305.96 429.764 307.352 425.785C309.439 420.032 314.917 416.044 319.66 412.555C323.463 409.752 320.258 403.95 315.907 406.146C308.214 410.017 295.464 416.259 288.947 407.008C283.195 398.854 296.072 392.592 302.04 389.76C317.505 382.502 335.315 382.103 351.089 388.662C352.908 389.652 355.183 389.055 356.283 387.3C361.908 379.637 373.286 379.578 381.293 383.116C391.093 387.447 397.737 397.012 403.676 405.479C416.631 423.962 431.733 440.455 448.031 456.047C480.067 486.692 515.788 513.201 551.911 538.789C570.354 551.862 588.955 564.7 607.33 577.851C616.228 584.221 625.077 590.591 633.839 597.187C640.757 602.351 648.284 609.574 657.486 605.35C662.092 603.243 665.218 599.157 668.472 595.433C672.255 591.101 676.031 586.76 679.801 582.408C686.661 574.451 693.579 566.454 700.283 558.31C713.758 541.944 726.311 524.863 738.179 507.301C763.061 470.502 786.591 427.715 828.741 408.321C831.563 407.028 829.525 402.069 826.614 403.264L826.634 403.294Z" fill="black"/>
    <path d="M377.569 402.226C370.513 395.15 362.633 387.467 353.627 382.92C351.138 381.665 348.031 385.036 350.462 387.026C358.253 393.396 367.043 398.531 374.893 404.901C376.745 406.41 379.333 403.99 377.569 402.226Z" fill="black"/>
    <path d="M666.13 621.657C661.171 608.829 650.45 600.097 639.728 592.1C636.2 589.444 632.457 595.589 636.22 598.117C646.441 604.831 655.398 613.294 662.68 623.117C663.827 624.705 666.982 623.833 666.139 621.657H666.13Z" fill="black"/>
    <path d="M718.54 518.737L788.12 564.866C805.858 576.626 824.008 588.768 836.415 606.026C838.208 608.535 840.237 611.377 843.275 611.808C847.43 612.406 850.585 608.3 852.751 604.713C866.128 582.526 879.564 560.221 889.158 536.113C898.752 512.005 907.318 473.393 904.476 447.687C902.8 432.507 895.303 430.224 888.796 416.416C885.718 409.889 882.073 403.391 876.467 398.844C868.97 392.758 858.994 390.936 849.488 389.309C842.167 388.054 834.66 386.81 827.389 388.27C817.207 390.318 808.857 397.355 801.056 404.205C764.434 436.339 727.625 471.766 712.111 517.944" fill="#DC3545"/>
    <path d="M718.305 519.188C739.277 533.242 760.268 547.262 781.28 561.25C799.9 573.735 819.735 586.113 833.592 604.145C837.434 609.133 842.177 616.512 849.086 611.132C852.437 608.515 854.446 604.272 856.583 600.685C859.836 595.256 863.09 589.817 866.265 584.339C877.222 565.405 887.541 545.825 894.342 524.961C900.418 506.341 904.632 486.741 905.789 467.209C906.279 458.771 906.602 449.569 904.26 441.347C901.976 433.331 895.998 427.46 891.922 420.395C887.365 412.555 884.317 404.009 876.986 398.109C868.813 391.534 857.994 389.809 847.949 388.143C837.904 386.477 828.006 385.791 818.549 390.397C809.415 394.836 801.889 402.225 794.382 408.909C760.17 439.367 726.488 473.52 711.366 517.807C711.014 518.845 712.65 519.296 713.003 518.267C725.743 481.027 751.997 451.059 780.251 424.511C787.316 417.866 794.549 411.388 801.811 405.009C809.386 398.394 817.491 391.357 827.692 389.329C838.472 387.163 851.438 390.034 861.992 392.974C873.125 396.091 880.612 402.686 885.993 412.809C887.953 416.504 889.609 420.316 891.873 423.834C894.019 427.166 896.577 430.214 898.733 433.566C903.495 441.112 904.162 449.795 904.152 458.517C904.152 477.137 900.585 495.864 895.626 513.759C890.344 532.879 882.298 550.872 872.841 568.267C867.804 577.538 862.433 586.632 857.004 595.707C854.486 599.901 852.104 605.203 848.566 608.623C842.461 614.503 837.679 605.585 834.317 601.42C820.656 584.407 801.762 572.814 783.749 560.995C762.104 546.805 740.482 532.582 718.883 518.326C718.315 517.954 717.795 518.855 718.354 519.228L718.305 519.188Z" fill="#DC3545"/>
    <path d="M800.037 402.48C794.902 406.302 790.1 410.516 784.994 414.367C780.12 417.851 775.445 421.603 770.99 425.608C761.777 434.335 753.224 443.732 745.402 453.724C737.993 463.152 730.369 472.638 724.126 482.899C717.648 493.532 712.817 505.351 708.868 517.13C707.466 521.305 714.003 523.01 715.434 518.943C723.215 496.57 736.886 475.137 752.585 457.507C760.523 448.599 768.991 440.475 777.458 432.076C781.701 427.862 785.464 423.305 789.512 418.915C793.706 414.377 798.332 410.212 802.575 405.773C804.153 404.136 802.007 401.02 800.037 402.48Z" fill="black"/>
    <path d="M717.56 520.58C732.711 531.713 747.842 543.042 763.287 553.753C777.252 563.455 792.069 571.863 805.78 581.948C812.362 586.711 818.586 591.951 824.4 597.628C827.289 600.436 829.953 603.467 832.367 606.693C834.249 609.25 835.924 612.083 838.6 613.905C844.245 617.757 850.203 614.885 854.045 609.985C858.876 603.86 862.688 596.53 866.598 589.788C876.521 572.903 885.2 555.317 892.568 537.171C894.205 533.085 887.668 531.35 886.002 535.358C879.956 550.225 872.224 564.043 864.178 577.9C860.258 584.682 856.22 591.405 852.251 598.167C850.654 600.881 848.86 605.693 845.979 607.271C842.304 609.29 840.099 604.752 838.139 602.204C829.515 591.003 819.304 581.761 807.906 573.461C795.107 564.141 782.005 555.017 768.628 546.55C752.546 536.387 736.023 526.725 719.677 516.993C717.305 515.582 715.433 519.041 717.56 520.6V520.58Z" fill="black"/>
    </svg>
    