<svg width="1000" height="1000" viewBox="0 0 1000 1000" fill="none" xmlns="http://www.w3.org/2000/svg">
    <path d="M370.748 164.605L374.001 103.316C389.11 114.857 402.868 128.066 415.014 142.692C423.031 106.305 431.077 69.829 442.935 34.5C453.29 67.9885 465.919 100.731 480.733 132.5L510.496 85.8422C513.612 101.646 517.121 117.372 521.021 133.019C544.794 113.952 566.698 92.6654 586.436 69.4468L587.23 144.956L641.532 112.273C634.701 138.184 624.973 163.244 612.533 186.978C628.087 181.485 644.103 177.398 660.387 174.767C645.014 195.249 629.507 215.63 613.866 235.91C626.554 239.431 639.294 242.773 652.086 245.935C631.638 261.757 609.478 275.234 586.024 286.115C597.707 300.934 608.531 316.411 618.443 332.469C619.54 334.253 620.677 336.32 620.07 338.349C618.913 342.269 613.308 341.701 609.505 340.358L553.939 320.758C563.617 340.406 571.419 360.924 577.244 382.037L505.978 334.292C506.683 348.763 508.158 363.186 510.398 377.5C499.956 363.69 488.65 350.555 476.549 338.173C469.944 348.283 464.652 359.194 460.8 370.64C456.325 357.067 453.416 343.027 452.127 328.794C438.995 345.97 425.226 362.63 410.82 378.774C400.638 361.065 411.369 338.222 406.312 318.426C388.846 337.22 368.774 353.411 346.708 366.504C350.856 344.163 356.787 322.189 364.446 300.795L293.475 326.403L335.615 252.903L295.327 269.396C303.799 251.86 314.849 235.69 328.108 221.425L294.053 200.728L330.862 195.416L296.464 154.57C314.577 155.967 332.182 161.22 348.1 169.975L335.566 132.637C350.513 140.162 364.552 149.369 377.412 160.077L374.031 164.066" fill="#FFD600"/>
    <path d="M662.68 285.458L664.895 256.96C665.444 249.845 665.983 242.554 664.042 235.694C662.102 228.834 657.182 222.356 650.205 220.69C647.892 220.132 645.471 220.122 643.178 219.495C639.738 218.515 636.798 216.261 633.378 215.202C626.949 213.356 620.075 216.001 616.542 221.68C614.297 216.829 608.045 214.653 602.9 216.123C597.755 217.593 593.855 222.003 591.904 227.011C589.954 232.019 589.729 237.468 589.993 242.799C590.16 246.19 590.444 249.826 588.661 252.707C587.58 254.124 586.408 255.469 585.152 256.735C581.605 261.017 581.311 267.27 582.977 272.571C584.643 277.873 588.024 282.45 591.326 286.909C599.597 298.061 608.506 309.723 621.344 315.025" fill="white"/>
    <path d="M664.189 285.458C665.64 273.346 667.413 261.115 667.884 248.904C668.246 239.506 666.669 229.471 659.456 222.758C656.363 219.917 652.468 218.1 648.303 217.554C643.021 216.731 639.111 213.987 634.133 212.497C626.43 210.194 618.453 213.752 614.101 220.337H619.001C613.288 209.881 599.48 211.615 592.767 219.975C588.396 225.433 587.083 232.48 587.014 239.32C587.014 243.064 588.122 247.924 586.132 251.305C584.633 253.844 582.104 255.461 580.762 258.165C574.578 270.817 584.407 283.4 591.64 293.044C595.592 298.537 600.015 303.675 604.86 308.4C609.486 312.712 614.797 317.544 621.334 318.083C623.941 318.298 625.332 314.623 623.47 312.918C619.736 309.508 614.925 307.665 611.044 304.382C607.154 300.976 603.588 297.216 600.391 293.151C594.139 285.507 583.418 274.531 585.28 263.751C586.122 258.851 590.523 256.646 592.14 252.236C593.757 247.826 592.737 242.936 592.816 238.369C592.943 232.048 594.394 225.247 599.578 221.112C604.154 217.466 611.073 217.623 614.092 223.13C614.61 223.989 615.539 224.513 616.542 224.513C617.544 224.513 618.474 223.989 618.992 223.13C621.16 219.697 624.881 217.552 628.939 217.397C633.192 217.241 636.553 219.887 640.336 221.396C643.737 222.748 647.441 222.493 650.842 223.728C654.599 225.271 657.677 228.112 659.515 231.735C663.748 239.408 663.003 248.503 662.455 256.94C661.886 266.446 661.439 275.949 661.112 285.449C661.043 287.458 663.934 287.35 664.16 285.449L664.189 285.458Z" fill="black"/>
    <path d="M913.56 356.783C889.697 368.112 862.081 370.307 837.933 358.517C817.02 348.306 795.607 325.972 795.793 301.266C795.862 290.28 800.85 279.569 808.651 271.925C816.883 263.869 830.828 257.587 842.079 262.889C851.252 267.211 854.652 278.177 854.819 287.614C854.956 298.287 850.899 308.626 845.019 317.387C838.848 326.474 830.358 333.746 820.431 338.447C815.209 340.994 809.579 342.603 803.8 343.2C796.293 343.847 790.766 341.093 784.886 336.771C764.306 321.62 744.706 301.805 738.346 276.276C735.504 264.82 735.033 251.139 740.953 240.525C746.617 230.363 758.024 227.599 766.491 236.341C774.625 244.73 773.881 256.588 766.844 265.398C759.426 274.698 747.577 279.304 735.974 280.098C706.045 282.058 678.615 264.418 650.587 256.695C622.931 249.071 594.149 246.758 565.631 244.935C559.849 244.563 559.868 253.559 565.631 253.922C596.55 255.882 627.655 258.557 657.329 268.054C687.004 277.55 717.844 296.101 749.88 286.546C761.778 282.999 773.175 274.855 778.379 263.32C783.645 252.167 781.374 238.911 772.695 230.147C764.081 221.327 750.802 219.279 740.855 227.148C730.418 235.41 727.213 250.08 727.536 262.752C728.32 293.984 748.842 319.709 772.126 338.506C777.693 343.004 783.406 347.894 790.119 350.57C797.332 353.451 805.299 352.863 812.659 351.001C825.299 347.702 836.736 340.865 845.626 331.293C861.522 314.29 871.714 284.518 856.406 263.81C838.668 239.751 804.202 257.009 792.951 278.393C778.967 304.951 793.324 334.576 814.913 352.059C837.11 370.042 867.441 377.196 895.058 368.651C902.092 366.502 908.777 363.343 914.903 359.272C915.507 358.843 915.684 358.022 915.309 357.382C914.934 356.742 914.132 356.495 913.462 356.812L913.56 356.783Z" fill="black"/>
    <path d="M649.842 241.133C649.18 246.803 644.178 250.951 638.484 250.551C637.154 250.495 635.907 249.888 635.044 248.875C634.526 248.01 634.249 247.022 634.24 246.013C633.985 242.624 634.3 239.215 635.171 235.929L633.829 240.633C632.849 244.122 631.751 247.768 629.233 250.374C626.714 252.981 622.265 254.108 619.433 251.844C617.09 249.982 616.649 246.65 616.395 243.661L615.317 231.019C614.993 235.478 614.631 240.104 612.445 244.004C610.26 247.905 605.693 250.864 601.371 249.728C595.913 248.287 593.845 241.741 592.943 236.164C591.963 230.216 591.826 222.915 596.814 219.504" fill="white"/>
    <path d="M648.431 240.741C647.735 243.985 643.942 249.561 639.846 248.522C634.593 247.219 636.534 240.202 637.416 236.547C638.131 233.607 633.77 232.421 632.917 235.312C631.575 239.869 628.752 254.108 621.53 249.669C618.59 247.846 618.894 244.171 618.59 240.947C618.286 237.723 618.051 234.332 617.786 231.02C617.786 229.634 616.663 228.511 615.277 228.511C613.892 228.511 612.769 229.634 612.769 231.02C612.367 235.92 612.024 241.868 608.006 245.308C603.772 248.934 599.45 246.837 597.412 242.309C594.835 236.557 593.325 225.973 598.784 221.523C601.254 219.514 597.902 215.104 595.344 217.074C590.072 221.131 588.886 227.168 589.67 233.548C590.327 238.909 591.552 245.308 595.55 249.316C599.548 253.324 605.575 253.511 610.191 250.296C616.483 245.935 617.355 238.036 617.835 231.01H612.818C613.455 237.978 611.838 253.55 621.491 255.304C632.271 257.264 635.338 244.122 637.425 236.537L632.927 235.302C631.585 241.29 629.87 251.962 638.494 252.638C645.354 253.197 650.695 247.572 651.312 241.123C651.469 239.487 648.784 239.163 648.441 240.731L648.431 240.741Z" fill="black"/>
    <path d="M586.701 256.049C591.14 250.492 599.098 249.63 606.193 249.189C609.936 248.963 614.219 248.944 616.738 251.707C619.001 254.177 618.845 258.313 616.738 260.929C614.496 263.505 611.061 264.708 607.702 264.095C614.46 264.756 620.626 268.236 624.685 273.679C628.605 279.147 629.585 286.664 626.822 292.75C624.058 298.836 617.306 303.059 610.652 302.364C604.429 301.707 599.284 297.258 595.276 292.456C590.334 286.519 586.458 279.772 583.819 272.513C582.604 269.142 581.644 265.535 582.242 262.007C582.839 258.479 585.358 255.059 588.876 254.412" fill="white"/>
    <path d="M596.608 292.112C595.766 286.732 591.346 281.94 588.964 277.109C586.377 271.846 581.066 259.782 589.611 257.009C592.865 255.95 591.571 251.001 588.19 251.854C579.174 254.137 578.126 263.947 580.448 271.601C582.692 279.029 587.063 290.829 594.933 293.788C596.011 294.19 596.755 293.024 596.608 292.112Z" fill="black"/>
    <path d="M587.063 257.362C589.543 256.45 591.601 254.833 594.178 254.049C597.399 253.147 600.708 252.588 604.047 252.383C606.987 252.138 611.24 251.403 613.709 253.363C618.943 257.617 611.926 261.605 607.722 261.203C604.527 260.919 603.743 266.427 606.957 266.858C613.194 267.534 618.903 270.674 622.814 275.58C624.685 277.942 628.811 274.796 627.018 272.346C622.633 266.266 615.923 262.277 608.486 261.331L607.722 266.985C613.131 267.505 619.001 265.025 620.775 259.518C622.427 254.782 620.237 249.562 615.699 247.425C610.603 244.994 603.527 246.013 598.167 246.984C593.404 247.836 586.632 250.433 585.427 255.676C585.201 256.656 586.073 257.724 587.102 257.352L587.063 257.362Z" fill="black"/>
    <path d="M592.865 650.92C615.052 649.313 636.132 640.767 656.143 631.036C689.16 614.993 720.98 594.981 744.843 567.081C768.706 539.18 783.984 502.509 780.368 465.974C777.428 436.506 764.884 406.037 751.733 379.734C742.616 361.505 731.749 344.205 719.285 328.078C708.034 313.525 694.785 295.523 675.587 291.681C672.353 291.034 671.667 281.293 668.648 279.921C660.808 276.295 651.39 277.648 643.629 281.421C635.867 285.194 629.409 291.172 623.049 297.042C619.315 300.511 615.454 304.166 613.768 308.968C612.083 313.77 613.376 320.042 617.943 322.287C611.553 326.893 609.241 335.605 610.103 343.435C610.965 351.265 614.562 358.498 617.943 365.622C637.367 406.633 652.279 449.633 662.415 493.865C656.986 494.022 652.018 496.805 647.196 499.275C607.566 519.821 562.941 528.765 518.453 525.078C514.337 524.735 509.8 524.382 506.448 526.813C503.097 529.243 502.852 535.633 506.831 536.76" fill="#DC3545"/>
    <path d="M592.865 652.88C614.562 651.586 635.005 644.227 654.605 635.309C673.705 626.636 692.149 616.689 709.259 604.488C742.579 580.791 770.5 547.648 780.731 507.468C791.697 464.348 775.939 421.179 757.074 382.625C747.24 362.483 735.39 343.39 721.705 325.638C711.131 311.918 699.93 296.895 683.25 290.427C681.941 289.912 680.606 289.464 679.252 289.084C678.781 288.957 675.89 287.83 676.851 288.653C675.743 287.673 675.381 285.478 674.891 284.145C673.725 280.99 672.656 278.265 669.53 276.668C659.965 271.866 647.637 275.1 638.925 280.157C634.009 283.157 629.412 286.651 625.205 290.584C621.285 294.131 617.012 297.679 613.847 301.991C608.594 309.155 607.78 320.033 616.277 325.119L615.601 319.896C605.174 328.098 605.223 342.573 609.299 354.068C611.926 361.477 615.679 368.484 618.923 375.628C622.471 383.468 625.858 391.36 629.086 399.305C641.571 430.286 651.585 462.206 659.034 494.767L662.445 490.288C651.038 491.131 640.708 498.863 630.399 503.293C618.609 508.342 606.422 512.406 593.962 515.445C569.149 521.54 543.982 522.952 518.502 521.599C514.014 521.364 514.19 528.018 518.502 528.459C543.12 531.125 568.424 528.802 592.502 523.216C604.446 520.444 616.156 516.748 627.527 512.162C633.221 509.869 638.846 507.37 644.354 504.655C650.126 501.803 655.889 497.795 662.464 497.334C663.562 497.315 664.59 496.794 665.254 495.921C665.919 495.048 666.148 493.919 665.875 492.856C658.911 462.699 649.739 433.095 638.435 404.283C632.96 390.348 627.001 376.628 620.56 363.123C615.032 351.452 607.761 334.537 620.334 324.609C622.069 323.247 621.314 320.376 619.668 319.386C609.593 313.388 623.245 301.315 627.949 296.993C635.367 290.133 643.57 283.332 653.782 281.499C657.28 280.872 664.473 280.235 667.247 283.116C669.011 284.939 669.256 288.781 670.481 291.025C671.833 293.524 673.421 294.465 676.106 295.2C680.126 296.262 683.975 297.885 687.543 300.021C701.762 308.645 712.131 323.757 721.735 336.977C733.594 353.451 743.911 370.982 752.556 389.348C769.412 424.746 783.357 464.455 773.792 503.871C764.855 540.65 740.286 571.266 710.573 593.815C693.913 606.428 675.93 617.12 657.417 626.704C637.141 637.2 615.797 646.588 592.865 648.96C590.346 649.225 590.258 653.125 592.865 652.968V652.88Z" fill="black"/>
    <path d="M672.862 512.015C670.334 503.949 666.982 496.178 664.317 488.162C663.18 484.79 657.79 486.27 658.976 489.641C661.857 497.873 664.934 505.998 669.667 513.367C670.706 514.974 673.48 513.985 672.862 512.015V512.015Z" fill="black"/>
    <path d="M670.745 294.66C659.965 296.464 650.655 300.913 641.551 306.881C636.978 309.886 632.405 312.885 627.831 315.877C622.931 319.092 618.884 323.404 614.033 326.657C613.729 326.978 613.676 327.462 613.905 327.84C614.134 328.218 614.588 328.396 615.013 328.274C619.482 325.766 623.382 321.895 627.488 318.808C631.898 315.495 636.308 312.202 640.797 309.008C650.038 302.422 659.76 297.395 671 295.288C671.431 295.209 671.245 294.562 670.814 294.631L670.745 294.66Z" fill="black"/>
    <path d="M662.749 295.758C659.456 293.103 660.602 288.673 659.397 285.057C658.579 282.686 657.087 280.605 655.105 279.069C654.634 278.697 653.968 279.363 654.438 279.735C658.074 282.626 658.848 286.027 659.417 290.457C659.711 292.779 660.397 294.798 662.239 296.268C662.602 296.552 663.121 296.052 662.749 295.758V295.758Z" fill="black"/>
    <path d="M649.078 301.207C647.51 298.463 647.539 295.209 646.138 292.387C644.824 289.79 642.551 287.81 640.405 285.919C639.944 285.507 639.248 286.193 639.719 286.605C642.267 288.849 644.834 291.191 646.01 294.445C646.863 296.846 647.137 299.296 648.49 301.501C648.595 301.649 648.797 301.693 648.954 301.601C649.112 301.51 649.174 301.313 649.097 301.148L649.078 301.207Z" fill="black"/>
    <path d="M637.68 309.165C633.765 304.761 630.871 299.548 629.203 293.896C629.112 293.649 628.847 293.512 628.592 293.581C628.338 293.649 628.178 293.901 628.223 294.161C629.827 300.017 632.92 305.358 637.2 309.664C637.514 309.988 637.984 309.498 637.69 309.165H637.68Z" fill="black"/>
    <path d="M624.666 319.602C625.646 317.642 623.509 317.063 622.549 315.525C621.863 314.437 618.188 303.863 619.031 303.314C619.247 303.187 619.32 302.908 619.193 302.692C619.065 302.475 618.787 302.403 618.57 302.53C616.787 303.402 619.197 308.41 619.55 309.762C619.982 311.617 620.565 313.433 621.295 315.192C621.618 315.887 624.235 318.769 623.99 319.229C623.745 319.69 624.401 320.023 624.627 319.602H624.666Z" fill="black"/>
    <path d="M326.109 959.375C319.817 917.803 314.829 874.87 325.217 834.141C328.157 822.498 332.43 810.895 331.92 798.861C331.822 796.568 331.587 794.137 332.655 792.099C334.458 788.669 338.996 787.983 342.867 787.777C416.367 783.857 491.513 802.114 563.112 784.837C566.493 796.597 571.589 807.749 576.665 818.863L601.352 872.919C606.193 883.513 611.034 894.136 616.934 904.172C620.432 910.14 642.139 953.113 645.599 959.052" fill="black"/>
    <path d="M326.481 959.267C320.307 915.167 315.809 870.93 327.853 827.359C330.636 817.304 332.518 807.936 332.636 797.508C332.724 789.864 338.339 788.816 344.719 788.492C350.285 788.208 355.862 788.071 361.438 788.022C383.213 787.836 404.969 789.159 426.696 790.511C469.13 793.147 512.26 796.038 554.272 787.571C555.84 787.258 560.152 785.503 561.515 786.013C563.69 786.797 564.18 790.854 564.905 792.873C566.552 797.548 568.424 802.134 570.384 806.681C574.725 816.756 579.429 826.683 584.015 836.65C593.178 856.593 601.812 876.957 612.083 896.361C617.825 907.21 623.735 917.921 629.291 928.917C634.446 939.099 639.376 949.497 645.05 959.404C645.228 959.71 645.621 959.813 645.927 959.635C646.233 959.456 646.336 959.063 646.157 958.758C637.827 944.234 630.575 929.015 622.794 914.187C618.296 905.602 613.386 897.233 609.162 888.501C601.479 872.616 594.521 856.367 587.23 840.295C578.949 822.038 569.59 803.898 563.847 784.621C563.793 784.417 563.657 784.244 563.472 784.143C563.287 784.041 563.068 784.019 562.867 784.082C508.281 796.999 452.127 789.766 396.796 787.199C383.155 786.562 369.484 786.219 355.822 786.483C349.276 786.621 333.919 784.523 331.371 793.118C330.823 794.96 331.068 796.95 331.107 798.822C331.194 802.633 330.931 806.445 330.323 810.209C329.215 817.069 327.157 823.694 325.354 830.368C321.988 842.889 319.861 855.71 319.004 868.647C316.936 899.027 320.856 929.407 325.707 959.404C325.785 959.894 326.511 959.679 326.442 959.199L326.481 959.267Z" fill="#DC3545"/>
    <path d="M327.638 959.375C324.864 933.552 321.66 907.641 322.228 881.632C322.437 868.375 323.88 855.166 326.54 842.177C329.088 830.093 333.625 818.402 334.811 806.054C335.105 802.947 334.909 799.909 334.948 796.803C334.997 792.961 337.104 791.648 340.632 791.129C346.797 790.227 353.372 790.452 359.566 790.374C372.62 790.198 385.663 790.599 398.697 791.227C425.089 792.501 451.441 794.755 477.862 795.362C506.742 796.029 535.731 794.529 563.916 787.846L560.143 785.709C564.964 801.967 572.51 817.295 579.743 832.612C587.413 848.945 595.184 865.256 603.057 881.543C608.025 891.765 613.837 901.526 618.943 911.639C623.353 920.302 627.518 929.083 631.849 937.795C635.612 945.381 639.219 953.083 643.433 960.433C645.06 963.275 649.47 960.718 647.833 957.866C639.513 943.342 631.928 928.319 624.009 913.57C619.423 905.024 614.552 896.635 610.426 887.855C602.92 871.851 596.256 855.446 589.082 839.296C581.036 821.146 571.746 803.163 566.101 784.082C565.622 782.472 563.958 781.525 562.328 781.936C507.958 794.794 451.941 787.512 396.865 784.945C383.223 784.308 369.552 783.965 355.891 784.22C348.002 784.386 332.067 782.367 329.186 792.569C327.677 797.93 329.029 804.114 328.137 809.66C327.04 816.52 324.972 823.145 323.169 829.819C319.748 842.538 317.614 855.569 316.799 868.715C314.839 899.252 318.837 929.857 324.639 959.777C324.962 961.443 327.824 961.09 327.638 959.375V959.375Z" fill="black"/>
    <path d="M487.113 503.312C500.225 503.499 514.553 499.941 522.863 488.965C533.016 475.5 531.478 457.399 525.803 442.464C522.648 434.183 517.963 426.696 513.965 418.836C510.045 411.173 507.448 402.833 502.891 395.493C494.6 382.106 479.626 372.482 463.691 377.99C460.3 379.166 461.643 384.213 465.181 383.4C480.41 379.911 491.797 391.063 498.285 403.607C501.539 409.879 503.871 416.563 507.105 422.835C510.476 429.391 514.386 435.673 517.444 442.386C523.324 455.224 526.499 471.482 519.012 484.349C512.622 495.335 499.04 499.255 487.123 500.029C486.26 500.096 485.594 500.815 485.594 501.681C485.594 502.546 486.26 503.265 487.123 503.332L487.113 503.312Z" fill="black"/>
    <path d="M469.365 437.28C469.954 436.682 470.881 436.576 471.59 437.025C472.597 437.521 473.2 438.582 473.109 439.701C473.025 440.242 472.719 440.723 472.265 441.028C471.811 441.333 471.25 441.435 470.718 441.308C470.287 441.147 469.913 440.864 469.64 440.495C469.259 440.025 468.972 439.486 468.797 438.907C468.703 438.654 468.676 438.38 468.718 438.113C468.766 437.841 468.977 437.627 469.248 437.574" fill="black"/>
    <path d="M469.561 437.564C470.222 437.263 470.996 437.352 471.571 437.796C472.146 438.24 472.429 438.965 472.305 439.681C472.219 440.043 471.956 440.336 471.606 440.461C471.255 440.585 470.866 440.524 470.571 440.299C470.237 440.054 468.885 438.397 469.532 438.015C469.983 437.751 469.826 436.918 469.248 436.976C467.288 437.172 468.219 439.916 468.963 440.847C469.404 441.539 470.139 441.988 470.955 442.064C471.771 442.141 472.577 441.837 473.138 441.239C473.676 440.642 473.946 439.85 473.885 439.048C473.824 438.247 473.437 437.505 472.815 436.996C471.835 436.114 469.738 435.516 469.042 437.045C468.885 437.368 469.208 437.79 469.561 437.564Z" fill="black"/>
    <path d="M497.599 424.04C498.184 423.436 499.113 423.325 499.824 423.776C500.833 424.273 501.433 425.34 501.333 426.461C501.249 427.002 500.943 427.483 500.489 427.788C500.035 428.094 499.474 428.195 498.942 428.068C498.516 427.903 498.146 427.621 497.873 427.255C497.49 426.785 497.2 426.246 497.021 425.667C496.925 425.414 496.902 425.139 496.952 424.873C497 424.601 497.21 424.387 497.481 424.334" fill="black"/>
    <path d="M497.785 424.364C498.447 424.057 499.225 424.144 499.803 424.588C500.381 425.033 500.665 425.762 500.539 426.48C500.45 426.842 500.185 427.135 499.833 427.259C499.482 427.384 499.092 427.323 498.795 427.098C498.461 426.853 497.119 425.187 497.815 424.814C498.256 424.55 498.099 423.717 497.53 423.776C495.57 423.972 496.501 426.667 497.246 427.647C497.687 428.338 498.422 428.787 499.238 428.864C500.054 428.94 500.86 428.636 501.421 428.039C501.959 427.441 502.229 426.649 502.168 425.848C502.107 425.046 501.72 424.304 501.098 423.795C500.118 422.913 498.011 422.315 497.315 423.844C497.168 424.168 497.481 424.579 497.834 424.364H497.785Z" fill="black"/>
    <path d="M480.841 420.453C482.879 425.843 484.839 431.312 487.701 436.349C488.858 438.524 490.189 440.602 491.68 442.562C493.405 444.708 494.718 444.944 493.64 447.717C492.562 450.49 496.697 451.774 498.236 449.677C502.097 444.365 497.952 442.19 494.855 438.015C490.572 432.243 487.25 425.549 483.889 419.209C483.026 417.582 480.194 418.699 480.87 420.483L480.841 420.453Z" fill="black"/>
    <path d="M441.719 450.353C440.739 446.668 436.947 444.473 433.321 444.14C428.836 443.714 424.536 446.036 422.433 450.02C417.376 458.997 424.609 470.296 434.193 471.923C438.476 472.648 440.338 466.121 436.006 465.347C431.204 464.485 427.117 459.986 428.274 454.92C429.577 449.226 435.006 448.716 439.054 451.911C439.581 452.41 440.374 452.502 441.001 452.138C441.629 451.773 441.941 451.038 441.768 450.333L441.719 450.353Z" fill="black"/>
    <path d="M433.536 456.635C434.222 456.133 435.177 456.234 435.741 456.87C435.942 457.205 435.991 457.61 435.877 457.983C435.763 458.356 435.497 458.664 435.144 458.83L435.967 459.164C435.741 458.634 436.359 458.34 436.682 458.105C436.892 457.973 437.006 457.731 436.975 457.485C436.943 457.239 436.772 457.033 436.535 456.959C435.817 456.835 435.105 457.203 434.791 457.86C434.419 458.482 434.39 459.25 434.712 459.899C434.876 460.187 435.217 460.325 435.536 460.232C436.294 459.933 436.888 459.322 437.165 458.555C437.443 457.788 437.377 456.939 436.986 456.224C436.551 455.557 435.836 455.123 435.044 455.045C434.251 454.967 433.466 455.253 432.909 455.822C432.537 456.233 433.027 456.988 433.536 456.635V456.635Z" fill="black"/>
    <path d="M491.396 471.11C492.866 468.846 495.894 469.738 498.05 469.698C499.24 469.666 500.231 468.776 500.392 467.597C500.552 466.417 499.835 465.295 498.697 464.945C496.281 464.237 493.685 464.505 491.464 465.69C489.732 466.615 488.614 468.384 488.524 470.345C488.387 471.952 490.602 472.305 491.366 471.11H491.396Z" fill="black"/>
    <path d="M456.674 431.861C459.938 428.499 464.818 428.921 468.807 427.206C470.874 426.334 472.393 424.668 472.031 422.306C471.727 420.346 469.865 418.16 467.611 418.386C461.065 419.121 455.175 423.599 453.43 429.999C453.234 430.839 453.609 431.708 454.355 432.141C455.101 432.574 456.043 432.468 456.674 431.88V431.861Z" fill="black"/>
    <path d="M488.936 417.033C490.357 416.671 491.582 415.867 493.022 415.534C493.757 415.357 494.483 415.22 495.218 415.044L496.198 414.828C495.678 414.877 495.806 414.828 496.55 414.76C496.938 414.729 497.322 414.664 497.697 414.564C501.127 413.809 502.244 409.458 500.245 406.871C498.06 404.029 494.081 404.538 492.16 407.361C491.521 408.415 491.33 409.68 491.628 410.876C491.926 412.072 492.689 413.1 493.748 413.731L491.641 410.987V411.143L495.061 405.107C490.788 405.998 486.241 410.193 485.839 414.701C485.852 415.451 486.207 416.153 486.803 416.608C487.399 417.063 488.17 417.219 488.897 417.033H488.936Z" fill="black"/>
    <path d="M429.803 523.569C431.625 515.356 432.262 506.723 433.105 498.363C433.997 489.543 435.271 480.498 434.791 471.619C434.536 466.935 428.029 467.042 427.588 471.619C426.774 480.145 427.323 488.847 427.206 497.403C427.088 505.958 426.353 514.592 426.618 523.138C426.676 524.902 429.391 525.411 429.803 523.569Z" fill="black"/>
    <path d="M494.551 527.724C496.394 519.424 496.619 510.643 498.187 502.244C498.785 499.04 493.875 497.658 493.287 500.882C491.719 509.291 490.092 519.238 491.562 527.724C491.827 529.243 494.247 529.175 494.561 527.724H494.551Z" fill="black"/>
    <path d="M416.406 523.363C413.853 519.229 414.208 513.93 417.288 510.173C420.355 506.586 426.294 504.606 429.401 505.9C429.332 511.26 430.606 514.632 433.664 516.592C436.721 518.552 440.524 518.934 444.14 519.247L482.144 522.54C485.173 522.805 486.378 523.089 489.083 521.688C491.788 520.286 493.395 518.228 494.786 513.701C498.795 512.28 502.009 511.192 506.223 511.741C510.437 512.289 514.641 515.543 514.749 519.796C514.818 522.815 512.916 525.96 514.2 528.685C514.974 530.341 516.709 531.292 518.346 532.095C534.829 540.141 553.008 544.1 569.747 551.587C586.485 559.075 602.567 571.354 607.722 588.945C610.985 600.097 609.486 612.024 607.722 623.49C600.326 670.565 588.265 716.787 571.716 761.474C570.736 764.061 569.756 766.756 570.021 769.5C570.423 773.881 573.941 777.762 573.392 782.123C570.981 802.703 525.529 804.231 510.672 806.044C479.557 809.866 448.981 807.642 417.915 805.064C389.848 802.771 361.82 800.008 333.792 797.224C330.411 796.891 326.726 796.421 324.384 793.961C320.386 789.776 325.364 786.444 326.021 782.505C327.187 775.174 326.54 768.932 324.952 761.66C315.43 718.015 310.338 673.519 309.753 628.851C309.606 617.541 309.753 606.105 312.389 595.099C318.457 570.71 335.945 550.761 359.331 541.552C377.696 534.506 398.639 534.594 415.74 524.892" fill="#DC3545"/>
    <path d="M606.036 589.425C609.456 603.949 605.918 619.384 603.39 633.799C600.933 647.807 598.059 661.729 594.766 675.567C588.322 702.647 580.285 729.324 570.697 755.457C568.786 760.651 565.974 766.09 567.257 771.774C568.394 776.781 571.746 780.594 568.972 785.69C565.64 791.766 557.702 794.657 551.489 796.548C537.044 800.948 521.717 801.771 506.782 803.408C477.568 806.573 448.07 805.025 418.876 802.644C404.502 801.481 390.152 800.21 375.824 798.831C361.183 797.45 346.032 796.969 331.538 794.48C329.382 794.108 325.276 793.324 325.531 790.041C325.599 789.178 326.462 788.13 326.854 787.326C327.902 785.286 328.567 783.07 328.814 780.79C329.588 774.116 328.814 767.609 327.442 761.062C324.619 747.342 321.954 733.554 319.866 719.667C315.475 690.265 313.183 660.587 313.006 630.859C312.898 615.846 313.006 600.587 318.641 586.426C323.512 574.34 331.405 563.707 341.563 555.546C352.098 547.05 364.397 542.679 377.461 539.778C391.073 536.75 404.901 534.506 417.249 527.705C420.806 525.745 417.631 520.306 414.064 522.256C401.706 529.028 387.712 530.919 374.158 534.016C362.33 536.711 351.011 540.69 341.034 547.736C320.885 561.975 309.076 583.8 306.813 608.192C305.421 623.284 306.44 638.709 307.342 653.801C308.283 669.73 309.772 685.609 311.811 701.439C313.771 716.227 316.025 730.957 318.857 745.598C320.288 752.977 322.238 760.298 323.355 767.746C323.942 771.472 324.09 775.255 323.796 779.016C323.482 782.661 322.071 784.347 320.856 787.552C316.025 800.723 337.898 800.292 345.131 801.036C360.419 802.533 375.71 803.99 391.004 805.407C422.227 808.239 453.979 812.012 485.359 811.072C496.482 810.729 507.497 809.465 518.561 808.396C526.984 807.702 535.364 806.57 543.669 805.005C555.752 802.575 577.048 796.725 576.381 780.721C576.244 777.379 574.421 774.694 573.441 771.578C572.138 767.06 574.196 763.032 575.705 758.838C578.638 750.691 581.418 742.495 584.045 734.249C589.121 718.341 593.649 702.275 597.628 686.053C601.606 669.831 605.023 653.497 607.878 637.053C610.642 621.069 614.101 604.478 609.25 588.553C608.98 587.622 608.006 587.087 607.075 587.357C606.144 587.628 605.609 588.602 605.879 589.533L606.036 589.425Z" fill="black"/>
    <path d="M418.092 522.903C416.867 519.267 416.759 514.906 419.405 511.887C421.522 509.457 425.432 507.664 428.627 508.712L426.5 505.88C426.431 512.103 428.078 517.748 434.183 520.384C442.111 523.814 451.911 522.481 460.3 523.206L474.52 524.5C478.44 524.843 482.83 525.901 486.731 525.294C492.611 524.363 495.668 519.688 497.609 514.514L495.541 516.582C499.02 515.513 502.891 514.337 506.546 515.308C510.956 516.484 511.446 519.541 510.917 523.53C510.153 528.988 511.78 532.35 516.729 534.849C520.325 536.701 523.52 531.282 519.914 529.4C515.082 526.881 518.934 520.423 517.268 516.111C515.886 512.939 513.26 510.476 510.006 509.3C505.792 507.644 501.401 508.232 497.217 509.643C495.659 510.163 493.503 510.623 492.434 511.936C491.16 513.544 491.249 515.915 489.896 517.581C486.839 521.354 481.566 519.943 477.372 519.541C471.355 519.022 465.328 518.561 459.31 517.973C453.724 517.434 448.129 516.621 442.552 515.954C435.937 515.17 432.547 512.769 432.282 505.88C432.256 504.578 431.393 503.442 430.146 503.067C418.101 499.775 407.125 514.671 415.142 524.627C416.239 525.99 418.601 524.52 418.082 522.922L418.092 522.903Z" fill="black"/>
    <path d="M271.101 285.458L268.877 256.96C268.318 249.845 267.779 242.554 269.72 235.694C271.66 228.834 276.58 222.356 283.557 220.69C285.87 220.132 288.291 220.122 290.584 219.495C294.024 218.515 296.964 216.261 300.384 215.202C306.813 213.356 313.687 216.001 317.22 221.68C319.464 216.829 325.717 214.653 330.862 216.123C336.007 217.593 339.907 222.003 341.857 227.011C343.808 232.019 344.033 237.468 343.768 242.799C343.602 246.19 343.318 249.826 345.101 252.707C346.186 254.124 347.361 255.47 348.619 256.735C352.157 261.017 352.461 267.27 350.785 272.571C349.109 277.873 345.748 282.45 342.436 286.909C334.164 298.061 325.256 309.723 312.418 315.025" fill="white"/>
    <path d="M272.64 285.458C272.297 275.952 271.876 266.446 271.297 256.95C270.788 248.522 270.053 239.418 274.286 231.745C276.117 228.12 279.193 225.278 282.95 223.738C286.36 222.493 290.055 222.758 293.455 221.406C297.013 219.985 300.247 217.486 304.235 217.388C308.508 217.355 312.495 219.53 314.78 223.14C315.294 224.003 316.225 224.532 317.23 224.532C318.235 224.532 319.166 224.003 319.68 223.14C322.444 218.103 328.774 217.378 333.351 220.445C338.927 224.159 340.672 231.225 340.936 237.478C341.142 242.378 339.956 247.552 341.642 252.246C343.249 256.666 347.649 258.891 348.502 263.761C350.334 274.375 339.995 284.988 333.88 292.544C330.7 296.625 327.165 300.416 323.316 303.873C319.278 307.391 314.231 309.341 310.311 312.918C308.459 314.613 309.831 318.298 312.448 318.083C318.984 317.544 324.296 312.722 328.921 308.4C333.58 303.855 337.842 298.921 341.661 293.651C349.041 283.851 359.301 271.043 353.01 258.156C351.667 255.402 349.158 253.795 347.639 251.296C345.679 247.954 346.797 242.995 346.757 239.31C346.699 232.587 345.434 225.688 341.23 220.249C334.596 211.694 320.572 209.704 314.77 220.328H319.67C315.486 213.967 307.822 210.42 300.266 212.38C295.366 213.644 291.446 216.662 286.35 217.476C281.725 218.221 277.805 219.544 274.316 222.797C267.348 229.285 265.613 238.928 265.858 248.052C266.182 260.537 268.103 273.11 269.582 285.498C269.808 287.389 272.709 287.507 272.63 285.498L272.64 285.458Z" fill="black"/>
    <path d="M86.2342 395.708C114.742 388.221 136.753 359.174 140.281 330.489C141.173 323.188 140.007 315.388 134.058 310.458C128.796 306.097 121.887 306.215 116.526 310.341C104.472 319.68 101.218 339.417 109.96 351.844C132.265 383.4 170.828 342.122 187.988 325.736C211.86 302.961 240.192 285.615 270.915 273.669C288.169 266.94 306.023 261.866 324.237 258.518C342.445 255.206 360.703 254.598 379.117 253.363C384.301 253.02 384.184 245.906 379.117 245.396C365.348 244.004 351.569 245.396 337.888 247.268C324.025 249.196 310.311 252.081 296.846 255.902C269.688 263.466 243.795 274.997 220.004 290.123C208.475 297.498 197.614 305.87 187.547 315.143C176.629 325.246 166.614 336.536 154.452 345.199C142.947 353.392 125.718 362.055 115.82 346.806C111.695 340.456 111.851 332.312 114.703 325.501C117.369 319.131 125.846 309.243 131.363 318.994C135.166 325.727 131.863 335.811 129.57 342.622C127.129 349.825 123.685 356.647 119.339 362.888C110.519 375.628 98.1314 384.723 84.6564 391.984C82.5984 393.092 84.0194 396.287 86.2244 395.708H86.2342Z" fill="black"/>
    <path d="M283.92 241.133C284.581 246.803 289.584 250.951 295.278 250.551C296.608 250.495 297.854 249.888 298.718 248.875C299.24 248.012 299.518 247.022 299.521 246.013C299.775 242.624 299.464 239.216 298.6 235.929L299.933 240.633C300.913 244.122 302.011 247.768 304.529 250.374C307.048 252.981 311.497 254.108 314.329 251.844C316.671 249.982 317.103 246.65 317.357 243.661L318.435 231.019C318.759 235.478 319.131 240.104 321.317 244.004C323.502 247.905 328.059 250.864 332.381 249.728C337.839 248.287 339.907 241.741 340.819 236.164C341.799 230.216 341.926 222.915 336.899 219.504" fill="white"/>
    <path d="M282.44 241.133C283.057 247.581 288.408 253.207 295.258 252.648C303.892 251.942 302.118 241.29 300.825 235.312L296.327 236.547C298.424 244.171 301.491 257.234 312.261 255.314C321.875 253.599 320.297 237.948 320.944 231.019H315.917C316.397 238.046 317.269 245.945 323.561 250.306C328.167 253.501 334.145 253.393 338.202 249.326C342.259 245.259 343.376 238.908 344.033 233.558C344.817 227.178 343.631 221.141 338.359 217.084C335.83 215.124 332.43 219.504 334.929 221.533C340.378 225.982 338.849 236.566 336.291 242.319C334.262 246.846 329.931 248.944 325.697 245.318C321.679 241.878 321.336 235.9 320.944 231.029C320.861 229.702 319.76 228.668 318.43 228.668C317.1 228.668 316 229.702 315.917 231.029C315.554 235.674 316.573 247.18 312.212 249.649C304.911 253.844 302.216 240.016 300.825 235.292C299.982 232.411 295.611 233.607 296.327 236.527C297.111 239.751 299.453 247.856 293.896 248.503C289.614 249.002 286.056 244.338 285.311 240.721C284.968 239.134 282.283 239.457 282.44 241.113V241.133Z" fill="black"/>
    <path d="M347.061 256.049C342.632 250.492 334.664 249.63 327.569 249.189C323.835 248.963 319.543 248.944 317.024 251.707C314.77 254.177 314.917 258.313 317.024 260.929C319.266 263.505 322.7 264.708 326.06 264.095C319.303 264.758 313.138 268.238 309.076 273.679C305.156 279.147 304.176 286.664 306.94 292.75C309.704 298.836 316.456 303.059 323.12 302.364C329.333 301.707 334.478 297.258 338.486 292.456C343.432 286.522 347.308 279.774 349.942 272.513C351.158 269.142 352.118 265.535 351.52 262.007C350.922 258.479 348.404 255.059 344.886 254.412" fill="white"/>
    <path d="M338.829 293.788C346.669 290.848 351.069 279.029 353.323 271.601C355.636 263.947 354.597 254.137 345.581 251.854C342.22 251.001 340.887 255.95 344.151 257.009C352.706 259.782 347.375 271.817 344.797 277.109C342.436 281.95 337.996 286.732 337.153 292.112C337.006 293.024 337.751 294.19 338.829 293.788V293.788Z" fill="black"/>
    <path d="M348.374 255.686C347.14 250.453 340.338 247.846 335.634 246.993C330.293 246.013 323.169 245.033 318.102 247.434C313.561 249.569 311.365 254.789 313.016 259.527C314.79 265.064 320.66 267.514 326.07 266.995L325.305 261.34C317.871 262.285 311.162 266.274 306.783 272.356C305 274.776 309.086 277.971 310.978 275.59C314.892 270.691 320.6 267.558 326.834 266.887C330.019 266.456 329.294 260.948 326.07 261.233C322.522 261.546 315.878 259.057 318.857 254.216C320.817 251.08 326.805 252.138 329.754 252.383C332.853 252.601 335.927 253.096 338.937 253.863C341.808 254.647 344.013 256.362 346.728 257.362C347.757 257.734 348.629 256.617 348.404 255.686H348.374Z" fill="black"/>
    <path d="M340.897 650.92C318.71 649.313 297.63 640.767 277.618 631.036C244.602 614.993 212.791 594.981 188.919 567.081C165.046 539.18 149.787 502.509 153.403 465.974C156.343 436.506 168.878 406.037 182.029 379.734C191.149 361.507 202.016 344.207 214.477 328.078C225.727 313.525 238.977 295.523 258.175 291.681C261.409 291.034 262.095 281.293 265.114 279.921C272.954 276.295 282.371 277.648 290.133 281.421C297.895 285.194 304.353 291.172 310.713 297.042C314.447 300.511 318.308 304.166 320.003 308.968C321.699 313.77 320.386 320.042 315.819 322.287C322.208 326.893 324.521 335.605 323.659 343.435C322.796 351.265 319.2 358.498 315.819 365.622C296.399 406.635 281.487 449.634 271.346 493.865C276.776 494.022 281.754 496.805 286.576 499.275C326.202 519.822 370.824 528.767 415.308 525.078C419.434 524.735 423.962 524.382 427.313 526.813C430.665 529.243 430.91 535.633 426.931 536.76" fill="#DC3545"/>
    <path d="M340.897 648.96C320.248 646.872 300.844 639.023 282.42 629.83C265.827 621.694 249.821 612.41 234.518 602.047C203.511 580.752 176.345 552.567 163.713 516.484C157.554 499.227 155.438 480.787 157.529 462.583C160.009 441.768 166.986 421.57 175.287 402.431C183.13 384.063 192.527 366.399 203.374 349.629C212.919 335.036 223.493 319.817 236.262 307.822C239.638 304.575 243.388 301.743 247.434 299.384C251.354 297.13 255.568 296.444 259.645 294.749C262.291 293.622 263.428 291.054 264.408 288.506C264.957 287.095 265.28 285.252 266.103 283.978C267.446 281.911 270.494 281.519 272.836 281.274C284.596 280.029 294.935 287.369 303.216 294.739C308.116 299.11 325.119 312.888 314.074 319.464C312.408 320.444 311.664 323.325 313.398 324.688C325.697 334.39 318.974 350.922 313.535 362.437C307.018 376.236 300.874 390.191 295.298 404.401C283.997 433.214 274.826 462.818 267.858 492.973C267.585 494.036 267.813 495.166 268.478 496.039C269.143 496.912 270.171 497.432 271.268 497.452C277.844 497.952 283.606 501.921 289.378 504.772C294.631 507.369 299.982 509.741 305.401 511.956C317.03 516.663 329.014 520.441 341.24 523.255C365.309 528.851 390.632 531.164 415.24 528.498C419.542 528.028 419.738 521.374 415.24 521.638C389.76 522.991 364.584 521.57 339.78 515.484C327.605 512.531 315.688 508.598 304.147 503.724C293.592 499.226 282.95 491.229 271.297 490.367L274.708 494.845C282.156 462.283 292.173 430.362 304.666 399.383C310.713 384.409 318.553 370.052 324.149 354.93C328.471 343.259 328.853 328.392 318.141 319.974L317.465 325.197C324.159 321.189 325.472 312.692 322.257 305.93C318.259 297.551 309.116 290.662 301.932 285.115C294.092 279.01 284.655 274.218 274.433 274.521C270.7 274.639 265.545 275.227 262.566 277.687C260.312 279.559 259.488 282.587 258.518 285.233C258.271 286.089 257.943 286.919 257.538 287.712C257.391 287.967 256.382 289.202 257.303 288.506C255.98 289.486 252.824 289.653 251.198 290.26C247.199 291.738 243.403 293.713 239.898 296.14C232.558 301.246 226.394 307.792 220.739 314.662C192.796 348.3 171.451 386.908 157.823 428.46C151.267 449.04 147.327 470.453 150.111 492.042C155.422 533.281 180.353 569.06 211.978 594.942C230.118 609.789 250.365 621.726 271.484 631.79C293.455 642.257 316.358 651.459 340.897 652.929C343.504 653.086 343.416 649.185 340.897 648.921V648.96Z" fill="black"/>
    <path d="M264.094 513.367C268.828 505.998 271.934 497.873 274.796 489.641C275.972 486.27 270.582 484.79 269.445 488.162C266.76 496.178 263.428 503.92 260.88 512.015C260.263 513.975 263.026 514.955 264.075 513.367H264.094Z" fill="black"/>
    <path d="M262.84 295.317C274.071 297.405 283.792 302.432 293.034 309.037C297.483 312.203 301.854 315.476 306.225 318.749C310.36 321.846 314.329 325.786 318.818 328.304C319.242 328.426 319.696 328.248 319.925 327.87C320.154 327.492 320.102 327.008 319.798 326.687C314.898 323.424 310.978 319.102 305.989 315.907C301.416 312.928 296.843 309.929 292.269 306.911C283.165 300.943 273.885 296.493 263.075 294.69C262.644 294.622 262.458 295.268 262.899 295.347L262.84 295.317Z" fill="black"/>
    <path d="M271.533 296.268C273.414 294.798 274.051 292.779 274.355 290.457C274.923 286.007 275.668 282.617 279.324 279.735C279.794 279.363 279.128 278.697 278.657 279.069C276.677 280.608 275.186 282.688 274.365 285.057C273.169 288.663 274.296 293.112 271.013 295.758C270.641 296.052 271.16 296.552 271.533 296.268V296.268Z" fill="black"/>
    <path d="M285.302 301.56C286.644 299.355 286.919 296.905 287.771 294.504C288.947 291.221 291.515 288.879 294.063 286.664C294.533 286.252 293.847 285.566 293.377 285.978C291.221 287.869 288.967 289.849 287.644 292.446C286.213 295.239 286.262 298.483 284.704 301.266C284.469 301.658 285.076 302.011 285.321 301.619L285.302 301.56Z" fill="black"/>
    <path d="M296.581 309.664C300.853 305.37 303.939 300.042 305.539 294.2C305.584 293.94 305.424 293.689 305.169 293.62C304.915 293.551 304.65 293.688 304.559 293.935C302.895 299.588 300 304.803 296.082 309.204C295.788 309.537 296.258 310.027 296.581 309.704V309.664Z" fill="black"/>
    <path d="M309.733 319.229C309.537 318.788 312.114 315.838 312.428 315.192C313.163 313.435 313.747 311.618 314.172 309.762C314.525 308.528 316.936 303.383 315.152 302.53C315.012 302.449 314.84 302.45 314.7 302.531C314.561 302.612 314.475 302.761 314.475 302.923C314.475 303.084 314.562 303.233 314.702 303.314C315.554 303.882 311.869 314.427 311.174 315.525C310.194 317.044 308.047 317.622 309.067 319.602C309.282 320.023 309.88 319.651 309.694 319.229H309.733Z" fill="black"/>
    <path d="M415.72 530.204C417.19 538.044 425.03 540.366 431.959 541.533C442.806 543.337 453.742 544.567 464.72 545.217C474.912 545.835 485.77 546.746 495.913 545.217C503.587 544.051 510.731 540.219 513.338 532.536C513.573 531.85 512.495 531.556 512.25 532.242C508.898 541.856 498.628 544.237 489.534 544.561C481.282 544.865 472.962 544.561 464.72 544.041C455.776 543.506 446.861 542.598 437.976 541.317C430.136 540.19 418.484 539.553 416.416 530.018C416.308 529.528 415.573 529.733 415.661 530.223L415.72 530.204Z" fill="black"/>
    <path d="M424.628 536.652C427.96 533.497 427.127 529.224 425.804 525.265C424.256 520.649 423.266 519.473 427.255 514.357C428.235 513.142 428.901 513.377 428.823 511.486C428.823 510.888 427.843 510.878 427.843 511.486C427.941 513.446 425.059 513.397 424.207 514.553C423.621 515.31 423.248 516.21 423.129 517.16C422.149 523.501 429.989 530.478 424.109 536.152C423.776 536.466 424.275 536.966 424.609 536.652H424.628Z" fill="black"/>
    <path d="M437.202 541.16C439.309 538.397 439.407 536.035 439.103 532.722C438.975 531.399 439.397 529.782 439.22 528.538C439.083 527.499 438.24 526.284 438.172 525.225C438.084 523.187 439.26 521.09 440.132 519.345C440.426 518.806 439.603 518.365 439.309 518.865C437.692 521.805 437.084 523.942 437.652 527.195C437.907 528.636 437.652 529.939 437.799 531.399C438.162 535.192 439.132 537.279 436.535 540.778C436.261 541.15 436.878 541.493 437.153 541.131L437.202 541.16Z" fill="black"/>
    <path d="M454.293 542.983C455.528 539.308 455.077 536.515 454.244 532.859C453.264 528.498 455.812 525.019 455.175 520.825C455.096 520.276 454.136 520.404 454.195 520.952C454.616 524.235 452.529 526.95 452.676 530.174C452.735 531.723 453.47 533.046 453.842 534.506C454.569 537.236 454.477 540.119 453.577 542.797C453.44 543.247 454.136 543.434 454.283 542.983H454.293Z" fill="black"/>
    <path d="M469.248 543.737C468.689 541.699 470.228 539.347 470.561 537.338C470.884 535.133 470.169 532.438 470.982 530.478C472.041 527.881 472.638 526.46 471.325 523.726C471.061 523.167 470.218 523.657 470.492 524.216C473.324 530.096 469.904 528.361 469.395 531.546C469.316 532.046 469.796 535.976 469.796 535.897C469.738 538.681 467.709 541.229 468.542 543.943C468.596 544.138 468.798 544.252 468.993 544.198C469.188 544.144 469.302 543.942 469.248 543.747V543.737Z" fill="black"/>
    <path d="M484.908 545.453C486.427 542.189 485.427 538.367 486.309 534.869C487.338 531.089 487.338 527.103 486.309 523.324C486.236 523.053 485.958 522.893 485.687 522.966C485.416 523.039 485.256 523.318 485.329 523.589C486.378 528.107 485.966 531.429 484.977 535.937C484.32 538.877 485.437 542.268 484.222 545.051C484.016 545.511 484.692 545.923 484.908 545.453Z" fill="black"/>
    <path d="M499.245 542.659C500.223 540.992 500.524 539.014 500.088 537.132C499.794 535.544 499.049 534.104 498.648 532.555C497.981 529.988 498.461 528.449 498.55 526.019C498.726 521.452 495.325 519.786 491.405 518.522C491.133 518.453 490.855 518.614 490.778 518.884L490.563 520.002C490.435 520.648 491.435 520.923 491.543 520.276C492.042 517.699 497.423 524.637 497.609 525.352C497.854 526.47 497.089 528.89 497.178 530.252C497.462 534.417 500.882 537.906 498.51 542.277C498.256 542.757 498.971 543.179 499.236 542.708L499.245 542.659Z" fill="black"/>
    <path d="M509.976 538.073C511.231 534.761 510.8 531.811 509.878 528.459C509.016 525.333 508.261 521.315 506.556 518.522C503.822 514.053 495.776 511.887 490.876 512.72C490.19 512.838 490.484 513.877 491.17 513.769C494.875 513.181 498.187 514.308 501.431 515.935C504.675 517.562 505.674 519.051 506.919 522.344C508.742 527.117 511.005 532.85 509.153 537.848C508.967 538.347 509.771 538.563 509.947 538.073H509.976Z" fill="black"/>
    <path d="M371.532 252.53C371.737 252.53 371.904 252.364 371.904 252.158C371.904 251.952 371.737 251.786 371.532 251.786C371.326 251.786 371.159 251.952 371.159 252.158C371.159 252.364 371.326 252.53 371.532 252.53V252.53Z" fill="black"/>
    <path d="M376.069 249.404C375.315 231.931 386.967 215.104 402.745 208.107C406.753 206.333 412.29 204.971 416.582 207.127C424.217 210.988 426.157 221.739 427.196 229.344C428.811 240.253 428.864 251.338 427.353 262.262C425.608 273.689 422.247 289.702 408.889 292.397C401.51 293.877 393.337 290.368 388.113 285.194C379.597 276.756 377.275 263.997 376.206 252.54" fill="black"/>
    <path d="M377.882 249.404C378.647 236.093 385.245 223.796 395.914 215.8C400.559 212.291 408.36 207.421 414.407 209.645C420.11 211.733 422.061 219.024 423.148 224.345C425.97 238.225 426.06 252.522 423.413 266.436C421.384 277.001 416.739 291.221 403.284 289.594C385.389 287.428 380.616 267.377 379.166 252.52C378.803 248.767 372.874 248.728 373.286 252.52C374.854 268.612 379.244 286.977 395.826 293.68C410.879 299.766 422.884 290.456 427.509 276.334C433.811 257.146 437.633 187.654 399.844 205.872C383.654 213.712 372.502 231.284 374.246 249.365C374.246 250.366 375.058 251.178 376.059 251.178C377.061 251.178 377.872 250.366 377.872 249.365L377.882 249.404Z" fill="black"/>
    <path d="M416.2 207.127C415.327 206.696 414.396 206.392 413.437 206.226L412.682 206.363C399.325 209.038 395.963 225.071 394.219 236.498C392.708 247.422 392.761 258.506 394.376 269.416C395.414 277.021 397.316 287.771 404.989 291.623C405.859 292.056 406.786 292.363 407.743 292.534L408.507 292.397C421.865 289.722 425.226 273.689 426.97 262.262C428.481 251.337 428.429 240.253 426.814 229.344C425.775 221.739 423.844 210.988 416.2 207.127Z" fill="white"/>
    <path d="M416.925 204.501C411.114 202.119 404.754 205.873 400.902 210.312C396.796 215.045 394.611 221.19 393.19 227.207C389.364 243.639 389.287 260.722 392.964 277.187C394.317 283.126 396.796 289.516 402.069 293.034C407.341 296.552 413.162 294.739 417.856 290.829C428.048 282.332 429.95 265.496 430.596 253.158C431.179 242.98 430.455 232.771 428.44 222.778C426.98 215.663 424.148 208.509 417.543 204.765C414.475 203.031 411.731 207.705 414.789 209.479C421.198 213.105 422.766 221.082 423.815 227.805C425.364 237.394 425.716 247.138 424.863 256.813C424.207 263.781 423.041 271.15 420.375 277.667C418.346 282.636 412.535 291.672 406.145 289.104C399.756 286.536 398.207 276.834 397.325 270.935C395.78 261.346 395.431 251.602 396.287 241.927C396.933 234.959 398.109 227.589 400.765 221.072C402.931 215.771 408.723 206.99 415.465 209.753C418.729 211.086 420.14 205.814 416.925 204.501Z" fill="black"/>
    <path d="M570.736 249.355C571.491 266.828 559.829 283.655 544.061 290.652C540.043 292.426 534.516 293.788 530.223 291.632C522.579 287.781 520.649 277.03 519.61 269.425C517.99 258.516 517.937 247.431 519.453 236.507C521.197 225.08 524.559 209.067 537.916 206.372C545.286 204.892 553.469 208.401 558.682 213.575C567.199 222.003 569.58 234.763 570.56 246.18" fill="black"/>
    <path d="M568.923 249.355C568.148 262.652 561.551 274.932 550.891 282.92C546.246 286.428 538.445 291.299 532.399 289.074C526.695 286.987 524.745 279.696 523.657 274.374C520.832 260.479 520.739 246.166 523.383 232.234C525.411 221.68 530.057 207.46 543.522 209.087C561.417 211.253 566.179 231.303 567.63 246.15C568.002 249.914 573.931 249.953 573.51 246.15C571.942 230.069 567.551 211.703 550.97 204.99C535.917 198.905 523.912 208.215 519.277 222.336C512.985 241.525 509.153 311.017 546.952 292.789C563.141 284.949 574.294 267.377 572.549 249.306C572.549 248.305 571.738 247.493 570.736 247.493C569.735 247.493 568.923 248.305 568.923 249.306V249.355Z" fill="black"/>
    <path d="M409.311 230.941C407.272 233.009 406.753 236.115 406.91 238.938C407.067 241.76 409.174 244.631 412.231 242.858C414.887 241.29 414.426 237.095 414.652 234.459C414.789 232.813 414.75 231.186 413.221 230.167C411.931 229.259 410.17 229.443 409.095 230.598C406.949 232.783 409.752 236.723 412.457 234.949L412.682 234.792L411.271 235.184H411.565L410.163 234.802L410.418 234.969L409.134 233.312C409.507 234.204 409.193 235.782 409.134 236.772C409.059 237.423 409.059 238.081 409.134 238.732C409.01 239.385 409.451 239.532 410.457 239.173C411.584 239.663 411.986 239.565 411.682 238.889C411.672 238.304 411.6 237.723 411.467 237.154C411.447 236.562 411.467 235.969 411.526 235.38C411.633 234.243 411.8 233.116 411.81 231.97C411.793 231.386 411.434 230.867 410.894 230.645C410.354 230.422 409.734 230.538 409.311 230.941V230.941Z" fill="black"/>
    <path d="M409.311 256.862C407.272 258.93 406.753 262.046 406.91 264.859C407.067 267.672 409.174 270.553 412.231 268.779C414.887 267.211 414.426 263.017 414.652 260.371C414.789 258.724 414.75 257.097 413.221 256.088C411.934 255.178 410.172 255.358 409.095 256.509C406.949 258.695 409.752 262.634 412.457 260.861L412.682 260.714L411.271 261.096H411.565L410.163 260.714L410.418 260.89L409.134 259.224C409.507 260.126 409.193 261.703 409.134 262.693C409.059 263.344 409.059 264.002 409.134 264.653C409.007 265.329 409.448 265.476 410.457 265.104C411.584 265.594 411.986 265.496 411.682 264.81C411.672 264.229 411.6 263.651 411.467 263.085C411.447 262.493 411.467 261.901 411.526 261.311C411.633 260.165 411.8 259.048 411.81 257.901C411.797 257.315 411.439 256.793 410.898 256.568C410.358 256.343 409.735 256.459 409.311 256.862V256.862Z" fill="black"/>
    <path d="M519.953 229.589C513.943 228.807 507.882 228.479 501.823 228.609C500.753 228.726 499.848 229.452 499.5 230.471C499.182 231.477 499.062 232.535 499.147 233.587C499.085 234.441 499.269 235.294 499.677 236.047C500.441 237.144 501.98 237.301 503.322 237.35L520.903 238.046H520.962" fill="black"/>
    <path d="M520.159 228.854C514.671 227.344 507.507 226.031 501.823 226.894C498.001 227.501 496.923 231.392 497.54 234.861C498.236 238.781 501.597 238.957 504.92 239.104C507.86 239.242 510.8 239.33 513.74 239.447C516.101 239.536 519.071 240.084 521.413 239.545C522.069 239.338 522.515 238.729 522.515 238.041C522.515 237.353 522.069 236.744 521.413 236.537C516.023 234.841 509.653 236.929 504.145 235.674C500.02 234.694 499.922 231.284 504.322 230.275C505.831 229.932 507.742 230.275 509.281 230.275C512.838 230.333 516.425 230.382 519.982 230.275C520.363 230.272 520.684 229.991 520.735 229.614C520.787 229.237 520.554 228.88 520.188 228.775L520.159 228.854Z" fill="black"/>
    <path d="M519.953 257.322C513.943 256.541 507.882 256.213 501.823 256.342C500.749 256.459 499.842 257.19 499.5 258.214C499.181 259.217 499.061 260.272 499.147 261.321C499.085 262.175 499.269 263.028 499.677 263.781C500.441 264.878 501.98 265.035 503.322 265.094L520.903 265.78H520.962" fill="black"/>
    <path d="M520.159 256.587C514.671 255.078 507.507 253.765 501.823 254.627C498.001 255.225 496.923 259.126 497.54 262.585C498.236 266.505 501.597 266.681 504.92 266.828C507.86 266.966 510.8 267.054 513.74 267.171C516.101 267.269 519.071 267.808 521.413 267.269C522.971 266.917 522.814 264.702 521.413 264.261C516.023 262.565 509.653 264.653 504.145 263.408C500.02 262.428 499.922 259.008 504.322 257.999C505.831 257.656 507.742 257.999 509.281 257.999C512.838 258.057 516.425 258.106 519.982 257.999C520.363 257.997 520.684 257.715 520.735 257.338C520.787 256.961 520.554 256.604 520.188 256.499L520.159 256.587Z" fill="black"/>
    <path d="M371.963 164.605L375.952 103.315L372.62 104.687C387.592 116.393 401.301 129.629 413.525 144.181C414.06 144.699 414.827 144.898 415.546 144.708C416.266 144.517 416.834 143.965 417.043 143.25C425.108 106.883 433.272 70.4658 445.12 35.0878H440.818C451.275 68.7416 463.971 101.658 478.822 133.617C479.577 135.234 481.88 134.93 482.742 133.617L512.446 86.9592L508.31 86.4398C511.433 102.244 514.916 117.979 518.757 133.646C519.218 135.508 521.384 135.724 522.677 134.626C546.455 115.58 568.411 94.363 588.259 71.2498L583.839 69.4172C584.028 94.5836 584.228 119.753 584.437 144.926C584.451 145.919 584.987 146.831 585.848 147.326C586.708 147.821 587.766 147.825 588.631 147.337L642.962 114.713L638.758 111.489C631.914 137.128 622.248 161.93 609.936 185.439C608.809 187.595 610.701 190.751 613.317 189.84C628.897 184.421 644.914 180.352 661.19 177.678L657.78 173.229C642.394 193.698 626.877 214.072 611.23 234.351C609.976 235.978 611.348 238.418 613.072 238.898C625.76 242.407 638.5 245.752 651.292 248.934L650.548 243.25C630.059 259.024 607.899 272.498 584.466 283.43C582.428 284.41 582.692 286.948 583.819 288.33C590.418 296.738 596.739 305.352 602.782 314.172C605.722 318.435 608.555 322.757 611.348 327.108C612.671 329.156 613.994 331.205 615.268 333.272C616.747 335.673 617.923 338.359 614.101 338.172C609.848 337.996 605.33 335.595 601.361 334.252C596.278 332.488 591.196 330.715 586.113 328.931L554.753 317.877C552.097 316.897 550.323 320.121 551.381 322.267C560.889 341.707 568.589 361.98 574.382 382.831L578.763 379.46L507.497 331.724C506.576 331.194 505.443 331.194 504.521 331.722C503.599 332.251 503.027 333.229 503.018 334.292C503.79 349.039 505.304 363.738 507.556 378.333L512.995 376.04C502.386 362.044 490.931 348.711 478.695 336.114C478.039 335.474 477.127 335.168 476.218 335.285C475.309 335.401 474.503 335.927 474.03 336.712C467.362 347.073 461.978 358.206 457.997 369.866H463.72C459.376 356.531 456.5 342.762 455.145 328.804C454.851 325.746 451.431 324.952 449.628 327.314C436.62 344.301 423.008 360.771 408.791 376.726L413.437 377.333C403.637 359.193 413.77 337.075 409.223 317.69C408.946 316.684 408.157 315.9 407.149 315.63C406.141 315.36 405.065 315.644 404.323 316.377C386.986 334.943 367.123 350.977 345.317 364.005L349.648 367.337C353.842 345.003 359.773 323.03 367.386 301.618C367.67 300.596 367.38 299.501 366.629 298.752C365.878 298.003 364.782 297.716 363.76 298.002C340.044 306.535 316.361 315.067 292.71 323.6L296.013 327.912L338.094 254.412C339.211 252.452 337.3 249.247 334.89 250.237L294.612 266.76L297.767 270.866C306.178 253.567 317.074 237.591 330.107 223.444C330.699 222.83 330.98 221.98 330.871 221.134C330.763 220.288 330.276 219.537 329.549 219.093L295.474 198.405L294.817 203.462L331.626 198.16C333.88 197.836 334.017 194.936 332.841 193.544L298.443 152.698L296.483 157.411C314.072 158.87 331.166 163.959 346.689 172.356C348.649 173.434 351.53 171.631 350.736 169.25L338.192 131.912L334.145 135.018C348.858 142.457 362.704 151.499 375.432 161.978V158.058L372.051 162.057C369.787 164.742 373.658 168.642 375.971 165.977L379.352 161.988C380.244 160.939 380.577 159.107 379.352 158.068C366.287 147.263 352.069 137.933 336.957 130.246C334.997 129.266 332.057 130.932 332.91 133.362L345.425 170.72L349.472 167.613C333.091 158.768 315.049 153.428 296.493 151.933C293.886 151.718 293.142 154.991 294.533 156.637L328.921 197.493L330.146 192.868L293.347 198.16C290.858 198.513 290.839 202.08 292.681 203.217L326.736 223.914L326.177 219.563C312.812 234.044 301.618 250.387 292.946 268.083C291.966 270.043 293.632 273.198 296.101 272.189L336.399 255.745L333.184 251.57L290.956 324.972C289.761 327.049 291.779 330.176 294.269 329.274C317.939 320.781 341.596 312.248 365.24 303.676L361.614 300.06C354.002 321.452 348.071 343.405 343.876 365.72C343.416 368.141 345.836 370.454 348.208 369.052C370.451 355.774 390.716 339.434 408.409 320.513L403.509 319.209C408.252 339.437 397.913 361.046 408.321 380.263C408.777 381.062 409.581 381.601 410.493 381.721C411.405 381.84 412.32 381.526 412.966 380.871C427.509 364.538 441.432 347.665 454.734 330.254L449.207 328.755C450.584 343.247 453.541 357.545 458.027 371.394C458.419 372.645 459.577 373.496 460.888 373.496C462.199 373.496 463.358 372.645 463.75 371.394C467.597 360.233 472.78 349.579 479.185 339.662L474.53 340.26C486.411 352.497 497.535 365.447 507.84 379.038C508.248 380.008 509.142 380.687 510.186 380.818C511.23 380.95 512.265 380.515 512.901 379.677C513.537 378.839 513.677 377.725 513.269 376.755C511.115 362.682 509.672 348.51 508.947 334.292L504.469 336.859L575.734 384.605C577.949 386.085 580.791 383.625 580.115 381.243C574.172 359.9 566.272 339.15 556.517 319.258L553.136 323.6C566.277 328.235 579.439 332.822 592.561 337.506C598.441 339.593 604.321 342.249 610.319 343.749C613.798 344.621 617.992 344.885 620.912 342.435C624.048 339.799 623.647 335.575 621.951 332.224C619.011 326.393 614.934 320.905 611.299 315.476C604.027 304.624 596.344 294.079 588.249 283.841L587.612 288.8C611.031 277.865 633.178 264.391 653.654 248.62C655.614 247.101 655.761 243.642 652.909 242.926C640.124 239.758 627.384 236.426 614.689 232.93L616.542 237.477C632.163 217.185 647.657 196.794 663.023 176.306C664.807 173.924 661.867 171.406 659.573 171.817C643.297 174.511 627.285 178.617 611.72 184.087L615.101 188.497C627.561 164.49 637.342 139.184 644.266 113.037C644.501 111.93 644.08 110.786 643.183 110.095C642.285 109.405 641.072 109.291 640.062 109.803L585.809 142.545L590.003 144.956C589.709 119.789 589.383 94.6195 589.023 69.4466C589.023 67.3494 586.083 65.8402 584.613 67.614C564.898 90.8359 543.053 112.162 519.365 131.314L523.285 132.353C519.365 116.719 515.827 100.999 512.671 85.1952C512.279 83.1764 509.516 83.1176 508.536 84.6562L478.783 131.324H482.703C468.015 99.7284 455.459 67.1849 445.12 33.9118C444.826 32.9713 443.954 32.3311 442.969 32.3311C441.983 32.3311 441.112 32.9713 440.818 33.9118C429.058 69.2996 420.992 105.736 413.025 142.133L416.533 141.153C404.24 126.433 390.298 113.172 374.981 101.63C373.727 100.65 372.1 101.983 372.041 103.315L369.523 164.605C369.464 166.173 371.855 166.153 371.953 164.605H371.963Z" fill="#DC3545"/>
    <path d="M442.503 134.881C438.828 144.309 435.496 153.825 431.116 162.968C430.696 163.768 430.718 164.727 431.175 165.507C431.631 166.286 432.457 166.775 433.36 166.8C438.813 167.041 444.267 166.321 449.471 164.673L445.963 161.165C444.522 169.985 443.16 178.717 441.798 187.507C441.484 189.467 443.023 191.711 445.296 191.006C449.241 189.835 452.955 187.992 456.272 185.557L453.225 183.813C453.773 188.909 453.029 194.112 452.117 199.14C451.774 201.041 454.567 201.884 455.057 199.943C456.429 194.573 456.723 189.301 457.262 183.813C457.429 182.117 455.459 181.51 454.214 182.058C450.87 183.583 447.371 184.743 443.777 185.518L447.276 189.016C448.687 180.196 450.108 171.465 451.451 162.684C451.755 160.655 450.226 158.489 447.942 159.175C443.178 160.498 438.292 161.342 433.36 161.694L435.839 164.948C439.505 155.363 443.229 145.73 445.571 135.714C445.744 134.897 445.25 134.086 444.444 133.866C443.639 133.645 442.801 134.09 442.533 134.881H442.503Z" fill="white"/>
    <path d="M464.495 270.788C457.723 275.316 452.382 282.038 447.364 288.359C446.316 289.682 446.845 292.074 448.864 291.985C454.995 291.538 461.06 290.43 466.954 288.683L464.152 285.88C460.611 294.301 457.096 302.733 453.607 311.174C452.96 312.732 454.871 314.516 456.39 313.957C461.971 311.961 466.959 308.59 470.894 304.157L467.415 302.138C466.063 310.958 464.348 319.719 462.976 328.539C462.623 330.823 466.053 331.871 466.523 329.519C468.268 320.778 469.669 311.977 471.423 303.246C471.815 301.286 469.463 299.649 467.944 301.217C464.385 304.939 460.03 307.807 455.204 309.606L457.987 312.389C461.528 303.961 465.053 295.533 468.562 287.105C469.257 285.439 467.278 283.881 465.759 284.302C459.987 285.89 454.185 286.733 448.315 287.82L450.716 290.947C455.204 284.263 460.908 278.883 466.014 272.748C466.856 271.768 465.769 269.965 464.514 270.788H464.495Z" fill="white"/>
    <path d="M495.414 300.913L495.531 300.442C495.646 300.02 495.527 299.567 495.218 299.257C494.986 299.033 494.677 298.907 494.355 298.904C494.036 298.908 493.731 299.034 493.503 299.257C493.193 299.567 493.074 300.02 493.189 300.442L493.297 300.913L493.414 301.177C493.476 301.302 493.571 301.407 493.689 301.481C493.877 301.634 494.113 301.717 494.355 301.716C494.55 301.707 494.74 301.657 494.914 301.569C495.16 301.424 495.339 301.188 495.414 300.913V300.913Z" fill="white"/>
    <path d="M429.44 308.508C430.149 308.508 430.724 307.933 430.724 307.224C430.724 306.515 430.149 305.94 429.44 305.94C428.731 305.94 428.156 306.515 428.156 307.224C428.156 307.933 428.731 308.508 429.44 308.508V308.508Z" fill="white"/>
    <path d="M429.959 184.352L430.547 183.989C430.889 183.787 431.119 183.438 431.171 183.044C431.223 182.65 431.09 182.254 430.812 181.971C430.569 181.73 430.242 181.593 429.901 181.588C429.446 181.595 429.027 181.836 428.793 182.225L428.431 182.823L428.313 183.088C428.274 183.232 428.274 183.384 428.313 183.529C428.338 183.773 428.445 184.001 428.617 184.176C428.762 184.304 428.932 184.4 429.117 184.46C429.407 184.538 429.717 184.5 429.979 184.352H429.959Z" fill="white"/>
    <path d="M476.088 172.298C476.924 172.232 477.57 171.535 477.57 170.696C477.57 169.857 476.924 169.159 476.088 169.093C475.252 169.159 474.606 169.857 474.606 170.696C474.606 171.535 475.252 172.232 476.088 172.298V172.298Z" fill="white"/>
    <path d="M494.894 207.264C501.9 198.345 508.015 188.76 513.152 178.648L509.408 177.668C509.545 183.96 509.496 190.251 509.192 196.543C509.104 198.503 511.544 199.228 512.838 198.052C522.893 188.909 532.507 179.364 541.807 169.456C543.512 167.643 540.827 164.938 539.073 166.722C529.599 176.437 519.848 185.874 509.82 195.034L513.465 196.543C513.74 190.242 513.749 183.97 513.465 177.668C513.377 175.826 510.643 174.728 509.722 176.688C504.777 186.736 499.056 196.382 492.611 205.539C491.631 206.902 493.875 208.646 494.933 207.333L494.894 207.264Z" fill="white"/>
    <path d="M507.556 215.604C508.208 215.546 508.709 215 508.709 214.345C508.709 213.69 508.208 213.143 507.556 213.085C506.903 213.143 506.403 213.69 506.403 214.345C506.403 215 506.903 215.546 507.556 215.604V215.604Z" fill="white"/>
    <path d="M482.683 227.834C483.362 227.776 483.883 227.207 483.883 226.526C483.883 225.845 483.362 225.277 482.683 225.218C482.005 225.277 481.484 225.845 481.484 226.526C481.484 227.207 482.005 227.776 482.683 227.834V227.834Z" fill="white"/>
    <path d="M457.605 235.008L457.693 234.528C457.762 234.274 457.762 234.007 457.693 233.754C457.524 233.12 456.948 232.681 456.292 232.686C455.925 232.701 455.576 232.851 455.312 233.107C455.137 233.289 455.009 233.511 454.94 233.754C454.871 234.007 454.871 234.274 454.94 234.528L455.028 235.008L455.165 235.332C455.25 235.485 455.371 235.616 455.518 235.714C455.606 235.793 455.709 235.853 455.822 235.89C455.983 235.969 456.161 236.01 456.341 236.008C456.58 235.996 456.814 235.932 457.027 235.822C457.322 235.629 457.543 235.342 457.654 235.008H457.605Z" fill="white"/>
    <path d="M478.626 203.883C479.297 203.883 479.841 203.339 479.841 202.668C479.841 201.997 479.297 201.453 478.626 201.453C477.955 201.453 477.411 201.997 477.411 202.668C477.411 203.339 477.955 203.883 478.626 203.883V203.883Z" fill="white"/>
    <path d="M472.56 253.305C473.291 253.244 473.854 252.632 473.854 251.898C473.854 251.165 473.291 250.553 472.56 250.492C471.829 250.553 471.266 251.165 471.266 251.898C471.266 252.632 471.829 253.244 472.56 253.305Z" fill="white"/>
    <path d="M514.2 310.772C514.543 307.254 514.582 303.706 514.798 300.168L511.721 301.001C516.572 307.695 521.462 314.261 525.862 321.268C526.842 322.904 528.998 322.062 529.214 320.356C529.429 318.651 529.39 315.907 530.086 314.28C531.066 312.007 530.086 312.693 531.772 315.064C533.732 317.946 535.692 320.856 537.887 323.59C539.063 325.051 541.336 323.179 540.435 321.63C538.298 317.946 535.79 314.467 533.379 310.958C532.164 309.204 531.517 308.018 529.312 307.783C528.656 307.773 528.047 308.123 527.724 308.694C526.048 312.075 526.068 316.623 525.617 320.366L528.969 319.455C524.558 312.313 519.663 305.483 514.318 299.012C513.841 298.552 513.137 298.418 512.525 298.671C511.913 298.924 511.508 299.516 511.495 300.178C511.701 303.716 511.731 307.264 512.064 310.782C512.064 311.372 512.542 311.85 513.132 311.85C513.722 311.85 514.2 311.372 514.2 310.782V310.772Z" fill="white"/>
    <path d="M384.174 186.4C388.311 189.856 392.134 193.67 395.601 197.797C395.963 198.186 396.507 198.348 397.022 198.219C397.538 198.091 397.943 197.693 398.08 197.18C398.911 193.035 399.455 188.837 399.707 184.616L396.767 185.812C399.526 188.037 402.031 190.562 404.234 193.338C405.665 195.142 408.154 192.594 406.763 190.8C404.465 187.911 401.796 185.337 398.825 183.146C397.747 182.343 396.296 183.44 396.277 184.616C396.196 188.556 395.846 192.485 395.228 196.376L397.668 195.739C394.04 191.748 390.069 188.082 385.801 184.783C384.664 183.901 383.037 185.44 384.184 186.4H384.174Z" fill="white"/>
    <path d="M416.484 303.206C417.176 302.935 417.932 302.87 418.66 303.02L418.013 300.658C414.131 302.653 410.524 305.144 407.282 308.067C406.959 308.389 406.777 308.826 406.777 309.282C406.777 309.738 406.959 310.176 407.282 310.498C408.508 311.642 410.034 312.414 411.682 312.722L410.585 310.017C409.968 311.504 408.95 312.79 407.645 313.732C405.763 315.094 407.419 318.142 409.497 316.907C411.583 315.663 413.167 313.728 413.976 311.438C414.456 310.194 413.26 309.243 412.202 309.106C411.291 309.024 410.428 308.661 409.732 308.067V310.498C412.638 307.602 415.855 305.039 419.326 302.854C419.805 302.554 420.032 301.977 419.886 301.432C419.739 300.887 419.254 300.501 418.689 300.482C417.636 300.518 416.602 300.771 415.651 301.227C414.515 301.736 415.328 303.569 416.494 303.187L416.484 303.206Z" fill="white"/>
    <path d="M557.82 306.381H558.33C558.65 306.377 558.956 306.246 559.182 306.019C559.412 305.794 559.542 305.487 559.545 305.166C559.542 304.842 559.411 304.532 559.182 304.304C558.959 304.074 558.65 303.946 558.33 303.951H557.82C557.505 303.961 557.205 304.087 556.977 304.304C556.754 304.528 556.628 304.83 556.624 305.146C556.63 305.462 556.756 305.764 556.977 305.989C557.205 306.205 557.506 306.327 557.82 306.332V306.381Z" fill="white"/>
    <path d="M334.38 652.694C334.458 679.644 339.427 705.761 347.61 731.368C349.668 737.797 351.697 744.402 351.844 751.204C351.963 754.713 351.421 758.214 350.246 761.523C349.599 763.258 348.159 765.276 348.286 767.217C348.414 769.157 349.541 769.177 350.129 770.568C351.893 774.841 349.472 777.928 348.022 781.574C346.174 786.352 345.792 791.572 346.924 796.568C347.071 797.264 348.12 796.97 347.982 796.284C347.17 792.518 347.227 788.617 348.149 784.876C348.982 781.554 350.952 779.085 352.177 776.056C352.747 774.939 352.924 773.661 352.677 772.43C352.01 769.863 349.198 769.441 349.541 766.002C349.795 763.405 351.814 760.543 352.334 757.897C352.798 755.433 352.966 752.923 352.833 750.42C352.588 744.677 351.03 739.061 349.345 733.603C341.113 706.996 335.625 680.683 335.046 652.733C335.018 652.563 334.871 652.439 334.698 652.439C334.526 652.439 334.379 652.563 334.351 652.733L334.38 652.694Z" fill="black"/>
    <path d="M377.245 833.2C374.885 843.569 371.371 853.64 366.769 863.227C362.849 871.341 357.655 879.573 348.874 882.964L350.834 884.473L352.745 881.671L350.726 880.132C347.69 905.944 350.675 932.108 359.448 956.572C360.046 958.267 362.741 957.552 362.153 955.827C353.919 931.488 351.11 905.642 353.921 880.103C353.917 879.604 353.682 879.136 353.285 878.834C352.888 878.533 352.374 878.433 351.893 878.564C349.219 879.195 347.428 881.711 347.708 884.444C347.708 885.355 348.688 886.345 349.668 885.943C358.272 882.504 363.77 875.232 367.867 867.186C373.145 856.595 377.054 845.376 379.499 833.798C379.832 832.308 377.539 831.671 377.206 833.17L377.245 833.2Z" fill="white"/>
    <path d="M365.446 966.647C366.079 966.647 366.593 966.133 366.593 965.5C366.593 964.867 366.079 964.354 365.446 964.354C364.813 964.354 364.299 964.867 364.299 965.5C364.299 966.133 364.813 966.647 365.446 966.647Z" fill="white"/>
    <path d="M498.461 904.906C490.269 910.512 488.299 920.204 488.309 929.593C488.309 940.01 490.21 953.779 497.325 961.874C499.285 964.118 502.558 961.697 502.009 959.149C501.029 954.739 498.834 950.672 497.54 946.331C496.159 941.712 495.211 936.975 494.708 932.18C493.865 923.713 494.12 913.824 500.225 907.229C501.303 906.073 499.892 903.966 498.461 904.936V904.906Z" fill="black"/>
    <path d="M440.151 450.785C441.494 451.128 444.209 448.413 444.493 447.061C444.65 445.68 444.434 444.282 443.866 443.013L439.054 429.117C438.665 428.183 438.446 427.187 438.407 426.177C438.598 424.638 439.131 423.162 439.965 421.855C444.023 413.532 443.481 403.702 438.534 395.875C445.991 394.795 453.127 392.121 459.457 388.035C460.826 387.299 461.952 386.182 462.701 384.821C463.338 383.41 462.985 381.45 461.584 380.783C470.277 377.52 479.948 378.107 488.181 382.4C488.853 382.884 489.682 383.098 490.504 382.998C491.405 382.743 491.876 381.783 492.238 380.911C494.424 375.648 496.433 369.053 492.728 364.711C490.141 361.663 485.712 361.075 481.713 360.948C464.514 360.389 447.531 364.388 430.753 368.386C427.088 369.258 423.315 370.189 420.316 372.463C417.317 374.737 415.279 378.735 416.455 382.312C401.653 391.163 391.665 406.251 389.299 423.335C388.213 430.922 388.996 438.66 391.583 445.875C393.817 451.814 402.451 454.264 406.018 459.516C409.332 464.289 413.164 468.68 417.445 472.609C421.139 476.069 424.55 479.655 426.657 484.31C428.764 488.965 432.537 488.466 434.311 483.683C436.084 478.901 434.712 473.619 435.046 468.63C435.095 468.003 433.83 472.06 433.438 471.57C432.907 471.106 432.232 470.839 431.527 470.816C427.46 470.081 424.256 466.592 423.031 462.643C421.806 458.693 422.286 454.401 423.491 450.442C424.697 446.482 427.235 442.072 431.41 441.2C435.232 440.397 438.995 442.778 441.788 445.502" fill="black"/>
    <path d="M440.151 452.627C443.399 452.536 446.164 450.237 446.845 447.06C447.825 441.053 442.866 434.154 441.563 428.44C440.71 424.716 443.17 421.865 444.209 418.386C444.989 415.735 445.378 412.985 445.365 410.222C445.335 404.679 443.772 399.252 440.847 394.542L439.25 398.462C444.552 397.6 475.167 388.613 463.466 378.862L462.29 383.302C469.788 380.528 478.069 380.764 485.398 383.958C489.73 385.859 492.542 386.408 494.806 381.596C497.07 376.785 498.628 370.63 496.433 365.681C494.238 360.732 489.396 358.939 484.418 358.429C469.395 356.881 453.636 360.321 439.064 363.633C429.136 365.897 410.722 368.533 413.858 383.017L415.112 379.921C403.198 387.113 394.121 398.186 389.407 411.281C386.798 418.493 385.72 426.169 386.242 433.821C386.741 440.328 387.947 447.678 392.984 452.274C394.944 454.087 397.316 455.469 399.472 457.076C402.706 459.487 404.636 462.574 407.116 465.69C412.261 472.168 419.268 477.156 423.354 484.428C425.677 488.544 429.636 492.944 434.448 488.848C440.024 484.104 437.78 474.814 437.937 468.552C437.933 467.271 437.081 466.148 435.849 465.798H435.79C434.663 465.612 433.095 465.886 432.566 467.101C432.137 467.894 431.789 468.728 431.527 469.591L434.036 468.522C433.498 468.249 432.913 468.079 432.311 468.023C430.469 467.043 429.244 467.141 427.745 465.386C426.122 463.356 425.244 460.831 425.255 458.232C425.091 454.31 426.116 450.429 428.195 447.1C431.547 442.347 435.947 444.16 439.661 447.59C442.552 450.265 446.904 445.914 443.983 443.268C439.544 439.24 433.419 436.016 427.627 439.446C422.031 442.758 419.787 450.383 419.513 456.468C419.219 462.936 422.061 469.718 428.195 472.55C433.095 474.804 435.281 474.922 437.486 469.983L434.262 471.296H434.34L432.233 468.64C432.096 472.001 432.576 475.392 432.331 478.744C432.243 479.949 432.076 483.536 430.734 483.908C429.391 484.281 429.352 482.556 428.695 481.4C426 476.666 422.227 473.06 418.337 469.316C413.976 465.132 410.791 460.036 406.577 455.763C403.313 452.431 398.413 450.716 395.542 447.021C391.69 442.062 391.416 433.762 391.69 427.754C391.987 421.802 393.314 415.947 395.61 410.448C400.094 399.728 407.871 390.712 417.817 384.703C418.871 384.059 419.383 382.804 419.081 381.606C417.533 374.54 426.422 372.277 431.459 371.032C436.496 369.787 441.641 368.602 446.766 367.514C457.929 365.142 469.306 363.349 480.733 363.594C485.8 363.721 492.091 364.633 492.062 371.042C491.924 373.491 491.364 375.898 490.406 378.157C489.259 381.224 489.426 379.95 486.535 378.745C478.327 375.385 469.165 375.186 460.82 378.186C459.114 378.784 457.997 381.244 459.653 382.625C462.094 384.664 448.981 390.328 448.638 390.465C445.116 391.762 441.471 392.698 437.76 393.258C436.026 393.533 435.33 395.846 436.153 397.178C438.586 401.063 439.886 405.55 439.906 410.134C439.906 415.103 437.946 418.67 436.359 423.197C435.046 427.049 436.721 430.41 438.025 434.075C439.005 436.731 444.767 447.942 439.603 448.932C437.505 449.344 438.084 452.499 440.093 452.558L440.151 452.627Z" fill="black"/>
    <path d="M482.752 543.12C480.527 549.362 482.409 555.37 483.84 561.573C485.8 570.227 486.015 579.399 486.78 588.229C488.269 605.154 489.837 622.078 491.17 639.023C493.883 673.196 493.68 707.539 490.563 741.678C488.769 761.278 486.309 780.878 483.859 800.478C483.859 800.821 484.183 801.095 484.487 801.105L487.583 806.083C487.231 806.808 488.318 807.445 488.671 806.72C489.32 805.603 489.456 804.26 489.044 803.035C488.776 802.29 488.336 801.618 487.76 801.075C487.652 800.977 485.565 799.948 485.555 799.919C484.702 798.557 485.78 795.156 485.947 793.794C486.231 791.55 486.505 789.296 486.78 787.052C487.368 782.24 487.956 777.418 488.514 772.606C490.729 753.663 492.65 734.68 493.689 715.639C495.727 678.311 492.581 641.365 489.298 604.203C488.387 593.903 487.525 583.623 486.554 573.294C486.22 569.004 485.565 564.746 484.594 560.554C483.183 554.801 481.517 549.196 483.536 543.365C483.703 542.885 482.938 542.679 482.772 543.159L482.752 543.12Z" fill="black"/>
    </svg>
    