<svg width="1000" height="1000" viewBox="0 0 1000 1000" fill="none" xmlns="http://www.w3.org/2000/svg">
    <path d="M168.76 522.658C176.757 494.747 161.9 466.092 150.326 439.485C138.752 412.878 130.903 379.137 149.709 357.018C171.328 331.538 213.938 336.369 232.705 309.155C244.916 291.446 240.908 267.691 244.465 246.484C250.668 209.871 286.703 178.57 323.394 184.322C348.394 188.242 369.542 208.352 395.561 207.245C422.413 206.108 437.966 182.745 455.41 165.526C470.737 150.424 490.151 138.899 511.407 135.577C565.895 127.081 577.606 171.837 610.554 201.894C627.478 217.329 646.814 215.016 667.747 215.869C729.879 218.397 785.905 274.482 772.234 339.496C768.373 357.841 759.406 376.236 763.757 394.464C768.05 412.427 783.974 424.726 795.734 438.966C832.22 483.105 825.36 552.704 784.2 591.248C770.99 603.596 753.879 614.013 749.008 631.428C745.666 643.384 749.008 656.065 752.056 668.09C759.974 699.185 764.972 731.848 750.233 761.758C726.086 810.758 675.018 808.798 628.537 800.84C560.084 789.08 528.979 849.762 468.287 863.56C453.078 867.02 436.329 866.05 423.011 857.935C401.147 844.617 394.229 817.246 374.178 802.134C347.189 781.799 316.23 799.194 286.389 792.334C258.695 785.915 235.38 761.111 232.676 732.495C231.157 716.374 235.351 700.155 233.93 683.995C231.147 652.527 207.98 627.155 186.057 604.429" fill="#DC3545"/>
    <path d="M169.191 522.785C180.657 480.557 146.191 443.826 140.144 403.666C137.204 384.399 140.83 364.319 156.579 351.442C169.613 340.77 186.635 337.016 202.051 331.166C216.104 325.844 229.657 318.239 236.566 304.245C245.484 286.233 241.986 265.251 245.474 246.043C252.109 209.44 289.3 177.286 327.52 186.106C346.14 190.398 361.928 202.286 380.499 206.686C397.071 210.606 412.741 206.461 426.049 196.122C440.24 185.087 450.637 170.044 464.524 158.666C481.184 145.024 501.764 135.803 523.52 135.577C539.416 135.42 553.557 141.34 565.209 152.022C575.842 161.822 584.162 173.768 593.296 184.871C603.772 197.611 615.091 210.175 631.702 214.271C649.489 218.662 668.178 215.457 686.112 219.338C720.118 226.698 750.88 250.061 765.07 282.058C772.412 298.64 774.761 317.003 771.832 334.899C768.481 355.058 757.132 375.422 762.924 396.208C767.893 414.113 783.504 426.039 794.853 439.818C806.289 453.917 813.828 470.768 816.716 488.691C822.596 523.971 811.464 561.985 786.238 587.514C774.047 599.862 757.328 609.182 749.88 625.518C741.168 644.619 750.988 666.345 754.78 685.455C759.259 707.829 760.66 731.447 752.624 753.203C746.166 770.705 734.22 785.993 717.56 794.617C702.929 802.183 686.151 804.319 669.863 804.123C652.978 803.918 636.72 800.154 620.001 798.665C587.994 795.823 560.985 810.836 535.329 828.065C507.536 846.744 473.638 871.185 438.093 862.855C399.227 853.78 395.473 802.457 356.94 792.687C337.898 787.865 318.279 793.716 299.012 792.863C279.097 791.852 260.573 782.346 248.14 766.756C242.034 759.274 237.63 750.553 235.233 741.198C232.372 729.751 233.509 717.981 234.459 706.368C235.341 695.667 235.821 685.004 233.479 674.44C231.357 665.273 227.844 656.485 223.062 648.382C213.409 631.624 199.973 617.59 186.655 603.753C185.812 602.871 184.479 604.203 185.322 605.085C200.022 620.373 215.016 636.445 224.522 655.673C229.572 665.638 232.473 676.552 233.038 687.709C233.538 700.194 231.176 712.562 231.215 725.037C231.333 761.366 261.086 792.726 297.385 794.98C317.965 796.264 339.182 789.276 359.311 795.666C379.44 802.056 389.456 820.852 400.853 837.022C411.408 852.016 424.491 863.541 443.297 866.001C461.035 868.323 478.842 862.894 494.718 855.338C523.824 841.471 547.638 817.971 578.018 806.593C594.678 800.35 612.004 799.135 629.507 802.075C645.736 804.8 662.229 806.858 678.723 806.103C694.05 805.407 709.544 802.183 722.823 794.137C737.18 785.464 747.607 771.734 753.869 756.309C762.209 735.788 761.983 713.297 758.367 691.766C756.515 680.722 753.467 670.001 751.027 659.093C748.263 646.882 747.293 634.27 753.849 623.049C763.375 606.761 781.407 597.432 793.471 583.231C804.332 570.273 812.208 555.083 816.54 538.739C825.478 505.625 820.049 468.532 798.949 441.033C787.071 425.52 768.52 412.721 764.6 392.416C760.327 370.346 773.636 348.717 775.272 326.903C777.82 293.024 761.268 260.664 734.916 239.908C721.665 229.458 706.336 221.958 689.953 217.907C681.644 215.936 673.149 214.851 664.611 214.673C654.526 214.399 644.295 214.742 634.368 212.713C615.503 208.793 603.263 194.015 591.767 179.697C582.663 168.358 574.019 156.245 562.593 147.063C534.996 124.876 496.697 132.941 469.738 152.198C454.381 163.184 443.356 178.423 429.332 190.849C422.266 197.102 414.24 202.462 405.018 204.883C394.885 207.539 384.438 206.245 374.638 202.991C356.42 196.964 340.133 185.097 320.68 183.019C303.559 181.186 286.527 187.39 273.14 197.866C259.611 208.402 249.796 222.979 245.122 239.477C239.761 259.077 244.063 280.255 236.811 299.394C223.454 334.674 177.58 329.578 153.07 352.314C123.376 379.901 142.81 423.903 156.187 454.361C165.546 475.745 174.64 499.02 168.29 522.54C168.245 522.779 168.39 523.013 168.624 523.079C168.858 523.145 169.104 523.022 169.191 522.795V522.785Z" fill="#DC3545"/>
    <path d="M364.221 545.962C374.953 540.153 386.49 535.975 398.452 533.565C400.628 533.124 398.972 529.959 400.951 530.968C403.94 532.477 408.282 545.766 408.644 549.098C413.868 597.402 403.617 640.669 379.029 682.574C354.127 724.753 316.418 757.886 271.385 777.154C269.082 778.134 266.681 779.114 264.182 778.986C261.086 778.869 258.302 777.144 255.823 775.253C240.868 763.816 232.813 744.873 232.038 726.017C231.264 707.162 237.125 688.611 245.886 671.951" fill="#010101"/>
    <path d="M365.132 547.52C372.972 544.139 380.812 540.895 389.054 538.7C392.416 537.818 396.894 537.652 399.952 536.113C400.695 535.793 401.34 535.282 401.824 534.633C402.029 534.349 403.294 531.958 402.343 532.869L399.403 533.643C401.892 534.3 403.764 542.738 404.411 544.894C406.077 550.441 406.194 556.291 406.459 562.054C407.16 576.497 406.356 590.975 404.058 605.252C399.403 633.525 388.515 660.406 373.531 684.74C352.542 718.712 322.937 746.525 287.722 765.355C281.682 768.725 275.433 771.707 269.014 774.282C261.556 777.124 255.804 771.274 251.07 766.031C227.648 740.12 234.234 702.076 248.924 673.725C251.031 669.667 244.886 666.061 242.779 670.128C227.158 700.283 220.769 738.728 243.044 767.452C247.327 772.989 253.344 779.555 260.214 781.799C267.701 784.239 275.776 779.202 282.332 776.056C297.148 768.922 311.16 760.226 324.129 750.116C377.804 708.456 413.388 642.472 413.201 573.951C413.201 565.072 413.201 555.458 411.33 546.756C410.163 541.395 408.066 534.663 404.568 530.341C403.254 528.724 401.255 527.166 399.05 528.028C397.806 528.508 397.806 529.488 397.002 530.282C395.875 531.38 393.592 531.595 391.72 532.124C381.822 534.927 371.963 538.798 363.3 544.374C361.34 545.668 363.035 548.402 365.123 547.501L365.132 547.52Z" fill="black"/>
    <path d="M170.553 523.157C182.313 480.449 148.131 443.709 142.339 403.058C139.723 384.644 143.231 365.417 158.333 353.196C171.073 342.896 187.733 339.29 202.737 333.596C217.437 328.059 231.588 320.121 238.83 305.529C247.924 287.213 244.504 266.241 248.091 246.729C254.51 211.743 289.986 180.393 326.746 188.909C345.366 193.201 361.154 205.089 379.725 209.489C397.365 213.644 414.025 209.214 428.127 198.17C442.229 187.125 452.686 172.072 466.602 160.714C482.625 147.641 502.626 138.821 523.52 138.654C538.592 138.537 551.94 144.064 562.994 154.217C573.627 164.017 581.938 175.973 591.062 187.086C601.92 200.257 613.68 213.085 630.859 217.339C648.646 221.739 667.306 218.603 685.22 222.572C718.246 229.883 748.214 252.697 761.876 283.959C768.746 299.664 770.944 317.017 768.206 333.939C764.718 354.891 753.271 375.618 759.269 397.247C764.443 415.867 780.388 428.186 792.187 442.523C803.29 456.018 810.209 472.56 813.081 489.73C818.745 523.638 807.896 560.437 783.681 585.025C771.284 597.637 754.418 607.143 746.813 623.784C737.562 644.011 747.323 666.139 751.409 686.425C755.8 708.211 757.23 731.143 749.4 752.35C743.226 769.01 731.76 783.573 715.855 791.834C701.753 799.165 685.475 801.125 669.795 800.938C652.9 800.742 636.661 797.018 619.932 795.509C587.406 792.638 559.77 807.867 533.692 825.36C506.762 843.431 473.403 867.823 438.907 859.738C419.493 855.181 409.007 839.443 398.55 823.91C388.28 808.641 376.412 794.274 357.763 789.551C338.369 784.651 318.563 790.482 298.963 789.61C279.921 788.767 262.33 779.241 250.453 764.443C244.723 757.372 240.591 749.144 238.34 740.325C235.557 729.193 236.762 717.668 237.683 706.368C238.585 695.363 238.987 684.436 236.605 673.568C234.398 664.131 230.762 655.086 225.825 646.745C215.967 629.615 202.188 615.856 188.585 601.744C185.214 598.245 179.883 603.586 183.244 607.085C197.69 622.088 212.341 638.513 221.602 657.319C226.386 666.771 229.137 677.12 229.677 687.699C230.177 700.185 227.815 712.552 227.854 725.028C227.972 763.248 259.214 795.872 297.287 798.243C317.504 799.508 338.555 792.53 358.341 798.822C377.52 804.907 387.094 823.322 397.913 838.668C409.174 854.662 423.139 866.745 443.199 869.244C461.535 871.528 479.841 865.922 496.237 858.082C525.059 844.362 548.647 820.842 578.743 809.611C594.648 803.692 611.848 802.139 628.556 805.113C645.06 807.896 661.876 810.013 678.615 809.288C694.589 808.582 710.7 805.201 724.42 796.94C739.561 787.836 750.449 773.42 757.054 757.211C765.649 736.111 765.355 712.993 761.689 690.845C759.857 679.801 756.838 669.079 754.369 658.172C751.821 646.892 750.782 635.201 756.848 624.852C766.188 608.868 784.102 599.705 795.97 585.789C807.308 572.395 815.559 556.67 820.137 539.729C829.407 505.674 823.861 467.464 802.242 439.122C790.658 423.942 772.058 411.202 768.265 391.416C766.119 380.224 769.529 368.729 772.558 358.037C775.498 347.777 778.251 337.585 779.045 326.903C781.603 292.24 764.6 258.567 737.493 237.36C723.759 226.542 707.861 218.802 690.875 214.663C682.269 212.656 673.475 211.566 664.64 211.41C654.84 211.194 644.883 211.596 635.24 209.606C616.953 205.824 605.183 191.31 594.08 177.443C584.956 166.104 576.313 154.001 564.886 144.828C536.162 121.749 496.541 129.364 468.326 149.621C452.764 160.793 441.563 176.149 427.343 188.742C420.659 194.671 413.045 199.738 404.323 202.031C394.679 204.559 384.791 203.236 375.452 200.149C356.93 194.024 340.525 182.157 320.719 180.079C303.245 178.237 285.811 184.528 272.072 195.132C257.778 206.092 247.416 221.384 242.534 238.722C237.223 258.322 241.554 279.559 234.322 298.669C227.717 316.113 210.802 323.669 194.426 329.441C179.364 334.733 163.321 339.417 151.355 350.56C120.74 379.078 140.516 423.972 154.501 455.42C163.84 476.382 173.121 498.971 166.986 522.197C166.369 524.539 169.975 525.529 170.612 523.177L170.553 523.157Z" fill="black"/>
    <path d="M194.103 529.224L92.0555 553.547C78.7863 556.713 64.9389 560.162 54.7273 568.982C39.4393 582.193 36.1073 603.909 35.0097 623.764C33.4221 653.164 34.9313 683.632 48.1711 710.073C61.4109 736.513 88.7137 758.005 118.966 757.368C129.952 757.142 140.654 754.094 151.169 750.978C186.057 740.61 220.543 729.075 254.628 716.374C260.811 714.061 267.25 711.543 271.542 706.643C280.196 696.755 274.718 678.86 261.919 675.175" fill="#DC3545"/>
    <path d="M193.975 528.763C170.632 534.173 147.318 539.71 123.994 545.207C112.508 547.912 101.013 550.588 89.5368 553.332C80.56 555.478 71.4558 557.82 63.2434 562.152C47.534 570.56 39.6548 586.015 36.46 602.949C32.8928 621.814 32.7752 642.051 34.4314 661.112C37.5968 697.578 53.3258 734.543 87.9296 751.272C104.982 759.494 122.749 759.573 140.85 754.888C163.497 749.008 185.841 741.433 207.999 733.946C220.413 729.764 232.751 725.429 245.014 720.941C254.049 717.638 265.594 714.924 272.209 707.329C281.548 696.549 275.345 678.487 262.154 674.44C261.174 674.126 260.733 675.675 261.713 676.018C269.221 678.734 274.372 685.684 274.786 693.658C275.384 702.968 269.259 709.044 261.301 712.768C252.178 717.041 242.309 720.049 232.832 723.43C223.356 726.811 213.575 730.192 203.893 733.436C184.048 740.09 164.085 746.607 143.907 752.213C125.405 757.358 107.216 758.397 89.4976 750.057C55.6582 734.142 39.7822 698.43 36.362 662.915C34.5038 644.567 34.8658 626.062 37.44 607.8C39.9978 590.699 46.5736 573.941 62.1458 564.807C70.9658 559.643 80.9422 557.075 90.7716 554.674C101.976 551.95 113.187 549.248 124.405 546.57C147.7 540.944 170.994 535.378 194.269 529.674C194.867 529.527 194.612 528.616 194.015 528.753L193.975 528.763Z" fill="#DC3545"/>
    <path d="M193.593 527.381C170.142 532.36 146.798 537.848 123.425 543.159C111.92 545.776 100.405 548.363 88.8998 550.999C79.6976 553.126 70.3386 555.478 61.9302 559.907C45.6426 568.482 37.2342 584.721 33.912 602.243C30.2958 621.344 30.0998 641.796 31.7756 661.102C35.0096 698.45 51.1012 736.415 86.5674 753.526C104.286 762.081 122.72 762.297 141.545 757.446C164.193 751.566 186.547 744 208.705 736.523C221.118 732.348 233.456 728.017 245.719 723.528C255.274 720.049 267.132 717.168 274.139 709.23C284.723 697.215 278.344 675.91 262.801 671.99C258.626 670.932 257.244 676.772 261.066 678.301C267.291 680.936 271.528 686.821 272.052 693.56C272.679 701.909 266.985 707.015 259.92 710.308C251.011 714.473 241.358 717.403 232.107 720.706C222.49 724.136 212.844 727.474 203.168 730.721C183.323 737.385 163.36 743.902 143.192 749.518C125.434 754.418 107.912 755.653 90.85 747.646C57.8632 732.182 42.34 697.48 38.9884 662.847C37.1382 644.762 37.4672 626.521 39.9684 608.515C42.3988 592.091 48.4846 575.872 63.4884 567.071C72.1124 562.014 81.8242 559.417 91.438 556.997C102.617 554.187 113.805 551.398 125.003 548.628C148.18 542.826 171.455 537.24 194.612 531.066C197.004 530.439 195.984 526.862 193.632 527.381H193.593Z" fill="black"/>
    <path d="M190.408 668.139C137.194 593.659 164.546 434.134 221.435 340.466C225.835 333.214 230.765 325.844 238.144 321.669C245.523 317.495 256.049 317.651 261.409 324.217C264.761 328.314 265.476 333.949 265.329 339.231C264.78 367.337 243.015 400.412 240.212 429.626C240.081 431.069 241.075 432.373 242.501 432.628C243.928 432.884 245.313 432.005 245.69 430.606C253.775 398.835 267.044 363.368 281.46 336.526C285.772 328.5 292.671 319.798 301.383 316.348C327.03 306.176 325.491 342.367 321.895 356.312L302.804 430.42C302.758 430.561 302.835 430.712 302.976 430.758C303.117 430.804 303.268 430.727 303.314 430.587L324.776 376.226C329.48 364.309 334.321 352.157 342.573 342.347C349.482 334.115 361.389 326.334 372.796 326.795C382.674 327.187 390.563 334.047 390.318 344.288C389.946 360.389 380.048 376.138 374.109 390.71C362.869 418.268 350.844 446.57 347.502 476.353C367.239 453.176 392.582 491.866 398.56 507.987C414.309 550.196 412.221 601.352 387.927 640.405C360.487 684.583 306.352 709.397 254.481 705.418C228.511 703.458 200.238 692.256 190.408 668.178" fill="white"/>
    <path d="M190.408 668.139C137.194 593.659 164.546 434.134 221.435 340.466C225.835 333.214 230.765 325.844 238.144 321.669C245.523 317.495 256.049 317.651 261.409 324.217C264.761 328.314 265.476 333.949 265.329 339.231C264.78 367.337 243.015 400.412 240.212 429.626C240.081 431.069 241.075 432.373 242.501 432.628C243.928 432.884 245.313 432.005 245.69 430.606C253.775 398.835 267.044 363.368 281.46 336.526C285.772 328.5 292.671 319.798 301.383 316.348C327.03 306.176 325.491 342.367 321.895 356.312L302.804 430.42C302.758 430.561 302.835 430.712 302.976 430.758C303.117 430.804 303.268 430.727 303.314 430.587L324.776 376.226C329.48 364.309 334.321 352.157 342.573 342.347C349.482 334.115 361.389 326.334 372.796 326.795C382.674 327.187 390.563 334.047 390.318 344.288C389.946 360.389 380.048 376.138 374.109 390.71C362.869 418.268 350.844 446.57 347.502 476.353C367.239 453.176 392.582 491.866 398.56 507.987C414.309 550.196 412.221 601.352 387.927 640.405C360.487 684.583 306.352 709.397 254.481 705.418C228.511 703.458 200.238 692.256 190.408 668.178" fill="white"/>
    <path d="M191.79 667.325C162.537 625.185 161.41 567.698 166.692 518.532C172.817 461.319 189.791 403.558 217.74 353.157C224.414 341.122 233.42 321.13 249.865 322.081C268.847 323.188 261.331 350.864 257.94 362.094C253.236 377.706 246.356 392.563 241.564 408.154C239.545 414.72 236.488 423.129 237.027 430.106C237.379 434.654 242.426 437.682 246.454 434.938C248.699 433.409 249.081 430.685 249.718 428.235C250.881 423.825 252.115 419.434 253.422 415.063C256.035 406.368 258.877 397.75 261.948 389.211C267.915 372.425 275.03 356.069 283.243 340.26C287.105 332.939 291.887 325.609 299.11 321.199C303.03 318.778 309.184 316.417 313.692 318.827C321.15 322.816 320.905 335.654 320.552 342.769C319.954 355.205 315.652 367.582 312.516 379.548C308.361 395.601 304.049 411.624 300.041 427.715C299.619 429.411 299.149 430.704 300.041 432.419C300.997 433.976 303.008 434.507 304.607 433.625C306.989 432.498 308.077 427.421 308.949 425.226L315.809 407.909L327.863 377.431C331.685 367.769 335.566 358.008 341.446 349.364C348.198 339.437 359.978 329.519 372.747 330.215C402.862 331.861 375.893 376.804 370.483 389.711C358.723 417.66 347.228 446.012 343.641 476.343C343.259 479.616 348.07 481.36 350.138 479.028C366.975 460.075 387.437 492.297 393.689 506.184C405.881 533.261 407.713 566.758 401.637 595.54C395.316 625.45 379.342 652.018 355.352 671C332.013 689.272 303.691 700.051 274.11 701.919C244.631 703.84 206.215 696.98 193.26 666.463C191.604 662.543 185.9 665.924 187.546 669.805C199.728 698.47 233.832 708.662 262.487 709.348C294.772 710.018 326.446 700.488 353 682.113C380.219 663.199 399.655 635.054 407.703 602.9C415.73 570.991 414.083 534.3 400.981 503.92C392.739 484.79 366.495 449.246 344.807 473.667L351.305 476.362C354.793 446.835 366.544 419.003 377.686 391.7C382.841 379.078 390.024 367.024 392.69 353.48C394.709 343.259 393.935 332.636 384.223 326.658C374.727 320.778 362.663 323.482 353.588 328.725C342.808 334.968 335.291 345.013 329.784 356.018C323.757 368.063 319.258 381.048 314.319 393.582L305.029 417.17L301.491 426.147C301.095 426.991 300.751 427.858 300.462 428.744C300.001 430.557 299.482 428.685 301.295 427.843L305.862 429.038L305.686 428.715L306.029 431.292L316.897 389.074C320.258 376.04 324.815 362.771 326.55 349.374C327.745 340.211 327.941 329.872 324.041 321.277C319.895 312.154 310.84 309.517 301.677 312.761C286.291 318.22 278.745 333.988 272.179 347.718C264.376 364.142 257.598 381.033 251.883 398.296C248.943 407.063 246.271 415.916 243.867 424.854C243.661 425.628 242.113 430.783 243.514 429.616C244.269 428.979 244.092 425.197 244.318 423.952C245.105 419.7 246.129 415.496 247.385 411.359C252.285 394.983 259.576 379.45 264.408 363.065C268.005 350.873 273.149 331.313 262.791 320.925C251.746 309.87 234.812 317.495 226.413 327.618C217.133 338.79 210.39 352.745 204.04 365.73C197.682 378.786 191.994 392.157 186.998 405.793C176.327 434.741 168.602 464.691 163.938 495.188C156.03 547.128 154.726 606.506 179.971 654.311C182.647 659.381 185.676 664.257 189.036 668.903C190.222 670.54 192.956 668.991 191.79 667.286V667.325Z" fill="black"/>
    <path d="M234.537 437.907C240.467 437.545 246.414 437.545 252.344 437.907C254.98 438.064 255.01 433.83 252.344 433.791C246.398 433.695 240.452 433.956 234.537 434.575C232.44 434.791 232.362 438.035 234.537 437.907Z" fill="black"/>
    <path d="M292.544 437.368C298.682 437.358 304.801 436.701 310.801 435.408C313.281 434.869 312.232 430.93 309.743 431.576C304.117 433.038 298.351 433.898 292.544 434.144C290.456 434.232 290.437 437.417 292.544 437.407V437.368Z" fill="black"/>
    <path d="M303.902 610.818C300.907 582.511 310.904 554.372 331.087 534.3C323.835 535.525 316.387 536.75 309.174 535.545C301.962 534.339 294.739 530.213 291.828 523.451C289.026 516.934 290.75 509.153 294.602 503.185C298.453 497.217 304.176 492.738 309.9 488.544C322.11 479.596 340.152 469.816 355.185 468.023C370.219 466.229 376.148 480.361 385.026 491.092" fill="white"/>
    <path d="M305.813 610.818C303.549 583.192 313.615 555.979 333.312 536.476C335.732 534.094 333.155 530.752 330.254 531.223C318.063 533.183 293.416 534.898 293.828 516.072C294.131 501.568 310.056 491.807 321.032 485.084C331.714 478.538 346.258 470.247 359.252 471.227C373.325 472.286 382.606 484.8 389.407 495.727C390.965 498.226 395.003 496.629 394.209 493.699C391.063 482.037 380.489 471.717 369.591 467.072C357.283 461.839 344.356 466.092 332.734 471.266C320.307 476.784 307.744 484.389 297.934 493.885C289.114 502.46 282.744 516.699 290.545 528.067C299.894 541.67 317.759 539.759 331.881 537.269L328.823 532.017C308.289 552.79 298.387 581.816 301.942 610.809C302.246 613.19 305.989 613.298 305.774 610.809L305.813 610.818Z" fill="black"/>
    <path d="M766.472 668.139C819.686 593.659 792.344 434.134 735.455 340.466C731.055 333.214 726.125 325.844 718.736 321.669C711.347 317.495 700.841 317.651 695.471 324.217C692.129 328.314 691.404 333.949 691.551 339.231C692.1 367.337 713.856 400.412 716.668 429.626C716.835 431.091 715.835 432.433 714.384 432.692C712.933 432.951 711.531 432.038 711.18 430.606C703.105 398.835 689.826 363.368 675.41 336.526C671.098 328.5 664.199 319.798 655.487 316.348C629.84 306.176 631.379 342.367 634.985 356.312L654.076 430.42C654.122 430.561 654.045 430.712 653.904 430.758C653.763 430.804 653.612 430.727 653.566 430.587L632.104 376.226C627.4 364.309 622.559 352.157 614.317 342.347C607.398 334.115 595.491 326.334 584.084 326.795C574.215 327.187 566.317 334.047 566.562 344.288C566.944 360.389 576.832 376.138 582.771 390.71C594.021 418.268 606.036 446.57 609.388 476.353C589.65 453.176 564.308 491.866 558.32 507.987C542.571 550.196 544.659 601.352 568.953 640.405C596.393 684.583 650.538 709.397 702.399 705.418C728.369 703.458 756.642 692.256 766.472 668.178" fill="white"/>
    <path d="M766.472 668.139C819.686 593.659 792.344 434.134 735.455 340.466C731.055 333.214 726.125 325.844 718.736 321.669C711.347 317.495 700.841 317.651 695.471 324.217C692.129 328.314 691.404 333.949 691.551 339.231C692.1 367.337 713.856 400.412 716.668 429.626C716.835 431.091 715.835 432.433 714.384 432.692C712.933 432.951 711.531 432.038 711.18 430.606C703.105 398.835 689.826 363.368 675.41 336.526C671.098 328.5 664.199 319.798 655.487 316.348C629.84 306.176 631.379 342.367 634.985 356.312L654.076 430.42C654.122 430.561 654.045 430.712 653.904 430.758C653.763 430.804 653.612 430.727 653.566 430.587L632.104 376.226C627.4 364.309 622.559 352.157 614.317 342.347C607.398 334.115 595.491 326.334 584.084 326.795C574.215 327.187 566.317 334.047 566.562 344.288C566.944 360.389 576.832 376.138 582.771 390.71C594.021 418.268 606.036 446.57 609.388 476.353C589.65 453.176 564.308 491.866 558.32 507.987C542.571 550.196 544.659 601.352 568.953 640.405C596.393 684.583 650.538 709.397 702.399 705.418C728.369 703.458 756.642 692.256 766.472 668.178" fill="white"/>
    <path d="M767.844 668.942C798.782 626.126 800.889 567.022 795.656 516.425C789.561 457.478 772.068 398.217 742.736 346.571C735.729 334.243 727.38 318.465 711.925 315.985C705.643 315.005 698.724 316.338 694.099 320.964C689.003 326.06 688.042 333.704 688.336 340.613C689.032 356.773 695.294 372.218 700.969 387.153C704.007 395.15 707.074 403.156 709.514 411.369C710.694 415.272 711.676 419.233 712.454 423.237C712.738 424.736 712.552 428.45 713.434 429.626C714.62 431.273 713.807 427.078 713.934 428.117C713.727 427.014 713.442 425.926 713.081 424.863C708.173 406.575 702.141 388.607 695.02 371.061C688.836 355.793 682.515 338.721 672.235 325.697C665.502 317.152 652.419 307.332 640.875 312.673C632.486 316.593 630.32 326.991 629.791 335.331C628.909 349.119 633.064 362.143 636.465 375.305L649.94 427.578L650.92 431.302L651.253 428.725L651.077 429.048L655.644 427.852C657.604 428.832 656.908 430.498 656.624 428.999C656.415 428.327 656.157 427.672 655.849 427.039L652.851 419.424L644.756 398.844C640.326 387.604 636.083 376.255 631.369 365.132C626.469 353.519 620.413 341.808 610.505 333.665C601.998 326.677 590.562 321.405 579.37 323.943C551.234 330.323 567.493 365.544 574.931 381.763C581.683 396.463 587.602 411.643 593.09 426.843C598.882 442.866 603.684 459.34 605.683 476.313L612.181 473.618C592.581 451.568 569.061 479.253 559.486 496.776C552.469 509.614 548.706 524.392 546.55 538.769C543.948 555.657 543.968 572.846 546.609 589.729C551.862 622.98 568.492 653.527 594.629 674.93C619.517 695.163 650.11 707.105 682.123 709.083C714.081 711.043 755.525 702.576 769.451 669.775C771.097 665.904 765.404 662.523 763.738 666.433C752.36 693.236 720.451 701.919 693.785 702.223C664.564 702.478 635.922 694.079 611.465 678.086C586.062 661.612 567.257 636.734 558.339 607.8C549.108 577.42 550.137 544.178 560.162 514.141C565.19 499.089 587.769 457.752 606.693 479.048C608.751 481.37 613.553 479.655 613.19 476.362C610.034 449.638 600.705 424.422 590.474 399.668C585.495 387.633 579.478 376.01 574.696 363.917C570.932 354.392 565.239 338.124 577.195 332.008C587.975 326.481 601.263 334.057 608.956 341.583C618.345 350.775 623.48 363.594 628.233 375.579C631.794 384.549 635.345 393.523 638.886 402.5L647.118 423.335C648.098 425.804 649.47 432.351 652.214 433.644C653.833 434.535 655.866 433.974 656.8 432.38C658.593 429.126 655.595 422.835 654.762 419.64L648.088 393.876C644.717 380.861 641.11 367.876 637.994 354.793C635.965 346.326 635.289 336.663 637.425 328.157C638.307 324.639 639.826 320.621 643.217 318.808C647.951 316.27 654.37 318.955 658.427 321.591C665.551 326.207 670.187 333.576 674.019 340.936C677.85 348.296 681.359 355.636 684.642 363.221C691.968 380.093 698.258 397.396 703.477 415.034C704.706 419.143 705.869 423.263 706.966 427.392C707.711 430.204 708.054 433.497 710.798 435.114C715.061 437.623 719.814 434.203 719.902 429.607C720.02 422.57 717.374 414.76 715.335 408.125C712.895 400.177 709.896 392.445 706.947 384.605C701.429 370.219 695.02 354.96 694.736 339.28C694.579 330.597 697.842 322.316 707.691 322.12C716.707 321.895 723.44 328.5 728.34 335.36C736.278 346.503 742.619 359.105 748.538 371.395C754.814 384.459 760.398 397.845 765.266 411.496C775.209 439.197 782.567 467.758 787.248 496.815C791.726 524.569 793.559 552.891 791.579 580.968C789.835 605.85 784.847 631.222 773.351 653.566C770.901 658.338 768.135 662.941 765.07 667.345C763.894 669.05 766.638 670.598 767.824 668.962L767.844 668.942Z" fill="black"/>
    <path d="M722.352 434.575C716.434 433.956 710.485 433.695 704.536 433.791C701.88 433.791 701.9 438.064 704.536 437.907C710.469 437.545 716.419 437.545 722.352 437.907C724.518 438.035 724.44 434.791 722.352 434.575Z" fill="black"/>
    <path d="M664.336 434.105C658.529 433.859 652.763 432.998 647.137 431.537C644.658 430.89 643.59 434.83 646.089 435.369C652.085 436.662 658.202 437.319 664.336 437.329C666.443 437.329 666.433 434.154 664.336 434.066V434.105Z" fill="black"/>
    <path d="M607.232 558.898C610.782 540.21 612.973 521.289 613.788 502.283C614.454 486.006 614.346 468.826 608.486 453.401C606.996 449.481 601.753 451.059 602.312 455.106C603.292 462.505 605.066 469.806 605.977 477.195C606.957 485.467 607.114 493.973 607.359 502.283C607.913 520.936 606.864 539.602 604.223 558.075C603.949 560.035 606.849 560.907 607.232 558.898Z" fill="black"/>
    <path d="M715.972 703.105C701.9 656.065 709.789 602.92 736.925 561.985C746.95 546.864 760.876 532.585 778.79 529.733C793.49 527.411 808.19 533.202 821.097 540.621C834.004 548.04 845.94 557.242 859.66 562.72C885.375 573.03 916.5 570.227 938.423 587.161C956.317 600.969 963.422 624.783 965.039 647.323C967.254 678.233 960.806 710.141 944.224 736.307C927.643 762.473 900.506 782.367 869.97 787.61C862.776 788.845 855.348 789.267 848.194 787.787C839.443 785.984 831.534 781.446 823.812 777.007C806.799 767.207 789.649 757.505 772.852 747.254C757.867 738.101 740.943 731.741 727.429 720.304C723.127 716.84 719.53 712.581 716.835 707.76C714.169 702.654 714.238 698.244 714.159 692.727C714.081 687.013 712.621 681.026 712.199 675.253C711.298 663.905 709.72 650.606 712.915 639.464" fill="#010101"/>
    <path d="M717.786 702.605C710.459 676.168 709.615 648.353 715.326 621.52C720.902 595.589 732.378 568.522 751.066 549.265C760.484 539.553 772.509 532.311 786.405 532.605C801.438 532.908 815.07 540.67 827.448 548.461C839.335 555.938 850.968 563.739 864.482 568.12C876.624 572.04 889.354 573.706 901.82 576.283C914.285 578.861 927.104 582.408 937.149 590.581C946.949 598.578 953.26 609.966 956.925 621.941C964.863 647.813 963.285 677.409 955.406 703.076C947.527 728.742 932.023 751.752 909.875 767.079C899.305 774.494 887.433 779.853 874.88 782.877C867.539 784.602 859.866 785.621 852.34 784.729C844.813 783.837 838.09 780.692 831.583 777.115C805.123 762.571 779.643 746.323 753.007 732.182C740.992 725.821 725.341 717.952 719.687 704.742C717.031 698.617 718.148 691.218 717.247 684.701C716.267 677.302 715.434 669.922 715.012 662.464C714.591 655.007 714.64 647.578 716.365 640.346C717.423 635.887 710.788 634.044 709.505 638.454C705.281 652.998 707.456 669.305 709.603 684.064C710.671 691.414 709.603 699.391 712.268 706.437C714.816 713.297 719.991 718.873 725.518 723.46C737.101 733.054 750.831 739.14 763.924 746.343C778.83 754.526 793.265 763.659 808.024 772.126C821.489 779.937 835.444 790.08 851.33 792.04C865.462 793.784 880.387 790.08 893.353 784.572C918.98 773.792 940.04 753.448 952.829 728.84C966.549 702.497 971.449 671.578 968.185 642.169C965.245 615.709 954.24 589.062 928.77 577.293C916.314 571.54 902.78 569.404 889.354 566.924C874.595 564.2 860.748 560.525 847.645 552.989C822.626 538.612 795.294 516.092 765.09 530.664C740.237 542.65 724.998 572.069 716.267 596.912C706.804 624.179 704.285 653.374 708.936 681.859C710.162 689.222 711.907 696.488 714.16 703.605C714.875 705.908 718.432 704.947 717.786 702.625V702.605Z" fill="black"/>
    <path d="M864.345 774.694C829.515 725.478 839.649 649.744 884.719 609.936C891.12 604.119 898.455 599.421 906.416 596.04C914.256 592.826 922.018 592.6 930.25 591.365C932.278 591.062 932.141 587.818 930.25 587.445C916 584.309 899.154 592.639 888.041 600.862C875.477 610.142 865.393 622.608 857.788 636.191C842.371 663.961 836.741 696.11 841.805 727.468C844.65 745.027 851.69 761.641 862.326 775.899C863.208 777.075 865.266 775.958 864.345 774.714V774.694Z" fill="#DC3545"/>
    <path d="M942.107 591.806L943.019 590.934C943.488 590.451 943.488 589.683 943.019 589.2C942.532 588.74 941.771 588.74 941.284 589.2L940.412 590.121C939.962 590.591 939.971 591.336 940.433 591.795C940.895 592.254 941.639 592.259 942.107 591.806Z" fill="#DC3545"/>
    <path d="M730.702 723.999C734.906 717.54 732.593 710.141 729.937 703.526C727.84 698.303 725.243 692.648 726.537 686.866C727.517 682.427 730.721 678.909 732.681 674.91C735.798 668.531 734.289 662.102 732.378 655.585C729.702 646.441 728.458 638.533 736.376 631.663C741.109 627.567 747.372 624.186 749.057 617.669C750.86 610.681 747.097 603.811 745.862 597.089C742.668 579.449 764.277 576.097 768.677 561.426C770.206 556.33 770.206 550.793 773.577 546.383C776.419 542.65 780.701 540.503 784.945 538.798C791.521 536.064 798.459 534.016 803.565 528.792C804.133 528.214 803.251 527.342 802.693 527.91C793.677 537.122 776.017 536.25 770.509 549.186C768.883 552.989 768.736 557.183 767.501 561.103C766.07 565.65 763.228 569.031 759.661 572.128C754.839 576.342 748.783 579.968 745.833 585.848C742.687 592.169 744.931 598.833 746.715 605.193C748.028 609.907 749.253 614.993 746.999 619.658C745.186 623.382 741.658 625.901 738.493 628.39C733.769 632.094 729.369 636.024 728.83 642.365C728.164 650.058 732.427 657.143 733.23 664.66C734.308 674.822 724.557 681.065 725.047 690.982C725.596 701.89 736.856 712.758 730.045 723.577C729.781 723.999 730.437 724.371 730.702 723.969V723.999Z" fill="#DC3545"/>
    <path d="M760.151 740.982C763.584 734.248 764.909 726.636 763.953 719.138C762.699 709.759 756.26 700.283 761.591 691.061C764.874 685.387 770.411 681.261 771.176 674.401C772.019 666.561 767.53 659.446 767.079 651.773C766.55 642.904 773.126 637.67 778.281 631.477C782.177 627.131 784.217 621.432 783.965 615.601C783.867 611.279 782.985 606.399 785.092 602.381C787.052 598.568 791.158 596.951 794.529 594.707C799.351 591.503 800.958 587.465 801.389 581.781C801.811 575.695 802.144 570.119 808.837 567.738C812.081 566.581 815.521 566.219 818.637 564.798C825.073 561.786 829.908 556.159 831.916 549.343C832.142 548.608 830.995 548.294 830.77 549.029C827.957 557.849 821.146 563.269 812.336 565.444C806.995 566.767 802.33 568.59 800.831 574.372C800.145 577.008 800.252 579.782 800.007 582.467C799.517 587.896 797.469 591.346 792.795 594.227C787.895 597.255 783.592 599.793 782.652 605.928C781.397 614.111 784.18 621.304 778.849 628.635C775.047 633.858 769.52 637.915 766.981 644.011C764.375 650.263 766.482 656.751 768.206 662.925C769.343 666.982 770.578 671.402 769.667 675.665C768.687 680.144 765.58 683.456 762.885 686.984C758.269 693.031 757.299 698.744 759.269 706.104C760.758 711.651 762.856 716.884 763.189 722.646C763.41 728.84 762.122 734.995 759.435 740.58C759.2 741.08 759.935 741.56 760.18 741.021L760.151 740.982Z" fill="#DC3545"/>
    <path d="M791.658 758.377C803.418 747.489 789.698 729.702 799.076 717.678C803.241 712.337 806.015 707.878 805.995 700.851C805.995 693.187 803.241 685.984 801.879 678.536C801.066 674.068 800.537 669.207 801.762 664.758C803.045 660.122 805.976 656.751 809.249 653.38C813.169 649.303 817.138 645.226 817.667 639.278C818.431 630.83 813.384 622.137 819 614.474C822.655 609.476 828.467 606.683 832.72 602.224C834.639 600.225 836.092 597.825 836.973 595.197C837.777 592.786 838.022 590.15 839.286 587.896C840.756 585.27 843.294 583.525 845.734 581.899C854.437 576.126 863.717 568.816 874.527 568.316C875.33 568.316 875.33 567.042 874.527 567.071C866.265 567.463 859.395 571.579 852.604 575.96C847.332 579.36 840.07 582.604 837.522 588.759C836.071 592.257 835.885 596.05 833.602 599.235C831.318 602.42 828.3 604.517 825.36 606.82C821.038 610.201 816.54 613.827 815.295 619.452C813.424 627.763 818.941 636.367 814.952 644.393C811.816 650.704 805.084 654.33 801.958 660.681C794.461 675.851 808.396 691.796 803.976 707.26C802.555 712.229 798.773 715.1 796.352 719.402C794.667 722.667 793.908 726.331 794.157 729.996C794.392 739.228 798.773 750.38 791.031 757.809C790.629 758.191 791.227 758.789 791.628 758.406L791.658 758.377Z" fill="#DC3545"/>
    <path d="M835.474 783.161C834.494 778.545 831.299 770.127 833.416 765.756C834.905 762.699 838.423 761.092 839.903 758.005C841.383 754.918 839.903 752.125 839.521 749.018C838.6 742.05 841.706 735.768 844.372 729.536C844.646 728.908 843.745 728.34 843.392 728.987C841.05 733.652 838.845 738.718 838.247 743.951C838.005 745.998 838.067 748.068 838.433 750.096C838.786 752.056 839.639 754.516 839.217 756.564C838.874 758.191 837.257 759.631 836.199 760.788C834.327 762.748 832.044 764.639 831.661 767.52C831.015 772.42 833.621 778.653 834.699 783.367C834.807 783.857 835.542 783.651 835.444 783.161H835.474Z" fill="#DC3545"/>
    <path d="M56.5107 645.354C54.5966 646.102 53.145 647.706 52.5907 649.685C51.6321 652.401 51.9944 655.409 53.5707 657.819C55.2291 660.227 58.1898 661.377 61.0383 660.72C65.2621 659.564 67.0163 654.536 67.3299 650.175C67.5698 648.555 67.3455 646.9 66.6831 645.403C65.9667 643.87 64.272 643.051 62.6259 643.443" fill="#010101"/>
    <path d="M56.1873 644.178C45.2799 647.715 51.1599 666.6 62.4005 662.406C66.8889 660.73 68.8293 655.712 69.3879 651.322C69.9465 646.931 68.0943 639.297 62.0967 641.522C61.0142 641.668 60.2552 642.664 60.4013 643.746C60.5475 644.829 61.5434 645.588 62.6259 645.442C67.8591 645.628 64.3997 656.643 61.5479 658.25C54.8153 662.033 50.9737 649.813 57.1281 646.422C57.6827 646.116 57.9125 645.437 57.658 644.857C57.4036 644.277 56.7489 643.987 56.1481 644.187L56.1873 644.178Z" fill="black"/>
    <path d="M100.395 633.574C98.4784 634.319 97.0253 635.924 96.4753 637.906C95.5119 640.621 95.8746 643.631 97.4553 646.04C99.1085 648.454 102.07 649.613 104.923 648.96C109.137 647.804 110.891 642.776 111.214 638.415C111.45 636.791 111.223 635.133 110.558 633.633C109.793 632.202 108.039 631.163 106.51 631.722" fill="#010101"/>
    <path d="M100.072 632.398C89.1546 635.936 95.0444 654.86 106.285 650.626C110.764 648.94 112.704 643.933 113.263 639.532C113.821 635.132 111.969 627.518 105.981 629.732C104.899 629.879 104.14 630.875 104.286 631.957C104.432 633.039 105.428 633.799 106.51 633.652C111.744 633.839 108.284 644.854 105.432 646.461C98.69 650.244 94.8582 638.023 101.013 634.632C101.567 634.326 101.797 633.648 101.542 633.068C101.288 632.488 100.633 632.197 100.033 632.398H100.072Z" fill="black"/>
    <path d="M62.1164 582.565C78.159 578.135 94.5544 575.058 110.646 570.805C118.086 568.941 125.633 567.533 133.245 566.591C139.125 565.778 146.377 564.2 150.61 559.682C152.649 557.506 150.669 553.185 147.494 554.331C144.319 555.478 141.614 556.811 138.409 557.428C135.009 558.075 131.549 558.281 128.08 558.673C120.807 559.576 113.634 561.161 106.657 563.406C91.34 568.169 76.5126 574.421 61.1952 579.213C59.0686 579.88 59.9506 583.133 62.1164 582.565Z" fill="white"/>
    <path d="M244.151 588.612C258.077 565.729 275.785 545.376 296.522 528.42C297.061 527.979 296.287 527.215 295.758 527.656C275.025 544.731 257.343 565.204 243.465 588.2C243.191 588.641 243.887 589.043 244.151 588.602V588.612Z" fill="black"/>
    <path d="M234.596 539.925C249.144 525.479 264.858 512.257 281.578 500.392C282.048 500.059 281.578 499.275 281.117 499.608C264.316 511.478 248.577 524.784 234.077 539.376C233.714 539.729 234.263 540.278 234.626 539.925H234.596Z" fill="black"/>
    <path d="M289.3 253.648C287.322 263.05 286.074 272.591 285.566 282.185C285.429 284.782 289.486 284.782 289.604 282.185C289.981 272.93 291.069 263.717 292.857 254.628C293.318 252.315 289.79 251.315 289.3 253.648Z" fill="white"/>
    <path d="M334.321 247.16C328.122 258.26 323.395 270.119 320.258 282.44C319.523 285.321 324.021 286.556 324.707 283.665C327.545 271.655 331.933 260.066 337.761 249.189C338.966 246.935 335.576 244.935 334.321 247.18V247.16Z" fill="white"/>
    <path d="M381.038 257.342C372.923 267.936 365.701 279.02 358.498 290.251C356.724 293.024 361.34 295.729 362.918 292.828C369.395 281.226 376.633 270.065 384.585 259.42C386.163 257.264 382.625 255.284 381.028 257.342H381.038Z" fill="white"/>
    <path d="M403.058 303.285L419.277 287.193C421.453 285.037 418.072 281.656 415.906 283.832L399.795 300.021C397.698 302.128 400.951 305.382 403.058 303.285Z" fill="white"/>
    <path d="M587.896 286.213L599.656 298.247C601.705 300.335 604.968 297.081 602.871 295.033L590.846 283.273C588.886 281.391 585.946 284.312 587.906 286.213H587.896Z" fill="white"/>
    <path d="M635.142 262.634C635.304 269.446 636.751 276.165 639.405 282.44C640.385 284.586 644.08 283.048 643.227 280.823C640.853 275.03 639.369 268.911 638.827 262.673C638.67 260.331 635.054 260.282 635.142 262.673V262.634Z" fill="white"/>
    <path d="M684.426 256.205C683.225 264.815 682.57 273.493 682.466 282.185C682.466 284.978 686.837 284.978 686.798 282.185C686.708 273.679 687.067 265.174 687.876 256.705C688.052 254.745 684.74 254.294 684.466 256.245L684.426 256.205Z" fill="white"/>
    <path d="M729.947 277.334L726.733 296.052C726.223 298.992 730.81 300.256 731.26 297.297L734.122 278.52C734.534 275.805 730.418 274.6 729.947 277.364V277.334Z" fill="white"/>
    <path d="M519.237 471.413C501.597 509.467 492.15 551.773 493.395 593.757C494.375 628.115 503.891 667.1 532.075 689.532C538.377 694.54 546.717 698.793 554.958 696.461C561.358 694.657 567.306 689.042 567.355 682.045C567.355 676.067 560.878 669.079 554.958 673.48C549.343 677.654 548.373 688.67 548.451 695.04C548.647 710.445 557.056 726.194 570.746 733.691C583.545 740.708 604.066 739.316 606.457 721.774C607.339 715.218 604.654 707.574 597.941 705.192C586.867 701.272 587.661 717.668 589.552 723.812C595.55 743.246 613.788 759.092 632.055 766.648C634.877 767.805 636.857 763.071 634.133 761.748C621.834 755.564 610.72 746.823 602.773 735.484C600.597 732.451 598.72 729.215 597.167 725.821C595.785 722.685 593.512 717.139 594.766 713.689C596.314 709.387 599.147 714.404 599.666 716.502C600.265 719.091 600.007 721.804 598.931 724.234C592.924 738.13 573.079 729.134 565.797 721.519C557.469 712.587 553.619 700.371 555.321 688.278C555.586 686.523 556.301 680.193 557.957 679.262C559.261 678.507 560.731 680.085 561.074 680.928C561.388 681.828 561.416 682.804 561.152 683.721C560.669 685.456 559.676 687.006 558.3 688.17C552.283 693.677 543.973 691.11 537.936 687.102C526.764 679.605 518.218 667.815 512.181 655.967C499.971 631.996 496.923 604.252 497.746 577.694C498.924 541.591 507.252 506.08 522.246 473.217C523.226 471.159 520.149 469.355 519.188 471.433L519.237 471.413Z" fill="white"/>
    <path d="M427.852 316.074C432.135 321.101 429.989 331.832 429.009 337.732C427.946 344.066 426.218 350.271 423.854 356.244C418.748 369.003 410.647 380.348 400.236 389.319L404.832 391.994C405.332 390.034 406.39 386.614 408.605 385.859C412.251 384.615 413.329 389.358 413.358 392.239C413.407 397.59 410.506 403.019 407.997 407.537C403.313 416.004 397.07 423.09 390.21 429.852C387.506 432.517 391.455 436.173 394.287 433.919C400.655 428.685 406.103 422.425 410.408 415.397C414.446 409.007 418.562 401.53 419.15 393.837C419.571 388.28 417.503 380.381 410.908 379.617C404.744 378.901 400.745 385.34 399.53 390.514C399.24 391.708 399.768 392.95 400.83 393.568C401.891 394.186 403.232 394.032 404.126 393.19C415.801 382.746 424.579 369.462 429.606 354.627C432.06 347.375 433.533 339.827 433.987 332.185C434.369 326.001 435.016 318.406 430.145 313.751C429.51 313.115 428.478 313.115 427.842 313.751C427.207 314.387 427.207 315.418 427.842 316.054L427.852 316.074Z" fill="white"/>
    <path d="M360.468 745.216L361.35 744.383C362.146 743.565 362.146 742.261 361.35 741.443C360.955 741.054 360.424 740.836 359.87 740.835C359.314 740.839 358.78 741.056 358.38 741.443L357.557 742.315C357.184 742.711 356.971 743.231 356.959 743.775C356.964 744.32 357.178 744.843 357.557 745.235C357.947 745.618 358.471 745.832 359.017 745.833C359.559 745.824 360.077 745.61 360.468 745.235V745.216Z" fill="white"/>
    <path d="M380.92 726.164L382.645 729.545C383.255 730.554 384.553 730.9 385.585 730.329C386.573 729.703 386.91 728.421 386.359 727.389L384.683 723.969C384.067 722.925 382.723 722.575 381.675 723.185C380.649 723.815 380.303 725.143 380.891 726.194L380.92 726.164Z" fill="white"/>
    <path d="M391.318 759.916C394.611 759.916 394.611 754.8 391.318 754.8C388.025 754.8 388.015 759.916 391.318 759.916Z" fill="white"/>
    </svg>
    