<svg width="1000" height="1000" viewBox="0 0 1000 1000" fill="none" xmlns="http://www.w3.org/2000/svg">
    <path d="M634.26 618.472C634.231 638.577 643.281 657.62 658.887 670.295C665.1 675.263 672.607 679.183 680.526 679.311C688.444 679.438 696.843 674.969 699.469 667.462C703.673 655.467 692.511 643.56 691.629 630.879C716.293 643.576 744.279 648.337 771.754 644.511C781.789 643.09 791.863 640.434 800.34 634.868C810.219 628.38 817.285 618.374 822.802 607.918C832.772 588.746 838.476 567.644 839.521 546.06C840.158 533.516 839.031 520.139 831.74 509.908C826.085 501.98 817.314 496.815 808.327 493.062C769.882 477.029 722.656 484.643 691.208 511.956" fill="white"/>
    <path d="M634.26 618.472C634.231 638.577 643.281 657.62 658.887 670.295C665.1 675.263 672.607 679.183 680.526 679.311C688.444 679.438 696.843 674.969 699.469 667.462C703.673 655.467 692.511 643.56 691.629 630.879C716.293 643.576 744.279 648.337 771.754 644.511C781.789 643.09 791.863 640.434 800.34 634.868C810.219 628.38 817.285 618.374 822.802 607.918C832.772 588.746 838.476 567.644 839.521 546.06C840.158 533.516 839.031 520.139 831.74 509.908C826.085 501.98 817.314 496.815 808.327 493.062C769.882 477.029 722.656 484.643 691.208 511.956" fill="white"/>
    <path d="M634.26 618.472C634.231 638.577 643.281 657.62 658.887 670.295C665.1 675.263 672.607 679.183 680.526 679.311C688.444 679.438 696.843 674.969 699.469 667.462C703.673 655.467 692.511 643.56 691.629 630.879C716.293 643.576 744.279 648.337 771.754 644.511C781.789 643.09 791.863 640.434 800.34 634.868C810.219 628.38 817.285 618.374 822.802 607.918C832.772 588.746 838.476 567.644 839.521 546.06C840.158 533.516 839.031 520.139 831.74 509.908C826.085 501.98 817.314 496.815 808.327 493.062C769.882 477.029 722.656 484.643 691.208 511.956" fill="white"/>
    <path d="M632.486 618.472C632.202 643.482 647.49 674.332 673.548 681.065C684.113 683.789 697.127 680.183 701.694 669.432C707.358 656.094 695.814 643.835 694.579 630.879L690.052 633.486C716.184 647.138 746.006 652.046 775.135 647.49C789.139 645.246 802.281 639.944 812.189 629.517C821.734 619.482 828.153 606.585 833.102 593.786C838.448 579.88 841.692 565.254 842.726 550.392C843.657 537.132 843.177 522.638 836.14 510.917C829.564 499.98 817.951 493.473 806.368 489.014C794.292 484.435 781.521 481.959 768.608 481.694C739.532 480.953 711.197 490.924 688.993 509.712C685.916 512.328 690.375 516.758 693.423 514.141C720.747 491.19 757.337 482.554 792.04 490.866C803.447 493.659 815.884 498.099 824.557 506.311C834.219 515.455 836.522 528.518 836.317 541.297C835.983 554.809 833.807 568.211 829.849 581.134C826.076 593.629 820.725 605.928 813.287 616.698C806.024 627.559 795.065 635.412 782.446 638.797C753.193 646.794 720 641.737 693.148 628.282C691.326 627.371 688.346 628.439 688.621 630.879C689.777 641.483 697.225 650.646 697.598 661.259C698.068 674.901 682.535 678.723 672.029 674.92C649.823 666.874 636.485 640.934 636.073 618.492C636.073 617.518 635.283 616.728 634.309 616.728C633.335 616.728 632.545 617.518 632.545 618.492L632.486 618.472Z" fill="black"/>
    <path d="M607.977 528.939C597.01 543.424 586.142 559.849 586.956 577.998C587.936 599.558 604.782 616.551 620.54 631.271C623.549 634.074 626.675 636.955 630.556 638.288C637.955 640.816 646.53 636.73 650.705 630.115C654.879 623.5 655.203 615.042 653.351 607.447C651.498 599.852 647.647 592.924 643.845 586.083L629.497 560.28" fill="white"/>
    <path d="M606.82 527.763C596.804 540.376 586.749 554.223 584.672 570.668C582.712 586.407 589.346 600.94 598.872 613.063C604.163 619.566 609.928 625.668 616.12 631.32C621.206 636.132 626.498 641.473 633.878 642.031C649.42 643.227 658.378 627.41 657.398 613.66C656.702 604.223 652.576 595.658 648.107 587.485C642.854 577.89 637.709 568.139 631.908 558.869C629.948 555.801 625.508 558.477 627.086 561.691C633.721 575.235 642.903 587.818 648.372 601.871C652.88 613.464 653.076 635.093 635.896 635.926C628.782 636.279 623.47 629.84 618.756 625.342C613.786 620.673 609.081 615.729 604.664 610.534C595.961 600.127 589.062 587.837 589.611 573.872C590.258 557.389 600.136 542.738 609.417 529.772C610.505 528.253 607.976 526.274 606.8 527.754L606.82 527.763Z" fill="black"/>
    <path d="M719.157 472.766C698.376 450.194 668.413 438.364 637.817 440.651C629.83 441.318 621.804 443.003 614.709 446.737C605.477 451.637 598.372 459.585 591.473 467.405C583.202 476.784 574.715 486.554 571.03 498.501C567.973 508.428 568.492 519.081 569.482 529.4C570.462 539.465 572.03 549.98 578.047 558.094C580.938 562.014 585.181 565.346 590.042 565.415C596.04 565.493 601.028 560.515 603.605 555.135C611.494 538.592 603.654 516.817 614.297 501.891" fill="white"/>
    <path d="M344.935 485.594H140.761C131.334 485.594 121.896 485.418 112.479 485.594H112.077L136.577 510.094V377.627C136.577 369.787 136.155 361.791 137.145 354.039L136.273 360.556C137.031 355.095 138.473 349.751 140.565 344.65L138.096 350.53C140.278 345.359 143.114 340.488 146.534 336.036L142.702 341.005C146.018 336.783 149.832 332.976 154.06 329.666L149.101 333.498C153.555 330.082 158.425 327.246 163.595 325.06L157.715 327.53C162.829 325.435 168.186 323.993 173.66 323.237L167.143 324.11C172.719 323.394 178.344 323.551 183.96 323.551H270.66C277.079 323.551 283.567 323.296 289.947 324.11L283.42 323.237C288.87 323.996 294.204 325.435 299.296 327.52L293.416 325.05C298.589 327.241 303.462 330.08 307.92 333.498L302.951 329.666C307.166 332.97 310.967 336.77 314.27 340.985L310.429 336.017C313.852 340.468 316.691 345.339 318.876 350.511L316.397 344.631C318.496 349.73 319.942 355.074 320.699 360.536L319.817 354.019C320.68 360.683 320.386 367.514 320.386 374.217V510.123C320.479 516.603 323.054 522.801 327.579 527.44C331.842 531.693 338.819 534.898 344.935 534.623C358.223 534.026 369.435 523.843 369.435 510.123V400.501C369.435 387.761 369.533 374.952 369.435 362.183C369.198 339.674 360.489 318.081 345.042 301.707C338.246 294.437 330.187 288.461 321.258 284.067C310.338 278.727 298.494 275.537 286.37 274.669C280.705 274.228 274.943 274.473 269.269 274.473H178.021C163.136 274.373 148.436 277.774 135.107 284.4C126.218 288.866 118.213 294.905 111.479 302.226C103.394 311.074 97.0737 321.386 92.8589 332.606C86.2537 349.501 87.5081 368.063 87.5081 385.85V510.123C87.7182 523.566 98.5651 534.413 112.008 534.623H316.25C325.668 534.623 335.105 534.761 344.533 534.623H344.935C351.424 534.542 357.634 531.97 362.281 527.44C366.534 523.187 369.738 516.199 369.464 510.084C368.876 496.835 358.684 485.594 344.935 485.594Z" fill="black"/>
    <rect x="34.5" y="424.854" width="364.736" height="255.986" rx="110.8" fill="#DC3545"/>
    <path d="M290.652 679.34H145.612C104.766 679.34 66.8399 658.074 47.8769 621.422C38.8707 604.047 35.9601 585.534 35.9601 566.189C35.9601 552.165 35.1565 537.848 36.3717 523.853C40.5465 476.196 77.5317 436.173 124.572 427.901C134.695 426.118 144.848 426.304 155.069 426.304H283.537C296.17 426.304 308.586 427.029 320.777 430.616C366.458 444.018 397.811 485.96 397.737 533.565C397.796 546.099 397.737 558.633 397.737 571.168C397.668 616.953 368.856 658.848 325.168 673.685C314.041 677.41 302.386 679.32 290.652 679.34C289.84 679.34 289.182 679.998 289.182 680.81C289.182 681.622 289.84 682.28 290.652 682.28C337.584 681.986 380.234 651.635 395.11 606.938C400.755 589.984 400.696 572.834 400.696 555.243C400.696 538.357 401.392 521.511 396.992 505.008C384.967 459.82 344.18 426.5 297.522 423.56C289.221 423.05 280.862 423.354 272.512 423.354H225.668C198.653 423.354 171.631 423.354 144.603 423.354C102.982 423.354 64.1547 446.002 45.0643 483.33C36.1561 500.764 33.0397 519.365 33.0397 538.749C33.0397 553.655 32.0597 568.972 33.6571 583.829C38.5571 630.232 73.5627 669.589 119.191 679.663C130.432 682.143 141.731 682.27 153.129 682.27H290.652C291.461 682.27 292.117 681.614 292.117 680.805C292.117 679.996 291.461 679.34 290.652 679.34Z" fill="#DC3545"/>
    <path d="M290.653 677.919H145.613C105.266 677.919 67.9182 656.898 49.1512 620.677C40.2626 603.537 37.3912 585.27 37.3912 566.189C37.3912 552.165 36.5876 537.848 37.8028 523.853C41.9188 476.813 78.5218 437.466 124.895 429.313C134.882 427.549 144.927 427.764 155.011 427.764H283.538C296.052 427.764 308.312 428.48 320.435 432.017C365.481 445.247 396.394 486.616 396.316 533.565C396.375 546.099 396.316 558.633 396.316 571.168C396.248 616.248 367.896 657.653 324.776 672.274C313.768 675.986 302.231 677.892 290.613 677.919C286.86 677.919 286.85 683.799 290.613 683.799C338.212 683.495 381.391 652.704 396.453 607.359C402.137 590.287 402.098 572.99 402.098 555.272C402.098 538.249 402.774 521.276 398.345 504.655C386.144 458.83 344.739 425.079 297.464 422.159C289.163 421.639 280.804 421.943 272.454 421.943H225.61C198.595 421.943 171.573 421.943 144.544 421.943C102.404 421.943 63.0574 444.865 43.7514 482.644C34.7746 500.294 31.5602 519.139 31.5602 538.788C31.5602 553.694 30.5802 569.012 32.1776 583.868C37.1756 630.908 72.4752 670.883 118.78 681.104C130.158 683.623 141.555 683.77 153.08 683.77H290.653C294.406 683.76 294.416 677.919 290.653 677.919Z" fill="black"/>
    <rect x="92.1631" y="424.854" width="325.801" height="255.986" rx="110.8" fill="white"/>
    <path d="M309.38 677.919H208.94C197.425 677.919 186.106 677.556 174.846 674.705C134.607 664.522 103.492 630.605 96.5634 589.748C94.28 576.44 95.0836 562.475 95.0836 549C95.0836 534.535 94.868 520.335 98.6312 506.203C109.411 465.916 144.005 435.006 185.244 428.891C194.465 427.519 203.785 427.774 213.066 427.774H294.406C302.579 427.774 310.85 427.48 318.994 428.195C360.713 431.841 397.325 461.29 410.056 501.147C414.691 515.66 415.083 530.243 415.083 545.247C415.083 558.232 415.867 571.579 414.397 584.515C409.713 625.675 379.999 661.171 340.456 673.264C330.389 676.315 319.929 677.877 309.41 677.899C305.656 677.899 305.646 683.779 309.41 683.779C352.01 683.515 391.818 658.829 410.124 620.168C423.099 592.728 421.081 562.955 420.904 533.487C420.669 491.347 396.502 451.882 358.459 433.301C342.877 425.772 325.784 421.891 308.479 421.953C298.679 421.953 288.947 421.953 279.186 421.953C253.576 421.953 227.968 421.953 202.364 421.953C164.419 421.953 128.756 440.259 107.667 472.07C96.1803 489.502 89.811 509.805 89.282 530.674C88.9782 542.963 89.282 555.282 89.282 567.571C89.282 584.995 91.8594 601.744 98.984 617.786C116.338 656.555 154.204 682.104 196.651 683.681C204.746 683.985 212.88 683.76 220.965 683.76H309.41C313.134 683.76 313.143 677.919 309.38 677.919Z" fill="black"/>
    <path d="M281.666 531.938C281.669 518.991 272.35 507.923 259.592 505.721C246.834 503.519 234.344 510.823 230.007 523.022C225.671 535.221 230.749 548.771 242.034 555.115V600.342H268.103V555.115C276.484 550.413 281.671 541.549 281.666 531.938Z" fill="#010101"/>
    <path d="M284.576 531.938C284.028 510.084 260.625 495.335 240.917 506.037C220.592 517.081 221.249 546.08 240.565 557.644L239.114 555.115V600.342C239.114 601.966 240.431 603.282 242.054 603.282H268.122C269.746 603.282 271.062 601.966 271.062 600.342V555.115L269.612 557.644C278.764 552.288 284.453 542.541 284.616 531.938C284.723 528.185 278.883 528.185 278.785 531.938C278.729 538.081 276.336 543.971 272.091 548.412C269.876 550.686 265.741 551.979 265.231 555.272C264.584 559.398 265.231 564.092 265.231 568.286V600.323L268.171 597.383H242.103L245.043 600.323V560.143C245.185 558.48 245.185 556.808 245.043 555.145C244.622 552.812 243.083 552.43 241.251 551.107C238.275 548.948 235.842 546.127 234.146 542.865C227.619 530.223 233.93 514.21 247.405 509.545C262.84 504.234 278.432 515.974 278.834 531.919C278.834 535.692 284.674 535.701 284.576 531.938Z" fill="black"/>
    <path d="M255.069 505.351C252.693 505.364 250.33 505.694 248.042 506.331C258.417 509.199 266.039 518.039 267.349 528.723C268.658 539.408 263.396 549.827 254.02 555.115V600.342H268.083V555.115C278.624 549.19 283.839 536.899 280.775 525.202C277.712 513.505 267.141 505.348 255.049 505.351L255.069 505.351Z" fill="#DC3545"/>
    <path d="M255.068 503.92C252.569 503.991 250.083 504.319 247.65 504.9C247.031 505.088 246.608 505.659 246.608 506.306C246.608 506.953 247.031 507.524 247.65 507.713C262.703 512.24 270.768 529.351 263.281 543.61C261.458 547.105 258.844 550.125 255.647 552.43C254.343 553.361 253.069 553.684 252.579 555.203C252.138 556.566 252.579 558.81 252.579 560.201V600.381C252.59 601.183 253.237 601.831 254.039 601.842H268.102C268.905 601.831 269.552 601.183 269.563 600.381V563.308C269.563 561.211 269.014 558.261 269.563 556.223C270.013 554.508 269.474 556.223 270.033 555.664C271.993 553.822 274.267 552.567 276.089 550.49C283.37 542.224 285.136 530.462 280.604 520.423C276.073 510.383 266.083 503.928 255.068 503.92C253.187 503.871 253.187 506.791 255.068 506.86C270.827 507.262 283.087 521.648 279.617 537.407C278.768 541.285 277.007 544.907 274.482 547.971C273.087 549.654 271.484 551.152 269.71 552.43C268.877 553.028 267.367 553.508 266.838 554.39C266.309 555.272 266.642 557.536 266.642 558.663V600.352L268.102 598.892H254.02L255.48 600.352V566.562C255.48 563.396 255.01 559.878 255.48 556.762C255.529 556.438 255.343 555.86 255.48 555.556C255.999 554.4 254.951 556.86 255.95 555.674C257.734 553.557 260.596 552.205 262.458 549.98C266.698 544.927 269.029 538.545 269.043 531.948C269.043 519.208 260.4 508.506 248.404 504.9V507.713C250.583 507.188 252.809 506.886 255.049 506.811C256.96 506.742 256.96 503.822 255.068 503.92Z" fill="#DC3545"/>
    <path d="M255.069 502.43C252.426 502.508 249.799 502.859 247.229 503.479C244.348 504.165 244.563 508.301 247.229 509.104C261.39 513.367 268.995 529.429 261.988 542.865C260.291 546.126 257.858 548.948 254.883 551.107C253.109 552.391 251.511 552.822 251.09 555.145C250.948 556.808 250.948 558.48 251.09 560.143V600.323C251.09 601.946 252.406 603.263 254.03 603.263H268.093C269.717 603.263 271.033 601.946 271.033 600.323V555.115L269.583 557.644C281.343 550.607 287.428 536.564 283.303 523.255C279.432 510.809 267.956 502.754 255.088 502.43C251.335 502.332 251.335 508.173 255.088 508.261C269.906 508.644 281.441 522.128 278.236 536.956C277.445 540.593 275.81 543.994 273.463 546.883C272.161 548.477 270.659 549.896 268.995 551.107C267.936 551.881 266.251 552.43 265.604 553.645C264.859 555.027 265.202 557.154 265.202 558.653V600.342L268.142 597.402H254.02L256.96 600.342V555.115L255.51 557.644C277.834 544.276 273.689 510.966 248.816 503.479V509.104C250.867 508.613 252.962 508.331 255.069 508.261C258.812 508.134 258.832 502.303 255.069 502.43Z" fill="black"/>
    <path fill-rule="evenodd" clip-rule="evenodd" d="M622.461 516.611C622.657 492.915 643.707 475.137 668.913 475.137C682.836 475.135 696.189 480.664 706.035 490.508C715.88 500.351 721.412 513.704 721.412 527.626V541.826C721.412 570.815 697.912 594.315 668.923 594.315C644.181 594.309 622.8 577.031 617.6 552.842H527.636V580.135H502.646V552.842H480.4V580.135H455.44V552.842H434.399C433.328 553.689 432.191 554.449 430.998 555.115V600.342H404.94V555.115C394.4 549.19 389.184 536.899 392.248 525.202C395.312 513.505 405.882 505.348 417.974 505.351C426.922 505.351 434.879 509.751 444.562 516.611H622.461ZM652.41 505.498V563.955H685.416V505.498H652.41Z" fill="black"/>
    <path d="M668.913 472.217C643.658 472.217 620.197 490.337 619.541 516.611L622.481 513.671H447.061C446.248 513.789 445.423 513.789 444.611 513.671C444.905 513.789 443.15 512.074 443.072 511.995C441.933 511.12 440.723 510.34 439.456 509.663C437.435 508.394 435.344 507.239 433.194 506.203C429.729 504.486 426.02 503.316 422.198 502.734C415.162 501.754 405.656 501.313 398.835 503.714C392.357 506.017 390.172 512.025 390.113 518.473C390.162 525.82 391.227 533.125 393.278 540.18C395.052 546.521 397.62 553.9 403.47 557.624L402 555.115V600.342C402 601.966 403.316 603.282 404.94 603.282H430.998C432.622 603.282 433.938 601.966 433.938 600.342V555.115L432.498 557.644C434.791 556.262 433.987 555.762 436.555 555.762H455.459L452.519 552.822V580.115C452.519 581.739 453.835 583.055 455.459 583.055H480.4C482.024 583.055 483.34 581.739 483.34 580.115V552.842L480.4 555.782H502.646L499.706 552.842V580.135C499.706 581.758 501.022 583.075 502.646 583.075H527.636C529.26 583.075 530.576 581.758 530.576 580.135V552.842L527.636 555.782H617.6L614.788 553.635C620.82 581.277 646.707 599.935 674.837 596.915C702.967 593.895 724.305 570.167 724.332 541.875C724.489 528.048 724.597 514.592 718.021 501.97C708.495 483.712 689.366 472.57 668.923 472.266C665.169 472.266 665.169 478.058 668.923 478.146C685.6 478.242 701.138 486.624 710.377 500.51C718.099 512.328 718.501 524.961 718.501 538.514C718.501 553.214 714.307 566.934 703.527 577.41C690.586 590.033 671.8 594.61 654.503 589.355C637.207 584.099 624.143 569.844 620.413 552.156C620.059 550.893 618.911 550.018 617.6 550.009H527.636C526.012 550.009 524.696 551.326 524.696 552.949V580.242L527.636 577.302H502.656L505.596 580.242V552.842C505.596 551.218 504.28 549.902 502.656 549.902H480.4C478.776 549.902 477.46 551.218 477.46 552.842V580.135L480.4 577.195H455.44L458.38 580.135V552.842C458.38 551.218 457.063 549.902 455.44 549.902C448.864 549.902 442.268 549.715 435.702 549.902C432.655 549.99 428.686 551.862 428.088 555.096C427.951 556.661 427.951 558.235 428.088 559.8V600.323L431.028 597.383H404.94L407.88 600.323V571.021C407.88 566.199 407.988 561.368 407.88 556.556C408 555.558 407.861 554.545 407.478 553.616C406.851 552.508 405.411 551.92 404.538 550.97C403.213 549.381 402.141 547.595 401.363 545.678C397.982 538.151 396.463 529.331 396.003 521.119C395.836 517.856 395.532 513.593 397.904 510.986C400.275 508.379 404.656 508.33 407.88 508.222C411.949 508.028 416.026 508.064 420.091 508.33C425.765 508.81 430.959 511.348 435.771 514.21C439.113 516.17 441.955 519.355 445.934 519.453C462.594 519.874 479.332 519.453 496.002 519.453H622.5C624.124 519.453 625.44 518.137 625.44 516.513C626.009 493.424 647 477.96 668.972 477.96C672.676 478.058 672.676 472.217 668.913 472.217Z" fill="black"/>
    <path d="M685.416 561.034H652.41L655.35 563.974V505.498L652.41 508.438H685.416L682.476 505.498V563.955C682.476 567.708 688.307 567.708 688.307 563.955V505.498C688.307 503.874 686.991 502.558 685.367 502.558H652.41C650.786 502.558 649.47 503.874 649.47 505.498V563.955C649.47 565.579 650.786 566.895 652.41 566.895H685.416C689.14 566.865 689.14 561.034 685.416 561.034Z" fill="black"/>
    <path fill-rule="evenodd" clip-rule="evenodd" d="M611.603 516.611C611.799 492.915 632.849 475.137 658.055 475.137C671.976 475.137 685.326 480.667 695.17 490.511C705.013 500.355 710.543 513.705 710.543 527.626V541.826C710.543 570.815 687.043 594.315 658.055 594.315C633.312 594.309 611.932 577.031 606.732 552.842H516.778V580.135H491.798V552.842H469.552V580.135H444.581V552.842H423.541C422.469 553.689 421.332 554.449 420.14 555.115V600.342H394.082V555.115C383.541 549.19 378.326 536.899 381.39 525.202C384.453 513.505 395.024 505.348 407.116 505.351C416.063 505.351 424.021 509.751 433.703 516.611H611.603ZM641.551 505.498V563.955H674.558V505.498H641.551Z" fill="#DC3545"/>
    <path d="M658.054 473.677C633.603 473.677 610.74 491.18 610.142 516.66L611.602 515.2H437.907C436.712 515.2 434.967 515.533 433.811 515.2C433.713 515.2 431.273 513.24 431.439 513.328C429.159 511.711 426.776 510.244 424.305 508.938C420.279 506.626 415.876 505.044 411.3 504.263C394.64 501.813 379.019 515.043 379.058 531.987C379.073 536.793 380.314 541.515 382.665 545.707C385.124 550.088 388.633 552.391 392.151 555.693C392.886 556.379 392.151 554.351 392.621 556.085C392.724 556.948 392.724 557.82 392.621 558.682V600.372C392.632 601.174 393.28 601.821 394.082 601.832H420.14C420.942 601.821 421.589 601.174 421.6 600.372V562.553C421.6 560.868 420.894 557.32 421.6 555.782C421.659 555.664 421.522 555.341 421.6 555.223C420.963 556.203 423.256 554.9 423.188 554.919C424.068 554.539 425.012 554.329 425.971 554.302H444.591L443.16 552.842V580.135C443.171 580.937 443.818 581.584 444.62 581.595H469.591C470.393 581.584 471.04 580.937 471.051 580.135V552.842L469.591 554.302H491.837L490.376 552.842V580.135C490.387 580.937 491.035 581.584 491.837 581.595H516.817C517.617 581.584 518.262 580.935 518.267 580.135V552.842L516.817 554.302H606.771L605.36 553.234C611.181 580.195 636.403 598.423 663.829 595.491C691.256 592.558 712.053 569.409 712.043 541.826C712.199 528.273 712.386 515.033 705.927 502.626C696.637 484.82 678.046 473.912 658.094 473.648C657.282 473.648 656.624 474.306 656.624 475.118C656.624 475.93 657.282 476.588 658.094 476.588C675.286 476.694 691.297 485.35 700.802 499.677C708.642 511.701 709.122 524.618 709.122 538.416C709.122 553.537 704.781 567.561 693.726 578.341C680.421 591.331 661.103 596.054 643.305 590.668C625.508 585.281 612.05 570.638 608.182 552.45C608.001 551.819 607.428 551.381 606.771 551.372H516.778C515.976 551.382 515.328 552.03 515.317 552.832V580.125L516.778 578.665H491.797L493.258 580.125V552.842C493.247 552.04 492.599 551.392 491.797 551.381H469.551C468.751 551.397 468.107 552.042 468.091 552.842V580.135L469.551 578.674H444.581L446.041 580.135V552.842C446.026 552.042 445.381 551.397 444.581 551.381C438.025 551.381 431.371 551.019 424.844 551.381C418.876 551.724 418.68 555.213 418.68 559.819V600.342L420.14 598.882H394.082L395.542 600.342V557.624C395.65 556.798 395.65 555.961 395.542 555.135C395.395 554.663 395.148 554.228 394.817 553.861C394.091 552.881 391.465 551.646 390.593 550.921C389.555 550.017 388.588 549.034 387.702 547.981C372.551 529.616 390.132 502.362 412.966 507.556C418.043 508.712 422.678 511.221 427.059 513.965C429.019 515.219 431.537 517.65 433.85 518.14C435.092 518.257 436.342 518.257 437.584 518.14H611.602C612.402 518.124 613.047 517.479 613.063 516.68C613.651 492.787 635.23 476.666 658.054 476.666C658.588 476.666 659.082 476.381 659.349 475.919C659.616 475.457 659.616 474.887 659.349 474.424C659.082 473.962 658.588 473.677 658.054 473.677Z" fill="#DC3545"/>
    <path d="M674.557 562.495H641.551L643.011 563.955V505.498L641.551 506.958H674.557L673.097 505.498V563.955C673.097 564.767 673.755 565.425 674.567 565.425C675.379 565.425 676.037 564.767 676.037 563.955V505.498C676.027 504.696 675.379 504.048 674.577 504.038H641.551C640.751 504.053 640.106 504.698 640.091 505.498V563.955C640.107 564.753 640.753 565.395 641.551 565.405H674.557C675.315 565.343 675.898 564.71 675.898 563.95C675.898 563.19 675.315 562.557 674.557 562.495Z" fill="#DC3545"/>
    <path d="M658.054 472.217C632.8 472.217 609.339 490.337 608.682 516.611L611.622 513.671H439.867C438.204 513.808 436.532 513.808 434.869 513.671C432.253 513.191 430.479 510.809 427.843 509.222C413.143 500.402 394.346 499.422 383.282 514.533C372.825 528.812 377.725 548.716 392.612 557.653L391.161 555.125V600.352C391.161 601.976 392.478 603.292 394.101 603.292H420.159C421.783 603.292 423.099 601.976 423.099 600.352V555.115L421.6 557.644C423.893 556.262 423.09 555.762 425.657 555.762H444.561L441.621 552.822V580.115C441.621 581.739 442.938 583.055 444.561 583.055H469.532C471.156 583.055 472.472 581.739 472.472 580.115V552.842L469.532 555.782H491.778L488.838 552.842V580.135C488.838 581.758 490.154 583.075 491.778 583.075H516.758C518.382 583.075 519.698 581.758 519.698 580.135V552.842L516.758 555.782H606.712L603.88 553.616C609.912 581.257 635.799 599.915 663.93 596.895C692.06 593.875 713.397 570.148 713.424 541.856C713.581 528.028 713.689 514.573 707.103 501.95C697.588 483.693 678.458 472.55 658.015 472.246C654.262 472.246 654.262 478.038 658.015 478.126C674.692 478.226 690.228 486.607 699.469 500.49C707.192 512.309 707.584 524.941 707.584 538.494C707.584 553.194 703.389 566.914 692.619 577.391C679.679 590.014 660.892 594.591 643.596 589.335C626.299 584.079 613.235 569.824 609.505 552.136C609.151 550.873 608.004 549.998 606.693 549.99H516.778C515.154 549.99 513.838 551.306 513.838 552.93V580.223L516.778 577.283H491.797L494.737 580.223V552.842C494.737 551.218 493.421 549.902 491.797 549.902H469.551C467.928 549.902 466.611 551.218 466.611 552.842V580.135L469.551 577.195H444.581L447.521 580.135V552.842C447.521 551.218 446.205 549.902 444.581 549.902C438.005 549.902 431.41 549.715 424.844 549.902C421.796 549.99 417.827 551.862 417.229 555.096C417.092 556.661 417.092 558.235 417.229 559.8V600.323L420.169 597.383H394.082L397.022 600.323V557.624C397.09 556.796 397.09 555.963 397.022 555.135C396.355 551.519 391.073 549.725 388.75 546.883C374.648 529.576 391.171 504.028 412.594 508.889C417.562 510.016 422.061 512.475 426.314 515.161C428.617 516.611 431.126 519.081 433.84 519.522C435.083 519.62 436.331 519.62 437.574 519.522H611.602C613.226 519.522 614.542 518.205 614.542 516.582C615.121 493.493 636.102 478.028 658.084 478.028C661.818 478.058 661.818 472.217 658.054 472.217Z" fill="black"/>
    <path d="M674.558 561.034H641.551L644.491 563.974V505.498L641.551 508.438H674.558L671.618 505.498V563.955C671.618 567.708 677.498 567.708 677.498 563.955V505.498C677.498 503.874 676.181 502.558 674.558 502.558H641.551C639.928 502.558 638.611 503.874 638.611 505.498V563.955C638.611 565.579 639.928 566.895 641.551 566.895H674.558C678.36 566.865 678.36 561.034 674.558 561.034Z" fill="black"/>
    <path d="M333.449 521.188C350.844 495.394 368.357 469.395 390.103 446.992C409.448 427.068 433.321 408.341 460.271 400.158C467.591 397.943 476.392 397.051 482.458 402.696C489.004 408.782 485.398 417.807 482.233 424.687C476.628 436.944 468.542 447.906 458.487 456.88C455.998 459.105 452.96 462.407 449.893 463.74C448.227 464.446 449.305 465.23 447.315 463.446C445.326 461.662 446.188 462.672 446.825 461.016C447.462 459.359 449.54 457.576 450.745 456.263C455.526 451.184 460.872 446.67 466.68 442.807C472.676 438.804 479.119 435.516 485.878 433.007C491.601 430.9 498.305 428.568 504.449 430.067C509.241 431.214 511.897 435.065 511.525 439.975C511.31 442.203 510.549 444.344 509.31 446.208C508.154 448.05 508.085 449.05 506.527 447.031C504.969 445.012 506.282 444.699 507.762 443.111C513.197 437.329 518.904 431.818 524.882 426.578C537.583 415.529 551.328 405.742 565.925 397.355C568.267 396.002 566.17 392.455 563.818 393.739C546.79 403.216 530.958 414.699 516.66 427.941C512.916 431.397 509.281 434.99 505.753 438.721C503.626 440.945 500.167 443.621 499.951 446.972C499.876 449.314 501.096 451.507 503.125 452.677C505.155 453.848 507.664 453.806 509.653 452.568C515.288 448.824 517.581 439.495 515.053 433.448C512.279 426.853 505.155 424.765 498.53 425.285C482.125 426.578 465.318 436.878 453.342 447.599C449.373 451.147 439.691 458.615 441.582 464.955C442.268 467.123 444.057 468.762 446.276 469.257C449.785 470.022 452.686 467.209 455.243 465.249C469.32 454.552 480.36 440.364 487.27 424.089C490.131 417.308 492.523 409.321 488.093 402.637C483.81 396.189 475.676 393.729 468.287 394.336C459.379 395.071 450.647 399.236 442.69 403.078C434.239 407.243 426.152 412.108 418.513 417.621C381.557 444.169 356.038 482.517 331.293 519.963C330.401 521.305 332.557 522.54 333.449 521.217V521.188Z" fill="#DC3545"/>
    <path d="M322.62 558.653L343.278 550.607C344.974 549.941 344.258 547.167 342.514 547.853L321.934 556.095C320.376 556.722 321.042 559.27 322.639 558.653H322.62Z" fill="#DC3545"/>
    <path d="M325.795 575.293L341.044 572.736C342.681 572.461 342.024 569.923 340.348 570.237L325.188 573.088C323.728 573.363 324.355 575.538 325.795 575.293Z" fill="#DC3545"/>
    <path d="M327.902 591.522C331.361 592.451 334.934 592.886 338.515 592.816C340.162 592.816 340.152 590.189 338.515 590.268C335.151 590.439 331.779 590.136 328.5 589.366C327.905 589.201 327.288 589.55 327.123 590.145C326.958 590.741 327.307 591.357 327.902 591.522Z" fill="#DC3545"/>
    <path d="M328.177 607.173C329.55 608.143 331.278 608.469 332.91 608.065C334.566 607.682 333.841 604.997 332.205 605.507C331.252 605.822 330.209 605.692 329.363 605.154C328.049 604.35 326.981 606.31 328.177 607.173Z" fill="#DC3545"/>
    <path d="M392.563 534.947C393.091 529.984 396.072 525.616 400.501 523.314C404.774 521.276 408.566 522.266 412.849 523.51C416.436 524.549 417.925 519.816 415.24 517.836C409.732 513.789 401.187 514.759 395.895 518.659C390.603 522.56 388.506 528.851 389.495 535.319C389.78 537.201 392.435 536.505 392.563 534.908V534.947Z" fill="white"/>
    <path d="M421.727 525.088C422.588 525.088 423.285 524.39 423.285 523.53C423.285 522.669 422.588 521.972 421.727 521.972C420.867 521.972 420.169 522.669 420.169 523.53C420.169 524.39 420.867 525.088 421.727 525.088Z" fill="white"/>
    <path d="M402.725 556.105C401.882 566.709 401.539 577.234 401.49 587.877C401.49 591.375 406.959 591.385 406.939 587.877C406.939 577.234 406.557 566.709 405.714 556.105C405.651 555.326 405.001 554.727 404.22 554.727C403.438 554.727 402.788 555.326 402.725 556.105Z" fill="white"/>
    <path d="M450.02 554.478C449.099 560.152 448.433 566.072 449.266 571.795C449.589 574 453.401 574 453.725 571.795C454.558 566.072 453.891 560.152 452.97 554.478C452.771 553.834 452.175 553.394 451.5 553.394C450.825 553.394 450.229 553.834 450.03 554.478H450.02Z" fill="white"/>
    <path d="M498.481 553.675C497.668 559.334 497.304 565.049 497.393 570.766C497.452 574.01 502.381 574.019 502.44 570.766C502.529 565.049 502.165 559.334 501.352 553.675C501.156 552.254 498.677 552.244 498.481 553.675Z" fill="white"/>
    <path d="M442.092 529.537C456.38 529.91 470.639 530.625 484.928 530.87C499.216 531.115 513.504 530.87 527.763 531.311C542.022 531.752 556.291 532.565 570.609 532.35C577.469 532.242 584.231 531.958 591.052 531.654C598.029 531.34 605.262 531.546 612.161 530.409C614.533 530.017 614.533 526.009 612.161 525.617C605.575 524.529 598.686 524.706 592.022 524.412C584.888 524.088 577.753 523.785 570.609 523.677C556.301 523.461 542.062 524.245 527.763 524.706C513.465 525.166 499.206 524.892 484.928 525.147C470.649 525.402 456.38 526.127 442.092 526.48C441.247 526.48 440.563 527.164 440.563 528.008C440.563 528.853 441.247 529.537 442.092 529.537Z" fill="white"/>
    <path d="M661.7 482.566C650.734 480.224 639.572 482.448 631.007 489.837C622.187 497.442 616.395 509.271 618.423 520.972C618.953 524.049 623.647 523.197 623.706 520.257C624.127 500.892 641.865 484.183 661.259 485.839C663.121 485.996 663.523 482.958 661.7 482.566Z" fill="white"/>
    <path d="M621.275 530.899C622.195 530.899 622.941 530.153 622.941 529.233C622.941 528.313 622.195 527.567 621.275 527.567C620.355 527.567 619.609 528.313 619.609 529.233C619.609 530.153 620.355 530.899 621.275 530.899Z" fill="white"/>
    <path d="M615.64 553.714C618.071 560.574 620.932 567.032 625.509 572.814C629.429 577.714 635.613 583.77 642.081 584.907C643.23 585.17 644.403 584.57 644.862 583.483C645.321 582.397 644.933 581.138 643.943 580.497C641.15 578.39 637.896 577.097 635.123 574.833C632.807 572.841 630.711 570.607 628.87 568.169C625.019 563.269 621.834 557.742 618.316 552.557C617.424 551.244 614.984 552.018 615.591 553.714H615.64Z" fill="white"/>
    <path d="M826.213 499.647C823.174 491.072 815.246 484.996 808.631 479.146C805.4 476.078 801.972 473.224 798.371 470.6C794.02 467.66 789.717 463.985 784.964 461.78C782.632 460.702 779.692 463.691 782.024 465.631C785.699 468.718 789.864 470.884 793.422 474.187C796.685 477.235 800.066 480.155 803.428 483.124C810.199 489.093 816.785 495.345 823.704 501.127C824.762 502.019 826.81 501.215 826.252 499.647H826.213Z" fill="black"/>
    <path d="M591.434 467.405C583.163 476.784 574.676 486.554 570.991 498.501C567.934 508.428 568.453 519.081 569.443 529.4C570.423 539.465 571.991 549.98 578.008 558.094C580.899 562.014 585.142 565.346 590.003 565.415C596.001 565.493 600.989 560.515 603.566 555.135C611.455 538.592 603.615 516.817 614.258 501.891" fill="white"/>
    <path d="M720.265 471.668C691.629 438.593 632.574 421.365 598.186 455.469C589.592 463.985 581.007 473.54 574.519 483.791C567.836 494.345 565.268 505.968 565.572 518.385C565.866 530.233 566.816 543.434 572.05 554.253C576.126 562.671 584.672 571.187 594.815 567.747C605.595 564.072 609.152 551.293 610.201 541.209C611.524 528.469 609.221 514.553 616.698 503.322C618.727 500.274 613.847 497.442 611.798 500.47C600.891 516.493 608.956 536.819 600.852 553.547C598.892 557.702 595.07 562.367 589.984 562.279C584.241 562.181 580.115 556.399 577.802 551.793C573.02 542.316 572.314 530.654 571.922 520.227C571.432 508.203 573.461 497.217 579.948 486.956C585.603 478.009 593.051 469.914 600.332 462.27C608.261 453.94 616.992 447.697 628.419 445.169C638.419 443.126 648.697 442.828 658.799 444.287C681.267 447.352 702.092 457.753 718.04 473.873C719.471 475.324 721.558 473.168 720.255 471.668H720.265Z" fill="black"/>
    <path d="M771.901 458.468C763.404 450.373 750.655 447.893 739.071 449.775C727.487 451.657 716.884 457.419 707.172 464.014C689.573 475.987 674.187 490.925 661.7 508.163C657.603 513.818 653.674 520.854 656.016 527.42C657.28 530.968 660.249 533.702 663.562 535.525C677.478 543.159 695.059 535.525 706.937 525C725.076 551.656 761.425 564.347 792.197 554.762C797.332 553.165 802.604 550.989 807.877 551.901C809.274 552.286 810.72 552.461 812.169 552.42C813.57 552.128 814.874 551.488 815.962 550.558C831.024 539.259 835.081 515.749 824.684 500.049C821.175 494.747 816.383 490.445 811.64 486.202C802.741 478.234 793.794 470.228 783.661 463.897" fill="white"/>
    <path d="M772.989 457.39C749.165 433.291 713.915 453.842 692.835 470.776C678.341 482.419 629.233 525.852 665.395 539.876C680.879 545.884 697.382 537.024 708.819 526.842L704.722 526.313C715.287 541.013 730.33 552.381 747.94 557.036C751.027 557.849 752.203 553.341 749.244 552.303C733.289 546.736 718.864 537.848 709.23 523.687C708.813 523 708.106 522.541 707.309 522.438C706.512 522.335 705.712 522.6 705.134 523.157C694.55 532.095 673.303 542.512 661.338 529.851C654.625 522.736 661.916 513.191 666.522 507.095C671.749 500.179 677.464 493.646 683.623 487.544C695.236 476 708.515 465.435 723.234 458.144C737.954 450.853 757.162 448.462 770.862 459.595C772.362 460.8 774.439 458.86 773.028 457.429L772.989 457.39Z" fill="black"/>
    <path d="M770.607 644.805C766.001 601.998 789.502 560.525 820.156 530.282C829.456 521.109 842.069 512.054 854.456 516.043C860.17 517.875 864.668 522.197 869.46 525.843C895.626 545.58 934.885 546.756 954.465 573.03C963.677 585.378 966.705 601.606 965 616.914C963.295 632.222 957.209 646.755 949.644 660.171C941.804 674.175 932.111 687.337 919.95 697.842C911.286 705.33 901.467 711.366 891.53 716.982C883.425 721.549 874.693 725.978 865.413 725.616C852.976 725.126 842.53 716.168 834.572 706.604C826.614 697.039 819.784 686.151 809.484 679.164C800.664 673.205 790.041 670.54 781.142 664.758C772.244 658.976 765.021 647.931 768.922 638.053" fill="#010101"/>
    <path d="M772.195 644.805C768.53 604.625 789.541 566.297 816.501 537.985C823.547 530.576 831.416 522.452 841.393 519.228C853.29 515.386 860.728 523.255 869.636 529.606C883.082 539.19 899.115 544.159 914.324 550.127C930.004 556.272 946.135 564.102 954.965 579.194C965.745 597.569 963.599 620.06 956.317 639.238C948.977 658.535 937.08 677.38 922.106 691.698C914.471 699.028 905.74 704.996 896.626 710.386C887.286 715.943 876.692 722.921 865.383 722.45C842.392 721.47 831.74 694.197 816.697 680.928C808.386 673.607 798.194 670.295 788.463 665.395C778.732 660.495 767.648 650.891 771.803 638.807C773.048 635.142 767.266 633.574 766.021 637.21C762.895 646.314 766.864 655.546 773.302 662.161C781.201 670.275 792.412 673.254 802.183 678.35C822.048 688.689 829.623 711.896 848.606 723.43C869.068 735.847 890.334 722.323 907.807 710.808C927.28 697.96 941.98 680.506 953.181 660.191C963.785 640.934 971.174 619.119 967.558 596.932C964.373 577.332 952.182 562.299 935.032 552.91C918.244 543.708 899.311 539.376 882.425 530.37C878.639 528.387 875.006 526.124 871.557 523.598C866.99 520.227 862.825 516.258 857.533 513.994C847.733 509.81 837.306 513.338 828.986 519.13C819.039 526.058 810.699 535.603 803.134 545.002C795.506 554.36 788.835 564.459 783.22 575.146C772.058 596.589 766.384 620.628 768.99 644.805C769.206 646.765 772.371 646.863 772.175 644.805H772.195Z" fill="black"/>
    <path d="M782.965 463.407C789.032 466.347 793.922 471.825 798.822 476.353C803.722 480.88 808.769 485.751 813.385 490.788C817.951 495.591 822.179 500.706 826.036 506.096C829.76 511.505 832.22 517.415 835.444 523.069C837.248 526.244 842.216 524.108 841.324 520.6C837.992 507.86 827.203 495.267 817.804 486.398C812.169 481.076 806.152 476.166 800.066 471.364C795.078 467.444 790.149 462.946 784.171 460.584C782.564 459.957 781.437 462.623 782.995 463.377L782.965 463.407Z" fill="black"/>
    <path d="M869.323 712.052C857.288 683.26 870.175 652.508 888.08 629.36C896.43 618.58 905.72 608.123 916.275 599.441C921.507 595.045 927.264 591.316 933.415 588.337C939.902 585.27 946.449 584.202 953.358 582.653C955.837 582.104 955.083 578.616 952.78 578.439C939.001 577.459 924.781 586.064 914.442 594.247C902.613 603.615 892.49 615.219 883.533 627.302C865.471 651.694 853.525 683.613 867.049 712.964C867.627 714.199 869.823 713.297 869.284 711.984L869.323 712.052Z" fill="#DC3545"/>
    <path d="M687.602 611.495C686.622 622.853 686.69 636.847 693.266 646.706C694.53 648.597 697.735 647.47 697.059 645.109C693.893 634.035 692.257 622.49 690.6 611.093C690.336 609.27 687.749 609.907 687.602 611.495Z" fill="black"/>
    </svg>
    