<svg width="1000" height="1000" viewBox="0 0 1000 1000" fill="none" xmlns="http://www.w3.org/2000/svg">
    <rect x="552.234" y="287.173" width="413.266" height="79.2428" rx="39.6214" fill="#DC3545"/>
    <path d="M925.878 364.897H599.46C590.718 364.897 582.408 364.839 574.303 360.615C548.177 347.012 547.187 308.792 572.628 293.896C580.938 288.996 589.66 288.693 598.833 288.693H913.187C917.411 288.693 921.635 288.634 925.859 288.693C954.328 289.114 973.31 320.258 959.091 345.474C952.261 357.393 939.615 364.788 925.878 364.897C923.918 364.897 923.918 367.975 925.878 367.935C951.035 367.514 970.753 344.807 966.401 319.7C962.942 299.698 945.253 285.841 925.29 285.655C906.729 285.478 888.158 285.655 869.587 285.655H650.067C630.957 285.655 611.847 285.557 592.727 285.655C573.608 285.753 556.389 298.228 551.891 317.122C546.119 341.358 563.651 365.691 588.504 367.788C593.551 368.22 598.715 367.935 603.772 367.935H925.878C926.717 367.935 927.397 367.255 927.397 366.416C927.397 365.577 926.717 364.897 925.878 364.897Z" fill="#DC3545"/>
    <path d="M925.879 363.378H599.46C590.993 363.378 582.938 363.378 575.068 359.302C549.941 346.248 548.912 309.547 573.392 295.21C581.468 290.476 589.925 290.212 598.872 290.212H913.188C917.412 290.212 921.635 290.153 925.859 290.212C953.172 290.613 971.439 320.503 957.778 344.7C951.232 356.164 939.08 363.279 925.879 363.378C921.959 363.447 921.959 369.523 925.879 369.454C952.084 369.013 972.39 345.376 967.872 319.298C964.295 298.64 945.9 284.322 925.32 284.126C906.759 283.949 888.188 284.126 869.617 284.126H650.097C630.987 284.126 611.877 284.038 592.757 284.126C573.04 284.224 555.106 297.179 550.451 316.721C544.433 341.965 562.71 367.122 588.533 369.307C593.58 369.739 598.745 369.454 603.802 369.454H925.879C929.789 369.454 929.799 363.378 925.879 363.378Z" fill="black"/>
    <path d="M910.62 287.173H591.855C569.973 287.173 552.234 304.912 552.234 326.795C552.234 337.303 556.408 347.381 563.839 354.811C571.269 362.242 581.347 366.416 591.855 366.416H910.62V287.173Z" fill="black"/>
    <path d="M910.62 285.654H607.095C602.195 285.654 597.295 285.654 592.395 285.654C575.47 285.811 559.996 295.65 553.655 311.565C545.705 332.062 555.1 355.204 575.088 364.358C582.359 367.612 589.788 367.935 597.51 367.935H910.62C911.455 367.925 912.129 367.251 912.139 366.416V287.173C912.139 286.334 911.459 285.654 910.62 285.654C909.781 285.654 909.101 286.334 909.101 287.173V366.416L910.62 364.897H593.747C578.655 364.897 564.631 357.655 557.742 343.778C546.344 320.836 561.26 292.504 586.691 289.045C591.277 288.428 596.06 288.692 600.676 288.692H910.62C911.459 288.692 912.139 288.012 912.139 287.173C912.139 286.334 911.459 285.654 910.62 285.654Z" fill="black"/>
    <path d="M910.62 284.136H607.095C602.195 284.136 597.295 284.087 592.395 284.136C574.755 284.302 558.761 294.612 552.215 311.164C543.934 331.979 553.91 356.509 574.353 365.672C581.869 369.043 589.533 369.454 597.54 369.454H910.62C912.289 369.433 913.637 368.085 913.658 366.416V287.174C913.658 283.254 907.582 283.254 907.582 287.174V366.416L910.62 363.378H611.377C605.497 363.378 599.617 363.378 593.737 363.378C579.145 363.378 565.699 356.42 559.045 343.014C548.118 321.013 562.554 293.847 586.887 290.545C591.395 289.927 596.128 290.212 600.666 290.212H910.62C914.54 290.212 914.54 284.136 910.62 284.136Z" fill="black"/>
    <rect x="552.234" y="436.045" width="413.266" height="79.2428" rx="39.6214" fill="black"/>
    <path d="M925.879 512.25H599.46C590.993 512.25 582.938 512.25 575.068 508.183C549.98 495.1 548.912 458.419 573.392 444.081C581.468 439.348 589.925 439.083 598.872 439.083H913.188C917.412 439.083 921.635 439.024 925.859 439.083C953.172 439.485 971.439 469.375 957.778 493.581C951.23 505.043 939.079 512.155 925.879 512.25C921.959 512.319 921.959 518.404 925.879 518.336C952.084 517.895 972.39 494.247 967.872 468.17C964.295 447.511 945.9 433.203 925.32 433.007C906.759 432.831 888.188 433.007 869.617 433.007H650.097C630.987 433.007 611.877 432.909 592.757 433.007C573.04 433.105 555.106 446.051 550.451 465.592C544.433 490.837 562.71 516.003 588.533 518.189C593.58 518.61 598.745 518.336 603.802 518.336H925.879C929.789 518.336 929.799 512.25 925.879 512.25Z" fill="black"/>
    <path d="M803.163 436.045H591.855C569.973 436.045 552.234 453.785 552.234 475.667C552.234 497.549 569.973 515.288 591.855 515.288H803.163V436.045Z" fill="#DC3545"/>
    <path d="M803.163 434.526H596.324C591.336 434.526 586.436 434.575 581.555 435.83C567.115 439.648 555.836 450.926 552.018 465.367C545.237 491.69 565.817 516.562 592.453 516.817C626.155 517.131 659.887 516.817 693.599 516.817C729.486 516.817 765.394 517.17 801.281 516.817H803.163C804.003 516.806 804.681 516.128 804.692 515.288V436.045C804.628 435.251 803.965 434.639 803.168 434.639C802.371 434.639 801.708 435.251 801.644 436.045V515.288L803.163 513.769H599.901C597.226 513.769 594.55 513.769 591.885 513.769C575.381 513.544 560.427 502.989 555.478 487.045C550.531 470.777 556.841 453.19 571.001 443.778C578.018 439.172 585.926 437.564 594.178 437.564H698.489C732.789 437.564 767.03 437.907 801.281 437.564H803.163C804.002 437.564 804.682 436.884 804.682 436.045C804.682 435.206 804.002 434.526 803.163 434.526Z" fill="#DC3545"/>
    <path d="M803.163 433.007H596.324C591.199 433.007 586.172 433.076 581.154 434.37C566.195 438.323 554.511 450.006 550.558 464.965C543.532 492.239 564.827 518.071 592.453 518.336C626.156 518.65 659.887 518.336 693.599 518.336C729.487 518.336 765.404 518.806 801.282 518.336H803.163C804.838 518.315 806.19 516.963 806.211 515.288V436.045C806.211 432.125 800.125 432.125 800.125 436.045V515.288L803.163 512.25H599.901C597.226 512.25 594.551 512.25 591.885 512.25C576.068 512.035 561.691 501.901 556.948 486.643C552.182 471.046 558.208 454.17 571.775 445.12C578.567 440.651 586.191 439.113 594.178 439.113H698.489C732.789 439.113 767.031 439.573 801.282 439.113H803.163C807.083 439.083 807.083 433.007 803.163 433.007Z" fill="black"/>
    <path d="M447.433 470.041C462.838 449.135 478.92 428.751 495.678 408.889C499.01 404.969 502.665 400.814 507.644 399.423C510.79 398.541 514.269 398.835 517.199 397.384C520.903 395.552 522.863 391.396 526.195 388.937C533.055 383.841 542.855 387.604 550.166 392.19C557.664 396.93 564.658 402.424 571.04 408.586C573.98 411.428 576.92 414.622 577.9 418.611C578.88 422.6 577.028 427.539 573.088 428.666C576.479 429.264 578.782 432.723 579.154 436.153C579.527 439.583 578.439 443.013 577.341 446.247C557.175 505.879 530.771 563.216 498.569 617.306" fill="white"/>
    <path d="M528.704 395.463C533.498 377.53 539.874 360.056 547.755 343.249C550.274 337.869 553.145 332.332 558.045 328.98C562.945 325.629 570.462 325.344 574.235 329.96C578.076 325.844 582.232 321.522 587.69 320.16C593.149 318.798 600.117 321.816 600.695 327.422C606.635 320.335 615.038 315.759 624.215 314.613C629.027 314.035 634.26 314.545 638.062 317.553C641.865 320.562 643.521 326.569 640.571 330.421C638.866 332.655 636.083 333.723 633.515 334.899C624.064 339.247 616.026 346.164 610.319 354.862C612.74 349.975 616.667 345.993 621.52 343.504C623.99 342.249 627.135 341.465 629.36 343.063C630.84 344.111 631.535 345.924 632.035 347.659C636.72 363.956 629.732 381.959 618.021 394.189C606.31 406.42 590.523 413.956 574.725 420.13" fill="white"/>
    <path d="M530.449 395.934C535.594 381.626 540.739 367.396 547.109 353.549C549.843 347.6 552.322 340.809 556.458 335.664C560.045 331.185 567.061 327.177 571.961 332.214C573.228 333.462 575.262 333.462 576.528 332.214C579.674 328.774 583.163 324.648 587.788 323.276C591.875 322.071 596.883 323.619 597.735 328.176C598.147 330.391 601.42 331.205 602.871 329.529C607.803 323.683 614.54 319.642 622.02 318.043C625.324 317.235 628.771 317.215 632.084 317.984C635.75 319.023 640.307 322.786 638.69 327.206C637.474 330.538 632.614 331.675 629.811 333.086C626.818 334.616 623.968 336.41 621.295 338.447C615.938 342.553 611.302 347.521 607.575 353.147L613.092 356.371C615.154 352.224 618.433 348.805 622.49 346.571C624.078 345.758 626.792 345.003 628.302 346.669C628.909 347.345 629.115 349.06 629.282 349.942C629.867 352.376 630.176 354.868 630.203 357.371C630.379 366.857 627.018 376.079 621.843 383.938C610.867 400.598 591.738 409.654 573.755 416.68C569.59 418.317 571.422 425.128 575.627 423.462C599.47 414.024 624.107 400.922 633.574 375.442C635.664 369.908 636.736 364.041 636.739 358.125C636.739 352.99 636.2 345.66 632.584 341.642C624.48 332.616 611.25 346.14 607.526 353.127C605.566 356.783 610.75 359.752 613.043 356.351C618.923 347.531 626.861 341.475 636.367 336.908C643.609 333.439 647.784 326.579 643.315 318.866C639.15 311.683 630.085 310.487 622.598 311.614C613.216 313.116 604.676 317.91 598.51 325.138L603.645 326.501C602.498 320.405 596.667 316.779 590.709 316.701C582.986 316.563 576.92 322.434 571.942 327.608H576.509C572.089 322.845 565.268 321.934 559.319 324.198C552.293 326.853 548.226 333.508 545.1 339.946C536.64 357.393 530.54 375.888 526.96 394.944C526.689 395.905 527.249 396.903 528.209 397.173C529.17 397.444 530.168 396.885 530.439 395.924L530.449 395.934Z" fill="black"/>
    <path d="M447.433 470.041C462.838 449.135 478.92 428.751 495.678 408.889C499.01 404.969 502.665 400.814 507.644 399.423C510.79 398.541 514.269 398.835 517.199 397.384C520.903 395.552 522.863 391.396 526.195 388.937C533.055 383.841 542.855 387.604 550.166 392.19C557.664 396.93 564.658 402.424 571.04 408.586C573.98 411.428 576.92 414.622 577.9 418.611C578.88 422.6 577.028 427.539 573.088 428.666C576.479 429.264 578.782 432.723 579.154 436.153C579.527 439.583 578.439 443.013 577.341 446.247C557.175 505.879 530.771 563.216 498.569 617.306" fill="white"/>
    <path d="M449.04 471.012C458.794 458.062 468.8 445.322 479.058 432.792C483.958 426.823 488.858 420.885 493.934 415.034C499.363 408.713 503.734 402.833 512.466 401.608C518.777 400.726 521.58 397.913 525.755 393.425C531.488 387.271 539.426 389.652 545.943 393.239C552.781 397.139 559.159 401.797 564.955 407.125C567.506 409.261 569.878 411.602 572.05 414.123C574.372 416.994 577.361 423.658 572.197 425.726C569.521 426.794 569.061 430.734 572.197 431.606C580.899 434.115 572.579 450.471 570.737 455.694C567.914 463.678 564.974 471.622 561.917 479.528C555.821 495.351 549.288 510.996 542.317 526.46C528.459 557.032 512.902 586.806 495.718 615.64C493.562 619.266 499.216 622.559 501.362 618.943C520.65 586.412 537.87 552.698 552.92 518.003C560.244 501.107 567.055 484.006 573.353 466.7C576.411 458.272 580.723 449.226 581.997 440.328C582.908 433.977 580.36 427.529 573.833 425.628V431.508C578.223 429.86 581.129 425.661 581.125 420.973C581.232 415.318 577.518 410.634 573.716 406.851C564.504 397.727 551.891 386.594 538.818 383.929C533.653 382.87 528.312 383.38 524.049 386.702C521.648 388.574 520.129 391.24 517.797 393.16C514.553 395.865 510.643 395.346 506.831 396.473C500.647 398.305 496.472 403.49 492.542 408.233C487.642 414.224 482.788 420.248 477.98 426.304C466.925 440.272 456.181 454.476 445.747 468.914C444.297 470.923 447.6 472.776 449.05 470.874L449.04 471.012Z" fill="black"/>
    <path d="M925.879 214.506H599.46C590.993 214.506 582.938 214.506 575.068 210.429C549.941 197.376 548.912 160.665 573.392 146.328C581.468 141.604 589.925 141.339 598.872 141.339H913.188C917.412 141.339 921.635 141.271 925.859 141.339C953.172 141.741 971.439 171.621 957.778 195.827C951.229 207.289 939.079 214.403 925.879 214.506C921.959 214.565 921.959 220.651 925.879 220.582C952.084 220.141 972.39 196.504 967.872 170.426C964.295 149.767 945.9 135.44 925.32 135.254C906.759 135.077 888.188 135.254 869.617 135.254H650.097C630.987 135.254 611.877 135.156 592.757 135.254C573.04 135.352 555.106 148.297 550.451 167.839C544.433 193.083 562.71 218.25 588.533 220.435C593.58 220.866 598.745 220.582 603.802 220.582H925.879C929.789 220.582 929.799 214.506 925.879 214.506Z" fill="black"/>
    <path d="M645.902 138.292H591.855C569.971 138.297 552.234 156.039 552.234 177.923C552.234 199.805 569.973 217.545 591.855 217.545H645.902V138.292Z" fill="#DC3545"/>
    <path d="M645.902 135.254H607.486C592.051 135.254 577.263 134.617 564.504 145.191C546.981 159.725 544.306 186.449 558.339 204.285C565.19 212.959 575.126 218.65 586.073 220.171C591.189 220.867 596.471 220.583 601.626 220.583H645.902C647.573 220.562 648.924 219.215 648.95 217.545V138.292C648.95 134.372 642.864 134.372 642.864 138.292V217.545L645.902 214.507H611.602C598.363 214.507 584.025 216.241 572.275 208.842C552.675 196.524 549.647 168.368 565.964 152.002C577.302 140.664 591.444 141.291 606.144 141.291H645.883C649.822 141.32 649.822 135.254 645.902 135.254Z" fill="black"/>
    <path d="M711.416 432.625C708.809 411.712 706.672 388.701 718.462 371.228C722.637 365.044 730.065 359.566 737.082 362.045C744.099 364.525 746.019 375.207 740.433 379.989C744.726 367.906 749.988 356.028 757.701 345.787C765.414 335.546 775.753 326.961 787.944 322.992C790.727 322.081 793.824 321.434 796.529 322.61C800.792 324.482 802.026 330.284 800.449 334.684C798.871 339.084 795.392 342.426 792.177 345.807C785.693 352.623 780.047 360.19 775.361 368.347C776.282 361.183 785.161 358.076 792.364 358.547C797.46 358.9 803.408 361.212 804.28 366.25C805.26 371.855 799.322 376.05 794.069 378.255C798.763 375.011 803.977 371.62 809.651 372.12C816.148 372.688 821.303 378.539 822.685 384.909C824.067 391.279 822.322 397.953 819.608 403.872C818.157 407.027 816.099 410.32 812.748 411.261C809.396 412.202 805.143 408.938 806.495 405.744C806.495 426.422 790.815 450.461 760.21 475.608" fill="white"/>
    <path d="M713.366 432.625C712.503 416.72 710.494 400.079 715.737 384.683C718.217 377.422 723.058 367.749 731.025 365.407C738.463 363.231 743.412 372.326 738.267 377.814L743.432 380.812C749.714 360.389 762.356 339.241 781.897 329.166C785.474 327.324 793.824 322.777 796.891 327.304C799.958 331.832 795.401 337.447 792.51 340.574C784.974 348.757 778.095 357.028 772.46 366.671L778.673 369.288C779.957 362.702 788.414 361.193 794.088 362.232C797.567 362.878 802.32 364.976 800.546 369.356C799.321 372.404 795.186 374.178 792.412 375.422L795.803 381.204C799.723 378.49 804.153 375.246 809.161 375.54C814.012 375.824 817.785 380.077 819.137 384.507C820.489 388.937 819.725 394.042 818.226 398.472C817.505 400.82 816.481 403.064 815.178 405.146C814.634 406.163 813.802 406.999 812.787 407.547C812.199 407.772 809.415 408.292 809.847 406.694L803.222 405.802C802.918 433.713 777.683 456.9 757.897 473.256C754.516 476.059 759.357 480.861 762.718 478.077C784.043 460.437 809.66 435.692 809.964 405.802C809.964 402.049 804.231 401.157 803.339 404.901C801.713 411.761 809.219 416.759 815.344 413.936C822.646 410.575 825.781 399.452 826.467 392.21C827.251 383.988 824.008 375.246 816.609 370.954C808.239 366.103 799.606 370.562 792.461 375.422C788.835 377.892 791.942 382.929 795.852 381.204C801.085 378.901 806.995 375.001 807.749 368.798C808.435 363.212 804.662 358.87 799.743 356.842C790.178 352.922 774.459 355.734 772.166 367.484C771.46 371.13 776.34 373.59 778.379 370.101C782.353 363.216 787.008 356.749 792.275 350.795C796.45 346.13 801.82 341.75 803.81 335.585C805.211 331.224 804.721 325.785 801.624 322.277C798.057 318.19 792.706 318.092 787.826 319.513C775.723 323.041 765.149 331.332 757.358 341.073C748.136 352.49 743.04 365.74 737.474 379.176C736.209 382.263 740.58 384.007 742.638 382.175C748.714 376.775 748.273 366.612 742.334 361.203C734.338 353.931 723.019 359.811 717.256 366.857C702.556 384.811 705.437 412.025 709.544 433.144C709.955 435.291 713.464 434.82 713.366 432.625Z" fill="black"/>
    <path d="M41.2425 882.249C28.3261 815.981 33.5201 747.352 60.6563 685.524C62.0773 682.29 63.8021 678.82 67.0263 677.38C69.4763 676.292 72.2987 676.615 74.9643 676.968C141.986 685.739 208.862 695.588 275.737 705.388L335.233 714.14C347.149 715.894 361.389 719.549 364.838 731.094C367.455 739.865 362.271 749.086 362.614 758.23C362.81 763.492 364.819 768.49 366.808 773.371L411.016 881.847" fill="black"/>
    <path d="M42.8104 881.818C36.4404 839.168 34.7156 796.695 42.7418 754.104C46.6115 733.444 52.5813 713.233 60.5582 693.785C62.038 690.189 63.8314 683.593 67.1438 681.045C69.878 678.958 73.9352 680.065 76.9438 680.457L86.6066 681.771L120.407 686.386C166.124 692.678 211.782 699.352 257.44 706.065L325.658 716.11C334.076 717.345 343.033 718.07 350.903 721.588C360.252 725.714 363.319 732.927 361.477 742.854C360.497 747.94 359.027 753.026 359.223 758.25C359.439 763.875 361.448 769.128 363.545 774.273C368.445 786.337 373.629 798.302 378.676 810.307C388.78 834.317 398.756 858.386 408.811 882.416C409.899 885.013 414.191 883.925 413.123 881.23C404.009 858.278 394.817 835.356 385.742 812.385L372.149 777.938C370.189 772.891 367.7 767.854 366.514 762.542C365.142 756.388 366.769 750.655 367.906 744.628C369.474 736.337 369.131 728.056 362.947 721.696C357.586 716.178 349.707 713.601 342.367 712.053C331.773 709.818 320.866 708.711 310.154 707.153L273.679 701.782C225.13 694.628 176.58 687.494 127.972 680.771C116.095 679.125 104.207 677.488 92.3102 675.949C86.5184 675.195 80.7266 674.342 74.9152 673.705C70.4758 673.215 65.9972 673.284 62.5476 676.528C59.5194 679.389 58.0396 683.456 56.452 687.21C54.2633 692.397 52.2151 697.624 50.3074 702.89C46.5122 713.486 43.2996 724.282 40.6838 735.23C29.2668 782.926 28.3162 834.837 39.6156 882.671C40.1154 884.758 43.0554 883.827 42.7614 881.808L42.8104 881.818Z" fill="black"/>
    <path d="M235.733 358.135C244.651 350.579 249.453 340.084 254.627 329.852C259.929 319.366 266.721 308.635 270.307 297.424C271.415 293.965 266.534 292.22 264.672 295.043C258.498 304.382 254.618 315.858 250.031 326.05C245.278 336.585 241.113 347.002 233.459 355.832C232.823 356.468 232.823 357.499 233.459 358.135C234.095 358.771 235.126 358.771 235.762 358.135H235.733Z" fill="black"/>
    <path d="M369.66 122.808C389.927 126.59 403.166 134.097 415.72 141.065C428.274 148.033 439.524 158.284 445.003 171.553C450.197 184.156 449.805 198.228 450.451 211.831C450.677 216.594 451.196 221.729 454.371 225.257C456.723 227.854 460.144 229.177 463.397 230.431C478.636 236.439 493.709 244.573 503.469 257.724C513.23 270.876 516.366 290.064 507.321 303.676C501.353 312.683 490.984 318.327 485.927 327.882C483.556 332.361 482.527 337.418 480.665 342.132C472.055 363.983 447.568 374.955 425.53 366.837C422.59 365.75 419.65 364.319 416.612 363.594C410.203 362.075 403.47 363.682 396.914 363.084C384.53 361.729 374.253 352.898 371.052 340.858C388.966 340.858 404.529 326.52 410.938 309.782C417.347 293.043 416.289 274.414 413.574 256.695C413.27 254.735 412.976 252.54 414.025 250.815C415.073 249.09 417.18 248.346 418.66 246.964C421.816 244.024 421.463 238.761 419.405 234.959C417.347 231.156 413.995 228.256 411.398 224.816C405.313 216.78 403.637 206.255 403.372 196.18C403.108 186.106 404.048 175.943 402.392 165.996C400.096 152.589 393.204 140.4 382.9 131.52" fill="#DC3545"/>
    <path d="M369.17 124.728C382.187 127.806 394.688 132.758 406.282 139.428C417.758 145.887 429.165 152.952 436.711 164.056C445.678 177.247 445.796 192.936 446.364 208.293C446.59 214.34 446.619 220.955 450.088 226.188C453.685 231.597 460.182 233.332 465.817 235.762C478.616 241.29 491.239 248.63 499.784 259.929C507.624 270.327 511.544 285.409 505.988 297.767C500.607 309.635 487.368 315.544 481.791 327.402C478.851 333.704 477.675 340.613 474.02 346.63C470.563 352.27 465.757 356.961 460.035 360.281C452.372 364.657 443.462 366.335 434.732 365.044C426.892 363.888 420.189 359.497 412.241 359.046C403.97 358.576 396.041 360.585 388.28 356.616C381.602 353.132 376.551 347.173 374.207 340.015L371.1 344.111C386.006 343.758 398.825 335.232 407.36 323.316C417.464 309.155 419.728 291.025 418.719 274.051C418.464 269.7 417.993 265.368 417.415 261.056C417.141 258.969 416.073 255.754 416.514 253.677C416.955 251.599 419.091 250.943 420.561 249.669C425.579 245.308 425.128 237.909 421.992 232.597C419.865 228.961 416.67 226.149 414.152 222.797C411.318 218.858 409.335 214.373 408.331 209.626C406.145 200.277 406.861 190.584 406.821 181.069C406.753 161.047 400.638 142.662 385.261 129.178C382.047 126.345 377.314 131.049 380.548 133.891C393.366 145.171 399.618 160.351 400.05 177.286C400.442 192.701 398.305 209.263 406.361 223.248C409.516 228.716 419.865 235.86 417.474 242.946C416.494 245.739 412.829 246.699 411.339 249.247C409.693 252.07 410.3 255.362 410.732 258.41C413.113 275.168 414.191 292.857 407.919 308.959C402.039 324.168 388.015 337.271 371.1 337.643C370.098 337.663 369.159 338.14 368.552 338.938C367.944 339.736 367.735 340.768 367.984 341.74C370.986 354.655 381.464 364.495 394.542 366.681C403.215 368.092 411.672 365.701 420.091 368.964C427.529 371.904 434.791 373.864 442.827 373.443C457.225 372.657 470.492 365.393 478.91 353.686C483.389 347.512 485.231 340.642 487.818 333.596C490.562 326.138 496.256 321.199 501.891 315.897C512.671 305.793 518.473 293.671 516.464 278.657C514.504 263.849 505.997 251.521 494.345 242.495C488.364 237.94 481.884 234.08 475.029 230.99C468.846 228.128 458.164 226.325 455.567 219.318C452.872 212.037 454.234 202.521 453.685 194.818C453.087 186.537 451.833 178.227 448.667 170.504C442.376 155.157 429.499 144.524 415.161 136.988C400.824 129.452 386.32 123.474 370.218 120.897C367.759 120.505 366.632 124.15 369.17 124.728Z" fill="#DC3545"/>
    <path d="M350.765 127.443C370.767 125.483 386.898 140.507 392.905 158.598C398.619 175.934 396.257 194.779 400.579 212.498C402.137 218.848 403.754 225.865 407.174 231.519C409.036 234.606 412.153 237.056 413.505 240.428C415.161 244.553 410.3 246.582 408.272 249.532C403.284 256.754 407.184 266.192 408.135 274.032C409.281 283.479 409.115 293.21 406.625 302.452C401.461 321.699 383.801 337.565 363.006 335.772C360.066 335.517 359.429 340.299 362.31 340.927C371.252 343.073 380.675 341.742 388.672 337.203C396.584 332.847 403.178 326.442 407.762 318.661C412.76 310.145 415.2 300.335 415.877 290.545C416.228 285.047 416.064 279.528 415.387 274.061C414.779 268.857 412.966 263.448 413.025 258.215C413.084 252.981 417.229 251.698 419.65 247.846C421.592 244.604 421.715 240.587 419.973 237.233C418.327 233.744 415.367 231.186 413.378 227.923C411.173 224.326 410.016 219.965 408.87 215.937C406.218 206.492 404.608 196.784 404.068 186.988C403.421 176.316 403.009 165.428 399.119 155.315C391.386 135.195 372.6 120.378 350.315 123.857C348.286 124.17 348.737 127.669 350.805 127.473L350.765 127.443Z" fill="black"/>
    <path d="M330.293 227.413C331.665 217.917 342.053 212.958 349.893 207.304C362.202 198.435 370.287 184.764 375.011 170.495C379.734 156.226 382.674 146.975 384.301 132C384.448 130.687 384.556 129.237 383.772 128.159C382.894 127.214 381.717 126.601 380.44 126.424C341.926 116.703 289.016 107.402 263.585 144.564C243.808 149.003 231.304 166.487 223.914 183.98C214.232 206.912 216.447 232.294 223.914 255.431C229.5 272.689 236.155 290.163 250.855 301.913C261.007 310.027 280.402 309.753 291.123 302.942C305.97 293.485 311.86 274.473 318.161 259.273C309.596 256.284 304.51 247.278 303.049 238.428C302.207 233.342 302.334 227.942 304.559 223.278C306.783 218.613 311.419 214.84 316.593 214.595C321.767 214.35 327.177 218.338 327.451 223.483" fill="#DC3545"/>
    <path d="M332.312 227.971C334.625 218.73 344.974 214.555 352.03 209.43C359.751 203.645 366.135 196.265 370.748 187.791C375.648 179.158 378.588 169.691 381.528 160.253C384.291 151.198 386.898 141.506 387.408 132C387.858 122.925 377.98 122.484 371.1 120.799C362.868 118.778 354.537 117.185 346.14 116.026C330.244 113.841 313.741 113.184 298.071 117.212C290.434 119.099 283.189 122.317 276.668 126.718C273.502 128.881 270.549 131.338 267.848 134.058C266.632 135.293 265.486 136.577 264.388 137.909C262.693 139.987 262.124 141.192 259.812 142.094C251.57 145.328 244.494 149.121 238.252 155.53C232.178 161.924 227.172 169.254 223.424 177.237C213.928 196.837 212.34 218.25 216.398 239.467C219.984 258.214 226.786 278.971 238.624 294.21C244.847 302.216 252.344 308.665 262.536 310.644C271.304 312.431 280.406 311.568 288.682 308.165C307.557 300.021 314.535 277.706 321.532 260.194C322.277 258.342 320.699 256.529 319.111 255.921C310.203 252.55 305.96 242.26 305.96 233.273C305.96 227.971 307.587 222.297 312.359 219.396C317.132 216.496 323.433 218.475 324.237 224.385C324.825 228.657 331.322 226.844 330.744 222.591C329.813 215.81 323.335 211.057 316.632 211.223C309.233 211.409 303.088 217.289 300.697 223.963C295.582 238.252 303.157 256.93 317.279 262.614L315.201 257.518C309.096 271.973 304.127 289.672 290.574 299.119C284.302 303.49 276.315 304.921 268.788 304.47C260.076 303.961 253.432 300.403 247.473 294.141C234.9 280.97 228.54 261.86 224.228 244.514C219.328 224.669 219.024 203.354 227.236 184.332C233.675 169.416 244.151 154.344 260.213 148.944C261.772 148.425 263.839 148.327 265.241 147.445C266.642 146.563 267.397 144.848 268.308 143.682C270.682 140.647 273.369 137.871 276.325 135.401C281.906 130.84 288.305 127.384 295.18 125.218C308.9 120.769 323.747 120.573 338.016 121.906C345.582 122.66 353.105 123.798 360.556 125.316C364.103 126.032 367.661 126.737 371.208 127.512C373.893 128.09 380.548 128.492 381.283 131.334C381.851 133.49 380.587 137.341 380.214 139.556C379.803 142.078 379.316 144.583 378.754 147.072C377.696 151.727 376.373 156.314 374.942 160.871C371.826 170.837 368.474 180.618 362.692 189.408C356.91 198.199 349.482 203.883 341.132 209.783C334.762 214.291 329.313 219.338 328.235 227.423C327.922 229.784 331.773 230.225 332.341 227.981L332.312 227.971Z" fill="#DC3545"/>
    <path d="M383.713 213.154C382.254 213.545 381.007 214.496 380.244 215.8C379.317 217.293 379.283 219.174 380.156 220.7C382.116 223.865 387.339 223.434 388.163 219.573C388.535 217.828 388.045 215.457 386.35 214.555C385.257 213.973 383.921 214.107 382.966 214.895C382.011 215.682 381.625 216.968 381.989 218.152C382.037 218.398 382.113 218.638 382.214 218.867C381.812 218.671 382.773 217.348 382.694 217.417C383.211 216.986 383.904 216.829 384.556 216.995C384.711 217.052 384.849 217.146 384.958 217.27C385.291 218.005 385.409 218.181 385.301 217.809C385.301 217.681 385.232 217.554 385.203 217.427C385.247 217.533 385.247 217.653 385.203 217.76C385.115 217.985 385.272 217.544 385.272 217.544C385.566 216.868 385.899 216.27 386.134 215.584C386.341 214.894 386.152 214.145 385.642 213.636C385.133 213.126 384.384 212.937 383.694 213.144L383.713 213.154Z" fill="black"/>
    <path d="M374.158 198.444C379.538 194.524 385.075 195.308 391.318 195.416L388.858 193.534L388.986 194.211C389.202 194.961 389.796 195.542 390.551 195.743C391.305 195.943 392.11 195.734 392.67 195.191L393.131 194.681C393.822 193.936 394.014 192.857 393.624 191.919C393.234 190.98 392.333 190.356 391.318 190.32C385.075 189.703 375.707 190.32 372.316 196.621C371.728 197.719 373.002 199.307 374.158 198.464V198.444Z" fill="black"/>
    <path d="M394.924 271.503C391.21 269.773 387.173 268.841 383.076 268.769C381.75 268.628 380.419 268.977 379.332 269.749C378.713 270.35 378.283 271.12 378.098 271.964C377.59 274.484 377.849 277.099 378.842 279.47C379.553 281.657 380.73 283.663 382.292 285.35C383.882 287.052 386.08 288.056 388.407 288.143C389.295 288.191 390.173 287.935 390.896 287.418C392.053 286.497 392.229 284.841 392.308 283.371L392.7 276.109C392.778 274.747 392.994 273.169 394.219 272.483" fill="black"/>
    <path d="M395.993 269.7C391.465 266.76 383.017 262.987 377.784 266.143C372.032 269.612 373.805 278.06 376.089 283.048C378.46 288.212 384.193 292.965 390.25 291.515C392.755 290.93 394.722 288.993 395.346 286.497C395.702 284.744 395.843 282.954 395.767 281.166C395.767 279.52 395.13 275.766 396.179 274.414C397.982 272.091 395.757 268.358 392.817 270.073C390.211 271.592 389.877 273.993 389.554 276.815C389.348 278.471 389.642 281.833 388.907 283.352C388.29 284.596 388.368 284.518 386.947 284.116C385.983 283.691 385.166 282.992 384.595 282.107C383.351 280.5 380.087 274.375 382.077 272.64C382.959 271.856 385.997 272.278 387.124 272.346C389.562 272.527 391.977 272.941 394.336 273.581C395.382 273.89 396.493 273.362 396.914 272.355C397.334 271.349 396.928 270.187 395.973 269.661L395.993 269.7Z" fill="black"/>
    <path d="M329.921 226.943C328.226 219.808 324.041 213.575 315.937 214.105C308.244 214.604 302.315 220.729 300.002 227.746C297.552 235.155 299.482 243.299 304.098 249.434C307.93 254.549 316.564 261.194 323.042 257.009C323.961 256.458 324.466 255.414 324.328 254.35C324.19 253.287 323.434 252.407 322.405 252.109C320.043 251.433 317.681 251.629 315.437 250.551C313.139 249.397 311.145 247.718 309.616 245.651C306.266 241.542 304.958 236.137 306.058 230.951C307.224 226.051 311.301 220.818 316.672 220.455C322.61 220.053 323.394 226.09 327.314 228.912C328.647 229.892 330.254 228.295 329.921 226.952V226.943Z" fill="black"/>
    <path d="M316.995 233.44C317.73 232.989 319.543 236.115 319.749 236.664C319.882 237.002 319.977 237.354 320.033 237.713C320.082 237.977 319.974 238.565 320.101 238.791C320.101 239.271 320.435 239.34 321.17 239.016C322.022 239.369 322.355 239.281 322.15 238.732C322.273 238.414 322.414 238.104 322.571 237.801C323.708 236.037 321.072 233.969 319.631 235.547C318.19 237.125 317.749 240.329 319.768 241.77C322.316 243.593 323.953 240.241 323.747 238.124C323.557 235.717 322.362 233.5 320.454 232.019C319.131 231.098 316.132 229.99 315.633 232.401C315.584 232.751 315.726 233.1 316.006 233.315C316.286 233.53 316.66 233.577 316.985 233.44H316.995Z" fill="black"/>
    <path d="M378.098 161.635C375.163 174.329 368.863 185.998 359.86 195.416C355.413 199.965 350.377 203.897 344.886 207.107C340.064 210.047 334.635 212.987 331.989 218.201C330.734 220.661 334.115 223.757 336.056 221.347C340.672 215.584 346.728 212.938 352.716 208.93C358.019 205.388 362.782 201.096 366.857 196.19C374.937 186.493 379.924 174.597 381.175 162.037C381.381 160.244 378.441 159.871 378.049 161.606L378.098 161.635Z" fill="black"/>
    <path d="M331.264 230.784L331.332 230.726L330.813 231.127H330.901L330.293 231.382C330.581 231.289 330.876 231.221 331.175 231.176L330.48 231.274C330.983 231.232 331.484 231.16 331.979 231.059C333.094 230.735 333.866 229.72 333.88 228.56C333.863 228.104 333.742 227.658 333.527 227.256C333.188 226.67 332.632 226.241 331.979 226.061C331.503 225.953 331.014 225.924 330.529 225.973C330.197 226.011 329.869 226.077 329.549 226.169C328.813 226.335 328.135 226.697 327.589 227.217C327.129 227.711 326.864 228.355 326.844 229.03C326.848 230.061 327.471 230.989 328.424 231.383C329.377 231.777 330.473 231.56 331.205 230.833L331.264 230.784Z" fill="black"/>
    <path d="M378.196 277.236C381.749 278.168 384.792 280.464 386.663 283.626C387.957 285.772 391.328 283.812 390.034 281.666C387.638 277.678 383.637 274.92 379.058 274.1C377.03 273.728 376.118 276.697 378.196 277.236Z" fill="#DC3545"/>
    <path d="M366.602 153.08C367.501 153.08 368.229 152.351 368.229 151.453C368.229 150.555 367.501 149.826 366.602 149.826C365.704 149.826 364.976 150.555 364.976 151.453C364.976 152.351 365.704 153.08 366.602 153.08Z" fill="#DC3545"/>
    <path d="M340.485 381.42C344.248 374.374 348.149 367.376 351.667 360.193C354.911 353.549 357.91 346.473 362.702 340.779C365.181 337.839 360.977 333.557 358.439 336.516C353.323 342.475 350.442 349.462 347.296 356.577C343.856 364.368 340.799 372.316 337.643 380.224C336.977 381.861 339.662 382.958 340.485 381.42Z" fill="black"/>
    <path d="M255.225 309.321C270.984 315.084 288.104 310.752 300.786 300.158C307.2 294.681 312.386 287.912 316.005 280.294C319.611 272.856 323.032 263.634 322.865 255.245C322.816 252.53 318.778 251.874 318.063 254.598C316.103 261.978 315.329 269.19 312.183 276.276C309.083 283.378 304.572 289.777 298.924 295.082C287.673 305.47 270.984 310.145 256.107 306.176C254.049 305.627 253.295 308.606 255.235 309.321H255.225Z" fill="black"/>
    <path d="M366.945 340.887C368.112 348.541 371.267 356.567 376.922 362.045C382.243 367.249 390.642 368.141 397.698 369.082C406.851 370.297 415.651 369.797 424.579 372.502C444.585 379.035 466.547 372.562 479.812 356.224C489.024 344.719 490.102 328.539 500.911 318.249C503.263 316.015 499.863 312.928 497.452 314.79C487.182 322.728 485.006 336.163 478.832 346.885C472.491 357.939 461.192 365.563 448.775 368.19C442.373 369.563 435.739 369.443 429.391 367.837C422.178 365.985 415.955 364.515 408.458 364.309C400.687 364.103 392.161 363.594 384.781 360.869C377.118 358.037 372.443 347.208 369.993 340.034C369.705 339.255 368.868 338.827 368.067 339.05C367.267 339.272 366.771 340.071 366.926 340.887H366.945Z" fill="black"/>
    <path d="M428.862 148.405C435.839 154.913 442.895 161.635 445.835 170.945C448.775 180.255 448.961 190.702 449.383 200.512C449.765 209.332 449.696 216.711 454.361 224.434C459.418 232.793 460.78 241.711 455.851 250.551C453.891 253.981 459.202 257.068 461.123 253.628C465.589 245.872 466.354 236.527 463.211 228.148C461.584 223.983 458.565 220.563 456.988 216.388C454.92 210.978 455.459 204.295 455.096 198.572C454.459 188.409 454.038 177.59 450.088 168.064C446.247 158.813 438.711 152.286 431.165 146.063C429.577 144.75 427.303 146.906 428.862 148.356V148.405Z" fill="black"/>
    <path d="M486.113 240.78C505.204 255.421 523.882 282.068 508.428 305.931C506.468 308.929 511.28 311.713 513.2 308.733C520.795 296.973 521.148 281.95 515.807 269.19C510.211 255.823 499.539 245.964 487.681 238.085C485.966 236.958 484.565 239.594 486.113 240.78Z" fill="black"/>
    <path d="M503.744 313.222L504.038 313.379C504.312 313.537 504.623 313.621 504.939 313.624C505.253 313.621 505.56 313.537 505.831 313.379C506.373 313.06 506.705 312.478 506.705 311.85C506.705 311.221 506.373 310.64 505.831 310.321C505.558 310.167 505.252 310.083 504.939 310.076C504.623 310.084 504.314 310.168 504.038 310.321L503.744 310.478C503.26 310.766 502.964 311.287 502.964 311.85C502.964 312.413 503.26 312.934 503.744 313.222Z" fill="black"/>
    <path d="M232.205 353.392C231.519 344.64 239.545 337.143 248.13 335.321C256.715 333.498 265.564 335.928 273.963 338.486C300.665 346.612 326.885 356.241 352.5 367.327C357.126 369.287 362.526 372.6 362.192 377.627C362.026 380.038 360.477 382.223 360.458 384.634C360.458 389.358 365.74 391.984 370.14 393.68C381.783 398.154 392.863 403.972 403.156 411.016C417.102 420.541 429.803 432.635 436.927 447.942C442.699 460.32 444.552 474.187 444.767 487.838C445.679 554.684 409.125 615.532 390.122 679.634C386.761 690.982 383.939 703.154 387.026 714.541C388.231 718.991 390.318 723.224 390.897 727.801C392.024 736.621 387.192 745.441 380.244 751.076C373.296 756.711 364.564 759.465 355.793 761.248C331.205 766.295 305.695 764.188 280.911 760.151C231.304 752.095 183.235 736.513 135.969 719.422C103.982 707.868 69.6427 693.354 53.7079 663.336C49.0725 654.605 46.3383 643.864 50.5621 634.916C52.9435 629.879 57.2359 626.096 61.1657 622.108C90.1345 593.1 103.541 552.185 112.743 512.22C121.945 472.256 128.129 430.939 146.387 394.219C150.65 385.663 155.706 377.216 163.213 371.287C178.099 359.527 202.413 362.849 221.317 363.986C223.023 364.093 220.788 363.172 222.484 363.006C227.54 362.486 233.705 356.028 232.284 355.166" fill="white"/>
    <path d="M234.018 353.392C234.136 340.828 248.121 336.408 258.518 337.604C269.524 338.868 280.49 343.376 290.927 346.914C302.092 350.697 313.16 354.744 324.129 359.056C329.356 361.101 334.53 363.202 339.653 365.358C344.7 367.484 350.286 369.278 354.911 372.296C357.057 373.678 359.076 375.285 358.674 378.176C358.439 379.911 357.449 381.479 357.214 383.243C356.656 387.359 358.518 390.671 361.722 393.15C364.927 395.63 368.847 396.845 372.502 398.374C377.974 400.657 383.311 403.251 388.486 406.145C406.185 415.945 423.394 429.283 432.713 447.687C442.631 467.287 442.131 491.19 439.642 512.456C437.153 533.722 431.283 554.596 424.354 574.872C417.425 595.148 409.38 614.787 401.814 634.652C394.395 654.085 385.791 674.548 382.949 695.275C382.198 700.227 382.142 705.261 382.782 710.229C383.527 715.492 385.801 720.157 387.055 725.272C389.838 736.582 382.635 746.578 373.061 751.919C363.192 757.416 351.099 759.229 339.996 760.229C328.424 761.172 316.791 761.08 305.235 759.955C259.175 755.858 213.86 742.569 170.26 727.85C150.532 721.215 130.54 714.62 111.577 706.074C95.172 698.734 78.9823 689.551 66.8401 676.037C60.2839 668.717 54.3451 659.681 52.4243 649.91C50.0723 637.954 57.0597 631.29 64.6743 623.382C78.3257 609.289 88.7235 592.326 96.5929 574.382C113.253 536.475 118.976 495.345 128.766 455.42C134.009 434.026 140.458 412.613 150.748 393.043C155.207 384.566 160.783 375.932 169.368 371.218C177.59 366.71 187.439 366.014 196.622 366.044C200.836 366.044 205.04 366.269 209.234 366.534C213.272 366.798 217.927 367.788 221.974 367.269C224.169 366.984 225.835 365.309 225.257 362.957C225.198 362.741 225.149 362.525 225.1 362.3L222.729 366.485C226.404 365.142 239.693 359.625 235.185 353.372C232.646 349.844 226.727 353.245 229.305 356.812C228.197 355.273 229.687 355.558 228.187 355.989C227.364 356.234 226.433 357.567 225.679 358.057C224.168 358.858 222.57 359.483 220.916 359.919C219.138 360.467 218.094 362.305 218.534 364.113C218.534 364.329 218.632 364.554 218.691 364.77L221.974 360.458C217.711 361.016 212.831 359.948 208.548 359.683C203.599 359.38 198.65 359.154 193.691 359.262C184.646 359.458 175.365 360.654 167.231 364.73C148.788 373.933 140.164 397.717 133.539 415.818C117.781 458.869 113.674 505.066 99.3761 548.549C92.6827 568.913 83.7647 588.827 70.7601 605.987C64.4587 614.297 55.9915 620.844 49.9743 629.281C43.9571 637.719 44.0943 648.578 47.6321 658.142C61.4991 695.647 104.08 711.68 138.527 724.008C185.224 740.668 232.754 755.917 281.862 763.659C305.96 767.452 330.656 769.402 354.794 764.796C373.002 761.317 396.561 750.155 394.141 727.801C393.543 722.283 390.887 717.334 389.789 711.935C388.486 705.584 389.045 698.999 390.328 692.697C392.651 681.339 396.689 670.255 400.56 659.377C408.282 637.621 417.122 616.257 425.246 594.697C433.233 573.421 440.593 551.734 444.738 529.341C448.785 507.467 450.677 483.967 445.6 462.103C440.7 440.965 427.216 424.442 410.115 411.663C400.795 404.724 390.734 398.841 380.117 394.121C375.726 392.161 369.043 390.926 365.583 387.466C362.124 384.007 366.505 378.891 365.162 374.393C362.604 365.74 350.256 362.8 343.083 359.86C331.61 355.188 320.02 350.798 308.312 346.689C296.65 342.602 284.89 338.731 273.032 335.311C263.428 332.537 252.452 329.98 242.887 334.429C235.459 337.898 229.873 344.944 230.422 353.402C230.579 355.695 234.009 355.744 234.038 353.402L234.018 353.392Z" fill="black"/>
    <path d="M405.616 411.584C450.804 443.425 485.418 516.092 535.711 557.82C544.257 564.915 554.331 571.736 565.425 570.913C578.655 569.933 588.406 558.604 596.726 548.265C623.781 514.651 652.292 482.278 682.261 451.147C685.044 448.256 688.141 445.208 692.149 444.728C694.854 444.405 697.833 445.296 700.204 443.944C703.899 441.837 703.193 436.31 705.163 432.537C709.289 424.697 721.216 428.186 728.86 432.743L751.694 446.355C758.632 450.49 766.002 455.106 769.128 462.554C772.254 470.002 768.334 480.763 760.308 481.262C770.206 487.485 766.394 502.587 761.366 513.152C736.249 566.013 709.132 619.384 667.129 660.152C625.127 700.92 565.062 727.468 507.811 715.326C490.651 711.69 474.344 704.771 458.723 696.794C438.74 686.582 419.523 674.489 403.196 659.103C384.576 641.561 356.989 619.207 334.302 589.817" fill="white"/>
    <path d="M363.594 392.073C395.365 402.97 420.091 427.764 441.768 452.441C464.259 478.048 483.908 505.978 505.978 531.909C515.65 543.267 525.931 554.576 537.749 563.769C545.168 569.551 554.194 574.47 563.847 574.402C572.98 574.333 581.026 569.58 587.582 563.563C595.491 556.301 601.841 547.324 608.633 539.063C616.185 529.916 623.846 520.835 631.614 511.819C647.568 493.369 663.98 475.324 680.849 457.684C682.809 455.606 684.769 453.391 686.905 451.471C690.09 448.638 692.197 448.354 696.304 448.246C700.41 448.139 703.752 446.639 705.643 442.827C707.397 439.289 706.711 433.517 710.974 431.822C715.237 430.126 721.176 432.674 724.89 434.585C730.672 437.525 736.17 441.22 741.746 444.552C746.93 447.649 752.311 450.549 757.201 454.087C761.454 457.164 766.089 461.525 766.609 467.072C766.991 471.208 765.021 477.098 760.268 477.695C756.76 478.127 755.368 482.213 758.465 484.35C765.433 489.191 762.748 499.54 760.356 506.174C757.181 514.994 752.369 523.452 748.204 531.85C739.443 549.578 730.28 567.13 720.167 584.114C700.116 617.786 676.067 650.126 644.707 674.107C615.591 696.373 580.164 712.258 543.198 713.993C502.185 715.953 462.632 697.676 429.381 675.018C412.721 663.641 398.207 649.293 383.321 635.701C366.788 620.54 350.775 604.86 336.928 587.132C333.939 583.31 328.676 588.68 331.606 592.463C344.709 609.417 359.762 624.715 375.52 639.209C389.456 652.028 403.166 665.542 418.385 676.831C436.014 689.728 455.09 700.52 475.225 708.985C494.443 717.158 514.582 722.264 535.535 722.372C574.735 722.597 612.955 707.251 644.422 684.456C677.909 660.162 703.83 627.047 724.871 591.738C737.023 571.344 747.724 550.137 757.965 528.734C764.58 514.926 779.388 490.161 762.101 478.176L760.298 484.84C768.285 483.86 773.214 477.303 773.743 469.434C774.341 460.722 768.579 453.754 761.983 448.805C752.536 441.72 741.658 436.153 731.495 430.185C724.861 426.265 715.815 422.296 708.132 425.422C704.909 426.745 702.41 429.391 701.272 432.684C700.576 434.566 700.498 436.673 699.763 438.515C698.381 441.945 695.961 440.994 692.815 441.19C688.473 441.455 685.043 443.65 681.917 446.522C677.017 450.981 672.646 456.096 668.129 460.908C650.567 479.6 633.505 498.743 616.943 518.336C608.956 527.793 601.146 537.387 593.335 547.001C586.965 554.841 579.615 563.886 569.462 566.728C557.702 570.041 546.814 562.485 538.014 555.507C532.403 550.971 527.105 546.06 522.158 540.807C497.599 515.259 477.381 485.859 454.538 458.821C430.185 429.969 401.471 400.442 364.378 389.103C362.418 388.515 361.673 391.465 363.554 392.112L363.594 392.073Z" fill="black"/>
    <path d="M700.047 445.012C711.337 448.986 722.096 454.331 732.083 460.927C742.148 467.709 750.556 475.843 758.926 484.545C759.455 485.094 760.209 484.29 759.749 483.712C744.961 465.308 722.626 451.323 700.263 444.228C699.753 444.071 699.557 444.836 700.047 445.012Z" fill="black"/>
    <path d="M709.789 448.511C712.043 447.531 712.993 445.473 713.356 443.101C713.66 441.063 713.356 438.907 713.993 436.917C714.962 434.161 717.398 432.183 720.294 431.802C720.971 431.684 720.667 430.704 720.02 430.822C717.107 431.185 714.585 433.016 713.336 435.673C711.563 439.593 714.081 445.551 709.416 447.854C708.946 448.08 709.358 448.756 709.808 448.54L709.789 448.511Z" fill="black"/>
    <path d="M720.333 451.98C722.293 451.196 723.077 449.628 723.391 447.57C723.793 444.904 724.067 442.836 725.684 440.592C727.027 438.73 728.438 436.927 729.82 435.104C730.202 434.595 729.34 434.124 728.957 434.604C727.125 437.045 724.675 439.504 723.411 442.337C722.146 445.169 723.509 449.794 720.118 451.215C719.657 451.402 719.853 452.195 720.333 451.98Z" fill="black"/>
    <path d="M738.787 441.112C735.976 443.155 734.065 446.207 733.455 449.628C733.085 451.606 732.149 453.434 730.76 454.891C730.013 455.707 729.534 456.733 729.388 457.831C729.3 458.517 730.368 458.517 730.466 457.831C730.78 455.263 733.74 453.734 734.279 451.098C735.072 447.178 736.003 444.297 739.267 441.7C739.61 441.426 739.139 440.798 738.787 441.073V441.112Z" fill="black"/>
    <path d="M738.855 462.838C741.619 461.407 743.226 459.085 744.5 456.311C746.377 452.416 748.508 448.647 750.88 445.032C751.282 444.395 750.302 443.846 749.9 444.453C747.88 447.3 746.088 450.302 744.539 453.43C742.844 456.978 741.717 459.732 738.444 462.152C738.288 462.277 738.248 462.497 738.349 462.669C738.449 462.841 738.661 462.913 738.846 462.838H738.855Z" fill="black"/>
    <path d="M756.133 452.96C756.525 455.537 756.633 457.997 754.173 459.546C753.38 459.881 752.659 460.363 752.046 460.967C751.511 461.845 751.146 462.815 750.968 463.828C749.988 466.768 749.126 467.856 746.127 468.944C745.829 469.028 745.656 469.337 745.74 469.635C745.824 469.932 746.133 470.106 746.431 470.022L747.519 469.865C748.126 469.777 747.989 468.699 747.372 468.787L746.274 468.924L746.431 470.022C748.116 469.434 749.861 468.777 750.919 467.229C752.389 465.083 751.556 462.456 753.996 460.731C755.329 459.751 756.309 459.693 756.936 457.958C757.564 456.223 757.211 454.42 756.936 452.744C756.838 452.225 756.074 452.45 756.152 452.96H756.133Z" fill="black"/>
    <path d="M751.39 475.579C753.977 477.421 758.926 473.138 760.768 471.58C762.298 470.352 763.399 468.671 763.914 466.778C764.639 464.191 764.531 461.437 766.697 459.507C767.256 459.007 766.433 458.193 765.884 458.693C763.698 460.653 763.64 463.358 762.944 466.073C762.248 468.787 760.69 470.434 758.455 472.031C757.201 472.913 753.428 475.951 751.772 474.893C751.341 474.608 750.958 475.285 751.37 475.579H751.39Z" fill="black"/>
    <path d="M243.318 367.543C254.412 369.679 265.417 372.267 276.276 375.383C287.134 378.499 297.552 382.968 308.449 385.526C312.369 386.447 316.613 387.094 320.66 386.437C322.142 386.225 323.585 385.795 324.943 385.163C326.903 384.183 327.099 382.851 328.863 384.683C330.627 386.516 331.038 390.769 333.763 391.739C336.771 392.807 342.004 388.133 344.268 386.751C344.504 386.613 344.583 386.31 344.445 386.075C344.307 385.839 344.004 385.76 343.768 385.898C341.054 387.427 337.781 390.367 334.694 389.711C331.607 389.054 330.127 384.703 328.51 381.929C328.427 381.787 328.283 381.691 328.12 381.67C327.957 381.649 327.793 381.705 327.677 381.822C321.875 387.653 312.477 385.663 305.441 383.605C298.767 381.645 292.269 379.136 285.635 377.088C271.811 372.829 257.754 369.368 243.534 366.72C243.024 366.622 242.809 367.406 243.318 367.504V367.543Z" fill="black"/>
    <path d="M356.763 391.132C358.341 390.514 359.928 389.897 361.496 389.25C362.026 389.035 361.8 388.172 361.251 388.388C359.674 388.986 358.096 389.623 356.518 390.25C355.979 390.465 356.214 391.357 356.763 391.132Z" fill="black"/>
    <path d="M342.671 395.787C346.473 392.984 350.295 390.201 354.068 387.369C354.48 387.055 354.068 386.389 353.657 386.663C349.845 389.456 346.072 392.298 342.279 395.111C341.877 395.405 342.279 396.091 342.671 395.787Z" fill="black"/>
    <path d="M85.7542 702.605C82.0008 708.867 78.0906 715.522 77.0518 722.872C76.6806 725.4 76.7269 727.973 77.189 730.486C77.6594 733.015 78.904 735.582 78.953 738.16C79.002 740.737 77.973 742.57 76.65 744.637C73.2396 749.988 71.2796 754.437 70.6328 760.886C69.8292 768.922 69.5842 777.056 69.2804 785.121C68.0946 816.481 69.2804 847.577 74.7488 878.515C74.8762 879.28 75.9934 878.937 75.8856 878.202C71.799 847.9 69.4862 817.52 70.4466 786.924C70.6916 779.271 71.0444 771.617 71.5638 763.992C71.6764 760.17 72.2825 756.379 73.367 752.713C74.5038 749.371 76.6304 747.009 78.3454 744.01C81.8146 737.934 77.6986 732.662 77.7378 726.262C77.7378 717.785 82.2458 710.083 86.4206 702.997C86.5289 702.813 86.4674 702.576 86.2834 702.468C86.0994 702.36 85.8625 702.421 85.7542 702.605Z" fill="#DC3545"/>
    <path d="M133.166 734.828C131.911 738.421 129.989 741.746 127.502 744.628C127.296 744.837 127.296 745.173 127.502 745.382C132.735 750.978 129.276 758.25 126.002 763.846C123.337 768.149 121.267 772.794 119.848 777.654C116.908 788.493 117.251 800.008 117.31 811.131C117.388 823.773 117.813 836.401 118.584 849.017C119.211 859.092 119.564 869.784 124.934 878.653C125.048 878.847 125.257 878.966 125.482 878.964C125.707 878.963 125.915 878.842 126.026 878.646C126.137 878.45 126.136 878.21 126.022 878.016C119.387 865.893 120.005 850.811 119.387 837.365C118.741 823.214 118.231 808.945 118.848 794.755C119.133 788.012 119.877 781.182 122.063 774.753C124.023 768.971 127.855 764.247 130.089 758.622C131.432 755.222 131.98 751.253 130.51 747.783C129.256 744.843 128.952 745.451 130.354 742.629C131.73 740.184 132.92 737.638 133.911 735.014C134.068 734.534 133.333 734.338 133.166 734.808V734.828Z" fill="#DC3545"/>
    <path d="M179.276 746.774C179.07 769.314 179.354 791.785 179.815 814.286C180.275 836.787 180.158 859.366 181.971 881.779C181.971 882.103 182.234 882.367 182.559 882.367C182.883 882.367 183.147 882.103 183.147 881.779C183.245 859.307 181.745 836.757 181.245 814.286C180.746 791.815 180.471 769.275 180.06 746.774C180.06 746.557 179.884 746.382 179.668 746.382C179.451 746.382 179.276 746.557 179.276 746.774Z" fill="#DC3545"/>
    <path d="M239.134 764.208C242.25 766.727 240.114 770.784 238.605 773.42C237.68 774.789 236.991 776.302 236.566 777.899C236.057 780.388 236.929 782.622 237.968 784.847C239.31 787.699 240.467 790.227 240.339 793.49C240.261 795.686 239.741 797.832 239.761 800.047C239.761 804.339 240.996 808.573 241.78 812.787C245.935 834.974 244.984 856.661 241.858 878.878C241.75 879.652 242.838 880.015 243.054 879.211C248.013 857.279 247.229 833.455 242.975 811.483C241.888 805.887 241.015 800.86 241.564 795.147C241.986 790.727 240.937 788.091 239.114 784.2C237.154 780.006 237.811 777.232 239.977 773.42C240.824 772.11 241.422 770.655 241.741 769.128C242.244 767.017 241.419 764.812 239.653 763.551C239.271 763.267 238.761 763.914 239.134 764.218V764.208Z" fill="#DC3545"/>
    <path d="M284.155 772.783C286.029 777.282 287.425 781.966 288.32 786.758C289.192 791.285 288.633 796.754 290.466 801.066C292.034 804.75 295.474 807.612 297.6 810.973C300.438 815.69 302.754 820.701 304.509 825.918C307.498 834.219 310.497 842.578 312.673 851.144C315.015 860.375 315.613 869.577 316.338 879.025C316.376 879.318 316.626 879.537 316.921 879.537C317.217 879.537 317.466 879.318 317.504 879.025C317.896 860.738 312.153 843.343 306.077 826.35C304.699 822.328 303.063 818.4 301.177 814.59C298.982 810.297 296.062 806.906 293.259 803.065C289.868 798.41 290.554 791.903 289.447 786.405C288.436 781.598 286.905 776.915 284.88 772.44C284.704 772.028 283.978 772.332 284.155 772.744V772.783Z" fill="#DC3545"/>
    <path d="M336.673 769.098C344.456 776.09 347.906 786.709 345.718 796.94C345.668 797.144 345.713 797.361 345.84 797.528C345.968 797.696 346.165 797.797 346.375 797.802C354.166 798.645 356.93 808.288 359.38 814.364C362.313 821.629 365.119 828.937 367.798 836.287C373.07 850.693 377.794 865.285 382.263 879.966L383.409 879.485L381.714 876.32C381.361 875.663 380.391 876.242 380.734 876.908L382.331 880.103C382.655 880.75 383.674 880.299 383.478 879.623C376.49 855.27 368.474 830.554 358.057 807.426C356.626 804.251 354.891 800.958 352.177 798.714C351.393 798.077 348.139 797.116 347.718 796.568C347.022 795.656 347.718 793.363 347.786 792.177C348.197 783.087 344.323 774.33 337.32 768.52C336.889 768.167 336.271 768.755 336.693 769.147L336.673 769.098Z" fill="#DC3545"/>
    <path d="M224.953 418.395C206.676 492.278 188.821 567.875 151.267 634.799C146.289 643.619 140.487 652.037 135.509 660.887C131.363 668.295 128.521 676.449 132.294 684.583L133.49 681.643C126.992 682.564 125.287 692.149 131.03 695.255C131.604 695.591 132.314 695.596 132.892 695.266C133.47 694.937 133.829 694.324 133.833 693.659C133.837 692.994 133.486 692.377 132.912 692.041C130.158 690.218 131.598 685.906 134.548 685.494C135.94 685.298 136.214 683.583 135.744 682.554C131.451 673.323 138.39 663.572 143.202 656.016C148.141 648.261 152.809 640.352 157.206 632.29C165.599 616.769 173.124 600.793 179.746 584.437C193.603 550.529 203.913 515.278 212.978 479.812C218.132 459.644 222.631 439.318 227.188 419.003C227.511 417.543 225.296 416.916 224.934 418.386L224.953 418.395Z" fill="#DC3545"/>
    <path d="M128.58 704.889C131.854 705.396 135.204 705.059 138.311 703.909C139.919 703.321 139.164 700.714 137.596 701.351C134.845 702.488 131.849 702.9 128.894 702.547C127.6 702.4 127.286 704.644 128.58 704.84V704.889Z" fill="#DC3545"/>
    <path d="M521.344 403.323C532.347 405.147 542.744 409.609 551.646 416.327C555.644 419.267 559.486 422.384 563.749 425.01C566.375 426.657 570.031 429.606 573.255 428.538C574.166 428.234 573.774 426.774 572.853 427.088C569.06 428.352 561.926 422.139 559.015 420.061C554.968 417.17 551.048 414.093 546.814 411.486C539.093 406.736 530.446 403.689 521.452 402.549C521.011 402.49 520.903 403.254 521.344 403.323Z" fill="black"/>
    <path d="M529.243 404.489C531.409 402.098 531.889 399.158 533.261 396.336C535.223 392.456 538.857 389.692 543.12 388.839C543.816 388.682 543.512 387.653 542.826 387.78C539.272 388.437 536.087 390.389 533.888 393.259C531.429 396.493 531.213 400.785 528.685 403.941C528.381 404.323 528.89 404.862 529.233 404.489H529.243Z" fill="black"/>
    <path d="M540.474 408.135C541.46 406.063 542.566 404.051 543.787 402.108C545.227 399.825 547.481 395.718 550.745 396.532C551.029 396.608 551.321 396.439 551.396 396.154C551.472 395.87 551.303 395.579 551.019 395.503C548.442 394.689 546.442 396.581 544.963 398.511C542.854 401.353 541.103 404.444 539.749 407.714C539.543 408.194 540.239 408.625 540.474 408.135Z" fill="black"/>
    <path d="M548.736 411.937C552.156 407.292 555.87 402.96 559.604 398.56C560.035 398.05 559.339 397.315 558.849 397.815C554.821 402.03 551.211 406.624 548.069 411.535C547.785 411.966 548.461 412.339 548.765 411.937H548.736Z" fill="black"/>
    <path d="M558.389 419.424C561.854 415.512 564.738 411.123 566.954 406.39C567.209 405.832 566.405 405.332 566.111 405.9C563.785 410.487 561.008 414.83 557.82 418.866C557.507 419.248 558.036 419.846 558.379 419.424H558.389Z" fill="black"/>
    <path d="M569.266 425.755C572.441 421.78 574.968 417.328 576.754 412.564C576.959 412.006 576.019 411.584 575.774 412.153C573.805 416.737 571.417 421.13 568.639 425.275C568.384 425.647 568.972 426.108 569.257 425.755H569.266Z" fill="black"/>
    </svg>
    