<svg width="1000" height="1000" viewBox="0 0 1000 1000" fill="none" xmlns="http://www.w3.org/2000/svg">
<path fill-rule="evenodd" clip-rule="evenodd" d="M656.29 479.155C656.976 462.503 645.959 447.625 629.83 443.424C537.181 419.395 470.531 333.4 474.598 233.832C479.273 119.162 576.028 30.0016 690.688 34.6762C805.662 39.3998 895.293 137.4 889.668 252.285C884.954 351.05 811.895 430.586 718.168 446.992C701.666 449.809 689.365 463.754 688.63 480.478L684.828 573.725L652.488 572.402L656.29 479.155ZM688.679 84.155C601.329 80.5861 527.623 148.501 524.049 235.851C522.333 277.804 537.354 318.721 565.809 349.598C594.263 380.474 633.819 398.781 675.773 400.491C763.123 404.049 836.82 336.125 840.384 248.775C843.948 161.425 776.028 87.7239 688.679 84.155Z" fill="#5A1C1C"/>
<path d="M629.428 444.885C644.849 449.067 655.37 463.304 654.84 479.273C654.712 484.408 654.428 489.534 654.213 494.649L651.704 555.762L651.028 572.422C651.033 573.253 651.706 573.926 652.537 573.931L684.877 575.254C685.708 575.244 686.38 574.576 686.396 573.745L689.64 494.169C689.816 489.857 689.963 485.555 690.169 481.243C690.669 470.678 695.48 460.829 704.144 454.567C714.218 447.276 728.075 446.952 739.757 443.611C848.218 412.601 912.582 301.203 885.277 191.751C865.808 113.776 803.416 53.8326 724.725 37.4996C646.034 21.1666 564.939 51.3284 516.047 115.114C467.155 178.9 459.098 265.045 495.315 336.791C517.063 379.505 552.719 413.533 596.402 433.262C607.074 438.036 618.119 441.923 629.428 444.885C629.954 445.028 630.516 444.881 630.902 444.498C631.289 444.115 631.442 443.554 631.304 443.028C631.166 442.501 630.757 442.088 630.232 441.945C551.532 421.551 492.149 356.836 478.581 276.677C465.014 196.517 499.792 115.865 567.398 70.708C635.003 25.5513 722.826 24.3129 791.677 67.5455C875.141 119.786 910.056 223.726 875.056 315.76C857.869 360.55 825.707 398.01 784.033 421.776C763.051 433.703 740.727 440.935 717.168 445.708C699.244 449.334 687.895 464.573 687.131 482.379C685.945 510.133 684.867 537.887 683.74 565.63L683.407 573.765L684.916 572.245L652.576 570.922L654.095 572.442C655.33 541.16 657.398 509.8 657.868 478.44C658.041 461.401 646.679 446.398 630.232 441.945C629.707 441.801 629.145 441.949 628.758 442.332C628.371 442.715 628.218 443.275 628.356 443.802C628.495 444.328 628.903 444.741 629.428 444.885Z" fill="#5A1C1C"/>
<path d="M525.559 235.851C528.499 170.573 572.51 112.459 634.995 92.7709C697.715 72.9749 768.05 95.5051 807.554 148.092C846.93 200.512 849.243 274.032 813.061 328.755C776.742 383.684 707.995 410.399 644.099 394.415C581.585 378.803 533.673 324.335 526.46 260.263C525.562 252.158 525.271 243.999 525.588 235.851C525.666 233.891 522.648 233.891 522.56 235.851C520.12 302.04 559.545 364.368 620.844 389.897C682.927 415.749 756.554 398.923 801.35 348.845C845.999 298.914 854.633 224.13 822.342 165.389C790.159 106.853 723.205 74.1313 657.241 84.4213C591.905 94.6133 538.22 146.328 525.48 211.184C523.889 219.322 522.906 227.567 522.54 235.851C522.442 237.801 525.48 237.791 525.559 235.851Z" fill="#5A1C1C"/>
<path d="M629.027 446.345C643.786 450.35 653.845 463.989 653.311 479.273C653.184 484.408 652.89 489.534 652.684 494.649L650.185 555.762L649.509 572.422C649.535 574.083 650.876 575.424 652.537 575.45L684.877 576.773C686.539 576.747 687.879 575.406 687.905 573.745L691.198 494.12C691.365 489.808 691.522 485.506 691.718 481.194C692.054 471.19 696.922 461.882 704.948 455.9C714.855 448.668 728.673 448.403 740.228 445.12C838.567 417.013 902.564 322.396 892.049 220.661C881.533 118.926 799.537 39.3996 697.527 32.0006C595.518 24.6016 502.903 91.4627 477.817 190.616C452.73 289.769 502.404 392.63 595.658 434.634C606.446 439.463 617.613 443.397 629.047 446.394C632.82 447.374 634.427 441.553 630.654 440.514C552.424 420.354 493.352 356.093 479.834 276.446C466.316 196.799 500.878 116.646 568.076 71.8042C635.274 26.9621 722.553 25.8085 790.913 68.8588C873.758 120.754 908.382 223.961 873.596 315.319C856.526 359.735 824.611 396.875 783.269 420.434C762.395 432.302 740.198 439.465 716.766 444.209C698.146 447.972 686.386 463.897 685.622 482.34C684.436 510.094 683.358 537.848 682.221 565.591L681.888 573.725L684.916 570.697L652.576 569.374L655.605 572.402C656.8 541.16 658.907 509.8 659.387 478.44C659.541 460.725 647.729 445.133 630.634 440.485C626.881 439.456 625.274 445.296 629.027 446.345Z" fill="black"/>
<path d="M527.078 235.851C530.018 171.269 573.579 113.704 635.397 94.2115C697.451 74.6115 767.129 96.7889 806.24 148.837C845.352 200.884 847.665 273.669 811.758 327.971C775.851 382.273 707.76 408.742 644.501 392.955C582.693 377.52 535.123 323.669 527.94 260.263C527.05 252.158 526.762 243.998 527.078 235.851C527.215 231.931 521.198 231.931 521.021 235.851C518.62 302.765 558.516 365.622 620.442 391.357C683.005 417.357 757.28 400.383 802.418 349.913C847.557 299.443 856.318 223.973 823.645 164.624C791.109 105.452 723.44 72.5731 656.8 82.9611C590.993 93.2315 536.799 145.465 523.942 210.782C522.341 219.054 521.358 227.433 521.002 235.851C520.845 239.751 526.901 239.741 527.078 235.851Z" fill="black"/>
<path d="M659.52 800.033C643.593 799.382 631.21 785.944 631.861 770.018L638.777 600.776C639.428 584.849 652.866 572.466 668.792 573.117C684.718 573.768 697.101 587.206 696.451 603.132L689.535 772.374C688.884 788.3 675.446 800.684 659.52 800.033Z" fill="black"/>
<path d="M659.475 803.006C672.99 803.415 685.318 795.328 690.326 782.769C692.227 777.937 692.482 772.969 692.697 767.922L694.491 723.743L699.097 611.043C699.205 608.407 699.361 605.771 699.42 603.125C699.925 589.428 691.619 576.942 678.791 572.114C665.963 567.286 651.486 571.198 642.835 581.83C637.876 587.925 635.916 595.138 635.603 602.851L631.428 705.241L629.282 757.926C629.125 761.758 628.909 765.589 628.811 769.421C628.527 779.78 632.633 789.639 640.836 796.146C646.182 800.313 652.685 802.726 659.456 803.055C663.376 803.3 663.327 797.243 659.456 796.998C645.278 796.161 634.352 784.174 634.828 769.98C634.828 767.422 635.034 764.864 635.132 762.306L636.935 718.285L641.287 611.553C641.424 608.162 641.502 604.762 641.698 601.361C642.335 590.375 649.038 580.781 659.72 577.322C666.465 575.256 673.759 576.012 679.937 579.415C686.116 582.818 690.652 588.579 692.511 595.383C693.589 599.489 693.325 603.527 693.158 607.692L689.14 707.064L687.082 757.436C686.602 769.127 687.592 781.475 678.086 790.217C673.011 794.831 666.318 797.251 659.466 796.949C655.575 796.783 655.585 802.82 659.475 803.006Z" fill="black"/>
<path d="M827.565 369.856C854.152 339.065 871.322 300.502 875.056 259.91C878.643 220.916 868.46 181.196 847.41 148.239C835.875 130.178 821.107 113.155 802.183 102.62C799.939 101.366 797.44 104.394 799.39 106.236C812.698 118.859 825.85 131.648 836.434 146.749C846.996 161.858 855.142 178.518 860.581 196.132C871.881 232.813 870.518 272.572 858.317 308.89C851.101 330.401 840.063 350.433 825.732 368.024C824.694 369.288 826.467 371.13 827.565 369.856Z" fill="white"/>
<path d="M785.239 99.0528L784.082 96.789C783.696 96.2249 782.939 96.0554 782.349 96.4007C781.759 96.7461 781.536 97.4889 781.838 98.1022L783.102 100.297C783.446 100.887 784.203 101.087 784.793 100.743C785.383 100.4 785.583 99.6427 785.239 99.0528Z" fill="white"/>
<path d="M536.75 334.507C513.367 309.645 507.35 272.709 507.448 239.771C507.507 204.491 516.542 169.211 537.367 140.379C548.137 125.59 561.809 113.152 577.547 103.825C580.487 102.091 577.9 97.8276 574.931 99.3368C508.653 133.098 489.818 220.406 507.84 287.34C512.74 305.568 521.501 322.855 535.123 336.115C535.588 336.495 536.265 336.46 536.689 336.034C537.112 335.608 537.143 334.931 536.76 334.468L536.75 334.507Z" fill="white"/>
<path d="M604.047 88.4L605.262 86.1852C605.535 85.689 605.5 85.0807 605.173 84.6184C604.847 84.156 604.285 83.9207 603.726 84.0122C603.167 84.1037 602.71 84.506 602.547 85.0484L601.626 87.3808C601.483 88.0132 601.819 88.6563 602.42 88.8996C603.021 89.1429 603.71 88.9148 604.047 88.3608V88.4Z" fill="white"/>
<path d="M676.714 564.945C677.527 544.365 679.458 523.912 680.634 503.371C681.231 493.287 681.947 483.193 682.29 473.099C682.613 463.632 683.809 454.479 692.031 448.599C692.892 448.096 693.181 446.99 692.678 446.129C692.175 445.269 691.069 444.979 690.208 445.483C672.764 453.45 674.754 480.067 674.058 495.708C673.078 518.806 673.94 541.866 674.362 564.974C674.362 565.618 674.884 566.14 675.528 566.14C676.172 566.14 676.694 565.618 676.694 564.974L676.714 564.945Z" fill="white"/>
<path d="M685.22 788.874C684.475 779.623 670.726 777.506 663.513 776.761C655.046 775.899 640.101 775.723 635.602 784.729C634.76 786.405 636.945 788.404 638.346 786.846C643.354 781.289 653.115 780.897 660.093 780.966C665.914 781.054 681.398 781.71 682.936 789.129C683.1 789.679 683.639 790.027 684.208 789.952C684.776 789.876 685.205 789.398 685.22 788.825V788.874Z" fill="#5A1C1C"/>
<path d="M688.434 752.007C680.653 746.725 671.451 745.01 662.21 744.314C653.566 743.657 644.276 743.422 636.984 748.802C635.612 749.782 636.847 752.085 638.347 751.135C645.55 746.529 654.027 746.646 662.21 747.215C671.03 747.852 679.703 749.175 687.268 753.996C688.532 754.81 689.669 752.83 688.434 751.987V752.007Z" fill="#5A1C1C"/>
<path d="M681.712 712.062C668.208 708.43 653.895 709.224 640.875 714.326C639.356 714.933 639.983 717.413 641.561 716.825C654.174 711.993 667.96 711.114 681.084 714.306C681.692 714.448 682.304 714.085 682.472 713.484C682.64 712.883 682.305 712.256 681.712 712.062Z" fill="#5A1C1C"/>
<path d="M690.786 677.547C674.862 670.631 656.497 672.421 642.208 682.28C640.738 683.26 642.139 685.74 643.629 684.711C657.217 675.348 674.602 673.445 689.895 679.644C691.1 680.134 692.002 678.037 690.786 677.518V677.547Z" fill="#5A1C1C"/>
<path d="M689.659 639.454C674.469 635.593 657.868 633.702 644.844 644.178C643.276 645.432 645.5 647.637 647.059 646.383C659.083 636.71 674.998 638.484 689.042 641.698C689.644 641.823 690.24 641.459 690.403 640.866C690.566 640.273 690.24 639.655 689.659 639.454Z" fill="#5A1C1C"/>
<path d="M693.58 603.635C688.052 598.431 677.194 598.49 670.06 598.735C661.065 598.916 652.208 600.979 644.06 604.792C642.492 605.546 643.609 608.31 645.266 607.653C652.376 604.652 659.899 602.742 667.58 601.989C670.937 601.739 674.308 601.739 677.664 601.989C681.908 602.293 688.503 602.508 691.923 605.36C693.08 606.34 694.736 604.743 693.609 603.674L693.58 603.635Z" fill="#5A1C1C"/>
<path d="M478.773 457.145C483.805 441.916 490.167 427.159 497.785 413.045C499.853 409.213 502.117 405.313 505.518 402.853C508.918 400.393 513.779 399.776 516.925 402.559C520.845 395.797 530.233 393.739 536.133 398.423C542.874 387.941 552.989 380.073 564.808 376.119C566.333 375.483 568.021 375.346 569.629 375.727C572.236 376.599 573.549 379.95 573.285 382.9C573.02 385.85 571.491 388.496 569.972 390.975C563.409 401.744 555.906 411.91 547.55 421.355C550.764 417.114 554.45 413.25 558.536 409.84C560.231 408.419 562.377 407.018 564.416 407.802C565.807 408.341 566.689 409.762 567.356 411.212C574.314 425.677 568.943 444.395 558.428 456.194C547.912 467.994 533.32 474.246 519.012 479.489" fill="white"/>
<path d="M480.273 457.556C484.457 446.972 489.093 436.506 494.306 426.392C497.393 420.395 505.87 398.796 515.298 405.342C516.838 406.218 518.795 405.704 519.708 404.186C521.176 401.707 523.625 399.965 526.449 399.392C529.272 398.819 532.207 399.467 534.525 401.177C535.995 402.216 537.995 401.363 538.886 400.04C542.603 394.398 547.343 389.502 552.861 385.605C555.367 383.862 558.024 382.347 560.799 381.077C564.484 379.392 570.844 377.157 569.952 383.498C569.521 386.595 566.924 389.858 565.297 392.435C563.337 395.493 561.325 398.498 559.261 401.451C554.915 407.572 550.25 413.461 545.286 419.091L549.823 423.639C552.559 420.016 555.641 416.669 559.025 413.643C561.358 411.604 563.484 410.477 564.905 413.79C565.683 415.659 566.255 417.608 566.611 419.601C568.228 428.421 565.915 437.662 561.711 445.395C552.753 461.849 534.898 469.895 518.11 476.059C513.877 477.627 515.709 484.467 519.992 482.919C541.924 474.804 564.553 463.211 571.863 439.211C574.803 429.558 575.137 417.376 569.678 408.478C562.602 396.914 549.921 413.162 545.325 419.121C542.865 422.296 547.079 426.843 549.862 423.668C556.98 415.58 563.511 406.992 569.404 397.972C573.441 391.759 580.066 382.684 574.304 375.432C569.168 368.886 559.094 374.452 553.518 377.677C545.411 382.421 538.517 388.983 533.379 396.845L537.74 395.699C529.704 390.044 519.384 393.17 514.141 400.961L518.551 399.805C506.791 390.985 497.197 406.508 492.924 415.358C486.455 428.656 481.207 442.515 477.244 456.763C476.705 458.723 479.518 459.399 480.233 457.586L480.273 457.556Z" fill="black"/>
<path d="M297.718 562.72C338.045 560.574 375.471 539.926 406.655 515.524C422.852 502.783 437.933 488.685 451.735 473.384C462.29 461.741 472.472 439.446 489.573 437.192C499.481 435.889 508.781 441.975 516.288 448.57C526.421 457.459 535.77 469.072 535.888 482.556C535.995 493.091 530.468 502.764 525.108 511.839C493.532 565.308 461.104 619.815 413.868 660.123C401.226 670.903 387.202 680.781 371.091 684.848" fill="black"/>
<path d="M297.718 564.445C334.596 563.043 368.788 546.57 398.305 525.362C414.015 514.031 428.765 501.425 442.405 487.672C448.251 482.02 453.718 475.989 458.771 469.62C463.23 463.74 467.268 457.556 472.139 451.98C476.686 446.815 482.252 441.631 489.298 440.455C499.147 438.799 508.252 445.649 515.102 451.872C521.717 457.87 528.048 465.004 530.939 473.609C534.28 483.497 531.419 493.062 526.725 501.97C518.003 518.532 507.713 534.486 497.815 550.372C487.74 566.562 477.235 582.516 465.916 597.843C453.262 615.137 439.112 631.285 423.629 646.098C407.704 661.171 390.985 673.911 370.209 681.378C368.435 681.944 367.424 683.81 367.919 685.605C368.414 687.401 370.238 688.485 372.051 688.062C391.122 684.72 407.733 670.951 421.698 658.319C436.475 644.756 450.089 629.978 462.397 614.141C487.26 582.683 507.84 548.108 528.126 513.524C532.81 505.527 537.583 497.187 538.906 487.877C540.19 478.999 537.818 470.316 533.163 462.74C528.41 455.008 521.776 448.374 514.622 442.837C507.762 437.496 499.353 432.988 490.347 433.772C475.647 435.046 466.288 448.472 458.438 459.408C447.354 474.892 433.723 488.377 419.483 500.97C385.507 531.017 343.915 557.163 297.708 560.917C295.484 561.103 295.415 564.533 297.708 564.445H297.718Z" fill="black"/>
<path d="M276.913 532.506L264.555 583.604C264.404 584.612 263.988 585.562 263.349 586.357C262.468 587.121 261.366 587.584 260.204 587.68C238.575 591.6 222.042 588.072 202.756 577.508C196.337 573.99 189.928 570.178 184.91 564.837C182.852 562.641 180.99 559.839 181.412 556.859C181.77 555.314 182.436 553.857 183.372 552.577C193.469 536.263 201.203 518.601 206.343 500.117C206.877 497.914 207.598 495.759 208.499 493.679" fill="white"/>
<path d="M274.875 531.948C271.258 540.915 269.122 550.568 266.545 559.927C265.329 564.308 264.212 568.747 263.115 573.118C262.497 575.627 261.968 578.185 261.243 580.674C260.704 582.555 260.861 583.026 259.155 583.878C255.97 585.466 250.335 585.113 246.817 585.241C242.505 585.424 238.185 585.214 233.911 584.613C226.472 583.45 219.239 581.229 212.429 578.018C205.118 574.647 197.543 570.736 191.349 565.552C189.457 564.103 187.775 562.398 186.351 560.486C184.675 557.987 185.793 556.066 187.165 553.792C189.419 550.068 191.604 546.305 193.633 542.454C197.293 535.476 200.565 528.301 203.433 520.962C206.667 512.711 208.333 503.763 211.812 495.649C213.772 491.092 207.039 487.113 205.089 491.729C202.051 498.912 200.434 506.674 197.768 514.014C195.014 521.622 191.79 529.052 188.115 536.26C186.266 539.873 184.306 543.43 182.235 546.932C180.481 549.872 178.1 552.891 177.59 556.389C176.61 563.249 182.715 568.698 187.537 572.481C199.257 581.62 212.833 588.086 227.315 591.424C234.243 592.935 241.345 593.499 248.424 593.1C253.697 592.816 262.703 593.1 266.437 588.769C269.102 585.662 269.445 579.949 270.357 576.146C271.474 571.403 272.572 566.66 273.561 561.887C275.57 552.215 278.138 542.405 279.04 532.487C279.275 529.91 275.698 529.91 274.884 531.928L274.875 531.948Z" fill="black"/>
<path d="M274.943 375.903C292.975 374.433 304.265 390.603 306.852 406.646C309.184 421.11 307.469 436.202 313.712 449.864C315.113 452.921 317.063 455.283 318.896 458.056C321.503 461.976 316.818 464.26 315.368 467.7C312.947 473.452 315.544 480.293 316.348 486.153C317.418 493.125 317.747 500.191 317.328 507.233C316.946 512.554 316.093 519.502 311.791 523.226C307.018 527.352 299.629 528.528 293.563 529.057C287.348 529.707 281.09 529.828 274.855 529.42C271.915 529.165 271.337 533.85 274.159 534.555C286.389 537.632 300.452 537.583 311.967 531.723C324.913 525.128 325.335 508.399 324.531 495.679C324.306 492.062 323.894 488.476 323.375 484.899C322.826 481.057 321.238 476.627 321.503 472.756C321.787 468.523 326.462 466.651 327.226 462.476C327.892 458.811 325.874 455.616 323.806 452.794C313.026 438.094 316.662 419.356 313.094 402.51C309.253 384.36 293.779 369.259 274.365 372.306C272.336 372.63 272.797 376.079 274.855 375.913L274.943 375.903Z" fill="black"/>
<path d="M297.483 440.22C296.474 440.722 295.713 441.614 295.376 442.689C294.984 444.273 295.694 445.924 297.114 446.728C298.534 447.531 300.316 447.291 301.472 446.139C302.44 445.08 302.752 443.576 302.285 442.219C302.051 441.455 301.55 440.801 300.874 440.376C300.155 439.965 299.302 439.856 298.502 440.073C297.731 440.287 297.074 440.793 296.67 441.484C296.24 442.193 296.129 443.051 296.366 443.846C296.415 443.993 296.464 444.14 296.503 444.287L296.385 443.473C296.405 443.58 296.405 443.69 296.385 443.797L296.503 442.993V443.081L296.807 442.366L296.758 442.454L297.228 441.846C297.193 441.904 297.146 441.954 297.091 441.993L297.699 441.523L297.61 441.572L298.336 441.268C298.273 441.295 298.207 441.311 298.14 441.317L298.943 441.209H298.845L299.639 441.317H299.433L300.149 441.611C300.085 441.594 300.025 441.564 299.972 441.523L300.57 441.984C300.514 441.946 300.465 441.899 300.423 441.846L300.884 442.444C300.835 442.378 300.795 442.305 300.766 442.229L301.07 442.934C300.967 442.618 300.839 442.309 300.688 442.013L300.982 442.709C300.934 442.603 300.904 442.491 300.893 442.376L300.991 443.101C300.977 442.984 300.977 442.865 300.991 442.748L300.893 443.444C300.928 443.276 300.977 443.112 301.04 442.954C301.289 442.014 300.949 441.017 300.178 440.425C299.401 439.84 298.353 439.767 297.503 440.239L297.483 440.22Z" fill="black"/>
<path d="M304 419.767L293.71 417.298C290.349 416.484 288.986 421.845 292.299 422.403L302.785 424.197C305.637 424.677 306.92 420.473 304 419.767Z" fill="black"/>
<path d="M304.706 492.297C304.529 490.161 302.746 488.377 301.109 487.172C299.347 485.864 297.243 485.098 295.053 484.967C291.583 484.653 291.544 490.19 295.053 490.416C296.299 490.481 297.515 490.815 298.62 491.396C299.845 492.072 300.58 493.268 301.785 493.934C302.388 494.282 303.131 494.284 303.736 493.939C304.341 493.595 304.718 492.955 304.725 492.258L304.706 492.297Z" fill="black"/>
<path d="M264.32 437.221C279.876 434.686 295.523 432.867 311.262 431.762C311.878 431.645 312.515 431.746 313.065 432.047C313.557 432.497 313.862 433.116 313.918 433.781C314.783 438.146 314.856 442.631 314.133 447.021C313.873 449.402 313.005 451.676 311.615 453.626C310.391 455.072 308.852 456.219 307.117 456.978C301.947 459.393 296.037 459.688 290.653 457.801C289.484 457.449 288.416 456.824 287.536 455.978C286.876 455.191 286.376 454.282 286.066 453.303C285.397 451.477 284.923 449.584 284.655 447.658C284.469 446.257 284.351 444.718 283.459 443.65C281.784 441.582 278.559 442.131 275.962 442.719C271.084 443.798 266.091 444.275 261.096 444.14C260.826 443.099 260.826 442.006 261.096 440.965C261.406 439.903 262.402 439.191 263.507 439.24" fill="black"/>
<path d="M264.32 438.809C275.58 437.467 286.801 436.3 298.12 435.438C300.942 435.222 303.768 435.03 306.597 434.86C307.577 434.801 309.478 434.321 310.37 434.644C311.644 435.124 311.291 434.87 311.507 437.065C311.938 441.651 312.173 449.011 308.518 452.47C304.686 456.106 297.101 457.018 292.318 455.107C286.84 452.921 288.751 447.061 286.242 442.847C284.527 439.975 281.548 439.309 278.402 439.583C272.522 440.113 267.172 441.828 261.164 441.543L263.8 444.18L264.3 441.798C267.093 440.946 266.613 436.683 263.604 436.663C258.812 436.663 258.018 440.965 258.616 444.885C258.926 446.039 259.97 446.842 261.164 446.845C264.906 446.78 268.642 446.518 272.356 446.061C273.826 445.855 275.296 445.561 276.746 445.307C279.686 444.787 281.009 444.523 281.852 447.678C283.136 452.441 283.067 457.41 288.046 459.997C296.866 464.603 312.134 462.104 316.093 452.02C318.19 446.698 318.122 440.26 317.073 434.664C315.995 428.833 312.83 428.784 307.528 429.293C292.896 430.672 278.346 432.815 263.938 435.712C262.213 436.065 262.566 439.044 264.359 438.829L264.32 438.809Z" fill="black"/>
<path d="M292.838 451.911L305.264 435.673C306.538 434.026 303.657 432.282 302.432 434.017L290.741 450.677C289.82 451.98 291.907 453.117 292.838 451.911Z" fill="#DC3545"/>
<path d="M310.438 437.28C309.164 438.701 306.205 440.906 306.097 442.993C306.097 443.336 306.293 443.728 306.293 444.042C306.351 444.215 306.452 444.37 306.587 444.493L305.95 444.914C304.921 446.315 303.48 447.491 302.344 448.834C301.021 450.363 303.177 452.578 304.588 451.078C305.803 449.785 306.95 448.442 308.086 447.09C308.868 446.414 309.368 445.47 309.488 444.444C309.459 444.091 309.393 443.743 309.292 443.405C309.184 443.248 309.066 443.111 308.949 442.964C308.831 442.817 308.802 442.699 309.174 442.68C309.458 441.484 311.458 439.681 312.222 438.681C312.986 437.682 311.291 436.349 310.438 437.309V437.28Z" fill="#DC3545"/>
<path d="M307.46 455.224C308.087 455.224 308.596 454.715 308.596 454.087C308.596 453.459 308.087 452.95 307.46 452.95C306.832 452.95 306.323 453.459 306.323 454.087C306.323 454.715 306.832 455.224 307.46 455.224Z" fill="#DC3545"/>
<path d="M262.115 450.893C261.331 445.836 259.175 440.789 255.049 437.702C250.923 434.615 244.818 433.997 240.8 437.153C236.507 440.534 235.9 447.08 237.86 452.176C239.82 457.272 243.857 461.261 247.767 465.073C244.529 472.677 240.902 480.108 236.899 487.339C233.528 493.591 229.706 500.147 223.365 503.323C218.799 505.606 213.467 505.831 208.371 505.459C206.275 505.402 204.207 504.954 202.276 504.136C199.581 502.842 197.67 500.353 195.965 497.874C185.292 482.39 178.844 464.299 175.061 445.865C174.662 443.377 174.005 440.937 173.101 438.584C171.504 434.958 168.544 431.596 168.887 427.647C169.201 424.158 172.013 421.502 174.63 419.19C189.016 406.518 203.599 393.71 220.69 385.037C230.137 380.235 240.192 376.775 250.208 373.326L268.259 367.122C272.708 365.593 277.422 364.045 282.048 364.937C285.625 365.623 288.761 367.71 291.779 369.749C297.169 373.375 302.628 377.079 306.812 382.048C307.939 383.39 309.027 384.988 308.919 386.732C308.727 388.048 308.17 389.283 307.312 390.299C297.571 403.774 280.725 409.576 266.201 417.68C265.306 418.099 264.516 418.711 263.888 419.474C263.44 420.199 263.137 421.004 262.997 421.845C261.283 429.153 260.422 436.635 260.429 444.14" fill="#DC3545"/>
<path d="M262.556 450.765C261.272 441.269 252.276 429.45 241.496 435.614C230.716 441.778 237.468 455.616 243.661 462.172C245.876 464.524 246.386 465.357 245.278 468.718C244.528 470.645 243.654 472.521 242.662 474.334C240.859 478.048 238.948 481.713 236.997 485.359C233.264 492.346 229.246 500.128 221.464 503.205C217.262 504.682 212.777 505.182 208.352 504.665C202.247 504.165 198.944 500.96 195.681 496.061C191.179 489.221 187.377 481.945 184.332 474.344C178.913 461.006 177.619 446.286 171.288 433.487C169.75 430.371 169.083 427.117 171.122 424.001C172.288 422.425 173.647 421.003 175.169 419.767C178.197 417.043 181.284 414.387 184.371 411.731C190.702 406.283 197.17 400.951 203.971 396.149C217.495 386.594 232.254 380.362 247.836 374.981C255.784 372.237 263.702 369.19 271.768 366.798C277.285 365.162 282.156 365.083 287.311 367.916C290.547 369.797 293.663 371.879 296.64 374.148C298.564 375.526 300.415 377.001 302.187 378.568C304.774 380.901 306.107 382.175 306.705 385.703C307.401 389.495 306.381 390.338 303.912 393.121C302.633 394.552 301.265 395.901 299.815 397.159C293.935 402.265 287.075 405.979 280.215 409.497C276.678 411.3 273.11 413.045 269.602 414.887C267.25 416.112 264.163 417.21 262.82 419.64C261.076 422.786 260.929 427.362 260.459 430.861C259.892 435.275 259.604 439.72 259.596 444.169C259.596 444.613 259.956 444.973 260.4 444.973C260.844 444.973 261.203 444.613 261.203 444.169C261.252 436.251 260.449 422.433 267.809 417.709C273.15 414.25 279.363 411.888 284.988 408.889C290.26 406.202 295.245 402.984 299.864 399.285C303.098 396.61 309.321 391.563 309.664 386.888C310.007 382.214 304 377.863 300.903 375.373C296.248 371.63 290.858 367.367 285.272 365.132C279.147 362.682 273.042 364.662 267.083 366.7C259.42 369.317 251.746 371.934 244.102 374.609C230.118 379.509 216.839 385.32 204.608 393.778C198.817 397.776 193.28 402.147 187.87 406.655C182.206 411.398 175.483 416.151 170.749 421.855C167.643 425.589 167.447 429.401 169.515 433.703C171.034 436.878 172.778 439.701 173.621 443.17C174.532 446.923 175.208 450.735 176.159 454.479C179.667 468.336 184.881 481.919 192.456 494.042C195.798 499.402 199.15 504.91 205.814 506.007C212.115 507.046 219.485 506.713 225.09 503.342C230.921 499.833 234.449 493.61 237.605 487.809C241.525 480.478 245.337 473.04 248.571 465.347C248.656 465.057 248.573 464.744 248.356 464.534C242.28 458.585 233.195 448.628 239.741 439.73C243.338 434.83 250.012 435.212 254.549 438.525C258.616 441.465 260.576 446.296 261.684 451.059C261.821 451.647 262.664 451.382 262.566 450.814L262.556 450.765Z" fill="#DC3545"/>
<path d="M263.947 450.892C264.016 444.15 261.625 437.633 255.637 433.918C250.649 430.822 243.877 430.606 238.977 434.075C234.273 437.427 232.558 443.581 233.371 449.108C234.508 456.733 240.084 462.299 245.357 467.444L244.494 464.181C241.878 470.453 238.83 476.539 235.674 482.546C232.921 487.74 230.255 493.463 225.874 497.53C221.063 502.009 214.683 502.822 208.332 502.303C200.61 501.676 197.17 494.375 193.721 488.299C187.65 477.302 183.078 465.542 180.128 453.332C178.795 448.06 178.168 442.327 176.061 437.309C174.983 434.781 172.856 432.341 172.308 429.626C171.465 425.51 175.522 422.766 178.188 420.375C187.547 412.094 197.004 403.852 207.343 396.786C218.309 389.279 230.137 383.85 242.623 379.391C248.385 377.333 254.196 375.373 259.988 373.384C266.319 371.198 274.561 366.886 281.382 368.209C286.86 369.278 292.289 373.893 296.689 377.216C298.884 378.872 301.658 380.891 303.324 383.096C306.391 387.221 304.157 389.309 301.187 392.425C292.887 401.128 281.509 406.028 270.984 411.398C266.29 413.799 261.311 415.514 259.763 420.963C257.675 428.313 257.195 436.545 257.146 444.14C257.146 448.285 263.555 448.285 263.585 444.14C263.588 439.907 263.856 435.678 264.388 431.478C264.967 427.117 265.074 422.276 269.004 419.718C274.335 416.249 280.558 413.897 286.184 410.898C291.633 408.101 296.785 404.759 301.56 400.922C305.352 397.766 311.183 392.788 311.928 387.564C312.732 381.959 307.028 377.235 303.196 374.07C298.208 369.954 292.514 365.544 286.536 362.976C280.078 360.193 273.649 361.781 267.27 363.956C259.567 366.57 251.88 369.209 244.21 371.875C230.03 376.775 216.457 382.576 204.03 391.083C198.052 395.169 192.329 399.648 186.753 404.283C181.177 408.919 175.061 413.623 169.985 418.905C165.947 423.109 164.37 428.038 166.712 433.536C168.094 436.78 170.103 439.573 170.994 443.032C171.886 446.492 172.464 449.971 173.297 453.411C176.597 467.597 182.043 481.196 189.448 493.738C193.044 499.686 197.023 506.566 204.363 508.104C211.223 509.535 219.406 509.084 225.62 505.743C231.833 502.401 235.684 496.276 238.977 490.337C243.274 482.686 247.16 474.812 250.619 466.748C251.339 465.422 251.13 463.784 250.1 462.681C245.131 457.781 236.38 448.844 241.809 441.288C244.475 437.574 249.551 438.162 252.952 440.475C256.529 442.895 258.783 447.433 260.312 451.353C261.037 453.195 263.898 453.068 263.918 450.872L263.947 450.892Z" fill="black"/>
<path d="M249.12 450.804C249.607 451.206 250.065 451.642 250.492 452.107C250.644 452.316 250.745 452.558 250.786 452.813C250.786 452.872 250.786 453.166 250.786 452.96C250.786 452.96 250.737 453.587 250.786 453.332C250.563 454.129 250.824 454.982 251.455 455.517C252.085 456.052 252.97 456.171 253.719 455.821C254.469 455.472 254.946 454.718 254.941 453.891C255.06 452.543 254.691 451.198 253.902 450.098C253.089 448.952 251.786 447.776 250.276 447.972C249.617 447.995 249.031 448.4 248.778 449.01C248.525 449.619 248.651 450.321 249.1 450.804H249.12Z" fill="black"/>
<path d="M163.86 421.874C148.18 420.649 131.255 419.689 117.8 427.901C114.184 430.116 110.871 433.036 109.039 436.858C107.206 440.68 107.079 445.492 109.529 448.961C112.145 452.705 116.957 454.165 121.465 454.841C136.596 457.203 152.051 453.95 166.702 449.481C212.429 435.535 253.618 409.967 293.671 383.821C302.491 378.049 311.409 372.188 318.955 364.799C324.237 359.634 328.911 353.598 331.146 346.561C333.38 339.525 332.841 331.44 328.5 325.413C321.228 315.309 305.568 314.731 294.69 320.787C283.812 326.844 276.619 337.682 269.817 348.1C262.105 336.457 250.668 327.784 238.693 320.66C232.391 316.887 225.698 313.408 218.416 312.457C211.135 311.507 203.089 313.516 198.395 319.16C195.151 323.08 193.838 328.186 191.731 332.812C189.624 337.437 186.047 342.053 181 342.72C176.443 343.317 172.18 340.524 167.613 339.78C158.293 338.31 149.562 346.169 146.661 355.146C143.76 364.123 145.23 373.854 146.729 383.164C148.807 396.133 150.888 409.092 152.972 422.041C153.276 423.932 153.629 425.961 154.932 427.362C156.235 428.764 158.734 429.273 159.979 427.813" fill="black"/>
<path d="M164.223 420.375C149.817 418.18 134.627 416.955 120.887 422.913C110.783 427.304 98.6412 439.76 107.314 451.147C111.068 456.047 117.408 457.517 123.239 458.233C131.737 459.153 140.324 458.806 148.719 457.204C165.458 454.264 181.765 448.246 197.376 441.671C228.138 428.695 256.823 411.408 284.831 393.366C298.365 384.654 312.987 376.256 323.933 364.251C332.753 354.539 339.163 340.603 333.41 327.657C327.834 315.094 312.83 311.566 300.521 315.045C285.037 319.406 275.423 333.802 267.113 346.522H272.552C262.889 332.42 248.14 321.199 232.833 313.8C219.436 307.342 201.188 306.284 193.182 321.317C189.448 328.324 187.429 341.75 176.62 339.074C168.927 337.173 162.9 334.89 155.442 339.202C139.419 348.433 141.154 368.406 143.682 384.007C145.446 395.114 147.226 406.221 149.023 417.327C149.66 421.247 149.699 426.51 152.678 429.617C155 432.128 158.816 432.546 161.626 430.597C164.928 428.166 161.714 422.58 158.382 425.04C156.579 426.363 155.158 415.181 155.079 414.701C154.426 410.696 153.773 406.688 153.119 402.676C151.845 394.719 150.473 386.771 149.288 378.804C148.102 370.836 147.073 361.732 150.483 354.108C153.178 348.081 159.215 342.348 166.242 342.818C172.69 343.249 177.855 347.591 184.47 345.023C189.722 342.994 192.976 337.928 195.112 332.989C198.052 326.207 200.012 319.327 207.647 316.583C214.712 314.055 222.347 315.858 228.893 318.896C243.534 325.658 257.979 336.301 267.113 349.707C267.695 350.651 268.724 351.226 269.833 351.226C270.941 351.226 271.97 350.651 272.552 349.707C279.128 339.633 286.272 328.392 297.473 322.914C306.734 318.367 320.66 318.543 326.638 328.236C334.018 340.221 325.335 354.166 316.701 362.634C306.832 372.316 294.68 379.49 283.126 386.938C260.292 401.638 237.066 415.936 212.566 427.823C200.659 433.654 188.417 438.775 175.904 443.16C162.488 447.805 148.464 452.049 134.186 452.5C127.992 452.696 117.104 453.195 112.528 447.845C106.569 440.896 115.066 432.919 120.691 429.715C133.588 422.374 149.493 423.403 163.811 423.433C165.497 423.433 165.997 420.659 164.223 420.385V420.375Z" fill="black"/>
<path d="M158.872 418.924C184.43 414.024 209.528 403.578 230.343 387.839C240.791 380.014 250.342 371.058 258.822 361.134C262.066 357.302 268.004 351.814 268.877 346.708C269.592 342.484 266.319 338.28 262.017 340.769C258.89 342.582 260.605 346.649 263.712 347.032L264.427 347.11L261.331 345.336C262.203 346.679 253.187 356.293 252.06 357.606C248.571 361.663 244.912 365.563 241.084 369.307C233.431 376.74 225.156 383.504 216.349 389.524C198.682 401.803 178.931 410.768 158.058 415.984C156.098 416.465 156.941 419.356 158.881 418.924H158.872Z" fill="#DC3545"/>
<path d="M163.027 565.728C164.987 554.429 174.542 509.79 186.998 508.947C215.104 507.065 250.757 511.789 276.736 521.804C296.768 529.517 309.635 545.324 299.561 566.296C316.025 569.668 350.746 570.912 366.955 575.116C375.971 577.468 385.085 580.016 392.857 584.818C418.101 600.371 421.002 633.044 418.631 660.827C416.314 688.015 411.428 714.921 404.038 741.187C393.827 777.506 398.609 816.285 410.771 852.094C422.933 887.903 448.795 911.982 467.944 945.135C471.09 950.574 462.064 954.886 455.351 955.504C318.7 968.096 174.17 968.234 37.146 959.031C51.846 936.658 57.628 910.502 63.214 884.914C80.462 805.897 82.5788 724.939 84.921 644.402C85.607 621.049 82.2848 593.854 99.8464 575.45C116.693 557.81 144.289 560.681 166.486 561.112C167.829 561.112 178.246 555.497 179.079 556.428C183.117 560.759 158.96 585.348 158.245 584.279" fill="black"/>
<path d="M165.036 566.277C166.95 557.07 169.414 547.985 172.415 539.073C174.164 533.437 176.262 527.915 178.697 522.54C180.265 519.277 182.372 514.484 185.763 512.671C187.831 511.574 190.732 511.946 193.015 511.868C197.209 511.744 201.4 511.744 205.588 511.868C214.358 512.121 223.106 512.86 231.794 514.083C247.787 516.337 264.898 519.639 279.569 526.666C286.429 529.939 293.014 534.584 296.797 541.366C300.952 548.775 300.051 557.124 296.601 564.611C295.739 566.473 296.287 569.198 298.649 569.668C320.405 574.01 343.023 573.098 364.623 578.253C378 581.458 391.622 585.809 401.01 596.393C408.723 605.076 412.564 616.434 414.358 627.753C416.318 639.964 415.759 652.449 414.583 664.699C412.976 681.394 410.378 697.979 406.802 714.365C403.441 729.771 398.345 744.824 396.208 760.474C394.194 775.814 394.194 791.351 396.208 806.691C399.922 835.944 408.948 864.364 425.03 889.168C432.547 900.751 441.014 911.708 449.06 922.86C453.205 928.632 457.262 934.463 461.065 940.5C462.397 942.607 466.161 946.547 464.259 948.84C462.358 951.133 458.046 951.947 455.322 952.348C439.426 954.7 422.982 955.2 406.998 956.327C390.743 957.464 374.468 958.444 358.174 959.267C325.044 960.907 291.884 961.887 258.695 962.207C192.858 962.782 127.048 961.057 61.2637 957.033C53.2212 956.464 45.1819 955.903 37.1459 955.347L40.3799 960.894C50.4151 945.371 56.6185 927.937 61.2147 910.13C66.1147 891.049 70.0347 871.636 73.2981 852.192C79.9817 812.11 83.4313 771.578 85.5187 731.015C86.5771 710.435 87.2925 689.777 87.9197 669.148C88.4489 651.724 88.1647 634.211 89.0467 616.806C89.8601 600.764 93.7409 583.545 107.549 573.588C120.132 564.523 136.655 564.121 151.561 564.376C157.951 564.484 164.948 565.934 170.936 563.337C172.631 562.593 177.286 561.456 178.413 560.123L179.001 559.956L176.139 558.535C173.797 558.339 177.286 556.948 175.826 558.124C175.493 558.398 175.169 559.711 174.963 560.084C172.464 564.984 168.427 569.345 164.713 573.373C163.017 575.225 161.283 577.038 159.47 578.763C158.76 579.307 158.104 579.918 157.51 580.585C157.225 581.007 156.461 580.997 157.431 580.811L160.234 581.173H160.165C155.951 579.213 152.247 585.476 156.49 587.465C159.92 589.082 162.645 585.877 164.909 583.712C168.839 579.922 172.509 575.872 175.894 571.589C178.619 568.139 181.912 564.2 182.96 559.829C183.94 555.742 181.598 551.989 177.08 552.969C174.571 553.488 172.092 554.929 169.779 555.909C167.546 557.056 165.04 557.564 162.537 557.379C154.432 557.144 146.308 556.811 138.204 557.252C122.22 558.124 105.971 562.377 95.3089 575.117C84.3133 588.259 81.9417 605.389 81.5889 621.961C81.0891 642.139 80.8735 662.308 80.2071 682.486C78.7077 727.517 76.5419 772.577 70.9951 817.314C67.8591 842.533 63.4949 867.529 57.9023 892.304C52.8357 914.932 46.7205 937.482 34.0687 957.18C32.4615 959.679 34.6077 962.56 37.2537 962.727C105.625 967.208 174.098 969.224 242.672 968.773C311.245 968.322 379.711 965.193 448.07 959.385C455.332 958.787 475.079 957.425 471.747 945.204C470.953 942.313 468.699 939.491 467.141 936.953C465.128 933.686 463.047 930.445 460.898 927.231C456.86 921.194 452.597 915.304 448.354 909.405C439.867 897.645 431.322 885.885 424.334 873.145C416.808 859.425 411.888 844.666 408.213 829.505C404.166 813.302 402.216 796.647 402.412 779.947C402.725 763.032 406.655 747.46 410.781 731.192C414.954 714.565 418.141 697.705 420.326 680.702C422.139 666.855 423.638 652.802 422.894 638.807C421.629 614.944 413.094 590.483 390.26 579.341C367.426 568.198 340.936 567.914 316.172 565.219C310.958 564.66 305.735 564.033 300.59 563.014L302.638 568.061C309.145 553.851 307.028 538.926 294.896 528.498C281.901 517.326 263.124 513.161 246.739 509.967C227.736 506.262 207.94 504.371 188.585 505.684C177.913 506.409 173.474 518.14 170.171 526.842C165.536 539.053 162.929 552.322 161.136 565.199C160.773 567.777 164.595 568.992 165.144 566.307L165.036 566.277Z" fill="black"/>
<path d="M602.341 619.138C607.486 604.027 614.64 587.955 628.919 580.83C631.066 579.614 633.509 579.017 635.975 579.105C640.179 579.517 643.59 583.349 644.148 587.533C644.707 591.718 642.757 595.991 639.689 598.891L669.266 583.496C672.127 582.006 675.489 580.487 678.448 581.771C681.829 583.231 682.829 587.857 681.516 591.296C680.202 594.736 677.253 597.265 674.401 599.607C675.537 596.891 678.239 595.165 681.181 595.274C684.122 595.383 686.689 597.304 687.621 600.097C688.836 603.742 686.915 607.731 684.387 610.622C681.859 613.513 678.654 615.836 676.547 619.05C678.37 617.59 680.291 616.11 682.574 615.62C684.857 615.13 687.611 616.09 688.454 618.276C688.797 619.487 688.797 620.769 688.454 621.98C684.759 639.493 668.335 651.439 651.724 658.103C637.926 663.638 623.274 666.738 608.417 667.266" fill="white"/>
<path d="M603.88 619.56C608.084 609.437 612.494 598.902 620.099 590.827C623.558 587.162 628.615 582.712 633.819 581.919C637.245 581.441 640.466 583.669 641.228 587.044C642.159 590.758 640.199 594.296 637.69 596.844C635.367 599.225 638.297 602.832 641.169 601.352L665.061 589.073C668.129 587.495 676.576 581.468 678.664 586.642C680.437 591.013 675.038 594.962 672.166 597.324L677.194 601.195C678.732 598.441 682.633 597.344 684.328 600.617C685.69 603.234 683.642 606.33 682.054 608.241C679.399 611.436 676.174 613.945 673.646 617.316C671.118 620.687 676.223 623.559 678.967 621.432C680.526 620.217 684.22 617.042 684.847 620.972C685.083 622.461 683.515 625.48 682.887 626.803C681.276 630.361 679.117 633.645 676.488 636.534C671.403 642 665.404 646.536 658.76 649.94C651.296 653.799 643.401 656.759 635.24 658.76C625.959 661.161 616.62 661.769 607.202 663.161C602.184 663.905 603.811 671.285 608.339 671.579C621.383 672.412 635.671 668.737 647.852 664.376C658.299 660.632 668.481 655.615 676.802 648.147C684.328 641.395 690.894 632.016 692.158 621.756C692.658 617.698 691.041 613.916 686.964 612.524C682.005 610.829 677.831 613.72 674.116 616.679L679.438 620.795C684.23 614.151 695.461 607.075 689.924 597.363C685.68 589.925 675.488 590.944 671.608 598.02C669.804 601.323 673.911 604.184 676.635 601.94C681.006 598.275 685.455 593.845 685.151 587.701C684.965 583.163 681.947 579.047 677.311 578.4C671.167 577.538 664.64 582.556 659.505 585.26L638.209 596.491L641.688 600.999C646.5 595.962 648.989 588.396 644.952 582.095C640.689 575.441 633.28 575.549 626.89 578.93C612.122 586.77 604.987 603.498 600.783 618.796C600.234 620.825 603.086 621.462 603.841 619.639L603.88 619.56Z" fill="black"/>
<path d="M301.06 565.778C313.234 563.592 325.514 562.045 337.849 561.142C351.971 560.094 366.7 560.005 379.617 565.817C392.21 571.481 401.745 582.173 410.477 592.865C433.522 621.113 453.751 651.546 470.874 683.73C473.119 687.954 476.382 692.854 481.155 692.55C482.789 692.33 484.362 691.783 485.78 690.943C523.583 671.708 559.574 649.102 593.316 623.402C596.069 621.304 599.049 619.09 602.508 618.943C606.212 618.796 615.718 621.883 618.472 624.411C635.073 639.444 640.836 657.731 634.828 679.35C628.821 700.969 606.487 725.527 591.052 741.756C563.288 770.95 529.831 796.087 491.092 807.005C452.352 817.922 407.664 812.885 376.53 787.267C355.685 770.137 342.475 745.676 329.794 721.862" fill="black"/>
<path d="M301.55 567.473C317.171 565.043 333.145 563.171 348.972 563.171C364.084 563.171 378.274 566.189 390.132 575.97C401.245 585.113 409.918 597.295 418.552 608.712C427.699 620.877 436.382 633.375 444.601 646.206C452.627 658.809 460.006 671.775 467.141 684.907C469.532 689.317 472.58 694.403 477.715 695.941C483.977 697.803 490.563 692.805 495.806 690.061C522.854 675.77 548.954 659.75 573.941 642.1C580.115 637.729 586.227 633.264 592.277 628.704C595.05 626.606 597.931 623.804 601.352 622.824C603.841 622.147 606.31 622.961 608.731 623.706C619.746 627.077 627.694 638.406 631.193 649.058C639.846 675.214 622.284 700.146 606.252 719.167C572.363 759.396 528.557 797.567 475.01 806.387C449.403 810.601 421.914 807.73 398.57 796.048C373.433 783.455 357.028 761.356 343.455 737.415C340.123 731.535 336.908 725.547 333.655 719.608C330.881 714.561 323.326 719.03 325.952 724.107C339.045 749.42 353.578 775.498 376.628 793.118C398.364 809.729 426.01 817.05 453.136 816.638C511.231 815.844 560.476 780.378 598.568 739.453C616.277 720.412 636.73 698.078 640.356 671.265C643.384 648.823 631.075 620.893 607.183 615.895C601.695 614.739 597.275 616.091 592.747 619.354C586.191 624.058 579.831 629.017 573.245 633.682C559.917 643.149 546.266 652.142 532.291 660.661C518.316 669.181 504.07 677.194 489.553 684.701C486.27 686.386 481.841 689.954 478.313 687.553C475.657 685.73 474.059 681.349 472.589 678.605C468.767 671.51 464.749 664.523 460.555 657.623C444.444 630.909 426.333 604.302 404.989 581.448C395.356 571.129 384.037 562.701 370.013 559.692C354.95 556.478 339.153 558.291 324.051 560.221C316.211 561.201 308.371 562.534 300.639 564.063C298.385 564.514 299.374 567.806 301.57 567.463L301.55 567.473Z" fill="black"/>
<path d="M334.115 746.823C351.288 765.744 370.273 782.937 390.799 798.155C392.71 799.586 394.562 796.362 392.67 794.951C372.461 779.829 353.433 763.19 335.752 745.176C334.694 744.108 333.116 745.715 334.115 746.823Z" fill="#DC3545"/>
<path d="M185.616 553.048C215.416 550.936 245.282 556.102 272.64 568.101C274.375 568.865 275.874 566.297 274.13 565.543C246.266 553.489 215.886 548.403 185.616 550.725C184.136 550.833 184.117 553.156 185.616 553.048Z" fill="#DC3545"/>
<path d="M183.568 580.527C171.151 662.181 180.324 744.657 183.195 826.644C183.597 838.11 183.872 849.586 183.96 861.052C183.999 867.108 183.999 873.158 183.96 879.202C183.911 883.004 185.547 896.156 180.951 897.763C178.825 898.508 179.716 901.908 181.931 901.183C188.723 898.929 187.39 889.59 187.488 883.974C187.664 873.155 187.641 862.329 187.419 851.497C187.017 829.81 185.988 808.142 184.842 786.484C182.519 742.942 179.677 699.362 180.471 655.732C180.788 630.789 182.614 605.887 185.939 581.164C186.155 579.674 183.881 579.008 183.646 580.527H183.568Z" fill="#DC3545"/>
<path d="M490.514 706.124L484.399 693.668C483.624 692.09 481.184 693.482 482.017 695.059L488.505 707.29C489.21 708.623 491.17 707.456 490.514 706.124Z" fill="#DC3545"/>
<path d="M635.632 665.62C635.73 672.755 636.063 680.085 631.398 686.004C630.203 687.514 632.231 689.679 633.564 688.17C639.032 682.026 638.876 673.323 637.954 665.63C637.788 664.19 635.612 664.092 635.632 665.63V665.62Z" fill="#DC3545"/>
<path d="M307.068 566.327C333.743 561.77 362.692 559.947 386.634 574.902C409.585 589.239 418.974 617.042 437.104 636.22C438.956 638.18 441.808 635.701 440.691 633.457C437.114 626.312 432.135 619.795 427.598 613.249C423.198 606.908 418.846 600.509 414.378 594.237C406.979 583.82 399.07 574.686 387.467 568.855C362.3 556.184 333.204 558.839 306.431 564.033C304.921 564.318 305.578 566.572 307.068 566.327Z" fill="#DC3545"/>
<path d="M760.856 206.412C736.033 190.212 705.29 184.852 676.302 190.82C649.489 196.386 625.528 212.125 609.064 233.94C599.701 246.277 593.025 260.438 589.464 275.511C589.081 276.977 589.707 278.52 591.003 279.304C619.766 294.22 651.586 304.392 684.338 300.864C713.885 297.669 742.227 283.861 759.034 258.724C767.735 245.473 772.733 230.135 773.508 214.301C773.52 213.436 773.062 212.634 772.313 212.203L767.511 209.714C764.571 208.166 761.925 212.831 764.904 214.173L769.863 216.398L768.657 214.301C768.657 241.682 750.625 266.642 727.772 280.421C702.429 295.719 671.314 298.355 642.786 292.181C625.825 288.395 609.518 282.121 594.394 273.561L595.942 277.354C602.538 252.719 617.169 230.991 637.514 215.614C659.152 199.434 686.024 192.525 712.846 194.897C729.143 196.398 744.936 201.342 759.181 209.401C759.706 209.705 760.354 209.706 760.88 209.404C761.406 209.101 761.731 208.541 761.733 207.934C761.734 207.327 761.411 206.765 760.886 206.461L760.856 206.412Z" fill="black"/>
<path d="M681.711 213.526C671.333 212.742 661.131 219.357 656.388 228.618C647.117 246.65 656.878 270.406 677.546 274.061C701.253 278.255 723.832 250.257 712.826 228.168C708.684 220.056 700.771 214.543 691.727 213.468" fill="black"/>
<path d="M681.711 211.694C667.011 210.636 654.271 221.229 650.841 235.214C647.901 247.444 651.821 261.184 661.357 269.514C682.966 288.428 715.678 270.171 718.51 243.681C719.358 235.744 717.016 227.795 712 221.586C706.983 215.376 699.704 211.416 691.766 210.577C688.66 210.253 687.915 215.536 691.021 216.065C706.78 218.74 716.198 233.509 711.347 248.797C707.358 261.36 694.834 271.915 681.27 271.337C667.707 270.759 657.339 259.244 656.065 246.014C654.605 230.804 665.512 215.085 681.711 215.32C684.093 215.32 684.044 211.821 681.711 211.655V211.694Z" fill="black"/>
<path d="M452.333 113.968C431.517 100.003 404.391 97.8963 381.459 107.922C359.848 117.448 343.927 136.523 338.417 159.489C338.042 160.957 338.671 162.496 339.966 163.282C364.378 175.63 392.102 182.95 418.915 173.797C443.199 165.516 459.193 145.211 461.153 119.613C461.165 118.751 460.707 117.951 459.957 117.526L456.88 115.84C453.891 114.243 451.294 119.005 454.273 120.299L457.556 121.71L456.351 119.613C456.566 143.456 435.859 162.625 414.269 168.829C390.387 175.689 364.574 169.515 343.406 157.48L344.944 161.273C350.648 141.055 364.544 123.484 383.566 114.233C404.626 104.041 430.312 105.903 450.667 116.849C451.192 117.156 451.841 117.159 452.368 116.857C452.896 116.555 453.223 115.995 453.226 115.387C453.229 114.779 452.907 114.216 452.382 113.909L452.333 113.968Z" fill="black"/>
<path d="M400.099 119.143C393.239 118.633 386.604 122.975 383.439 129.051C377.353 140.889 383.753 156.491 397.316 158.872C412.878 161.626 427.696 143.251 420.503 128.747C417.787 123.418 412.593 119.795 406.655 119.084" fill="black"/>
<path d="M400.099 117.31C387.016 116.409 377.167 128.09 378.186 140.732C379.117 152.159 388.201 161.832 399.873 162.233C411.545 162.635 422.482 152.894 424.863 141.653C427.47 129.335 419.287 117.565 406.694 116.281C403.578 115.968 402.872 121.181 405.949 121.769C415.24 123.631 421.394 131.746 418.787 141.242C416.602 149.229 408.987 156.05 400.5 156.04C379.607 156.04 378.94 121.348 400.099 120.966C402.48 120.966 402.431 117.457 400.099 117.3V117.31Z" fill="black"/>
<path d="M444.366 266.858C410.614 244.484 363.31 263.712 354.108 302.971C353.819 304.07 354.29 305.228 355.264 305.813C374.707 315.613 396.777 321.493 418.111 314.064C437.221 307.44 449.716 291.436 451.304 271.278C451.304 270.632 450.961 270.034 450.402 269.71L447.913 268.377C445.679 267.181 443.729 270.748 445.953 271.719C449.471 273.247 446.767 279.745 445.669 282.665C443.878 287.321 441.296 291.631 438.035 295.405C431.81 302.569 423.639 307.771 414.515 310.38C395.395 316.005 374.766 311.056 357.783 301.462L358.949 304.313C363.496 288.251 374.482 274.218 389.642 266.917C406.479 258.822 426.804 260.311 443.062 269.053C443.663 269.356 444.396 269.139 444.735 268.558C445.075 267.978 444.904 267.233 444.346 266.858H444.366Z" fill="#DC3545"/>
<path d="M402.98 269.523C392.915 268.935 385.34 277.481 385.683 287.32C386.026 296.287 392.925 304.255 402.039 304.96C411.153 305.666 419.846 298.482 422.257 289.809C423.657 285.11 422.89 280.031 420.166 275.953C417.441 271.876 413.042 269.225 408.164 268.72C405.822 268.445 405.312 272.356 407.606 272.836C425.246 276.55 418.307 301.609 402.294 300.276C386.281 298.943 386.477 272.64 402.98 272.277C403.696 272.217 404.246 271.618 404.246 270.9C404.246 270.182 403.696 269.584 402.98 269.523Z" fill="#DC3545"/>
<path d="M955.7 45.2802C921.949 22.897 874.644 42.1246 865.442 81.3834C865.156 82.485 865.626 83.6442 866.599 84.2352C886.042 94.0352 908.121 99.9152 929.446 92.4868C948.605 85.8032 961.09 69.7802 962.678 49.651C962.688 48.9999 962.342 48.3951 961.776 48.0732L959.287 46.7502C957.053 45.5546 955.102 49.1218 957.327 50.092C960.845 51.6208 958.14 58.1084 957.053 61.0288C955.259 65.6827 952.676 69.9925 949.418 73.7688C943.193 80.929 935.022 86.1276 925.898 88.7334C906.769 94.3684 886.15 89.4194 869.166 79.8252L870.323 82.6672C874.88 66.6148 885.865 52.5714 901.016 45.2802C917.853 37.1756 938.178 38.6652 954.436 47.4068C955.002 47.5996 955.625 47.3699 955.93 46.8562C956.236 46.3424 956.14 45.685 955.7 45.2802Z" fill="#DC3545"/>
<path d="M914.305 47.8964C904.24 47.3084 896.665 55.854 897.008 65.6834C897.351 74.6504 904.26 82.6178 913.364 83.3234C922.468 84.029 931.171 76.8554 933.581 68.1824C934.974 63.4952 934.21 58.4312 931.497 54.3635C928.783 50.2958 924.401 47.6458 919.538 47.132C917.206 46.8576 916.686 50.758 918.989 51.2382C936.629 54.9524 929.681 80.011 913.668 78.6782C897.655 77.3454 897.851 51.0814 914.305 50.6796C915.063 50.6796 915.677 50.0653 915.677 49.3076C915.677 48.5498 915.063 47.9356 914.305 47.9356V47.8964Z" fill="#DC3545"/>
<path d="M956.455 386.035C935.64 372.061 908.513 369.954 885.581 379.979C864.217 389.328 847.773 408.801 842.54 431.547C842.161 433.014 842.791 434.556 844.088 435.339C868.5 447.697 896.224 455.008 923.037 445.864C947.321 437.574 963.325 417.278 965.285 391.68C965.292 390.815 964.831 390.012 964.079 389.583L960.953 387.907C958.013 386.3 955.377 391.073 958.356 392.356L961.629 393.777L960.424 391.68C960.639 415.514 939.942 434.692 918.352 440.896C894.46 447.756 868.647 441.582 847.479 429.538L849.027 433.34C854.731 413.113 868.627 395.541 887.639 386.3C908.699 376.098 934.385 377.96 954.75 388.917C955.561 389.388 956.601 389.111 957.072 388.299C957.543 387.487 957.267 386.448 956.455 385.977V386.035Z" fill="black"/>
<path d="M904.22 391.22C897.36 390.701 890.726 395.042 887.56 401.118C881.475 412.956 887.884 428.558 901.447 430.949C917.009 433.693 931.827 415.318 924.624 400.824C921.916 395.488 916.719 391.862 910.777 391.161" fill="black"/>
<path d="M904.22 389.368C891.137 388.466 881.288 400.148 882.317 412.79C883.239 424.216 892.323 433.899 903.995 434.291C915.667 434.683 926.604 424.951 928.985 413.711C931.602 401.402 923.409 389.622 910.816 388.348C907.699 388.025 907.004 393.248 910.071 393.827C919.371 395.689 925.516 403.813 922.909 413.309C920.724 421.286 913.109 428.107 904.622 428.097C883.729 428.097 883.062 393.415 904.22 393.033C906.602 392.984 906.563 389.524 904.22 389.358V389.368Z" fill="black"/>
<path d="M236.743 149.876C219.838 164.84 211.743 186.969 209.038 208.94C206.715 227.893 208.519 255.48 229.099 264.242C238.516 268.25 247.581 263.644 253.501 256.078C256.935 251.627 259.541 246.595 261.194 241.221C262.624 236.674 264.731 229.657 262.909 225.002C259.145 215.389 248.699 225.296 245.817 229.902C240.408 238.615 239.438 249.316 240.917 259.302C242.436 269.749 246.591 285.508 258.381 288.497C267.632 290.849 276.707 280.862 269.769 272.748C268.446 271.2 266.26 272.268 265.653 273.836C262.158 282.768 261.964 292.654 265.104 301.717C266.084 304.608 270.69 303.373 269.71 300.453C266.877 292.211 267.124 283.222 270.406 275.149L266.29 276.237C267.975 278.197 267.162 280.892 265.496 282.479C263.408 284.439 260.027 284.155 257.587 282.93C252.962 280.617 250.619 275.306 248.914 270.71C246.276 263.859 245.014 256.556 245.2 249.218C245.484 241.956 247.64 232.842 253.354 227.805C255.911 225.551 257.871 225.688 258.802 229.158C259.332 231.118 258.352 233.969 257.92 236.018C257.001 240.479 255.408 244.775 253.197 248.758C248.963 256.323 241.496 263.987 232.029 261.096C223.934 258.626 218.172 250.61 215.271 243.034C209.891 228.942 211.184 212.556 214.173 198.072C217.78 180.599 225.424 164.135 238.497 151.747C239.692 150.611 237.919 148.876 236.703 149.944L236.743 149.876Z" fill="#DC3545"/>
<path d="M72.72 318.24L95.26 329.568C96.9652 330.421 98.4646 327.834 96.7496 327.011L74.0332 316.005C72.5436 315.28 71.2304 317.485 72.72 318.24Z" fill="#DC3545"/>
<path d="M97.3181 276.874L112.998 305.117C113.919 306.783 116.497 305.284 115.556 303.618L99.6015 275.58C99.2194 274.981 98.4328 274.791 97.8194 275.149C97.206 275.507 96.9847 276.286 97.3181 276.913V276.874Z" fill="#DC3545"/>
<path d="M133.029 254.892C134.602 266.977 137.592 278.835 141.937 290.221C142.623 291.985 145.495 291.201 144.799 289.428C140.384 278.198 137.305 266.488 135.626 254.54C135.43 253.079 132.843 253.413 133.029 254.892Z" fill="#DC3545"/>
<path d="M180.069 254.892C180.784 263.081 180.088 271.332 178.011 279.285C177.897 280.052 178.371 280.784 179.118 280.993C179.865 281.202 180.65 280.822 180.951 280.108C183.24 271.912 183.994 263.363 183.176 254.892C182.989 252.932 179.873 252.932 180.049 254.892H180.069Z" fill="#DC3545"/>
<path d="M72.7201 362.173C76.3829 363.965 80.3053 365.169 84.3429 365.74C84.9337 365.869 85.5466 365.655 85.9291 365.187C86.3115 364.718 86.3989 364.075 86.1551 363.522C85.9114 362.969 85.3777 362.599 84.7741 362.565C81.137 362.082 77.5984 361.031 74.2881 359.449C72.4849 358.596 70.8973 361.272 72.7103 362.154L72.7201 362.173Z" fill="#DC3545"/>
</svg>
